<?xml version="1.0" encoding="UTF-8"?><svg id="Layer_2" xmlns="http://www.w3.org/2000/svg" viewBox="0 0 1000 400.44"><defs><style>.cls-1{fill:none;}.cls-2{fill:#90f;}.cls-3{fill:#d0e7f9;}.cls-4{fill:#1385e2;}.cls-5{fill:#0c548f;}.cls-6{fill:#71b6ee;}</style></defs><g id="Asset_2"><rect class="cls-6" x="850" y="250" width="200" height="100" transform="translate(1250 -650) rotate(90)"/><rect class="cls-1" x="200.67" y="200.25" width="99.86" height="99.86" transform="translate(500.78 -.42) rotate(90)"/><path class="cls-2" d="M300,300c0-55.23-44.77-100-100-100v100s100,0,100,0Z"/><path class="cls-5" d="M500,200c55.23,0,100-44.77,100-100h-100v100Z"/><path class="cls-4" d="M600,400c55.23,0,100-44.77,100-100h-100v100Z"/><path class="cls-5" d="M100,0C44.77,0,0,44.77,0,100H100S100,0,100,0Z"/><path class="cls-2" d="M100,200c0-55.23-44.77-100-100-100v100H100Z"/><path class="cls-4" d="M900,200c0-55.23-44.77-100-100-100v100h100Z"/><path class="cls-2" d="M0,300c55.23,0,100-44.77,100-100H0s0,100,0,100Z"/><path class="cls-2" d="M1000,100C1000,44.77,955.23,0,900,0V100h100Z"/><path class="cls-2" d="M900,200c55.23,0,100-44.77,100-100h-100s0,100,0,100Z"/><path class="cls-3" d="M400,0c0,55.23,44.77,100,100,100V0s-100,0-100,0Z"/><path class="cls-6" d="M800,300c0,55.23,44.77,100,100,100v-100s-100,0-100,0Z"/><circle class="cls-2" cx="550" cy="250" r="50"/><circle class="cls-6" cx="750" cy="150" r="50"/><circle class="cls-6" cx="50" cy="350.44" r="50"/><circle class="cls-6" cx="350" cy="50" r="50"/><circle class="cls-3" cx="750" cy="350" r="50"/><path class="cls-6" d="M500,200c-55.23,0-100,44.77-100,100h100v-100Z"/><path class="cls-4" d="M600,400c0-55.23-44.77-100-100-100v100h100Z"/><path class="cls-5" d="M800,300c0-55.23-44.77-100-100-100v100h100Z"/><path class="cls-5" d="M300.45,300c-55.23,0-100,44.77-100,100h100v-100Z"/><path class="cls-4" d="M400,300c0-55.23-44.77-100-100-100v100h100Z"/><path class="cls-5" d="M600,100C600,44.77,555.23,0,500,0V100h100Z"/><path class="cls-4" d="M700,0c-55.23,0-100,44.77-100,100h100s0-100,0-100Z"/><path class="cls-6" d="M300,300c0,55.23,44.77,100,100,100v-100s-100,0-100,0Z"/><path class="cls-3" d="M500,400c-55.23,0-100-44.77-100-100h100s0,100,0,100Z"/><path class="cls-6" d="M900,200c-55.23,0-100,44.77-100,100h100s0-100,0-100Z"/><rect class="cls-4" x="100" y="0" width="200" height="100"/><path class="cls-4" d="M200,200c55.23,0,100-44.77,100-100h-100s0,100,0,100Z"/><path class="cls-4" d="M100,100c0,55.23,44.77,100,100,100V100s-100,0-100,0Z"/><path class="cls-3" d="M450,100c-.09,0-.18,0-.27,0h0s-99.5,0-99.5,0h0c-.08,0-.16,0-.23,0-27.61,0-50,22.39-50,50s22.39,50,50,50c.08,0,.16,0,.23,0h0s99.5,0,99.5,0h0c.09,0,.18,0,.27,0,27.61,0,50-22.39,50-50s-22.39-50-50-50Z"/><path class="cls-3" d="M850,0c-.09,0-.18,0-.27,0h0S750.23,0,750.23,0h0c-.08,0-.16,0-.23,0C722.39,0,700,22.39,700,50s22.39,50,50,50c.08,0,.16,0,.23,0h0s99.5,0,99.5,0h0c.09,0,.18,0,.27,0,27.61,0,50-22.39,50-50S877.61,0,850,0Z"/><path class="cls-3" d="M200.22,350.22c0-.09,0-.18,0-.27h0s0-99.5,0-99.5h0c0-.08,0-.16,0-.23,0-27.61-22.39-50-50-50-27.61,0-50,22.39-50,50,0,.08,0,.16,0,.23h0s0,99.5,0,99.5h0c0,.09,0,.18,0,.27,0,27.61,22.39,50,50,50,27.61,0,50-22.39,50-50Z"/><path class="cls-3" d="M700,250c0-.09,0-.18,0-.27h0s0-99.5,0-99.5h0c0-.08,0-.16,0-.23,0-27.61-22.39-50-50-50-27.61,0-50,22.39-50,50,0,.08,0,.16,0,.23h0s0,99.5,0,99.5h0c0,.09,0,.18,0,.27,0,27.61,22.39,50,50,50,27.61,0,50-22.39,50-50Z"/></g></svg>