<?xml version="1.0" encoding="UTF-8"?><svg id="Layer_2" xmlns="http://www.w3.org/2000/svg" viewBox="0 0 600 300"><defs><style>.cls-1{fill:none;}.cls-1,.cls-2,.cls-3,.cls-4,.cls-5,.cls-6{stroke-width:0px;}.cls-2{fill:#49007a;}.cls-3{fill:#d699ff;}.cls-4{fill:#7e00d3;}.cls-5{fill:#90f;}.cls-6{fill:#ebccff;}</style></defs><g id="Layer_1-2"><rect class="cls-2" x="200" y="0" width="100" height="100" transform="translate(300 -200) rotate(90)"/><rect class="cls-3" x="0" y="0" width="100" height="100" transform="translate(100 0) rotate(90)"/><path class="cls-6" d="m100,0c0,55.23-44.77,100-100,100V0s100,0,100,0Z"/><rect class="cls-3" x="300" y="100" width="100" height="100" transform="translate(500 -200) rotate(90)"/><rect class="cls-5" x="100" y="0" width="100" height="100" transform="translate(200 -100) rotate(90)"/><rect class="cls-1" x="200" y="0" width="100" height="100" transform="translate(300 -200) rotate(90)"/><path class="cls-5" d="m200,100c55.23,0,100-44.77,100-100h-100s0,100,0,100Z"/><rect class="cls-6" x="500" y="100" width="100" height="100" transform="translate(400 700) rotate(-90)"/><rect class="cls-3" x="300" y="0" width="100" height="100" transform="translate(300 400) rotate(-90)"/><path class="cls-2" d="m400,100C400,44.77,355.23,0,300,0v100h100Z"/><rect class="cls-3" x="200" y="100" width="100" height="100"/><path class="cls-2" d="m200,200c55.23,0,100-44.77,100-100h-100s0,100,0,100Z"/><path class="cls-5" d="m400,100c-55.23,0-100,44.77-100,100h100v-100Z"/><rect class="cls-3" y="200" width="100" height="100" transform="translate(100 500) rotate(180)"/><path class="cls-2" d="m0,200c0,55.23,44.77,100,100,100v-100H0Z"/><rect class="cls-4" x="300" y="200" width="100" height="100" transform="translate(600 -100) rotate(90)"/><rect class="cls-5" x="400" y="0" width="100" height="100" transform="translate(500 -400) rotate(90)"/><path class="cls-3" d="m400,100C455.23,100,500,55.23,500,0h-100v100Z"/><rect class="cls-2" x="400" y="100" width="100" height="100" transform="translate(900 300) rotate(180)"/><rect class="cls-4" x="200" y="200" width="100" height="100" transform="translate(500 0) rotate(90)"/><rect class="cls-5" x="500" y="200" width="100" height="100"/><path class="cls-3" d="m200,200c0,55.23,44.77,100,100,100v-100s-100,0-100,0Z"/><path class="cls-5" d="m500,200c0-55.23,44.77-100,100-100v100s-100,0-100,0Z"/><circle class="cls-2" cx="350" cy="250" r="50"/><circle class="cls-6" cx="150" cy="50" r="50"/><rect class="cls-4" x="400" y="200" width="100" height="100" transform="translate(200 700) rotate(-90)"/><path class="cls-5" d="m500,200c-55.23,0-100,44.77-100,100h100v-100Z"/><path class="cls-2" d="m600,200c-55.23,0-100,44.77-100,100h100v-100Z"/><rect class="cls-3" x="100" y="200" width="100" height="100" transform="translate(300 500) rotate(-180)"/><path class="cls-4" d="m100,200c0,55.23,44.77,100,100,100v-100s-100,0-100,0Z"/><rect class="cls-2" x="500" y="0" width="100" height="100"/><path class="cls-6" d="m600,100C600,44.77,555.23,0,500,0v100h100Z"/><rect class="cls-4" y="100" width="100" height="100"/><rect class="cls-4" x="100" y="100" width="100" height="100"/><path class="cls-6" d="m200,100c-55.23,0-100,44.77-100,100h100v-100Z"/><path class="cls-6" d="m100,200c0-55.23-44.77-100-100-100v100s100,0,100,0Z"/><path class="cls-5" d="m400,200c55.23,0,100-44.77,100-100h-100s0,100,0,100Z"/></g></svg>