<?xml version="1.0" encoding="utf-8"?>
<!-- Generator: Adobe Illustrator 27.7.0, SVG Export Plug-In . SVG Version: 6.00 Build 0)  -->
<svg version="1.1" id="Layer_1" xmlns="http://www.w3.org/2000/svg" xmlns:xlink="http://www.w3.org/1999/xlink" x="0px" y="0px"
	 viewBox="0 0 1000 400" style="enable-background:new 0 0 1000 400;" xml:space="preserve">
<style type="text/css">
	.st0{fill:none;}
	.st1{fill:#9900FF;}
	.st2{fill:#0C548F;}
	.st3{fill:#1385E2;}
	.st4{fill:#D0E7F9;}
	.st5{fill:#71B6EE;}
</style>
<rect x="200.67" y="200.25" transform="matrix(-2.875642e-07 1 -1 -2.875642e-07 500.7768 -0.4155)" class="st0" width="99.86" height="99.86"/>
<path class="st1" d="M300,300c0-55.23-44.77-100-100-100l0,100L300,300z"/>
<path class="st2" d="M600,100c0,55.23-44.77,100-100,100V0C555.23,0,600,44.77,600,100z"/>
<path class="st3" d="M600,400c55.23,0,100-44.77,100-100H600V400z"/>
<path class="st2" d="M100,0C44.77,0,0,44.77,0,100l100,0L100,0z"/>
<g>
	<path class="st3" d="M900,200c0-55.23-44.77-100-100-100v100H900z"/>
</g>
<g>
	<path class="st1" d="M100,200c0,55.23-44.77,100-100,100V100C55.23,100,100,144.77,100,200z"/>
</g>
<g>
	<path class="st1" d="M1000,100c0,55.23-44.77,100-100,100V0C955.23,0,1000,44.77,1000,100z"/>
</g>
<path class="st4" d="M400,0c0,55.23,44.77,100,100,100l0-100L400,0z"/>
<path class="st5" d="M1000,200v200H900c-55.23,0-100-44.77-100-100c0-55.23,44.77-100,100-100H1000z"/>
<circle class="st1" cx="550" cy="250" r="50"/>
<circle class="st5" cx="750" cy="150" r="50"/>
<circle class="st5" cx="50" cy="350.44" r="50"/>
<circle class="st5" cx="350" cy="50" r="50"/>
<circle class="st4" cx="750" cy="350" r="50"/>
<path class="st5" d="M500,200c-55.23,0-100,44.77-100,100h100V200z"/>
<path class="st3" d="M600,400c0-55.23-44.77-100-100-100v100H600z"/>
<path class="st2" d="M800,300c0-55.23-44.77-100-100-100v100H800z"/>
<path class="st2" d="M300.45,300c-55.23,0-100,44.77-100,100h100V300z"/>
<path class="st3" d="M400,300c0-55.23-44.77-100-100-100v100H400z"/>
<path class="st3" d="M700,0c-55.23,0-100,44.77-100,100l100,0L700,0z"/>
<path class="st5" d="M300,300c0,55.23,44.77,100,100,100l0-100L300,300z"/>
<path class="st4" d="M500,400c-55.23,0-100-44.77-100-100l100,0L500,400z"/>
<path class="st3" d="M300,0v100c0,55.23-44.77,100-100,100s-100-44.77-100-100V0H300z"/>
<path class="st4" d="M450,100c-0.09,0-0.18,0.01-0.27,0.01V100h-99.5v0.01c-0.08,0-0.16-0.01-0.23-0.01c-27.61,0-50,22.39-50,50
	c0,27.61,22.39,50,50,50c0.08,0,0.16-0.01,0.23-0.01V200h99.5v-0.01c0.09,0,0.18,0.01,0.27,0.01c27.61,0,50-22.39,50-50
	C500,122.39,477.61,100,450,100z"/>
<path class="st4" d="M850,0c-0.09,0-0.18,0.01-0.27,0.01V0h-99.5v0.01C750.16,0.01,750.08,0,750,0c-27.61,0-50,22.39-50,50
	c0,27.61,22.39,50,50,50c0.08,0,0.16-0.01,0.23-0.01V100h99.5v-0.01c0.09,0,0.18,0.01,0.27,0.01c27.61,0,50-22.39,50-50
	C900,22.39,877.61,0,850,0z"/>
<path class="st4" d="M200.22,350.22c0-0.09-0.01-0.18-0.01-0.27h0.01l0-99.5h-0.01c0-0.08,0.01-0.16,0.01-0.23
	c0-27.61-22.39-50-50-50c-27.61,0-50,22.39-50,50c0,0.08,0.01,0.16,0.01,0.23h-0.01l0,99.5h0.01c0,0.09-0.01,0.18-0.01,0.27
	c0,27.61,22.39,50,50,50C177.84,400.22,200.22,377.84,200.22,350.22z"/>
<path class="st4" d="M700,250c0-0.09-0.01-0.18-0.01-0.27H700l0-99.5h-0.01c0-0.08,0.01-0.16,0.01-0.23c0-27.61-22.39-50-50-50
	c-27.61,0-50,22.39-50,50c0,0.08,0.01,0.16,0.01,0.23H600l0,99.5h0.01c0,0.09-0.01,0.18-0.01,0.27c0,27.61,22.39,50,50,50
	C677.61,300,700,277.61,700,250z"/>
</svg>
