<?xml version="1.0" encoding="utf-8"?>
<!-- Generator: Adobe Illustrator 27.7.0, SVG Export Plug-In . SVG Version: 6.00 Build 0)  -->
<svg version="1.1" id="Layer_1" xmlns="http://www.w3.org/2000/svg" xmlns:xlink="http://www.w3.org/1999/xlink" x="0px" y="0px"
	 viewBox="0 0 1000 400" style="enable-background:new 0 0 1000 400;" xml:space="preserve">
<style type="text/css">
	.st0{fill:#05BC71;}
	.st1{fill:none;}
	.st2{fill:#9900FF;}
	.st3{fill:#04975A;}
	.st4{fill:#69D7AA;}
	.st5{fill:#CDF2E3;}
</style>
<path class="st0" d="M600,142.53C600,142.53,600,142.53,600,142.53c31.74,0,57.47,25.73,57.47,57.47
	c0,31.74-25.73,57.47-57.47,57.47c0,0,0,0,0,0V300c0,0,0,0,0,0c55.23,0,100-44.77,100-100c0-55.23-44.77-100-100-100c0,0,0,0,0,0
	L600,142.53z"/>
<path class="st0" d="M200,42.53L200,42.53c31.74,0,57.47,25.73,57.47,57.47c0,31.74-25.73,57.47-57.47,57.47c0,0,0,0,0,0l0,42.53h0
	c55.23,0,100-44.77,100-100C300,44.77,255.23,0,200,0c0,0,0,0,0,0L200,42.53z"/>
<path class="st0" d="M700,142.53C700,142.53,700,142.53,700,142.53c31.74,0,57.47,25.73,57.47,57.47
	c0,31.74-25.73,57.47-57.47,57.47c0,0,0,0,0,0V300c0,0,0,0,0,0c55.23,0,100-44.77,100-100c0-55.23-44.77-100-100-100c0,0,0,0,0,0
	L700,142.53z"/>
<path class="st0" d="M800,142.53L800,142.53c31.74,0,57.47,25.73,57.47,57.47c0,31.74-25.73,57.47-57.47,57.47c0,0,0,0,0,0V300
	c0,0,0,0,0,0c55.23,0,100-44.77,100-100c0-55.23-44.77-100-100-100c0,0,0,0,0,0L800,142.53z"/>
<rect x="499.82" y="200.76" transform="matrix(-2.875644e-07 1 -1 -2.875644e-07 800.5795 -299.0561)" class="st1" width="100" height="100"/>
<path class="st2" d="M500,200c0,55.23,44.77,100,100,100l0-100L500,200z"/>
<path class="st3" d="M600,100c-55.23,0-100,44.77-100,100l100,0V100z"/>
<path class="st3" d="M200,0c-55.23,0-100,44.77-100,100l100,0L200,0z"/>
<g>
	<path class="st4" d="M300,200c55.23,0,100-44.77,100-100l-100,0L300,200z"/>
</g>
<g>
	<path class="st2" d="M100,0C44.77,0,0,44.77,0,100l100,0L100,0z"/>
</g>
<path class="st5" d="M400,100c0,55.23,44.77,100,100,100l0-100L400,100z"/>
<circle class="st2" cx="650" cy="50" r="50"/>
<path class="st2" d="M400,0c-55.23,0-100,44.77-100,100h100V0z"/>
<path class="st3" d="M600,100C600,44.77,555.23,0,500,0v100H600z"/>
<path class="st4" d="M0,300c55.23,0,100-44.77,100-100H0V300z"/>
<path class="st5" d="M900,300c55.23,0,100-44.77,100-100H900V300z"/>
<path class="st5" d="M100,200c0,55.23,44.77,100,100,100l0-100L100,200z"/>
<path class="st5" d="M300,400H200c-55.23,0-100-44.77-100-100h100C255.22,300,300,344.77,300,400z"/>
<path class="st0" d="M1000,200c0-55.23-44.77-100-100-100l0,100L1000,200z"/>
<path class="st5" d="M700,100c55.23,0,100-44.77,100-100H700V100z"/>
<path class="st5" d="M700,100c55.23,0,100-44.77,100-100H700V100z"/>
<path class="st4" d="M800,100c55.23,0,100-44.77,100-100H800V100z"/>
<path class="st0" d="M0,200c55.23,0,100-44.77,100-100L0,100L0,200z"/>
<circle class="st2" cx="950" cy="50" r="50"/>
<path class="st4" d="M200,157.46c-0.11,0-0.22,0.01-0.33,0.01c-31.64,0-57.28-25.73-57.28-57.47c0,0,0,0,0,0L100,100l0,0
	c0,55.23,44.62,100,99.67,100c0.11,0,0.22,0,0.33,0V157.46z"/>
<path class="st0" d="M442.54,100.33c0-0.11-0.01-0.22-0.01-0.33c0-31.74,25.73-57.47,57.47-57.47c0,0,0,0,0,0L500,0l0,0
	c-55.23,0-100,44.77-100,100c0,0.11,0,0.22,0,0.33H442.54z"/>
<path class="st4" d="M700,300c0,55.23,44.77,100,100,100V300H700z"/>
<path class="st3" d="M800,300c0,55.23,44.77,100,100,100V300L800,300z"/>
<g>
	<path class="st2" d="M900,400c55.23,0,100-44.77,100-100H900V400z"/>
</g>
<circle class="st4" cx="550" cy="350" r="50"/>
<path class="st2" d="M600,400c55.23,0,100-44.77,100-100H600V400z"/>
<path class="st3" d="M500,200v200c-55.23,0-100-44.77-100-100C400,244.77,444.77,200,500,200z"/>
<circle class="st2" cx="50" cy="350" r="50"/>
<path class="st0" d="M399.99,300c0,0.11,0.01,0.22,0.01,0.33c0,27.53-11.2,52.44-29.29,70.48C352.61,388.84,327.61,400,300,400
	v-42.39c31.74,0,57.47-25.64,57.47-57.28c0-0.11-0.01-0.22-0.01-0.33H300c-55.23,0-100-44.77-100-100h100c55.22,0,100,44.77,100,100
	H399.99z"/>
<text transform="matrix(1 0 0 1 -2472.7227 294.2674)" style="font-family:'MyriadPro-Regular'; font-size:61.3207px;">Bone</text>
</svg>
