<?xml version="1.0" encoding="utf-8"?>
<!-- Generator: Adobe Illustrator 27.7.0, SVG Export Plug-In . SVG Version: 6.00 Build 0)  -->
<svg version="1.1" id="Layer_1" xmlns="http://www.w3.org/2000/svg" xmlns:xlink="http://www.w3.org/1999/xlink" x="0px" y="0px"
	 viewBox="0 0 1000 500" style="enable-background:new 0 0 1000 500;" xml:space="preserve">
<style type="text/css">
	.st0{fill:#9900FF;}
	.st1{fill:#FFE4D5;}
	.st2{fill:#FFA972;}
	.st3{fill:#FF8341;}
	.st4{fill:#FFBE9B;}
</style>
<circle class="st0" cx="250" cy="350" r="50"/>
<circle class="st0" cx="650" cy="350" r="50"/>
<circle class="st0" cx="850" cy="450" r="50"/>
<circle class="st0" cx="450" cy="50" r="50"/>
<circle class="st0" cx="750" cy="50" r="50"/>
<circle class="st1" cx="950" cy="150" r="50"/>
<path class="st0" d="M100,200c0,55.23-44.77,100-100,100V100C55.23,100,100,144.77,100,200z"/>
<path class="st2" d="M700,100v100c-55.23,0-100-44.77-100-100V0C655.23,0,700,44.77,700,100z"/>
<path class="st3" d="M600,400H500c-55.23,0-100-44.77-100-100h100C555.23,300,600,344.77,600,400z"/>
<path class="st3" d="M1000,400c-55.23,0-100,44.77-100,100l100,0V400z"/>
<path class="st1" d="M700,500H500c0-55.23,44.77-100,100-100C655.23,400,700,444.77,700,500z"/>
<path class="st2" d="M300,100v100c0,55.23-44.77,100-100,100V200C200,144.77,244.77,100,300,100z"/>
<path class="st4" d="M900,300c0,55.23-44.77,100-100,100c-55.23,0-100-44.77-100-100V200c55.23,0,100,44.77,100,100H900z"/>
<path class="st1" d="M200,100v200c0,55.23-44.77,100-100,100V200C100,144.77,144.77,100,200,100z"/>
<path class="st3" d="M100,400v100C44.77,500,0,455.23,0,400V300C55.23,300,100,344.77,100,400z"/>
<path class="st3" d="M800,500c0-55.23-44.77-100-100-100v100H800z"/>
<path class="st2" d="M400,300v100c0,55.23-44.77,100-100,100H200c0-55.23,44.77-100,100-100C300,344.77,344.77,300,400,300z"/>
<path class="st3" d="M1000,300H900c-55.23,0-100-44.77-100-100h100C955.23,200,1000,244.77,1000,300z"/>
<path class="st3" d="M600,0v100c0,55.23-44.77,100-100,100H400c0-55.23,44.77-100,100-100C500,44.77,544.77,0,600,0z"/>
<path class="st1" d="M700,200c0,55.23-44.77,100-100,100H400c0-55.23,44.77-100,100-100H700z"/>
<path class="st1" d="M400,200c0-55.23-44.77-100-100-100l0,100L400,200z"/>
<path class="st4" d="M300,100H200c-55.23,0-100-44.77-100-100h100C255.23,0,300,44.77,300,100z"/>
<path class="st3" d="M900,0v100c0,55.23-44.77,100-100,100V100C800,44.77,844.77,0,900,0z"/>
</svg>
