<?xml version="1.0" encoding="utf-8"?>
<!-- Generator: Adobe Illustrator 27.7.0, SVG Export Plug-In . SVG Version: 6.00 Build 0)  -->
<svg version="1.1" id="Layer_1" xmlns="http://www.w3.org/2000/svg" xmlns:xlink="http://www.w3.org/1999/xlink" x="0px" y="0px"
	 viewBox="0 0 1000 400" style="enable-background:new 0 0 1000 400;" xml:space="preserve">
<style type="text/css">
	.st0{fill:#D2192A;}
	.st1{fill:#9900FF;}
	.st2{fill:#FB4B5B;}
	.st3{fill:#FDA5AD;}
</style>
<g>
	<path class="st0" d="M300,200c-55.23,0-100,44.77-100,100h100V200z"/>
</g>
<path class="st1" d="M300,100c0,55.23-44.77,100-100,100H100c0-55.23,44.77-100,100-100H300z"/>
<g>
	<path class="st1" d="M800,100c0,55.23-44.77,100-100,100H600c0-55.23,44.77-100,100-100H800z"/>
</g>
<path class="st1" d="M400,300c0,55.23-44.77,100-100,100H200c0-55.23,44.77-100,100-100H400z"/>
<path class="st2" d="M150,0c-27.61,0-50,22.39-50,50c0,27.61,22.39,50,50,50c27.61,0,50-22.39,50-50C200,22.39,177.61,0,150,0z
	 M178.74,50c0,15.87-12.87,28.74-28.74,28.74c-15.87,0-28.74-12.87-28.74-28.74c0-15.87,12.87-28.74,28.74-28.74
	C165.87,21.26,178.74,34.13,178.74,50z"/>
<path class="st2" d="M550,100c-27.61,0-50,22.39-50,50c0,27.61,22.39,50,50,50s50-22.39,50-50C600,122.39,577.61,100,550,100z
	 M578.74,150c0,15.87-12.87,28.74-28.74,28.74s-28.74-12.87-28.74-28.74c0-15.87,12.87-28.74,28.74-28.74S578.74,134.13,578.74,150z
	"/>
<path class="st2" d="M850,300c-27.61,0-50,22.39-50,50c0,27.61,22.39,50,50,50s50-22.39,50-50C900,322.39,877.61,300,850,300z
	 M878.74,350c0,15.87-12.87,28.74-28.74,28.74s-28.74-12.87-28.74-28.74c0-15.87,12.87-28.74,28.74-28.74S878.74,334.13,878.74,350z
	"/>
<path class="st2" d="M350,200c-27.61,0-50,22.39-50,50c0,27.61,22.39,50,50,50c27.61,0,50-22.39,50-50
	C400,222.39,377.61,200,350,200z M378.74,250c0,15.87-12.87,28.74-28.74,28.74c-15.87,0-28.74-12.87-28.74-28.74
	c0-15.87,12.87-28.74,28.74-28.74C365.87,221.26,378.74,234.13,378.74,250z"/>
<path class="st0" d="M100,0v200C44.77,200,0,155.23,0,100C0,44.77,44.77,0,100,0z"/>
<path class="st0" d="M700,100H500C500,44.77,544.77,0,600,0S700,44.77,700,100z"/>
<path class="st0" d="M300,100c0,55.23,44.77,100,100,100l0-100L300,100z"/>
<path class="st0" d="M800,100c0,55.23,44.77,100,100,100l0-100L800,100z"/>
<path class="st0" d="M900,200c0,55.23-44.77,100-100,100s-100-44.77-100-100H900z"/>
<path class="st3" d="M400,100C400,44.77,355.23,0,300,0l0,100L400,100z"/>
<path class="st2" d="M1000,100c0,55.23-44.77,100-100,100V0C955.23,0,1000,44.77,1000,100z"/>
<path class="st2" d="M900,300c0-55.23,44.77-100,100-100l0,100L900,300z"/>
<path class="st0" d="M400,100C400,44.77,444.77,0,500,0l0,100L400,100z"/>
<path class="st2" d="M500,100c0,55.23-44.77,100-100,100l0-100L500,100z"/>
<path class="st0" d="M200,300c0-55.23-44.77-100-100-100l0,100L200,300z"/>
<path class="st2" d="M100,300c0,55.23,44.77,100,100,100l0-100L100,300z"/>
<path class="st2" d="M700,300c0,55.23,44.77,100,100,100l0-100L700,300z"/>
<path class="st3" d="M100,300c0,55.23-44.77,100-100,100l0-100L100,300z"/>
<path class="st2" d="M0,300c0-55.23,44.77-100,100-100l0,100L0,300z"/>
<path class="st2" d="M500,300c0-55.23,44.77-100,100-100l0,100L500,300z"/>
<path class="st2" d="M857.47,0C857.47,0,857.47,0,857.47,0c0,31.74-25.73,57.47-57.47,57.47c-31.74,0-57.47-25.73-57.47-57.47
	c0,0,0,0,0,0H700c0,0,0,0,0,0c0,55.23,44.77,100,100,100c55.23,0,100-44.77,100-100c0,0,0,0,0,0H857.47z"/>
<path class="st0" d="M600,242.53C600,242.53,600,242.53,600,242.53c31.74,0,57.47,25.73,57.47,57.47
	c0,31.74-25.73,57.47-57.47,57.47c0,0,0,0,0,0V400c0,0,0,0,0,0c55.23,0,100-44.77,100-100c0-55.23-44.77-100-100-100c0,0,0,0,0,0
	V242.53z"/>
<path class="st3" d="M900,400c55.23,0,100-44.77,100-100l-100,0L900,400z"/>
<path class="st1" d="M500,300c0,55.23,44.77,100,100,100l0-100L500,300z"/>
<path class="st2" d="M200,100c55.23,0,100-44.77,100-100L200,0L200,100z"/>
<path class="st3" d="M500,200v100c0,55.23-44.77,100-100,100V300C400,244.77,444.77,200,500,200z"/>
</svg>
