<svg width="30" height="22" viewBox="0 0 30 22" fill="none" xmlns="http://www.w3.org/2000/svg">
<path d="M25 4.25H1.75V1C1.75 0.801088 1.67098 0.610322 1.53033 0.46967C1.38968 0.329018 1.19891 0.25 1 0.25C0.801088 0.25 0.610322 0.329018 0.46967 0.46967C0.329018 0.610322 0.25 0.801088 0.25 1V21C0.25 21.1989 0.329018 21.3897 0.46967 21.5303C0.610322 21.671 0.801088 21.75 1 21.75C1.19891 21.75 1.38968 21.671 1.53033 21.5303C1.67098 21.3897 1.75 21.1989 1.75 21V16.75H28.25V21C28.25 21.1989 28.329 21.3897 28.4697 21.5303C28.6103 21.671 28.8011 21.75 29 21.75C29.1989 21.75 29.3897 21.671 29.5303 21.5303C29.671 21.3897 29.75 21.1989 29.75 21V9C29.75 7.74022 29.2496 6.53204 28.3588 5.64124C27.468 4.75045 26.2598 4.25 25 4.25ZM1.75 5.75H11.25V15.25H1.75V5.75ZM12.75 15.25V5.75H25C25.862 5.75 26.6886 6.09241 27.2981 6.7019C27.9076 7.3114 28.25 8.13805 28.25 9V15.25H12.75Z" fill="#20201F"/>
</svg>
