<svg width="122" height="157" viewBox="0 0 122 157" fill="none" xmlns="http://www.w3.org/2000/svg">
<g id="Graphic 02">
<g id="circle-dark">
<path id="Vector" d="M70.5096 62.203V-5.4707C33.1378 -5.4707 2.83582 24.8313 2.83582 62.203" fill="#FF8241"/>
<path id="Vector_2" d="M5.58104 54.7577C5.68699 54.2376 5.79296 53.8234 5.84112 53.4093C5.89891 52.9662 5.82183 52.4557 5.96631 52.0704C6.51533 50.5775 6.68871 49.046 6.9295 47.4857C7.04509 46.6862 7.10289 45.8675 7.54596 45.1355C7.9505 44.442 8.10461 43.6329 8.26835 42.8238C8.35504 42.4963 8.57656 42.1881 8.67288 41.9955C8.74993 41.2442 8.80773 40.6085 8.86553 40.0017C8.74994 39.9439 8.65362 39.8957 8.5573 39.8476C8.63435 39.4912 8.74032 39.2022 8.96185 38.4895C9.03891 38.4702 9.31824 38.3835 9.56866 38.3064C9.62646 37.6418 9.66497 37.1891 9.7035 36.7076C9.89613 36.6498 10.0502 36.592 10.1851 36.5534C10.6089 35.9563 11.0134 35.388 11.418 34.8197C11.2639 34.4055 11.5721 34.1166 11.7647 33.8084C12.0152 33.4038 12.2752 32.9896 12.5064 32.614C12.5064 32.3828 12.4968 32.1806 12.4871 32.0072C12.7279 31.7182 12.9206 31.4967 13.0843 31.2944C13.0843 31.0247 13.1036 30.8225 13.1228 30.5431C13.7971 29.84 14.2594 28.9539 14.7795 28.087C15.3189 27.2394 15.8679 26.3725 16.6192 25.7272C16.5325 25.0337 17.2453 24.5039 17.6402 23.9934C17.515 23.8297 17.4379 23.7526 17.3898 23.6852C17.9003 22.7895 18.4685 22.0093 19.1139 21.0268C19.7207 20.6993 20.4334 20.3526 21.2618 19.9866C21.3677 19.7361 21.5315 19.3798 21.6952 18.9945C22.6488 18.3684 23.1689 17.3378 23.8624 16.6154C23.978 16.3072 24.0358 16.1049 24.1514 15.9026C24.2669 15.71 24.4596 15.5463 24.5944 15.3922C24.8159 15.4499 24.9315 15.4788 25.0856 15.5174C25.4709 15.0839 25.8562 14.6601 26.3474 14.1111C26.5882 14.0822 26.8868 14.0437 27.1084 14.0341C27.8115 13.1961 28.688 12.6278 28.9673 11.7802C29.8438 11.2697 30.6143 10.6244 31.3367 9.92123C31.7124 9.56485 32.1362 9.247 32.6371 8.8232C32.8778 8.80393 33.1957 8.77504 33.3113 8.76541C34.1396 8.19713 34.8813 7.61921 35.5652 7.06056C36.2394 6.50191 36.904 6.01068 37.6457 5.77951C38.4162 5.16307 38.9748 4.72001 39.2831 4.46958C40.3811 4.24805 41.3154 3.93982 42.1534 3.52565C43.001 3.14038 43.7619 2.64915 44.465 2.00381C44.7251 1.96528 45.0044 1.90749 45.2549 1.8786C45.4379 1.65706 45.5727 1.50295 45.6498 1.40664C46.7863 1.07915 47.8169 0.713132 48.8765 0.481967C49.0113 0.578285 49.1365 0.66498 49.3099 0.790195C49.8396 0.433814 50.2634 0.144857 50.7258 -0.172996C51.3518 -0.250051 51.9972 -0.278948 52.5269 -0.317476C53.153 -0.808703 53.702 -1.2614 54.3185 -1.70447C54.6171 -1.57926 54.9349 -1.45405 55.195 -1.33846C56.4375 -1.17472 57.5837 -1.84895 58.8455 -1.87785C59.4427 -1.90674 60.0398 -2.10901 60.6274 -2.28238C61.2149 -2.42686 61.7928 -2.56171 62.3226 -2.49429C63.1028 -2.69656 63.7192 -3.02404 64.2393 -2.97588C65.0002 -2.91809 65.7515 -2.91809 66.4932 -2.97588L67.0518 -3.02404L67.1963 -3.04331H67.283C67.3986 -3.08183 67.5238 -3.11073 67.6683 -3.14926C67.8128 -3.18778 67.9572 -3.21668 68.1017 -3.24557C68.015 -3.06257 67.938 -2.93735 67.7839 -2.72545C68.0921 -2.97588 68.1499 -2.98552 68.2269 -2.94699C68.2847 -2.90846 68.2944 -2.80251 68.304 -2.70619C68.1499 -2.6484 68.0536 -2.6195 67.8513 -2.58097C67.8802 -2.58097 67.8995 -2.58097 67.9284 -2.56171C67.9573 -2.51355 67.9765 -2.38834 68.0054 -2.30165L68.1499 -1.73337C68.1884 -1.56962 68.2173 -1.38662 68.2269 -1.30956C67.9861 -0.914652 67.7839 -0.567906 67.6876 -0.423427C67.8224 0.501235 67.8513 1.23326 68.0247 1.84007C68.2077 2.48541 68.4485 3.05369 68.3233 3.79534C68.1788 3.91093 68.0536 4.01688 67.9284 4.1132C67.9862 4.87412 68.0343 5.54835 68.0825 6.20332C67.9573 6.49228 67.8417 6.76197 67.7261 7.03166C67.8032 7.21467 67.9476 7.39768 67.9573 7.59995C67.9958 8.90989 68.015 10.2198 68.015 11.5298C68.015 11.7417 67.8706 11.9536 67.8031 12.1366C68.0054 12.7049 68.2944 13.0805 68.1017 13.7836C68.015 14.1111 68.0151 14.5542 68.0536 14.9202C68.2462 17.1644 67.9861 19.4568 68.3136 21.6914C68.3425 21.913 68.2655 22.1826 68.2462 22.4331C68.1884 23.1844 68.0728 23.9453 68.1017 24.6966C68.121 25.236 68.3136 25.7657 68.4581 26.4207C68.3233 26.6518 68.1595 26.9312 67.9669 27.2587C68.121 27.7788 68.2462 28.2315 68.3618 28.6264C68.304 28.9731 68.2366 29.2621 68.2173 29.5703C68.121 31.0825 68.1884 32.6236 67.938 34.1262C67.8609 34.5789 68.0632 35.1761 68.121 35.571C68.1114 36.958 68.1017 38.2294 68.0825 39.6453C68.41 40.4544 68.3425 41.5235 67.8417 42.9394C67.8706 43.3728 67.8995 43.7677 67.9284 44.153C68.1114 44.2397 68.2655 44.3071 68.593 44.4612C68.2558 45.0392 68.0439 45.4244 67.7839 45.8675C68.1884 48.2562 67.8031 50.8376 68.121 53.3419C68.2173 54.0835 68.2847 54.8252 68.121 55.6728C68.0054 56.2892 68.2847 57.1368 68.41 58.0326C67.9284 59.2655 68.8723 59.8337 68.9975 60.8644C69.5176 60.7199 69.6428 61.5675 69.9414 62.1839C70.2304 61.529 70.4423 61.0281 70.6735 60.4983C70.789 60.8355 70.8661 61.0859 70.9817 61.423C71.4729 60.9414 71.4633 59.9301 71.8967 59.487C72.2434 59.1403 71.916 58.1096 72.3301 57.551C72.5902 57.2042 72.1471 56.3952 72.465 55.8847C72.3687 54.6229 72.2723 53.3611 72.1953 52.3498C72.7539 49.9514 72.7828 49.2772 72.3975 47.9865C72.7058 47.2641 72.7732 46.4743 72.6865 45.5785C72.5517 44.1434 72.8599 42.6697 72.5902 41.2442C72.8503 40.1365 72.6095 39.0288 72.5902 37.9212C72.5806 37.4203 72.648 36.9195 72.6865 36.3993C72.5998 36.2452 72.4939 36.0622 72.4264 35.9466C72.6576 34.5211 72.8791 33.1919 73.091 31.9012C72.542 31.0825 72.7828 29.946 72.5902 29.0502C72.7347 28.6938 72.8695 28.376 73.0718 27.8751C72.831 26.8541 72.5709 25.7368 72.282 24.4847C72.4457 24.2342 72.6576 23.9068 72.8984 23.5215C72.5902 22.6065 73.2452 21.5469 72.8117 20.5645C72.5998 20.5645 72.3975 20.5549 72.2145 20.5452C72.4168 19.8132 72.5902 19.1775 72.8117 18.4166C72.1182 17.7616 72.3494 16.625 72.5806 15.8641C72.8599 14.978 72.5806 14.5349 72.4457 14.0918C72.5998 11.9728 73.1777 10.0079 72.4746 7.98522C72.831 6.66565 72.725 5.24013 72.5324 3.41007C72.6191 3.33301 72.8406 3.13074 73.091 2.90921C72.908 2.43725 72.7443 2.15792 72.6769 1.81117C72.5517 1.14657 72.0508 0.549391 72.5035 -0.26932C72.3976 -0.991713 72.5035 -1.67558 72.5902 -2.35944C72.5998 -2.45576 72.6095 -2.50392 72.6287 -2.63877L72.6576 -3.09147L72.7058 -4.01613C72.725 -4.63257 72.7154 -5.25864 72.6576 -5.83656C72.831 -6.22183 72.9562 -6.53006 73.1103 -6.93459C73.0718 -7.23318 73.0236 -7.54141 72.9755 -7.83036L72.9562 -7.93631C72.9562 -7.93631 72.9562 -8.023 72.8984 -7.9941L72.6287 -7.94594C72.4554 -7.91705 72.282 -7.88815 72.1086 -7.85926C71.4344 -7.75331 70.8757 -7.68588 70.529 -7.73404C69.402 -7.88815 68.3136 -7.73404 67.2541 -7.68588L66.9363 -7.66662C66.8303 -7.66662 66.7918 -7.64736 66.7244 -7.63772L66.3295 -7.57993C66.0694 -7.5414 65.7997 -7.50288 65.5204 -7.46435C64.9714 -7.37766 64.3838 -7.29097 63.7288 -7.18502C63.5747 -7.27171 63.305 -7.44509 63.0642 -7.5703C62.2359 -7.21392 61.5135 -6.9057 60.8104 -6.60711C59.8953 -6.9057 59.0574 -6.30852 58.229 -6.26036C57.3525 -6.20257 56.4857 -6.33742 55.6188 -6.30852C54.8868 -5.92324 54.3474 -5.47054 53.3071 -5.50907C52.8544 -5.52833 51.9105 -5.22975 51.6601 -4.75778C50.9762 -4.75778 50.302 -4.74815 49.57 -4.73852C48.0866 -3.74644 45.8906 -3.88128 44.5999 -2.54245C44.3784 -2.70619 44.1954 -2.85067 43.8871 -3.0722C43.7138 -2.68692 43.5982 -2.42686 43.4922 -2.20533C42.4905 -1.73336 41.431 -1.48294 40.3908 -1.14582C39.3698 -0.78944 38.4066 -0.278947 37.6553 0.61682C37.3182 0.607188 36.9714 0.597552 36.7691 0.597552C35.8541 1.09841 35.228 1.6378 34.3323 1.98455C33.6677 2.25424 33.0801 3.07295 32.4348 3.61233C32.2036 3.80497 31.8761 3.93982 31.5872 4.07467C30.7588 4.48884 30.1809 5.07638 29.7764 5.75062C28.9191 6.12626 28.0908 6.55007 27.2047 7.0124C26.7905 7.65774 26.4341 8.29344 25.5191 8.67872C25.2494 8.78467 24.9315 9.247 24.6329 9.53596C24.055 10.1139 23.4675 10.6918 22.9281 11.3082C22.5814 11.4045 22.3117 11.472 22.119 11.5298C21.5796 12.1366 21.0884 12.6278 20.4912 13.3887C20.5201 13.5139 20.5683 13.7547 20.6261 13.9955L20.366 14.1785C20.1156 14.0341 19.8651 13.8896 19.5088 13.6873C19.4606 14.3904 18.9887 14.8431 18.5071 15.2766C18.0351 15.7196 17.5342 16.1338 17.3898 16.7021C17.4668 16.7888 17.5342 16.8658 17.6017 16.9333C17.2934 17.7134 16.6192 17.9253 16.1087 18.5033C15.945 18.4262 15.7812 18.3491 15.579 18.2528C15.1359 19.2353 14.6928 20.0925 14.3172 21.0172L13.6622 21.1809C13.2962 21.7877 12.9302 22.3945 12.5642 22.9917C12.2271 23.6082 11.8996 24.215 11.5624 24.8218C10.1562 25.5731 9.68425 27.4802 8.60547 28.5975C8.79811 29.1465 8.45134 29.9556 8.16239 30.2349C7.45926 30.9477 7.30515 31.8049 6.99693 32.6044C6.64055 33.4809 6.04337 34.184 5.7833 35.1568C5.5714 36.0237 5.34988 36.9291 4.77197 37.8056C4.44448 38.2968 4.38669 39.2311 4.31927 39.9053C4.28074 40.3966 4.21331 40.7048 3.95325 41.1671C3.61613 41.7547 3.42351 42.4771 3.18271 43.1513C2.95154 43.8448 2.71073 44.5287 2.53736 45.2414C2.50846 45.3666 2.44105 45.4726 2.39289 45.5689C2.26767 45.6074 2.16172 45.6556 2.01724 45.7038C1.95945 46.0023 1.9113 46.2624 1.84387 46.638C2.01725 47.0522 2.20987 47.5145 2.44103 48.0443C2.16171 48.4874 1.95945 48.8437 1.68976 49.2964C1.63197 50.4619 1.54528 51.7044 1.56454 53.024C1.41043 53.0818 1.1889 53.1588 0.871043 53.2744C0.948099 53.9005 1.01552 54.4302 1.08295 54.9793C0.909572 55.3356 0.736205 55.7113 0.533936 56.1447C1.09259 57.0405 0.697675 58.2638 0.967368 59.2173C1.2178 60.1901 1.45859 61.1726 1.71866 62.2032C2.05577 62.0972 2.34472 62.0106 2.59515 61.9335C2.61441 61.5964 2.63369 61.4037 2.64332 61.1533C3.23087 61.0281 3.79915 60.9125 4.3867 60.7873C4.69492 59.9975 4.95498 59.2462 5.2921 58.466C5.2921 57.7629 5.2921 57.0598 5.2921 56.3855C5.43658 56.2988 5.54252 56.2411 5.82184 56.0869C5.68699 55.5379 5.62919 55.0948 5.5714 54.777L5.58104 54.7577ZM2.96116 45.7519L2.94191 45.8868H2.71075L2.73001 45.7519H2.96116Z" fill="#FF8241"/>
</g>
<g id="circle-light">
<path id="Vector_3" d="M156.483 144.511C179.88 124.695 182.784 89.6633 162.968 66.2655C143.152 42.8678 108.12 39.9642 84.7227 59.7802C61.3249 79.5961 58.4213 114.628 78.2373 138.026C98.0533 161.423 133.085 164.327 156.483 144.511Z" fill="#FFA972"/>
<path id="Vector_4" d="M152.665 53.6391C151.762 52.8804 150.98 52.3598 150.172 51.902C149.302 51.3957 148.257 51.0377 147.53 50.5107C146.838 49.954 146.08 49.533 145.31 49.1435C144.539 48.754 143.756 48.3743 142.96 48.0261C141.406 47.2569 139.691 46.8651 138.003 46.4104C137.13 46.2077 136.273 45.9306 135.41 45.7396C134.525 45.5468 133.677 45.3028 132.828 44.9394C132.02 44.6011 131.152 44.3337 130.277 44.1527C129.375 44.0345 128.458 43.9693 127.552 43.8942C126.808 43.8434 126.018 43.55 125.549 43.446C123.882 43.5141 122.492 43.7896 121.188 43.9312C121.151 44.1235 121.115 44.2942 121.089 44.4766C120.314 44.5317 119.639 44.4215 118.036 44.636C117.924 44.5507 117.53 44.2033 117.153 43.9007C115.785 44.2975 114.862 44.5575 113.862 44.8436C113.555 44.6228 113.298 44.4387 113.082 44.3014C111.484 44.3317 109.94 44.3557 108.419 44.3816C107.828 44.9622 106.952 44.9222 106.148 45.0618C105.1 45.2679 104.04 45.484 103.091 45.6659C102.709 45.9491 102.364 46.181 102.084 46.4183C101.269 46.5678 100.651 46.6902 100.089 46.7848C99.669 47.1407 99.3304 47.4274 98.8752 47.813C94.6793 48.5398 90.8896 51.569 86.8514 53.1447C86.2419 54.3424 84.5974 55.1939 83.411 56.0183C83.5154 56.3308 83.5658 56.5087 83.6098 56.6317C81.856 58.0169 80.4741 59.6282 78.7061 61.4463C77.3337 62.0273 75.9794 62.9137 74.3008 63.9143C74.019 64.4337 73.6097 65.1813 73.1851 65.9819C72.2278 66.7926 71.5446 67.8323 70.9046 68.8755C70.2861 69.9206 69.6811 70.9342 69.1443 71.9101C68.9793 72.5911 68.9319 73.0322 68.7632 73.4958C68.6062 73.9496 68.3162 74.4357 68.1215 74.8212C67.7127 74.9067 67.5133 74.9553 67.2259 75.0183C66.6002 76.1496 66.2378 77.3787 65.633 78.9133C65.2595 79.2297 64.7611 79.6117 64.401 79.8967C63.9909 81.0458 63.6671 82.2022 63.3622 83.2624C63.0788 84.3243 62.8771 85.3171 62.9646 86.2253C62.1624 88.308 61.7196 90.5074 61.4592 92.7327C61.3761 93.8655 61.2796 95.0298 61.1814 96.4762C60.9283 96.9111 60.5863 97.5015 60.4705 97.7199C60.3062 99.964 60.3916 102.077 60.5461 104.011C60.82 105.944 61.0203 107.719 60.9006 109.424C61.4657 111.512 61.8733 113.011 62.1073 113.855C62.0383 116.259 62.4786 118.412 62.9511 120.438C63.623 122.415 64.5383 124.206 65.6584 125.883C65.8078 126.439 65.9653 127.027 66.1065 127.549C66.5505 127.955 66.8624 128.252 67.0538 128.431C67.9586 130.872 69.1543 132.947 70.2719 135.047C70.2038 135.346 70.1491 135.612 70.072 136.018C71.0086 137.03 71.9386 137.725 72.8149 138.547C73.4982 139.732 74.1177 141.032 74.7991 141.979C76.2791 142.85 77.5541 143.575 78.9415 144.384C79.1053 145.028 79.3473 145.645 79.5532 146.172C80.2967 147.286 81.3068 148.195 82.3735 149.076C83.4052 149.986 84.6758 150.634 85.7174 151.557C87.7026 153.404 90.7124 154.022 92.4954 155.559C94.1558 156.218 95.6265 156.416 96.5871 157.006C98.0105 157.905 99.5685 158.49 101.132 159.01C101.914 159.271 102.707 159.521 103.49 159.76C104.299 159.957 105.115 160.068 105.939 160.212C106.762 160.356 107.586 160.501 108.336 160.628C108.632 160.978 108.828 161.233 109.153 161.64C110.81 161.159 112.682 161.357 114.541 161.587C114.757 161.866 114.893 162.051 115.182 162.368C116.017 162.241 116.831 162.114 117.656 161.976C118.018 161.93 118.412 161.897 118.565 161.888C119.42 162.306 120.151 162.649 120.464 162.805C122.475 162.505 124.041 162.342 125.319 161.981C126.682 161.649 127.791 160.97 129.411 160.942C129.698 161.139 129.946 161.29 130.183 161.451C131.802 161.162 133.166 160.689 134.504 160.257C135.153 160.289 135.768 160.329 136.395 160.359C136.75 160.139 137.059 159.817 137.481 159.7C140.098 158.647 142.794 157.807 145.281 156.483C145.689 156.278 146.198 156.287 146.595 156.212C147.564 155.391 148.079 154.674 149.493 154.118C150.153 153.88 150.966 153.372 151.613 152.904L153.109 151.878C153.604 151.539 154.061 151.132 154.536 150.77L157.411 148.555C158.403 147.855 159.206 146.934 160.089 146.106C160.931 145.254 161.794 144.402 162.513 143.453C162.784 143.063 163.257 142.722 163.626 142.329C164.722 141.161 166.014 140.106 166.916 138.781C167.571 137.826 167.965 136.73 168.582 135.445C169.03 135.146 169.631 134.838 170.233 134.388C170.573 133.298 170.878 132.358 171.154 131.523C171.594 130.93 172.003 130.443 172.365 129.876C173.904 127.029 175.164 123.997 176.463 121.033C176.885 120.134 177.025 118.832 177.083 118.001C177.42 116.553 177.752 115.169 178.084 113.786C178.363 112.387 178.504 110.944 178.725 109.454C178.537 107.669 178.59 105.459 179.527 102.399C179.486 101.452 179.339 100.614 179.265 99.7943C178.964 99.6283 178.705 99.4873 178.175 99.1938C178.616 97.9386 178.948 97.076 179.248 96.0805C178.477 93.5853 178.243 90.9173 177.47 88.3241C177.111 87.0243 176.865 85.6689 176.373 84.4015C175.881 83.1342 175.356 81.8749 174.772 80.6651C174.463 79.9448 174.054 79.2487 173.68 78.523C173.318 77.7874 172.97 76.9989 172.695 76.1294C172.486 75.5042 172.121 74.8118 171.58 74.1266C171.028 73.4512 170.404 72.7373 169.826 71.9838C169.445 70.6823 168.824 69.9253 168.046 69.3615C167.244 68.8174 166.401 68.3893 165.673 67.6018C165.199 68.344 163.981 67.0707 162.845 66.3687C163.288 67.6972 163.627 68.713 163.994 69.7855C163.454 69.3608 163.035 69.0547 162.485 68.6183C162.448 69.8527 163.665 71.4081 163.618 72.4897C163.56 73.3207 164.992 74.7745 165 75.9909C165.002 76.7509 166.42 77.715 166.349 78.838C166.935 79.8852 167.533 80.9225 168.091 81.9132C168.626 82.9236 169.008 83.943 169.413 84.8232C169.854 87.0959 169.917 88.5664 170.179 89.7279C170.397 90.8857 170.892 91.73 171.338 92.8958C171.056 94.3378 171.216 95.8057 171.558 97.4405C171.741 98.7691 171.768 100.15 171.796 101.509C171.825 102.868 171.669 104.223 171.86 105.585C171.741 106.107 171.676 106.622 171.624 107.128C171.538 107.642 171.473 108.158 171.43 108.675C171.345 109.71 171.312 110.76 171.214 111.805C171.083 112.739 170.704 113.641 170.441 114.585C170.512 114.906 170.601 115.271 170.646 115.514C170.214 116.802 169.606 117.978 169.035 119.103C168.443 120.227 168.002 121.362 167.299 122.379C167.39 123.244 167.121 124.133 166.799 125.008C166.622 125.438 166.455 125.88 166.278 126.31C166.07 126.727 165.873 127.134 165.732 127.535C165.195 127.99 164.714 128.417 163.965 129.071C163.818 129.536 163.659 130.012 163.489 130.497C163.277 130.957 163.063 131.439 162.85 131.92C162.409 132.915 161.932 133.961 161.439 135.06C160.975 135.293 160.271 135.527 159.498 135.821C158.704 137.416 156.754 138.286 155.835 139.947C156.052 140.203 156.271 140.439 156.471 140.651C155.219 141.35 154.208 142.026 152.863 142.664C152.568 144.256 150.626 145.3 149.277 145.861C147.606 146.374 147.16 147.173 146.544 147.795C142.955 149.712 139.275 150.243 136.055 152.548C134.803 152.727 133.501 152.847 132.155 153.245C131.468 153.406 130.783 153.685 130.02 153.85C129.268 154.026 128.47 154.221 127.618 154.422C127.454 154.299 127.033 154.015 126.572 153.684C125.743 154.125 125.248 154.464 124.62 154.575C123.404 154.843 122.3 155.718 120.724 155.088C117.99 155.339 115.549 154.398 112.928 154.333C112.671 154.029 112.483 153.808 112.257 153.517C110.967 153.628 109.368 153.799 108.564 153.418C107.313 152.793 106.17 152.839 105.048 152.486C104.137 152.215 103.225 151.966 102.235 151.721C101.747 151.593 101.225 151.474 100.706 151.312C100.19 151.128 99.6532 150.921 99.0952 150.712C98.9208 150.458 98.6116 149.998 98.3518 149.597C97.5612 149.445 96.7984 149.349 96.0958 149.182C95.395 148.994 94.7275 148.797 94.0698 148.612C93.5278 147.949 92.8216 147.565 92.0803 147.21C91.3372 146.877 90.6443 146.462 90.0548 145.979C88.855 144.87 87.8044 143.795 86.8812 142.492C85.6142 141.8 84.3186 141.454 83.3324 139.864C82.9135 139.156 81.7064 137.873 80.7578 137.794C80.1051 136.763 79.6141 135.615 79.0952 134.411C77.8551 133.396 76.8743 132.002 76.1316 130.486C75.344 128.987 74.4145 127.63 73.2946 126.473C73.5227 126.079 73.7138 125.737 74.0092 125.186C73.3505 124.882 72.9004 124.682 72.5131 124.509C72.2784 124.066 72.0671 123.603 71.8774 123.143C71.7209 122.674 71.6092 122.187 71.4761 121.698C71.2412 120.734 71.0045 119.792 70.7795 118.84C70.3393 116.947 69.9621 115.082 68.7297 113.319C68.9073 112.747 69.075 112.164 69.1916 111.805C68.9536 109.961 68.3646 108.556 68.5624 106.825C68.6043 106.188 68.4692 105.46 68.2713 104.706C68.1723 104.328 68.0751 103.929 67.9761 103.552C67.9005 103.155 67.8563 102.772 67.8337 102.39C67.7921 101.844 67.9203 101.214 68 100.645C68.1344 99.8096 68.1223 99.038 68.0968 98.2977C68.1046 97.5494 68.0207 96.8586 67.8506 96.1607C68.091 95.3556 68.3431 94.5407 68.5952 93.7258C68.8904 92.9144 69.2602 92.1201 69.6003 91.2908C69.5269 89.9496 69.2514 88.5591 70.3503 87.0871C70.6565 86.6674 70.7503 85.6657 70.9521 84.9335L71.2373 83.85L71.6285 82.7969L72.4109 80.6909C72.8896 80.2855 73.2632 79.9691 73.5317 79.7417C74.1204 78.4011 74.711 77.2995 75.4721 75.7126C75.4019 75.5114 75.2383 75.1288 75.0863 74.7363C75.2084 74.5728 75.3386 74.4424 75.4922 74.2924C75.936 74.4377 76.3915 74.5732 77.0043 74.7759C76.9853 72.3863 79.7282 70.9854 80.4029 69.131C80.2843 68.9909 80.1755 68.8624 80.0767 68.7457C80.3845 68.0439 80.8352 67.582 81.3255 67.1668C81.5707 66.9592 81.8257 66.7632 82.0808 66.5672C82.3556 66.3946 82.6322 66.2004 82.9106 65.9847C83.1586 66.1355 83.4183 66.2765 83.7292 66.4542C84.2715 65.6742 84.8002 64.9256 85.3273 64.1986C85.5966 63.8302 85.8561 63.4501 86.1137 63.0915L87.0008 62.0796L88.1858 62.0584C89.1763 61.2396 90.0679 60.304 91.1258 59.5884C92.164 58.8495 93.2004 58.1322 94.2269 57.4032C95.5752 57.2436 96.98 56.7956 98.3048 56.1347C99.6215 55.4406 101.042 54.9396 102.403 54.7485C102.831 53.9048 104.283 53.1567 105.024 53.2507C106.821 53.3128 108.119 52.4543 109.636 52.0916C111.332 51.798 112.934 51.844 114.692 51.4578C116.265 51.2082 117.927 50.8032 119.775 51.1626C120.809 51.3895 122.429 51.1004 123.663 50.877C124.545 50.7114 125.135 50.7929 126.058 51.0539C127.23 51.4441 128.591 51.5351 129.839 51.9209C131.104 52.2536 132.389 52.5881 133.663 52.9325C133.887 52.9836 134.07 53.1291 134.237 53.208C134.308 53.4092 134.368 53.5988 134.456 53.8449C134.965 53.9956 135.42 54.131 136.078 54.3158C136.864 54.1313 137.716 53.9306 138.713 53.6876C139.456 54.2811 140.009 54.8153 140.717 55.4385C141.709 55.7812 142.783 56.0547 143.832 56.489C144.88 56.9449 145.949 57.4026 147.06 57.8854C147.06 58.1459 147.061 58.5259 147.048 59.0784C148.138 59.4184 148.98 59.8681 149.905 60.227C150.325 60.7937 150.764 61.3838 151.261 62.0654C153.061 62.2254 154.478 64.1122 156.108 64.8768C157.654 65.8733 159.196 66.9129 160.884 68.0297C161.142 67.5301 161.372 67.115 161.555 66.7394C161.12 66.2257 160.861 65.9438 160.523 65.5684C161.016 64.73 161.484 63.933 161.977 63.0946C161.541 62.3204 161.128 61.5481 160.703 60.7855C160.256 60.0212 159.737 59.3378 159.235 58.5798C157.988 57.6515 156.848 56.6126 155.555 55.8433C155.515 55.5361 155.478 55.3268 155.395 54.7555C154.263 54.2709 153.361 53.8922 152.7 53.6095L152.665 53.6391ZM134.546 52.3653L134.801 52.4298L134.802 52.8098L134.559 52.7354L134.558 52.3554L134.546 52.3653Z" fill="#FFA972"/>
</g>
<g id="lines">
<path id="Vector_5" d="M52.4976 99.0008C52.5285 98.8231 52.5671 98.6763 52.5671 98.5372C52.5671 98.3827 52.4667 98.2127 52.5208 98.0814C52.7371 97.5483 52.6907 97.0229 52.5748 96.4897C52.513 96.2116 52.4358 95.9411 52.598 95.663C52.7526 95.4003 52.6985 95.1144 52.6521 94.8363C52.6289 94.7204 52.7217 94.5967 52.7448 94.5272C52.6058 94.2722 52.4898 94.0636 52.3817 93.8627C52.2812 93.8627 52.1962 93.855 52.1035 93.8472C52.0803 93.7236 52.0649 93.6232 52.0185 93.3682C52.0726 93.3528 52.2503 93.291 52.4126 93.2369C52.2581 93.0205 52.1576 92.8737 52.0417 92.7192C52.1654 92.6728 52.2658 92.6419 52.3508 92.6033C52.4667 92.356 52.5748 92.1243 52.6753 91.8925C52.4203 91.7843 52.5594 91.6529 52.5903 91.5293C52.6289 91.367 52.6521 91.2048 52.683 91.0503C52.598 90.9807 52.513 90.9189 52.4512 90.8726C52.5208 90.7489 52.5749 90.6485 52.6212 90.5635C52.5285 90.4862 52.4512 90.4167 52.3508 90.3317C52.7216 89.6904 52.2889 88.9641 52.7216 88.3151C52.343 88.1374 52.5594 87.8515 52.5826 87.6274C52.4203 87.612 52.3353 87.5965 52.2735 87.5888C52.2117 87.2411 52.1499 86.9166 52.0804 86.5226C52.3122 86.3062 52.5748 86.0667 52.8684 85.7808C52.8066 85.6881 52.7139 85.5645 52.6135 85.4254C52.8839 85.0468 52.5748 84.6682 52.5903 84.3283C52.4898 84.2278 52.4049 84.166 52.3662 84.0887C52.3276 84.0114 52.3276 83.9264 52.3199 83.8646C52.4744 83.826 52.5594 83.8028 52.6676 83.7719C52.629 83.571 52.598 83.3779 52.5517 83.1306C52.6676 83.0611 52.8143 82.9838 52.9148 82.922C52.7757 82.5512 52.8916 82.1957 52.5285 81.9408C52.6444 81.6008 52.6212 81.2608 52.5285 80.9131C52.4821 80.7354 52.459 80.5577 52.4203 80.3336C52.5208 80.2641 52.6444 80.1714 52.6985 80.1327C52.768 79.4451 52.3044 78.8502 52.5517 78.3402C52.4358 78.008 52.343 77.7684 52.2967 77.6371C52.7757 76.9108 52.7989 76.3081 52.3276 75.69C52.3817 75.605 52.4358 75.5123 52.4898 75.4273C52.3817 75.3423 52.3044 75.2805 52.2503 75.2419C52.3276 74.8401 52.3972 74.4692 52.4744 74.1061C52.5826 74.0752 52.683 74.0443 52.8221 73.9979C52.683 73.7893 52.5749 73.6193 52.459 73.4416C52.5594 73.233 52.6676 73.0166 52.7526 72.8389C52.5053 72.584 52.289 72.3676 52.0572 72.1281C52.2117 72.0431 52.3662 71.9504 52.4976 71.8654C52.853 71.4637 52.5439 71.031 52.6753 70.606C52.7989 70.1965 52.3971 69.7561 52.6058 69.4007C52.513 69.1303 52.3353 68.9062 52.4049 68.7362C52.5903 68.2262 52.5826 67.7163 52.459 67.2063C52.4281 67.075 52.4126 66.9514 52.3894 66.8278C52.5285 66.7737 52.6367 66.735 52.7989 66.6732C52.4435 66.4337 52.4281 66.1478 52.4203 65.8542C52.544 65.8156 52.6212 65.7924 52.7835 65.746C52.6985 65.6224 52.6212 65.4988 52.5439 65.3674C52.513 65.3133 52.4898 65.2515 52.4821 65.2284C52.6753 65.097 52.8375 64.9888 52.9148 64.9348C52.8066 64.6257 52.7835 64.3862 52.6444 64.193C52.4976 63.9844 52.3044 63.799 52.4049 63.5517C52.5208 63.5131 52.6212 63.4822 52.7216 63.4513C52.6753 63.204 52.6367 62.98 52.598 62.7636C52.6985 62.6709 52.7912 62.5782 52.8839 62.4932C52.8221 62.4314 52.7062 62.3696 52.6985 62.3078C52.6676 61.8751 52.6521 61.4501 52.6521 61.0174C52.6521 60.9479 52.768 60.8783 52.8221 60.8165C52.6598 60.6311 52.428 60.5075 52.5826 60.2757C52.6521 60.1675 52.6521 60.0207 52.6212 59.9048C52.4667 59.1708 52.6753 58.4136 52.4126 57.6796C52.3894 57.61 52.4512 57.5173 52.4667 57.4323C52.5131 57.1851 52.6057 56.9379 52.5826 56.6906C52.5671 56.5129 52.4126 56.3429 52.2967 56.1189C52.4049 56.0416 52.5362 55.9488 52.6907 55.8484C52.5671 55.6784 52.4667 55.5316 52.374 55.4003C52.4203 55.2844 52.4744 55.1917 52.4898 55.0912C52.5671 54.5967 52.5131 54.0868 52.7139 53.5923C52.7758 53.4455 52.6135 53.2446 52.5671 53.121C52.5749 52.6651 52.5826 52.2479 52.598 51.7843C52.3353 51.5138 52.3894 51.1662 52.7912 50.7026C52.768 50.5558 52.7448 50.4321 52.7216 50.3008C52.5748 50.2699 52.4512 50.2467 52.1885 50.2003C52.4589 50.0072 52.6289 49.8836 52.8375 49.7368C52.513 48.9564 52.8221 48.0988 52.5671 47.2798C52.4899 47.0402 52.4358 46.793 52.5671 46.5148C52.6599 46.314 52.4358 46.0358 52.3353 45.7422C52.7216 45.3404 51.9644 45.1472 51.864 44.815C51.4468 44.8614 51.3463 44.5832 51.1068 44.3823C50.875 44.5987 50.705 44.7609 50.5196 44.9386C50.4269 44.8304 50.3651 44.7454 50.2724 44.6373C49.8783 44.7918 49.886 45.1318 49.5383 45.2708C49.2602 45.3867 49.5229 45.7267 49.1907 45.9044C48.9821 46.0203 49.3375 46.283 49.0825 46.453C49.1598 46.8702 49.237 47.2797 49.2988 47.612C48.8507 48.4001 48.8275 48.6241 49.1366 49.0491C48.8893 49.2886 48.8352 49.5513 48.9047 49.8372C49.0129 50.3085 48.7657 50.7953 48.982 51.2589C48.7734 51.622 48.9666 51.9852 48.982 52.3483C48.9898 52.5106 48.9357 52.6805 48.9047 52.8505C48.9743 52.9046 49.0593 52.9587 49.1134 52.9973C48.9279 53.4686 48.7502 53.9013 48.5802 54.3263C49.0207 54.5967 48.8275 54.9676 48.982 55.2612C48.8661 55.3771 48.758 55.4852 48.5957 55.6475C48.7889 55.9797 48.9975 56.3506 49.2293 56.7601C49.0979 56.8451 48.9279 56.9533 48.7348 57.0769C48.982 57.3783 48.4567 57.726 48.8043 58.0505C48.9743 58.0505 49.1366 58.0505 49.2834 58.0505C49.1211 58.29 48.9821 58.4986 48.8043 58.7536C49.3607 58.9699 49.1752 59.3408 48.9898 59.5958C48.7657 59.8894 48.9897 60.0285 49.0979 60.1753C48.9743 60.8706 48.5107 61.5196 49.0748 62.1841C48.7889 62.6168 48.8739 63.0881 49.0284 63.6908C48.9589 63.714 48.7811 63.7835 48.5802 63.8531C48.7271 64.0076 48.8584 64.1003 48.9125 64.2162C49.0129 64.4325 49.4147 64.6334 49.0516 64.9039C49.2215 65.3752 48.7348 65.8078 48.9279 66.2714C48.7889 66.3255 48.6885 66.3642 48.5648 66.4105C48.6807 66.6346 48.9511 66.905 48.8584 67.0518C48.7116 67.2913 48.8043 67.4845 48.8275 67.6931C48.8661 68.0254 48.9434 68.3576 49.0207 68.7825C48.9434 68.8289 48.7889 68.9062 48.6652 68.9834C48.8661 69.2616 49.0361 69.5011 49.2061 69.7329C48.8893 70.0111 49.2293 70.2969 49.152 70.5673C49.067 70.8455 48.8661 71.1082 48.7116 71.3787C48.8816 71.6336 49.1366 71.8345 48.9202 72.1513C48.8275 72.2904 48.8352 72.5994 49.152 72.7231C49.0052 72.9317 48.8662 73.1403 48.7039 73.3644C49.0825 73.913 48.4257 74.5542 49.0207 75.0874C48.8352 75.1337 48.673 75.1724 48.4103 75.2342C48.6421 75.3346 48.8043 75.3964 48.9434 75.4582C49.0052 76.1613 48.2326 76.8258 48.9743 77.5212C48.843 77.6139 48.7116 77.7066 48.6266 77.7684C48.6112 78.1007 48.7348 78.3557 48.6266 78.657C48.5416 78.8811 48.8275 79.1747 48.9125 79.4451C48.9434 79.5378 48.8893 79.6537 48.8584 79.7541C48.7657 80.0477 48.8584 80.3027 49.1211 80.5345C48.982 80.8281 48.8352 81.1218 48.6884 81.4308C48.8739 81.6626 49.1443 81.8789 48.8739 82.1803C48.7966 82.2653 48.9048 82.443 48.9279 82.5743C48.9743 82.837 49.0207 83.092 49.0748 83.3547C48.9357 83.4552 48.8275 83.5324 48.7503 83.5942C48.7966 83.8492 48.8352 84.0732 48.8971 84.3823C48.9821 84.4055 49.1443 84.4519 49.3065 84.4905C49.2911 84.5214 49.2756 84.56 49.2602 84.5909C49.0361 84.6141 48.8043 84.6373 48.4953 84.6682C49.2138 85.0159 48.4334 85.4949 48.8584 85.8271C48.9434 85.8271 49.0361 85.8349 49.1056 85.8426C49.3297 86.0976 49.0361 86.2908 48.9898 86.5303C48.8507 86.5457 48.7039 86.5612 48.5339 86.5766C48.7271 86.9089 48.9048 87.2102 49.0902 87.5192C48.9743 87.5733 48.8584 87.6274 48.7348 87.6815C48.8198 88.1374 48.897 88.5778 48.982 89.0182C48.3871 89.4586 48.7889 90.0535 48.4875 90.5249C48.8275 90.6485 48.8739 90.9266 48.7734 91.0503C48.5262 91.3516 48.7502 91.6143 48.7734 91.8847C48.8043 92.1861 48.6111 92.4642 48.7193 92.781C48.8198 93.0591 48.9202 93.3528 48.7503 93.6773C48.6575 93.8627 48.8275 94.1409 48.9588 94.3572C49.0516 94.5117 49.0825 94.6122 49.0052 94.7744C48.9047 94.983 48.8893 95.2226 48.8584 95.4466C48.8275 95.6784 48.8198 95.9102 48.7966 96.142C48.7966 96.1807 48.758 96.2193 48.7425 96.2502C48.6575 96.2734 48.5725 96.2965 48.4721 96.3197C48.4798 96.4124 48.4875 96.4974 48.503 96.6211C48.7193 96.737 48.9511 96.8683 49.2216 97.0229C49.0748 97.1774 48.9588 97.301 48.812 97.4633C48.9279 97.8341 49.0516 98.2282 49.1829 98.6454C49.067 98.6686 48.8971 98.7072 48.6575 98.7536C48.7812 98.9468 48.8893 99.1167 48.9975 99.2867C48.8816 99.4026 48.7657 99.5262 48.6343 99.673C49.1288 99.9435 48.9125 100.338 49.1443 100.639C49.3607 100.948 49.577 101.265 49.8088 101.597C50.0792 101.558 50.3032 101.535 50.5041 101.504C50.5119 101.396 50.5196 101.326 50.5273 101.249C50.9987 101.203 51.4468 101.164 51.9181 101.118C52.1422 100.847 52.3585 100.592 52.5826 100.322C52.5362 100.083 52.4976 99.843 52.4512 99.6189C52.5594 99.588 52.6444 99.5648 52.853 99.503C52.7217 99.3176 52.6135 99.1708 52.5362 99.0626L52.4976 99.0008ZM49.1597 96.227C49.1597 96.227 49.1597 96.2579 49.1675 96.2734C49.1057 96.2734 49.0439 96.2888 48.982 96.2888C48.982 96.2734 48.982 96.2579 48.9743 96.2425C49.0361 96.2425 49.0979 96.227 49.1597 96.227Z" fill="#FFE4D5"/>
<path id="Vector_6" d="M38.7521 54.0634C38.7212 54.2565 38.6825 54.4111 38.6825 54.5656C38.6825 54.7279 38.7829 54.9133 38.7289 55.0601C38.5125 55.6319 38.5589 56.2036 38.6748 56.7831C38.7366 57.0767 38.8139 57.378 38.6516 57.6794C38.4971 57.9652 38.5512 58.2666 38.5975 58.5756C38.6207 58.6993 38.528 58.8384 38.5048 58.9156C38.6439 59.186 38.7598 59.4178 38.8679 59.6342C38.9684 59.6342 39.0534 59.6419 39.1461 59.6496C39.1693 59.781 39.1847 59.8969 39.2311 60.1673C39.177 60.1828 38.9993 60.2523 38.837 60.3064C38.9916 60.5382 39.092 60.7004 39.2079 60.8704C39.0843 60.9168 38.9839 60.9554 38.8989 60.994C38.783 61.2567 38.6748 61.5117 38.5743 61.759C38.8293 61.8749 38.6903 62.0139 38.6593 62.153C38.6207 62.3307 38.5975 62.5084 38.5666 62.6707C38.6516 62.7479 38.7366 62.8098 38.7984 62.8638C38.7289 63.0029 38.6748 63.1034 38.6284 63.1961C38.7211 63.2811 38.7984 63.3506 38.8989 63.4433C38.528 64.131 38.9606 64.9191 38.528 65.6299C38.9066 65.8231 38.6902 66.1321 38.667 66.3716C38.8293 66.3948 38.9143 66.4026 38.9761 66.4103C39.0379 66.7812 39.0997 67.1366 39.1693 67.5616C38.9375 67.7933 38.6748 68.056 38.3812 68.3651C38.443 68.4655 38.5357 68.5969 38.6361 68.7437C38.3657 69.1532 38.6748 69.5627 38.6593 69.9336C38.7598 70.0418 38.8448 70.1113 38.8834 70.1963C38.922 70.2735 38.922 70.3663 38.9298 70.4435C38.7752 70.4899 38.6902 70.5131 38.5821 70.544C38.6207 70.7603 38.6516 70.9689 38.698 71.2394C38.5821 71.3089 38.4352 71.4016 38.3348 71.4712C38.4739 71.8729 38.358 72.2593 38.7211 72.5374C38.6052 72.9083 38.6284 73.2792 38.7211 73.65C38.7675 73.8432 38.7907 74.0363 38.8293 74.2759C38.7289 74.3531 38.6053 74.4536 38.5512 74.4922C38.4816 75.2339 38.9452 75.8752 38.698 76.4315C38.8139 76.787 38.9066 77.0496 38.953 77.1887C38.4739 77.9768 38.4507 78.6259 38.922 79.2903C38.8679 79.3831 38.8139 79.4835 38.7598 79.5762C38.868 79.6689 38.9452 79.7385 38.9993 79.7771C38.922 80.2098 38.8525 80.6116 38.7752 81.0056C38.667 81.0442 38.5666 81.0752 38.4275 81.1215C38.5666 81.3456 38.6748 81.531 38.7907 81.7242C38.6902 81.9482 38.5821 82.18 38.4971 82.3732C38.7443 82.6436 38.9607 82.8831 39.1925 83.1381C39.0379 83.2308 38.8834 83.3313 38.7521 83.4163C38.3966 83.8489 38.7057 84.3125 38.5743 84.7761C38.4507 85.2165 38.8525 85.6956 38.6439 86.0819C38.7366 86.3755 38.9143 86.615 38.8448 86.8005C38.6593 87.3568 38.6671 87.8976 38.7907 88.4539C38.8216 88.593 38.837 88.7321 38.8602 88.8557C38.7211 88.9098 38.613 88.9562 38.4507 89.018C38.8061 89.2729 38.8216 89.5897 38.8293 89.8988C38.7057 89.9374 38.6284 89.9606 38.4662 90.0147C38.5512 90.1538 38.6284 90.2851 38.7057 90.4242C38.7366 90.486 38.7598 90.5478 38.7675 90.5787C38.5743 90.7178 38.4121 90.8415 38.3348 90.8955C38.443 91.2278 38.4662 91.4827 38.6053 91.6991C38.7521 91.9309 38.9452 92.1317 38.8448 92.3944C38.7289 92.4331 38.6284 92.4717 38.528 92.5026C38.5743 92.773 38.613 93.0126 38.6516 93.2444C38.5512 93.3448 38.4585 93.4453 38.3657 93.538C38.4275 93.6075 38.5434 93.6693 38.5512 93.7389C38.5821 94.2025 38.5975 94.6661 38.5975 95.1374C38.5975 95.2146 38.4816 95.2919 38.4275 95.3537C38.5898 95.5546 38.8216 95.6859 38.667 95.9409C38.5975 96.0568 38.5975 96.2114 38.6284 96.3427C38.7829 97.1385 38.5743 97.9575 38.837 98.7456C38.8602 98.8229 38.7984 98.9234 38.7829 99.0084C38.7366 99.2788 38.6439 99.5492 38.667 99.8119C38.6825 100.005 38.8371 100.19 38.953 100.422C38.8448 100.507 38.7134 100.608 38.5589 100.716C38.6825 100.901 38.7829 101.064 38.8757 101.203C38.8293 101.326 38.7752 101.427 38.7598 101.543C38.6825 102.083 38.7366 102.624 38.5357 103.157C38.4739 103.32 38.6361 103.528 38.6825 103.667C38.6748 104.162 38.6671 104.61 38.6516 105.112C38.9143 105.398 38.8602 105.777 38.4584 106.287C38.4816 106.441 38.5048 106.58 38.528 106.719C38.6748 106.75 38.7984 106.773 39.0611 106.828C38.7907 107.036 38.6207 107.167 38.4121 107.33C38.7366 108.18 38.4275 109.099 38.6825 109.988C38.7598 110.25 38.8139 110.513 38.6825 110.814C38.5898 111.031 38.8138 111.332 38.9143 111.657C38.528 112.097 39.2852 112.298 39.3856 112.661C39.8029 112.607 39.9033 112.908 40.1428 113.132C40.3746 112.901 40.5446 112.723 40.73 112.537C40.8228 112.653 40.8846 112.746 40.9773 112.87C41.3713 112.7 41.3636 112.337 41.7113 112.182C41.9894 112.058 41.7267 111.695 42.059 111.494C42.2676 111.371 41.9122 111.085 42.1672 110.899C42.0899 110.451 42.0126 110.003 41.9508 109.64C42.3989 108.79 42.4221 108.551 42.1131 108.087C42.3603 107.832 42.4144 107.546 42.3448 107.229C42.2367 106.719 42.4839 106.194 42.2676 105.692C42.4762 105.298 42.2831 104.904 42.2676 104.51C42.2599 104.332 42.3139 104.154 42.3448 103.969C42.2753 103.915 42.1903 103.853 42.1363 103.806C42.3217 103.297 42.4994 102.825 42.6694 102.369C42.229 102.076 42.4221 101.674 42.2676 101.357C42.3835 101.234 42.4917 101.118 42.6539 100.94C42.4608 100.577 42.2521 100.183 42.0203 99.7346C42.1517 99.6496 42.3217 99.526 42.5149 99.3947C42.2676 99.0702 42.793 98.6915 42.4453 98.3438C42.2753 98.3438 42.1131 98.3438 41.9663 98.3438C42.1285 98.0811 42.2676 97.8571 42.4453 97.5867C41.889 97.3549 42.0744 96.9531 42.2599 96.6827C42.4839 96.3659 42.2599 96.2114 42.1517 96.0568C42.2753 95.2996 42.7389 94.6042 42.1749 93.8857C42.4608 93.4144 42.3758 92.9121 42.2212 92.2554C42.2908 92.2245 42.4685 92.1549 42.6694 92.0777C42.5226 91.9077 42.3912 91.8072 42.3371 91.6913C42.2367 91.4518 41.8349 91.2432 42.198 90.9496C42.0281 90.4396 42.5149 89.9683 42.3217 89.4738C42.4608 89.4198 42.5612 89.3811 42.6848 89.327C42.5689 89.0875 42.2985 88.7939 42.3912 88.6316C42.538 88.3767 42.4453 88.1681 42.4221 87.944C42.3835 87.5809 42.3062 87.2254 42.229 86.7696C42.3062 86.7232 42.4607 86.6305 42.5844 86.5532C42.3835 86.2519 42.2135 85.9969 42.0436 85.7419C42.3603 85.4406 42.0203 85.1316 42.0976 84.8457C42.1826 84.5444 42.3835 84.2585 42.538 83.9649C42.368 83.6944 42.1131 83.4704 42.3294 83.1304C42.4221 82.9836 42.4144 82.6436 42.0976 82.5123C42.2444 82.2882 42.3835 82.0642 42.5457 81.8169C42.1671 81.222 42.8239 80.5343 42.229 79.9548C42.4144 79.9085 42.5767 79.8621 42.8394 79.8003C42.6076 79.6921 42.4453 79.6226 42.3062 79.5608C42.2444 78.8036 43.0171 78.0773 42.2753 77.3278C42.4067 77.2273 42.538 77.1269 42.623 77.0651C42.6385 76.7097 42.5149 76.4316 42.623 76.107C42.708 75.8675 42.4221 75.5507 42.3371 75.2571C42.3062 75.1567 42.3603 75.033 42.3912 74.9249C42.4839 74.6081 42.3912 74.33 42.1285 74.0827C42.2676 73.7659 42.4144 73.4491 42.5612 73.1169C42.3758 72.8696 42.1054 72.6378 42.3758 72.3056C42.453 72.2129 42.3449 72.0274 42.3217 71.8806C42.2753 71.6025 42.229 71.3166 42.1749 71.0385C42.314 70.9303 42.4221 70.8453 42.4994 70.7835C42.453 70.5053 42.4144 70.2658 42.3526 69.9336C42.2676 69.9104 42.1054 69.864 41.9431 69.8177C41.9586 69.779 41.974 69.7481 41.9895 69.7095C42.2135 69.6863 42.4453 69.6632 42.7544 69.6322C42.0358 69.2614 42.8162 68.736 42.3912 68.3806C42.3062 68.3806 42.2135 68.3728 42.144 68.3651C41.9199 68.0947 42.2135 67.886 42.2599 67.6233C42.3989 67.6079 42.5458 67.5924 42.7158 67.577C42.5226 67.2216 42.3449 66.8894 42.1594 66.5571C42.2753 66.4953 42.3912 66.4412 42.5149 66.3794C42.4299 65.8926 42.3526 65.4136 42.2676 64.9345C42.8625 64.4555 42.4608 63.8219 42.7621 63.3043C42.4221 63.1729 42.3758 62.8639 42.4762 62.7402C42.7235 62.4157 42.4994 62.1298 42.4762 61.8362C42.4453 61.5117 42.6384 61.2103 42.5303 60.8627C42.4298 60.5613 42.3294 60.2446 42.4994 59.8892C42.5921 59.6883 42.4221 59.3869 42.2908 59.1551C42.198 58.9929 42.1671 58.8847 42.2444 58.707C42.3448 58.4752 42.3603 58.2202 42.3912 57.973C42.4221 57.7257 42.4299 57.4708 42.453 57.2235C42.453 57.1772 42.4917 57.1385 42.5071 57.0999C42.5921 57.0767 42.6771 57.0535 42.7775 57.0226C42.7698 56.9222 42.7621 56.8295 42.7466 56.6981C42.5303 56.5668 42.2985 56.4277 42.0281 56.2654C42.1749 56.0955 42.2908 55.9641 42.4376 55.7941C42.3217 55.4 42.1981 54.9674 42.0667 54.5192C42.1826 54.4961 42.3526 54.4574 42.5921 54.4033C42.4685 54.1947 42.3603 54.0093 42.2521 53.8316C42.368 53.7002 42.484 53.5689 42.6153 53.4144C42.1208 53.1208 42.3371 52.6958 42.1053 52.3713C41.889 52.0313 41.6727 51.6991 41.4409 51.3359C41.1704 51.3746 40.9463 51.4055 40.7455 51.4364C40.7377 51.56 40.73 51.6218 40.7223 51.7145C40.251 51.7609 39.8029 51.8072 39.3315 51.8613C39.1075 52.1472 38.8911 52.4331 38.667 52.719C38.7134 52.9739 38.7521 53.2366 38.7984 53.4839C38.6902 53.5225 38.6052 53.5457 38.3966 53.6153C38.528 53.8161 38.6362 53.9707 38.7134 54.0866L38.7521 54.0634ZM42.0899 57.0612C42.0899 57.0612 42.0899 57.0303 42.0822 57.0149C42.144 57.0149 42.2058 56.9994 42.2676 56.9994C42.2676 57.0149 42.2676 57.0303 42.2753 57.0458C42.2135 57.0458 42.1517 57.0612 42.0899 57.0612Z" fill="#FFE4D5"/>
<path id="Vector_7" d="M28.7075 61.7825C28.6766 62.0066 28.6379 62.1766 28.6379 62.3543C28.6379 62.5397 28.7384 62.7483 28.6843 62.9183C28.468 63.5751 28.5143 64.2241 28.6302 64.8808C28.692 65.2208 28.7693 65.553 28.6071 65.9007C28.4525 66.2252 28.5066 66.5729 28.553 66.9129C28.5761 67.052 28.4834 67.2065 28.4603 67.2992C28.5993 67.6083 28.7152 67.871 28.8234 68.1182C28.9238 68.1182 29.0088 68.126 29.1016 68.1337C29.1247 68.2805 29.1402 68.4118 29.1865 68.7209C29.1325 68.7441 28.9547 68.8136 28.7925 68.8831C28.947 69.1458 29.0474 69.3313 29.1633 69.5244C29.0397 69.5785 28.9393 69.6249 28.8543 69.6635C28.7384 69.9648 28.6302 70.2507 28.5298 70.5366C28.7847 70.668 28.6457 70.8302 28.6148 70.9848C28.5762 71.1856 28.553 71.3865 28.5221 71.572C28.6071 71.657 28.6921 71.7342 28.7539 71.796C28.6843 71.9506 28.6302 72.0664 28.5839 72.1746C28.6766 72.2751 28.7539 72.3523 28.8543 72.4605C28.4834 73.2486 28.9161 74.1449 28.4834 74.9484C28.862 75.1648 28.6457 75.5202 28.6225 75.7906C28.7847 75.8138 28.8697 75.8215 28.9316 75.837C28.9934 76.2619 29.0552 76.6637 29.1247 77.1505C28.8929 77.4132 28.6302 77.7145 28.3366 78.0622C28.3984 78.1704 28.4911 78.3326 28.5916 78.4949C28.3212 78.9585 28.6302 79.4298 28.6148 79.847C28.7152 79.9706 28.8002 80.0479 28.8388 80.1406C28.8775 80.2333 28.8775 80.3415 28.8852 80.4188C28.7307 80.4651 28.6457 80.496 28.5375 80.5269C28.5761 80.7665 28.6071 81.006 28.6534 81.3228C28.5375 81.4078 28.3907 81.5082 28.2902 81.5855C28.4293 82.0413 28.3134 82.4817 28.6766 82.7985C28.5607 83.2158 28.5839 83.6407 28.6766 84.058C28.7229 84.2743 28.7461 84.4906 28.7848 84.7688C28.6843 84.8538 28.5607 84.9697 28.5066 85.016C28.4371 85.8659 28.9007 86.5923 28.6534 87.2258C28.7693 87.6353 28.862 87.9289 28.9084 88.0912C28.4294 88.9875 28.4061 89.7292 28.8775 90.4864C28.8234 90.5946 28.7693 90.7104 28.7152 90.8109C28.8234 90.9191 28.9007 90.9963 28.9548 91.0427C28.8775 91.5372 28.8079 91.9931 28.7307 92.4412C28.6225 92.4798 28.522 92.5185 28.383 92.5726C28.522 92.8275 28.6302 93.0362 28.7461 93.2602C28.6457 93.5152 28.5375 93.7779 28.4525 94.0019C28.6998 94.311 28.9161 94.5814 29.1479 94.875C28.9934 94.9832 28.8389 95.0991 28.7075 95.1918C28.3521 95.6863 28.6611 96.2117 28.5298 96.7371C28.4061 97.2394 28.8079 97.7802 28.5993 98.2206C28.692 98.5528 28.8698 98.8233 28.8002 99.0396C28.6148 99.6732 28.6225 100.291 28.7461 100.917C28.777 101.072 28.7925 101.234 28.8156 101.381C28.6766 101.443 28.5684 101.489 28.4062 101.566C28.7616 101.86 28.777 102.215 28.7848 102.571C28.6611 102.617 28.5839 102.648 28.4216 102.702C28.5066 102.856 28.5839 103.011 28.6611 103.166C28.6921 103.235 28.7152 103.305 28.7229 103.336C28.5298 103.498 28.3675 103.637 28.2902 103.699C28.3984 104.077 28.4216 104.371 28.5607 104.618C28.7075 104.881 28.9007 105.105 28.8002 105.406C28.6843 105.453 28.5839 105.491 28.4834 105.53C28.5298 105.839 28.5684 106.109 28.6071 106.372C28.5066 106.488 28.4139 106.596 28.3212 106.704C28.383 106.782 28.4989 106.851 28.5066 106.936C28.5375 107.461 28.553 107.995 28.553 108.528C28.553 108.613 28.437 108.698 28.383 108.775C28.5452 109.007 28.777 109.154 28.6225 109.439C28.5529 109.571 28.5529 109.749 28.5839 109.895C28.7384 110.799 28.5298 111.726 28.7925 112.63C28.8157 112.723 28.7538 112.831 28.7384 112.932C28.692 113.233 28.5993 113.542 28.6225 113.844C28.6379 114.06 28.7925 114.276 28.9084 114.539C28.8002 114.632 28.6689 114.748 28.5143 114.879C28.638 115.088 28.7384 115.273 28.8311 115.435C28.7847 115.574 28.7307 115.69 28.7152 115.822C28.638 116.432 28.692 117.058 28.4911 117.66C28.4293 117.846 28.5916 118.085 28.6379 118.24C28.6302 118.804 28.6225 119.314 28.6071 119.886C28.8698 120.218 28.8157 120.643 28.4139 121.222C28.4371 121.4 28.4602 121.562 28.4834 121.709C28.6302 121.74 28.7538 121.771 29.0165 121.833C28.7461 122.065 28.5762 122.219 28.3675 122.404C28.692 123.37 28.383 124.413 28.6379 125.426C28.7152 125.727 28.7693 126.028 28.6379 126.368C28.5452 126.615 28.7693 126.963 28.8697 127.319C28.4834 127.813 29.2406 128.045 29.3411 128.462C29.7583 128.4 29.8587 128.748 30.0983 128.995C30.3301 128.733 30.5 128.532 30.6855 128.315C30.7782 128.454 30.84 128.555 30.9327 128.686C31.3268 128.493 31.319 128.083 31.6667 127.906C31.9449 127.767 31.6822 127.349 32.0144 127.125C32.223 126.986 31.8676 126.654 32.1226 126.453C32.0453 125.943 31.968 125.433 31.9062 125.024C32.3544 124.058 32.3776 123.78 32.0685 123.262C32.3158 122.969 32.3698 122.652 32.3003 122.289C32.1921 121.709 32.4394 121.114 32.223 120.535C32.4317 120.087 32.2385 119.638 32.223 119.19C32.2153 118.989 32.2694 118.781 32.3003 118.572C32.2308 118.51 32.1458 118.433 32.0917 118.387C32.2771 117.807 32.4549 117.274 32.6248 116.749C32.1844 116.416 32.3776 115.961 32.223 115.597C32.3389 115.458 32.4471 115.327 32.6094 115.118C32.4162 114.709 32.2076 114.253 31.9758 113.743C32.1071 113.643 32.2771 113.511 32.4703 113.357C32.2231 112.986 32.7484 112.561 32.4007 112.159C32.2308 112.159 32.0685 112.159 31.9217 112.159C32.084 111.866 32.223 111.611 32.4007 111.294C31.8444 111.031 32.0299 110.575 32.2153 110.266C32.4394 109.903 32.2153 109.733 32.1071 109.548C32.2308 108.69 32.6944 107.894 32.1303 107.083C32.4162 106.55 32.3312 105.97 32.1767 105.229C32.2462 105.198 32.4239 105.12 32.6248 105.028C32.478 104.834 32.3466 104.719 32.2926 104.587C32.1921 104.317 31.7903 104.077 32.1535 103.745C31.9835 103.166 32.4703 102.632 32.2771 102.068C32.4162 102.007 32.5166 101.96 32.6403 101.898C32.5244 101.62 32.2539 101.296 32.3466 101.103C32.4935 100.809 32.4008 100.569 32.3776 100.314C32.339 99.905 32.2617 99.4955 32.1844 98.9778C32.2617 98.9237 32.4162 98.8233 32.5398 98.7305C32.3389 98.3906 32.169 98.097 31.999 97.8111C32.3158 97.4711 31.9758 97.1157 32.053 96.7912C32.138 96.4435 32.3389 96.1267 32.4935 95.7945C32.3235 95.4854 32.0685 95.2382 32.2849 94.8441C32.3776 94.6742 32.3698 94.2878 32.053 94.141C32.1998 93.886 32.3389 93.6311 32.5012 93.3529C32.1226 92.6807 32.7794 91.8926 32.1844 91.2358C32.3699 91.1818 32.5321 91.1354 32.7948 91.0581C32.563 90.9345 32.4007 90.8573 32.2617 90.7877C32.1999 89.9224 32.9725 89.1033 32.2308 88.2457C32.3621 88.1298 32.4935 88.0139 32.5785 87.9444C32.5939 87.5426 32.4703 87.2258 32.5785 86.8549C32.6635 86.5768 32.3775 86.2214 32.2926 85.8891C32.2617 85.7732 32.3157 85.6342 32.3466 85.5105C32.4394 85.1474 32.3467 84.8383 32.084 84.5525C32.2231 84.197 32.3699 83.8339 32.5167 83.4553C32.3312 83.1694 32.0608 82.9067 32.3312 82.5359C32.4085 82.4277 32.3003 82.2191 32.2771 82.0568C32.2308 81.74 32.1844 81.4155 32.1303 81.0987C32.2694 80.9751 32.3776 80.8746 32.4548 80.8051C32.4085 80.4883 32.3698 80.2179 32.308 79.8393C32.223 79.8084 32.0608 79.7543 31.8985 79.7079C31.914 79.6693 31.9295 79.623 31.9449 79.5843C32.169 79.5612 32.4008 79.5303 32.7098 79.4916C31.9913 79.0667 32.7716 78.4717 32.3466 78.0699C32.2617 78.0699 32.1689 78.0545 32.0994 78.0545C31.8753 77.7454 32.169 77.5059 32.2153 77.2046C32.3544 77.1891 32.5012 77.1737 32.6712 77.1505C32.478 76.741 32.3003 76.3701 32.1149 75.9915C32.2308 75.922 32.3467 75.8601 32.4703 75.7906C32.3853 75.2343 32.308 74.6934 32.223 74.1526C32.818 73.6117 32.4162 72.8855 32.7176 72.2983C32.3776 72.1437 32.3312 71.8038 32.4317 71.657C32.6789 71.2861 32.4549 70.9616 32.4317 70.6293C32.4008 70.2584 32.5939 69.9108 32.4857 69.5244C32.3853 69.1767 32.2848 68.8213 32.4548 68.4196C32.5476 68.1955 32.3776 67.8478 32.2462 67.5851C32.1535 67.3996 32.1226 67.276 32.1998 67.0674C32.3003 66.8047 32.3157 66.5188 32.3467 66.2329C32.3776 65.9471 32.3853 65.6612 32.4085 65.3831C32.4085 65.3367 32.4471 65.2903 32.4626 65.244C32.5476 65.2131 32.6325 65.1899 32.733 65.159C32.7252 65.0431 32.7175 64.9349 32.7021 64.7881C32.4857 64.6413 32.254 64.479 31.9835 64.3013C32.1303 64.1082 32.2462 63.9536 32.393 63.7605C32.2771 63.3123 32.1535 62.8256 32.0222 62.3079C32.138 62.277 32.308 62.2384 32.5475 62.1765C32.4239 61.937 32.3158 61.7284 32.2076 61.5275C32.3235 61.3807 32.4394 61.2339 32.5707 61.0562C32.0763 60.724 32.2926 60.2372 32.0608 59.8663C31.8444 59.48 31.6281 59.1014 31.3963 58.6919C31.1259 58.7383 30.9018 58.7692 30.7009 58.8001C30.6932 58.9392 30.6855 59.0164 30.6778 59.1169C30.2064 59.171 29.7583 59.225 29.287 59.2791C29.0629 59.6114 28.8465 59.9282 28.6225 60.2604C28.6688 60.554 28.7075 60.8476 28.7539 61.1258C28.6457 61.1644 28.5607 61.1953 28.3521 61.2726C28.4834 61.4966 28.5916 61.6743 28.6689 61.8134L28.7075 61.7825ZM32.0454 65.1976C32.0454 65.1976 32.0453 65.159 32.0376 65.1435C32.0994 65.1435 32.1612 65.1281 32.223 65.1203C32.223 65.1358 32.2231 65.159 32.2308 65.1744C32.169 65.1744 32.1072 65.1899 32.0454 65.1976Z" fill="#FFE4D5"/>
</g>
</g>
</svg>
