<svg width="120" height="157" viewBox="0 0 120 157" fill="none" xmlns="http://www.w3.org/2000/svg">
<g id="Graphic 01" clip-path="url(#clip0_568_864)">
<g id="circle-light">
<path id="Vector" d="M77.2058 49.9106C95.9749 34.0147 98.3041 5.91309 82.4082 -12.856C66.5123 -31.6252 38.4108 -33.9544 19.6416 -18.0585C0.872501 -2.16255 -1.45674 25.939 14.4392 44.7081C30.3351 63.4773 58.4367 65.8065 77.2058 49.9106Z" fill="#FFA972"/>
<path id="Vector_2" d="M74.1432 -22.985C73.4187 -23.5936 72.7916 -24.0112 72.1429 -24.3785C71.4451 -24.7846 70.6069 -25.0718 70.0237 -25.4945C69.4686 -25.9411 68.861 -26.2788 68.2425 -26.5913C67.6241 -26.9037 66.9963 -27.2083 66.3577 -27.4876C65.1114 -28.1046 63.7356 -28.4189 62.3814 -28.7837C61.6808 -28.9463 60.994 -29.1686 60.3014 -29.3218C59.5915 -29.4764 58.9111 -29.6722 58.23 -29.9637C57.582 -30.2351 56.8858 -30.4495 56.1838 -30.5948C55.4603 -30.6896 54.7245 -30.7419 53.9981 -30.8021C53.4006 -30.8429 52.7671 -31.0782 52.3909 -31.1617C51.0542 -31.107 49.9387 -30.886 48.8931 -30.7724C48.8629 -30.6182 48.8341 -30.4813 48.8133 -30.335C48.1914 -30.2907 47.6502 -30.3791 46.3647 -30.207C46.2746 -30.2755 45.9581 -30.5542 45.656 -30.7969C44.5586 -30.4786 43.8186 -30.27 43.0159 -30.0405C42.7694 -30.2177 42.5639 -30.3653 42.3902 -30.4755C41.1082 -30.4512 39.8702 -30.4319 38.6495 -30.4112C38.1755 -29.9454 37.4729 -29.9775 36.8279 -29.8655C35.987 -29.7001 35.1368 -29.5268 34.3758 -29.3809C34.0697 -29.1538 33.793 -28.9677 33.5683 -28.7774C32.914 -28.6575 32.4182 -28.5592 31.9679 -28.4834C31.6307 -28.1978 31.3592 -27.9679 30.994 -27.6585C27.6281 -27.0755 24.5882 -24.6456 21.3488 -23.3816C20.8599 -22.4208 19.5407 -21.7377 18.589 -21.0765C18.6727 -20.8257 18.7131 -20.6831 18.7485 -20.5844C17.3416 -19.4733 16.2331 -18.1807 14.8148 -16.7222C13.7139 -16.2562 12.6275 -15.5451 11.281 -14.7425C11.0549 -14.3258 10.7266 -13.7261 10.386 -13.0839C9.6181 -12.4335 9.07006 -11.5996 8.55662 -10.7627C8.06048 -9.92436 7.57515 -9.11125 7.14456 -8.32845C7.0122 -7.78215 6.97415 -7.42829 6.83884 -7.05638C6.71289 -6.6924 6.48031 -6.30247 6.32407 -5.99325C5.99621 -5.92464 5.83622 -5.88563 5.60564 -5.83509C5.10377 -4.92759 4.81309 -3.94166 4.32793 -2.71061C4.02826 -2.45681 3.62844 -2.15036 3.33957 -1.92179C3.01065 -0.999956 2.75093 -0.072364 2.50629 0.778092C2.27895 1.62998 2.11715 2.42636 2.18738 3.15489C1.54387 4.82561 1.18865 6.58986 0.979742 8.37496C0.913127 9.28371 0.835714 10.2177 0.756959 11.3779C0.553896 11.7268 0.279546 12.2004 0.186663 12.3756C0.054867 14.1758 0.123376 15.8707 0.247295 17.4221C0.467056 18.9728 0.627665 20.3967 0.531708 21.7645C0.98501 23.4391 1.31197 24.6417 1.49964 25.319C1.44429 27.2474 1.79747 28.9746 2.17653 30.5995C2.71555 32.1854 3.44977 33.622 4.34827 34.9677C4.4681 35.413 4.59442 35.885 4.70775 36.3036C5.06389 36.6292 5.31406 36.8676 5.46762 37.011C6.19344 38.9693 7.15263 40.6336 8.04912 42.3187C7.99446 42.558 7.95061 42.772 7.88878 43.0978C8.64005 43.9089 9.38612 44.467 10.089 45.1261C10.6371 46.0771 11.1341 47.1196 11.6807 47.8789C12.8679 48.5781 13.8907 49.1592 15.0037 49.8088C15.1351 50.3247 15.3292 50.8197 15.4944 51.2426C16.0907 52.1366 16.901 52.8656 17.7567 53.5721C18.5844 54.3025 19.6036 54.8223 20.4391 55.562C22.0316 57.0437 24.446 57.5398 25.8763 58.7729C27.2082 59.3013 28.388 59.46 29.1585 59.9331C30.3003 60.6547 31.5502 61.124 32.8042 61.5414C33.4313 61.7501 34.0677 61.9509 34.6961 62.1423C35.3448 62.3005 35.9992 62.3896 36.66 62.5053C37.3209 62.6211 37.9818 62.7368 38.5829 62.8388C38.8208 63.1198 38.978 63.3244 39.2383 63.6507C40.5677 63.2646 42.0696 63.4239 43.5606 63.6084C43.7337 63.8318 43.8433 63.9801 44.0747 64.2344C44.7448 64.1332 45.3977 64.0306 46.0599 63.9201C46.3503 63.8832 46.6659 63.8571 46.7884 63.8499C47.4746 64.1854 48.0613 64.4604 48.3122 64.5857C49.9256 64.345 51.1816 64.214 52.2069 63.9246C53.3 63.6582 54.1897 63.1137 55.489 63.0908C55.7197 63.2492 55.9186 63.3702 56.1082 63.4991C57.4074 63.2672 58.5012 62.8876 59.5748 62.5413C60.0951 62.567 60.5887 62.5992 61.0917 62.6235C61.3763 62.4468 61.6241 62.1887 61.9628 62.0949C64.0616 61.2501 66.2246 60.576 68.2196 59.5137C68.5467 59.3492 68.9553 59.3569 69.2738 59.2963C70.051 58.638 70.4644 58.0627 71.5985 57.6169C72.1281 57.4256 72.7801 57.0182 73.2988 56.6433L74.499 55.8198C74.8959 55.5479 75.2626 55.2213 75.6437 54.9307L77.9503 53.154C78.7457 52.593 79.3903 51.8541 80.0984 51.1901C80.7733 50.5059 81.4656 49.8232 82.0425 49.0612C82.26 48.7483 82.6396 48.475 82.9356 48.16C83.8144 47.2228 84.851 46.377 85.5748 45.3138C86.0998 44.5475 86.4165 43.6682 86.9111 42.6382C87.2706 42.398 87.7526 42.1507 88.2352 41.7901C88.508 40.9159 88.7533 40.1613 88.9743 39.4917C89.3272 39.0159 89.6556 38.6252 89.9458 38.1703C91.18 35.8868 92.1914 33.4542 93.2331 31.0764C93.5715 30.3556 93.6841 29.3114 93.7307 28.6448C94.0011 27.483 94.2673 26.3731 94.5334 25.2632C94.757 24.1411 94.8704 22.9837 95.0478 21.7881C94.8966 20.3562 94.939 18.5835 95.691 16.1294C95.6582 15.3691 95.5398 14.6975 95.4811 14.0396C95.2396 13.9064 95.0313 13.7934 94.6067 13.5579C94.9601 12.551 95.2264 11.8591 95.4668 11.0605C94.849 9.05888 94.6607 6.91868 94.0408 4.83849C93.7528 3.79586 93.5556 2.70854 93.1609 1.6919C92.7663 0.67526 92.345 -0.334885 91.8769 -1.30537C91.6287 -1.88321 91.3006 -2.44156 91.0005 -3.0237C90.7099 -3.61378 90.4314 -4.24634 90.2106 -4.94382C90.0432 -5.44531 89.7496 -6.00079 89.3163 -6.55044C88.8736 -7.09216 88.3725 -7.66487 87.9088 -8.26927C87.6035 -9.31334 87.1053 -9.9206 86.4811 -10.3729C85.8381 -10.8093 85.1612 -11.1527 84.578 -11.7845C84.1977 -11.189 83.2201 -12.2105 82.3089 -12.7736C82.6647 -11.708 82.9367 -10.893 83.2311 -10.0327C82.7979 -10.3734 82.4612 -10.619 82.02 -10.969C81.9902 -9.97885 82.9665 -8.73116 82.9295 -7.8635C82.8829 -7.19689 84.0314 -6.03068 84.0376 -5.05494C84.0393 -4.44529 85.1768 -3.67184 85.1196 -2.77102C85.5898 -1.93098 86.0694 -1.09888 86.5172 -0.304214C86.9464 0.506306 87.253 1.32411 87.5776 2.03018C87.9315 3.85323 87.9818 5.03288 88.1919 5.96456C88.3674 6.89338 88.7641 7.57061 89.1219 8.50583C88.8954 9.66255 89.0242 10.84 89.2987 12.1515C89.4454 13.2172 89.4668 14.3248 89.4896 15.4151C89.5125 16.5054 89.3876 17.5922 89.5408 18.6846C89.4452 19.1033 89.3934 19.517 89.3511 19.9227C89.2821 20.335 89.2304 20.7486 89.196 21.1637C89.1272 21.9939 89.1009 22.8364 89.0227 23.6745C88.9171 24.4233 88.6134 25.1469 88.4025 25.9044C88.4596 26.1616 88.5311 26.4549 88.5672 26.6495C88.2203 27.683 87.7328 28.6265 87.2749 29.529C86.7997 30.43 86.4455 31.341 85.8816 32.1563C85.9547 32.8502 85.7389 33.5638 85.4805 34.265C85.3387 34.6103 85.2048 34.9649 85.063 35.3101C84.8959 35.6446 84.7383 35.9711 84.6246 36.2926C84.1938 36.6574 83.8084 36.9999 83.2076 37.5248C83.0896 37.8981 82.9622 38.2794 82.8255 38.6686C82.6556 39.0376 82.4842 39.424 82.3129 39.8103C81.9594 40.6082 81.5764 41.4472 81.1812 42.3287C80.8087 42.5155 80.2445 42.7038 79.6242 42.9397C78.987 44.2192 77.4228 44.9167 76.6855 46.2488C76.8599 46.4548 77.0358 46.6435 77.1959 46.8135C76.1916 47.3746 75.3804 47.9169 74.3018 48.4283C74.0653 49.7061 72.5069 50.5435 71.4248 50.9936C70.0846 51.405 69.7267 52.0458 69.2326 52.5447C66.3536 54.0823 63.4014 54.5081 60.8187 56.3577C59.8142 56.5008 58.7701 56.5971 57.69 56.9168C57.1395 57.0454 56.5897 57.2697 55.978 57.4019C55.3741 57.5434 54.7343 57.6993 54.0505 57.8603C53.9193 57.7624 53.5812 57.5341 53.2114 57.2683C52.5464 57.6224 52.1495 57.8943 51.6458 57.9832C50.6701 58.1984 49.7848 58.8999 48.5206 58.3946C46.3271 58.5959 44.3695 57.8416 42.2666 57.7892C42.0604 57.5457 41.9097 57.3678 41.7288 57.1351C40.694 57.2234 39.4113 57.361 38.7662 57.055C37.7628 56.5539 36.8455 56.591 35.946 56.3075C35.2152 56.0902 34.483 55.8901 33.6894 55.6938C33.2974 55.5916 32.8786 55.496 32.4628 55.3657C32.0484 55.2182 31.6181 55.0519 31.1705 54.8842C31.0306 54.681 30.7825 54.3122 30.5741 53.9902C29.9399 53.8679 29.328 53.7911 28.7644 53.6573C28.2023 53.5062 27.6668 53.3486 27.1392 53.2004C26.7044 52.6681 26.1379 52.3599 25.5433 52.0755C24.9472 51.8084 24.3914 51.475 23.9185 51.0875C22.956 50.198 22.1132 49.3357 21.3727 48.2904C20.3563 47.736 19.3171 47.4583 18.526 46.1824C18.1899 45.6147 17.2216 44.5853 16.4606 44.5223C15.9371 43.6952 15.5432 42.7744 15.127 41.8082C14.1321 40.9944 13.3454 39.8756 12.7496 38.6594C12.1178 37.4577 11.3722 36.3684 10.4739 35.4406C10.6568 35.1249 10.8102 34.8503 11.047 34.4084C10.5187 34.1644 10.1576 34.0038 9.84696 33.8649C9.65871 33.5097 9.4892 33.1386 9.33698 32.769C9.21142 32.3929 9.12188 32.0023 9.01505 31.6104C8.82663 30.8372 8.63677 30.0814 8.45627 29.3176C8.10321 27.7994 7.80057 26.3027 6.81196 24.8886C6.95444 24.4302 7.08899 23.9624 7.18254 23.6741C6.99164 22.1955 6.51913 21.0679 6.67777 19.6792C6.71141 19.1682 6.60306 18.5846 6.44425 17.9793C6.36485 17.6767 6.28687 17.3567 6.20746 17.0541C6.14679 16.7356 6.11136 16.4279 6.09321 16.1217C6.05987 15.6835 6.16271 15.1783 6.22664 14.7221C6.33444 14.0519 6.32477 13.4329 6.30433 12.8391C6.31055 12.2388 6.24327 11.6847 6.10682 11.1248C6.29967 10.479 6.5019 9.8253 6.70411 9.1716C6.94091 8.52076 7.23752 7.88358 7.51034 7.21831C7.45149 6.14243 7.23048 5.027 8.11201 3.84621C8.35759 3.50956 8.43289 2.70602 8.59477 2.11863L8.82356 1.24946L9.13736 0.404736L9.765 -1.28471C10.1489 -1.60988 10.4486 -1.8637 10.664 -2.04611C11.1363 -3.12151 11.6101 -4.00521 12.2206 -5.27812C12.1643 -5.43951 12.033 -5.74644 11.9111 -6.0613C12.009 -6.1925 12.1135 -6.29704 12.2367 -6.41744C12.5927 -6.30086 12.9581 -6.19219 13.4497 -6.02954C13.4344 -7.94642 15.6347 -9.07017 16.176 -10.5578C16.0808 -10.6702 15.9936 -10.7732 15.9142 -10.8668C16.1612 -11.4298 16.5228 -11.8003 16.9161 -12.1334C17.1127 -12.3 17.3173 -12.4572 17.5219 -12.6144C17.7424 -12.7528 17.9643 -12.9086 18.1876 -13.0816C18.3865 -12.9606 18.5948 -12.8476 18.8442 -12.705C19.2792 -13.3307 19.7034 -13.9312 20.1262 -14.5144C20.3422 -14.8099 20.5504 -15.1149 20.7571 -15.4025L21.4687 -16.2142L22.4192 -16.2312C23.2138 -16.8881 23.929 -17.6386 24.7776 -18.2126C25.6104 -18.8053 26.4418 -19.3807 27.2652 -19.9655C28.3468 -20.0936 29.4737 -20.453 30.5364 -20.9831C31.5926 -21.5399 32.7318 -21.9418 33.8242 -22.0951C34.1676 -22.7719 35.3319 -23.372 35.9265 -23.2966C37.3678 -23.2467 38.4088 -23.9354 39.6258 -24.2264C40.9863 -24.4619 42.2718 -24.425 43.682 -24.7348C44.9437 -24.935 46.2768 -25.2599 47.7592 -24.9715C48.5888 -24.7896 49.888 -25.0215 50.878 -25.2006C51.5856 -25.3336 52.0591 -25.2682 52.7993 -25.0588C53.7399 -24.7457 54.831 -24.6727 55.8328 -24.3633C56.8468 -24.0964 57.8781 -23.8281 58.9001 -23.5518C59.0796 -23.5108 59.2267 -23.3941 59.3607 -23.3308C59.417 -23.1694 59.4654 -23.0173 59.5361 -22.8199C59.944 -22.699 60.3094 -22.5904 60.837 -22.4422C61.4675 -22.5902 62.1513 -22.7512 62.9511 -22.9461C63.5473 -22.47 63.9907 -22.0415 64.5587 -21.5416C65.3544 -21.2667 66.2157 -21.0472 67.0575 -20.6988C67.898 -20.3331 68.7557 -19.966 69.6466 -19.5787C69.6467 -19.3697 69.6475 -19.0649 69.6369 -18.6217C70.5111 -18.349 71.1865 -17.9882 71.9289 -17.7003C72.2657 -17.2457 72.6183 -16.7724 73.017 -16.2256C74.4605 -16.0973 75.5976 -14.5838 76.9051 -13.9704C78.145 -13.171 79.3819 -12.337 80.7357 -11.4412C80.943 -11.842 81.1274 -12.175 81.2743 -12.4762C80.9253 -12.8883 80.7177 -13.1145 80.4466 -13.4156C80.8419 -14.0881 81.217 -14.7275 81.6124 -15.4C81.2633 -16.0211 80.9316 -16.6406 80.5904 -17.2523C80.232 -17.8654 79.816 -18.4136 79.4136 -19.0217C78.413 -19.7663 77.4981 -20.5997 76.4609 -21.2168C76.429 -21.4633 76.3994 -21.6311 76.3329 -22.0894C75.4248 -22.4782 74.7011 -22.782 74.1713 -23.0088L74.1432 -22.985ZM59.6084 -24.0068L59.813 -23.955L59.8139 -23.6502L59.6185 -23.7099L59.6177 -24.0147L59.6084 -24.0068Z" fill="#FFA972"/>
</g>
<g id="circle-dark">
<path id="Vector_3" d="M47.8981 162.562C72.494 162.562 92.433 142.623 92.433 118.028C92.433 93.4316 72.494 73.4927 47.8981 73.4927C23.3021 73.4927 3.36316 93.4316 3.36316 118.028C3.36316 142.623 23.3021 162.562 47.8981 162.562Z" fill="#FF8241"/>
<path id="Vector_4" d="M92.6722 104.957C92.5127 104.024 92.3041 103.3 92.0464 102.6C91.7764 101.84 91.3223 101.079 91.1505 100.379C91.0155 99.6797 90.7701 99.0292 90.5001 98.3911C90.2301 97.753 89.9479 97.1148 89.6411 96.489C89.0888 95.2127 88.2421 94.0837 87.4444 92.9301C87.0149 92.3533 86.6344 91.7397 86.2049 91.1752C85.7631 90.5984 85.3704 90.0094 85.0391 89.3467C84.72 88.7208 84.3273 88.1072 83.8855 87.5427C83.3946 87.0027 82.867 86.4873 82.3515 85.9719C81.922 85.5547 81.5907 84.9656 81.3575 84.6588C80.3021 83.8366 79.3081 83.2844 78.4368 82.6953C78.3141 82.7935 78.2036 82.8794 78.0932 82.9775C77.59 82.6094 77.2341 82.1921 76.1419 81.4926C76.1174 81.3822 76.056 80.965 75.9824 80.5845C74.9393 80.1182 74.2398 79.7991 73.4789 79.4555C73.4053 79.161 73.3439 78.9155 73.2825 78.7192C72.2885 77.9092 71.3313 77.1238 70.3864 76.3507C69.7237 76.3998 69.2083 75.9212 68.6438 75.5898C67.8952 75.1726 67.1343 74.7554 66.4593 74.3749C66.0789 74.3504 65.7476 74.3135 65.453 74.3135C64.8763 73.9822 64.4345 73.7368 64.0418 73.5036C63.6 73.5036 63.2441 73.5036 62.7655 73.5036C59.8203 71.7733 55.93 71.6628 52.6412 70.5338C51.6471 70.9511 50.199 70.6197 49.0455 70.5093C48.9473 70.7547 48.8859 70.8897 48.8491 70.9879C47.0574 70.9265 45.3762 71.1965 43.3513 71.3928C42.21 71.0369 40.9214 70.8774 39.3752 70.6197C38.9334 70.7915 38.2952 71.037 37.6203 71.3069C36.614 71.3069 35.6568 71.5892 34.7241 71.896C33.8037 72.215 32.9079 72.5219 32.0734 72.8409C31.6193 73.1723 31.3616 73.4177 31.018 73.6141C30.6866 73.8104 30.2571 73.9577 29.9381 74.0927C29.6435 73.9331 29.4962 73.8595 29.2876 73.7491C28.3181 74.1172 27.4591 74.6817 26.2933 75.3076C25.9006 75.3076 25.3974 75.283 25.0293 75.2708C24.1825 75.7616 23.3848 76.3016 22.6485 76.7925C21.9245 77.2957 21.2863 77.7988 20.8691 78.4001C19.2983 79.2592 17.887 80.3759 16.5739 81.6031C15.9358 82.2535 15.2731 82.9162 14.4631 83.7507C14.0827 83.8857 13.5673 84.0698 13.3832 84.1434C12.1192 85.4319 11.0761 86.7696 10.1679 88.0336C9.33345 89.359 8.53579 90.5493 7.57858 91.5311C6.84226 93.1019 6.31455 94.2309 6.02002 94.8691C4.73147 96.3049 3.88472 97.8512 3.12386 99.3361C2.51026 100.895 2.14209 102.465 1.95801 104.073C1.76166 104.49 1.55302 104.932 1.36894 105.325C1.4303 105.803 1.46713 106.147 1.49167 106.356C0.779897 108.319 0.43628 110.209 0.0313057 112.074C-0.165045 112.222 -0.336827 112.357 -0.594538 112.565C-0.54545 113.67 -0.336842 114.578 -0.226395 115.535C-0.422746 116.615 -0.717262 117.732 -0.790894 118.664C-0.336832 119.965 0.0681276 121.07 0.497646 122.285C0.264479 122.763 0.0926939 123.266 -0.0545694 123.696C-0.177289 124.764 -0.0300345 125.843 0.166317 126.936C0.325852 128.028 0.767636 129.083 0.927171 130.188C1.18488 132.348 2.70661 134.287 3.00113 136.152C3.67609 137.416 4.47376 138.299 4.75601 139.159C5.16099 140.447 5.81142 141.613 6.49864 142.742C6.84226 143.306 7.19813 143.871 7.55401 144.423C7.94672 144.963 8.3885 145.454 8.81802 145.969C9.24754 146.485 9.67708 147 10.0698 147.467C10.0698 147.835 10.0575 148.093 10.0452 148.51C11.3092 149.074 12.3524 150.166 13.3709 151.271C13.3587 151.553 13.3464 151.737 13.3587 152.081C13.9354 152.437 14.4999 152.78 15.0767 153.124C15.3222 153.284 15.5799 153.468 15.678 153.541C15.9848 154.241 16.2548 154.83 16.3653 155.087C17.752 155.947 18.7951 156.658 19.7646 157.1C20.7709 157.603 21.8017 157.763 22.808 158.585C22.8817 158.855 22.9553 159.076 23.0167 159.297C24.158 159.959 25.2379 160.377 26.281 160.806C26.6614 161.162 27.0173 161.506 27.3855 161.849C27.7168 161.898 28.0727 161.862 28.3918 162.009C30.5394 162.721 32.6256 163.604 34.8346 164.083C35.1904 164.169 35.4972 164.439 35.7795 164.598C36.7981 164.598 37.4853 164.426 38.6389 164.819C39.1666 165.015 39.9274 165.126 40.5655 165.175L42.0137 165.322C42.4923 165.371 42.9831 165.359 43.4617 165.384L46.3702 165.519C47.3397 165.605 48.3091 165.457 49.2786 165.408C50.2358 165.322 51.2053 165.249 52.138 165.04C52.5062 164.942 52.9725 164.979 53.402 164.93C54.6783 164.782 56.0159 164.807 57.2554 164.463C58.1512 164.218 58.9612 163.751 60.0043 163.285C60.4338 163.334 60.9615 163.457 61.5629 163.494C62.336 163.003 63.0109 162.586 63.6122 162.217C64.189 162.083 64.6922 161.997 65.2076 161.837C67.6252 160.892 69.9691 159.689 72.3008 158.548C73.0248 158.217 73.7857 157.493 74.252 157.014C75.2093 156.302 76.1296 155.627 77.05 154.953C77.9459 154.241 78.7804 153.431 79.6885 152.633C80.4985 151.443 81.6766 150.117 83.8364 148.731C84.3028 148.129 84.6464 147.54 85.0268 147C84.9286 146.743 84.8427 146.522 84.6709 146.068C85.5913 145.528 86.2417 145.172 86.9412 144.718C87.7634 142.791 89.0029 141.036 89.8742 139.048C90.3283 138.066 90.8805 137.109 91.2364 136.078C91.5923 135.047 91.9236 134.004 92.1936 132.961C92.3777 132.36 92.4882 131.722 92.6354 131.084C92.795 130.445 92.9913 129.783 93.2736 129.108C93.4699 128.617 93.6049 128.003 93.6294 127.304C93.6417 126.604 93.6294 125.843 93.6663 125.083C94.1081 124.089 94.1203 123.303 93.9362 122.555C93.7276 121.806 93.4331 121.107 93.3963 120.247C92.7213 120.456 92.6354 119.045 92.3041 118.026C91.8868 119.069 91.5677 119.867 91.2364 120.714C91.126 120.174 91.0278 119.769 90.9173 119.217C90.2546 119.953 90.1933 121.536 89.6043 122.174C89.1379 122.653 89.2606 124.285 88.6348 125.034C88.2421 125.5 88.6102 126.825 87.9843 127.476C87.8003 128.421 87.6285 129.365 87.4567 130.261C87.2603 131.157 86.9658 131.979 86.7571 132.728C85.849 134.348 85.125 135.281 84.6832 136.127C84.2169 136.95 84.0819 137.723 83.7505 138.668C82.8301 139.404 82.1674 140.386 81.5293 141.564C80.9525 142.472 80.253 143.331 79.5658 144.178C78.8785 145.025 78.0809 145.773 77.4919 146.706C77.1482 146.963 76.8414 147.246 76.5469 147.528C76.2278 147.798 75.921 148.08 75.6265 148.375C75.0374 148.964 74.4729 149.59 73.8716 150.179C73.3071 150.682 72.6076 151.038 71.9572 151.48C71.8345 151.713 71.6995 151.983 71.6013 152.155C70.6686 152.719 69.6869 153.124 68.7542 153.517C67.8093 153.897 66.9502 154.363 65.993 154.621C65.6003 155.198 64.9744 155.603 64.324 155.971C63.9927 156.143 63.6614 156.327 63.33 156.499C62.9864 156.646 62.655 156.793 62.3605 156.965C61.796 156.965 61.2806 156.977 60.4829 156.99C60.1516 157.198 59.808 157.407 59.4521 157.616C59.0839 157.787 58.7035 157.971 58.323 158.155C57.5376 158.536 56.7031 158.929 55.8318 159.346C55.4269 159.248 54.8747 159.027 54.2488 158.806C52.9357 159.37 51.2912 158.892 49.8677 159.432C49.8677 159.702 49.8799 159.959 49.8922 160.193C48.7632 159.972 47.7937 159.861 46.6402 159.555C45.6339 160.377 43.9035 160.009 42.7868 159.653C41.4982 159.1 40.811 159.358 40.1115 159.419C36.9208 158.732 34.3928 157.149 31.2266 156.891C30.3676 156.352 29.5085 155.75 28.4777 155.296C27.9746 155.038 27.41 154.854 26.8578 154.56C26.3056 154.278 25.7165 153.983 25.0906 153.664C25.0538 153.504 24.9434 153.112 24.8329 152.67C24.0966 152.51 23.618 152.461 23.1762 152.204C22.2926 151.737 21.1636 151.7 20.5255 150.498C18.7215 149.234 17.7152 147.393 16.1444 145.994C16.1444 145.675 16.1444 145.442 16.1567 145.147C15.3099 144.546 14.2422 143.822 13.9477 143.171C13.5059 142.141 12.7819 141.576 12.2787 140.778C11.8615 140.14 11.432 139.514 10.9534 138.852C10.7202 138.52 10.4625 138.177 10.2293 137.809C10.0084 137.428 9.78751 137.023 9.55435 136.606C9.57889 136.361 9.62799 135.919 9.67707 135.538C9.2721 135.035 8.85484 134.581 8.51122 134.115C8.17988 133.636 7.8731 133.17 7.5663 132.716C7.57857 132.028 7.34541 131.427 7.07543 130.826C6.79317 130.237 6.58452 129.623 6.47408 129.022C6.31454 127.721 6.22866 126.518 6.3391 125.242C5.92186 124.162 5.30826 123.279 5.52915 121.794C5.6396 121.143 5.56596 119.732 5.026 119.192C5.16099 118.223 5.45552 117.265 5.76232 116.259C5.52915 114.995 5.65186 113.633 5.98321 112.32C6.27773 110.994 6.41272 109.681 6.32682 108.393C6.67043 108.27 6.96495 108.16 7.43129 107.976C7.18585 107.448 7.01405 107.092 6.86679 106.785C6.95269 106.392 7.06315 106 7.18587 105.619C7.33313 105.251 7.51722 104.895 7.68902 104.527C8.04491 103.815 8.38851 103.116 8.74439 102.416C9.45617 101.03 10.1925 99.6919 10.352 97.9739C10.757 97.7161 11.162 97.4462 11.4197 97.2866C12.2296 96.0349 12.5978 94.8691 13.6164 93.9118C13.9722 93.5437 14.2668 93.0283 14.5368 92.4638C14.6717 92.1815 14.819 91.887 14.954 91.6047C15.1135 91.3225 15.2854 91.0648 15.4694 90.8193C15.7271 90.4634 16.1321 90.1444 16.4757 89.8376C16.9912 89.3958 17.3838 88.9172 17.752 88.4509C18.1447 87.9968 18.4515 87.5304 18.7092 87.015C19.2737 86.6469 19.8505 86.2787 20.4273 85.9106C21.0286 85.5669 21.6668 85.2724 22.3049 84.9411C22.9553 84.082 23.5076 83.088 24.9434 82.7567C25.3483 82.6585 25.9251 82.094 26.4283 81.7503L27.1646 81.2349L27.95 80.7931L29.5208 79.9096C30.0239 79.9096 30.4167 79.9096 30.6989 79.9096C31.7543 79.3941 32.687 79.026 33.9755 78.4492C34.0369 78.2897 34.135 77.9706 34.2455 77.6515C34.405 77.6147 34.5523 77.6024 34.7241 77.5902C34.9205 77.9092 35.1291 78.2283 35.3991 78.6701C36.6263 77.1975 39.0316 77.762 40.406 76.9766C40.406 76.8293 40.406 76.6943 40.406 76.5716C40.9583 76.3016 41.4737 76.2525 41.9891 76.2525C42.2468 76.2525 42.5045 76.2648 42.7622 76.2771C43.0199 76.3139 43.2899 76.3384 43.5722 76.3507C43.6458 76.5716 43.7317 76.7925 43.8299 77.0625C44.5662 76.8661 45.278 76.682 45.9775 76.5102C46.3334 76.4243 46.6893 76.3262 47.0329 76.2403L48.1005 76.0807L48.8369 76.6821C49.8677 76.6943 50.8985 76.5839 51.9171 76.6943C52.9357 76.7802 53.942 76.8784 54.9483 76.9643C55.8564 77.5656 56.9486 78.0197 58.1022 78.3019C59.268 78.5596 60.397 78.9892 61.3297 79.5782C62.0292 79.2837 63.3055 79.5782 63.7104 80.02C64.7781 80.9895 66.0176 81.1368 67.1343 81.7013C68.3247 82.4008 69.2819 83.2598 70.5582 83.9347C71.6504 84.5974 72.8776 85.211 73.8225 86.3891C74.3379 87.0641 75.4792 87.7268 76.3505 88.2299C76.9764 88.5858 77.2955 88.9417 77.725 89.5799C78.2404 90.4266 79.0258 91.1875 79.5903 92.0711C80.1917 92.9301 80.8052 93.8014 81.4066 94.6727C81.517 94.82 81.5538 95.004 81.6152 95.139C81.5538 95.2986 81.4925 95.4458 81.4188 95.6422C81.652 95.9981 81.8607 96.3172 82.1675 96.7712C82.7442 97.0658 83.3701 97.3848 84.1064 97.753C84.2537 98.5016 84.315 99.1152 84.4255 99.8637C84.855 100.588 85.3704 101.312 85.7877 102.122C86.1926 102.944 86.6099 103.778 87.0394 104.65C86.9044 104.809 86.7081 105.042 86.4135 105.374C86.9044 106.147 87.1867 106.859 87.5671 107.558C87.5303 108.123 87.4935 108.712 87.4444 109.387C88.463 110.418 88.3525 112.307 88.9538 113.621C89.3834 115.032 89.7883 116.468 90.2424 118.026C90.6596 117.854 91.0155 117.719 91.3223 117.584C91.3223 117.044 91.3101 116.738 91.2978 116.333C92.0341 116.075 92.7336 115.83 93.4699 115.572C93.6049 114.872 93.7522 114.185 93.8871 113.498C94.0099 112.798 94.0467 112.111 94.1326 111.387C93.8503 110.172 93.6908 108.945 93.2981 107.804C93.4331 107.595 93.519 107.448 93.7644 107.055C93.3226 106.172 92.9668 105.472 92.7091 104.957H92.6722ZM82.2411 94.7832L82.3638 94.955L82.1675 95.1881L82.057 95.0163L82.2533 94.7832H82.2411Z" fill="#FF8241"/>
</g>
<g id="lines">
<path id="Vector_5" d="M90.9148 81.7937C90.7371 81.7628 90.5902 81.7241 90.4512 81.7241C90.2966 81.7241 90.1267 81.8246 89.9953 81.7705C89.4622 81.5541 88.9368 81.6005 88.4037 81.7164C88.1255 81.7782 87.8551 81.8555 87.5769 81.6932C87.3142 81.5387 87.0283 81.5928 86.7502 81.6391C86.6343 81.6623 86.5107 81.5696 86.4411 81.5464C86.1861 81.6855 85.9775 81.8014 85.7766 81.9096C85.7766 82.01 85.7689 82.095 85.7612 82.1877C85.6376 82.2109 85.5371 82.2264 85.2821 82.2727C85.2667 82.2186 85.2049 82.0409 85.1508 81.8787C84.9345 82.0332 84.7877 82.1336 84.6331 82.2495C84.5868 82.1259 84.5559 82.0255 84.5172 81.9405C84.27 81.8246 84.0382 81.7164 83.8064 81.616C83.6982 81.871 83.5669 81.7319 83.4432 81.701C83.281 81.6623 83.1187 81.6392 82.9642 81.6082C82.8947 81.6932 82.8329 81.7782 82.7865 81.84C82.6629 81.7705 82.5624 81.7164 82.4774 81.67C82.4002 81.7627 82.3306 81.84 82.2456 81.9405C81.6043 81.5696 80.8781 82.0023 80.229 81.5696C80.0513 81.9482 79.7654 81.7319 79.5414 81.7087C79.5259 81.871 79.5105 81.9559 79.5028 82.0177C79.1551 82.0795 78.8305 82.1414 78.4365 82.2109C78.2201 81.9791 77.9806 81.7164 77.6947 81.4228C77.602 81.4846 77.4784 81.5773 77.3393 81.6778C76.9607 81.4073 76.5822 81.7164 76.2422 81.701C76.1418 81.8014 76.0799 81.8864 76.0026 81.925C75.9254 81.9636 75.8404 81.9636 75.7786 81.9714C75.7399 81.8168 75.7168 81.7318 75.6859 81.6237C75.485 81.6623 75.2918 81.6932 75.0446 81.7396C74.975 81.6237 74.8978 81.4769 74.836 81.3765C74.4651 81.5155 74.1097 81.3996 73.8547 81.7628C73.5147 81.6469 73.1747 81.6701 72.8271 81.7628C72.6493 81.8091 72.4716 81.8323 72.2476 81.8709C72.178 81.7705 72.0853 81.6469 72.0467 81.5928C71.359 81.5232 70.7641 81.9868 70.2542 81.7396C69.9219 81.8555 69.6824 81.9482 69.551 81.9946C68.8247 81.5155 68.2221 81.4923 67.6039 81.9636C67.519 81.9096 67.4263 81.8555 67.3413 81.8014C67.2563 81.9096 67.1945 81.9868 67.1558 82.0409C66.7541 81.9637 66.3832 81.8941 66.02 81.8168C65.9891 81.7087 65.9582 81.6083 65.9118 81.4692C65.7032 81.6083 65.5333 81.7164 65.3556 81.8323C65.1469 81.7319 64.9306 81.6237 64.7529 81.5387C64.4979 81.7859 64.2816 82.0023 64.042 82.2341C63.9571 82.0796 63.8644 81.925 63.7794 81.7937C63.3776 81.4383 62.9449 81.7473 62.52 81.616C62.1104 81.4924 61.67 81.8941 61.3146 81.6855C61.0442 81.7782 60.8201 81.9559 60.6501 81.8864C60.1402 81.701 59.6302 81.7087 59.1203 81.8323C58.9889 81.8632 58.8653 81.8787 58.7417 81.9019C58.6876 81.7628 58.649 81.6546 58.5872 81.4923C58.3476 81.8478 58.0618 81.8632 57.7681 81.8709C57.7295 81.7473 57.7063 81.6701 57.66 81.5078C57.5363 81.5928 57.4127 81.6701 57.2814 81.7473C57.2273 81.7782 57.1655 81.8014 57.1423 81.8091C57.011 81.616 56.9028 81.4537 56.8487 81.3765C56.5396 81.4846 56.3001 81.5078 56.1069 81.6469C55.8983 81.7937 55.7129 81.9868 55.4657 81.8864C55.427 81.7705 55.3961 81.6701 55.3652 81.5696C55.118 81.616 54.8939 81.6546 54.6776 81.6932C54.5848 81.5928 54.4921 81.5001 54.4071 81.4074C54.3453 81.4692 54.2835 81.5851 54.2217 81.5928C53.789 81.6237 53.364 81.6391 52.9314 81.6391C52.8618 81.6391 52.7923 81.5233 52.7305 81.4692C52.545 81.6314 52.4214 81.8632 52.1896 81.7087C52.0815 81.6392 51.9346 81.6391 51.8187 81.67C51.0847 81.8246 50.3275 81.616 49.5935 81.8787C49.524 81.9018 49.4313 81.84 49.3463 81.8246C49.099 81.7782 48.8518 81.6855 48.6045 81.7087C48.4268 81.7242 48.2569 81.8787 48.0328 81.9946C47.9555 81.8864 47.8628 81.755 47.7623 81.6005C47.5924 81.7241 47.4456 81.8246 47.3142 81.9173C47.1983 81.8709 47.1056 81.8169 47.0052 81.8014C46.5107 81.7241 46.0007 81.7782 45.5062 81.5773C45.3594 81.5155 45.1585 81.6778 45.0349 81.7241C44.5791 81.7164 44.1618 81.7087 43.6982 81.6932C43.4278 81.9559 43.0801 81.9018 42.6165 81.5001C42.4697 81.5232 42.3461 81.5464 42.2147 81.5696C42.1838 81.7164 42.1606 81.8401 42.1143 82.1028C41.9211 81.8323 41.7975 81.6623 41.6507 81.4537C40.8703 81.7782 40.0127 81.4691 39.1937 81.7241C38.9542 81.8014 38.7069 81.8555 38.4288 81.7241C38.2279 81.6314 37.9497 81.8555 37.6561 81.956C37.2544 81.5696 37.0612 82.3268 36.7289 82.4273C36.7753 82.8445 36.4972 82.9449 36.2963 83.1844C36.5126 83.4162 36.6748 83.5862 36.8525 83.7717C36.7444 83.8644 36.6594 83.9262 36.5512 84.0189C36.7057 84.413 37.0457 84.4052 37.1848 84.7529C37.3007 85.0311 37.6407 84.7683 37.8184 85.1006C37.9343 85.3092 38.197 84.9538 38.367 85.2088C38.7842 85.1315 39.1937 85.0543 39.5259 84.9925C40.314 85.4406 40.5381 85.4637 40.963 85.1547C41.2026 85.4019 41.4653 85.4561 41.7512 85.3865C42.2225 85.2783 42.7092 85.5256 43.1728 85.3092C43.536 85.5178 43.8991 85.3247 44.2623 85.3092C44.4245 85.3015 44.5945 85.3556 44.7645 85.3865C44.8185 85.317 44.8726 85.232 44.9113 85.1779C45.3826 85.3633 45.8153 85.541 46.2402 85.711C46.5107 85.2706 46.8815 85.4637 47.1751 85.3092C47.291 85.4251 47.3992 85.5333 47.5614 85.6955C47.8937 85.5024 48.2646 85.2938 48.6741 85.062C48.7591 85.1933 48.8672 85.3633 48.9909 85.5565C49.2922 85.3092 49.6399 85.8346 49.9644 85.4869C49.9644 85.3169 49.9644 85.1547 49.9644 85.0079C50.2039 85.1701 50.4125 85.3092 50.6675 85.4869C50.8838 84.9306 51.2547 85.116 51.5097 85.3015C51.8033 85.5256 51.9424 85.3015 52.0892 85.1933C52.7846 85.317 53.4336 85.7805 54.0981 85.2165C54.5308 85.5024 55.0021 85.4174 55.6047 85.2629C55.6279 85.3324 55.6975 85.5101 55.767 85.711C55.9215 85.5642 56.0142 85.4329 56.1301 85.3788C56.3465 85.2783 56.5474 84.8766 56.8178 85.2397C57.2891 85.0697 57.7218 85.5565 58.1854 85.3633C58.2394 85.5024 58.2781 85.6028 58.3245 85.7264C58.5485 85.6105 58.8189 85.3402 58.9657 85.4329C59.2053 85.5797 59.3984 85.4869 59.6071 85.4638C59.9393 85.4251 60.2715 85.3479 60.6965 85.2706C60.7428 85.3479 60.8201 85.5024 60.8974 85.626C61.1755 85.4251 61.4151 85.2552 61.6469 85.0852C61.925 85.402 62.2109 85.062 62.4813 85.1393C62.7594 85.2243 63.0222 85.4251 63.2926 85.5797C63.5476 85.4097 63.7485 85.1547 64.0653 85.371C64.2043 85.4638 64.5134 85.456 64.637 85.1393C64.8456 85.2861 65.0542 85.4251 65.2783 85.5874C65.8269 85.2088 66.4682 85.8655 67.0013 85.2706C67.0477 85.456 67.0863 85.6183 67.1481 85.881C67.2486 85.6492 67.3103 85.4869 67.3722 85.3478C68.0753 85.286 68.7397 86.0587 69.4351 85.317C69.5278 85.4483 69.6206 85.5797 69.6824 85.6647C70.0146 85.6801 70.2696 85.5565 70.5709 85.6647C70.795 85.7496 71.0886 85.4638 71.3591 85.3788C71.4518 85.3479 71.5676 85.402 71.6681 85.4329C71.9617 85.5256 72.2167 85.4328 72.4485 85.1701C72.7421 85.3092 73.0357 85.456 73.3448 85.6028C73.5766 85.4174 73.7929 85.147 74.0942 85.4174C74.1792 85.4947 74.3569 85.3865 74.4883 85.3633C74.751 85.317 75.006 85.2706 75.2687 85.2165C75.3691 85.3556 75.4464 85.4637 75.5082 85.541C75.7631 85.4946 75.9872 85.456 76.2962 85.3942C76.3194 85.3092 76.3658 85.147 76.4044 84.9847C76.4353 85.0002 76.474 85.0156 76.5049 85.0311C76.528 85.2551 76.5512 85.4869 76.5821 85.796C76.9298 85.0774 77.4089 85.8578 77.7411 85.4329C77.7411 85.3479 77.7488 85.2552 77.7566 85.1856C78.0115 84.9615 78.2047 85.2551 78.4442 85.3015C78.4597 85.4406 78.4751 85.5874 78.4906 85.7574C78.8228 85.5642 79.1241 85.3865 79.4332 85.201C79.4873 85.3169 79.5414 85.4328 79.5955 85.5565C80.0513 85.4715 80.4917 85.3942 80.9321 85.3092C81.3725 85.9042 81.9675 85.5024 82.4388 85.8037C82.5624 85.4638 82.8406 85.4174 82.9642 85.5178C83.2655 85.7651 83.5282 85.541 83.7987 85.5178C84.1 85.4869 84.3781 85.6801 84.6949 85.5719C84.9731 85.4715 85.2667 85.371 85.5912 85.541C85.7767 85.6337 86.0548 85.4638 86.2712 85.3324C86.4257 85.2397 86.5261 85.2088 86.6884 85.2861C86.897 85.3865 87.1365 85.402 87.3606 85.4329C87.5924 85.4638 87.8242 85.4715 88.056 85.4946C88.0946 85.4946 88.1332 85.5333 88.1642 85.5487C88.1873 85.6337 88.2105 85.7187 88.2337 85.8192C88.3264 85.8115 88.4114 85.8037 88.535 85.7883C88.6509 85.5719 88.7823 85.3401 88.9368 85.0697C89.0913 85.2165 89.215 85.3324 89.3772 85.4792C89.7481 85.3633 90.1421 85.2397 90.5593 85.1083C90.5825 85.2242 90.6212 85.3942 90.6675 85.6337C90.8607 85.5101 91.0307 85.4019 91.2007 85.2938C91.3166 85.4096 91.4402 85.5256 91.587 85.6569C91.8574 85.1624 92.2515 85.3787 92.5528 85.1469C92.8619 84.9306 93.1786 84.7143 93.5109 84.4825C93.4722 84.2121 93.4491 83.988 93.4182 83.7871C93.31 83.7794 93.2404 83.7716 93.1632 83.7639C93.1168 83.2926 93.0782 82.8445 93.0318 82.3732C92.7614 82.1491 92.5064 81.9328 92.236 81.7087C91.9965 81.7551 91.757 81.7937 91.5329 81.84C91.502 81.7319 91.4788 81.6469 91.417 81.4382C91.2315 81.5696 91.0847 81.6778 90.9766 81.7551L90.9148 81.7937ZM88.141 85.1315C88.141 85.1315 88.1719 85.1315 88.1873 85.1238C88.1873 85.1856 88.2028 85.2474 88.2028 85.3092C88.1873 85.3092 88.1719 85.3092 88.1564 85.317C88.1564 85.2551 88.141 85.1933 88.141 85.1315Z" fill="#FFE4D5"/>
<path id="Vector_6" d="M45.9774 95.5394C46.1706 95.5703 46.3251 95.609 46.4797 95.609C46.6419 95.609 46.8274 95.5086 46.9742 95.5626C47.5459 95.779 48.1177 95.7326 48.6972 95.6167C48.9908 95.5549 49.2921 95.4776 49.5934 95.6399C49.8793 95.7944 50.1807 95.7403 50.4897 95.694C50.6133 95.6708 50.7524 95.7635 50.8297 95.7867C51.1001 95.6476 51.3319 95.5317 51.5482 95.4236C51.5482 95.3231 51.556 95.2381 51.5637 95.1454C51.6951 95.1222 51.8109 95.1068 52.0814 95.0604C52.0968 95.1145 52.1664 95.2922 52.2204 95.4545C52.4522 95.2999 52.6145 95.1995 52.7845 95.0836C52.8308 95.2072 52.8695 95.3076 52.9081 95.3926C53.1708 95.5085 53.4258 95.6167 53.673 95.7172C53.7889 95.4622 53.928 95.6012 54.0671 95.6322C54.2448 95.6708 54.4225 95.694 54.5847 95.7249C54.662 95.6399 54.7238 95.5549 54.7779 95.4931C54.917 95.5626 55.0174 95.6167 55.1101 95.6631C55.1951 95.5704 55.2647 95.4931 55.3574 95.3926C56.045 95.7635 56.8332 95.3309 57.544 95.7635C57.7372 95.3849 58.0462 95.6013 58.2857 95.6245C58.3089 95.4622 58.3167 95.3772 58.3244 95.3154C58.6952 95.2536 59.0507 95.1918 59.4756 95.1222C59.7074 95.354 59.9701 95.6167 60.2792 95.9103C60.3796 95.8485 60.5109 95.7558 60.6577 95.6554C61.0672 95.9258 61.4768 95.6167 61.8477 95.6322C61.9558 95.5317 62.0253 95.4467 62.1103 95.4081C62.1876 95.3695 62.2803 95.3695 62.3576 95.3617C62.4039 95.5163 62.4271 95.6013 62.458 95.7094C62.6744 95.6708 62.883 95.6399 63.1534 95.5935C63.223 95.7094 63.3157 95.8563 63.3852 95.9567C63.787 95.8176 64.1733 95.9335 64.4515 95.5704C64.8223 95.6863 65.1932 95.6631 65.5641 95.5704C65.7572 95.524 65.9504 95.5008 66.1899 95.4622C66.2672 95.5626 66.3676 95.6863 66.4062 95.7403C67.148 95.8099 67.7893 95.3463 68.3456 95.5935C68.701 95.4776 68.9637 95.3849 69.1028 95.3385C69.8909 95.8176 70.5399 95.8408 71.2044 95.3695C71.2971 95.4236 71.3976 95.4776 71.4903 95.5317C71.583 95.4235 71.6526 95.3463 71.6912 95.2922C72.1239 95.3695 72.5256 95.439 72.9197 95.5163C72.9583 95.6245 72.9892 95.7249 73.0356 95.864C73.2597 95.7249 73.4451 95.6167 73.6382 95.5008C73.8623 95.6013 74.0941 95.7094 74.2873 95.7944C74.5577 95.5472 74.7972 95.3308 75.0522 95.099C75.1449 95.2536 75.2453 95.4081 75.3303 95.5394C75.763 95.8949 76.2266 95.5858 76.6902 95.7172C77.1306 95.8408 77.6096 95.439 77.996 95.6476C78.2896 95.5549 78.5291 95.3772 78.7145 95.4467C79.2708 95.6322 79.8117 95.6244 80.368 95.5008C80.5071 95.4699 80.6462 95.4545 80.7698 95.4313C80.8239 95.5704 80.8702 95.6785 80.932 95.8408C81.187 95.4854 81.5038 95.4699 81.8129 95.4622C81.8515 95.5858 81.8747 95.6631 81.9288 95.8253C82.0679 95.7403 82.1992 95.6631 82.3383 95.5858C82.4001 95.5549 82.4619 95.5317 82.4928 95.524C82.6319 95.7172 82.7555 95.8794 82.8096 95.9567C83.1418 95.8485 83.3968 95.8253 83.6131 95.6862C83.8449 95.5394 84.0458 95.3463 84.3085 95.4467C84.3471 95.5626 84.3858 95.6631 84.4167 95.7635C84.6871 95.7172 84.9266 95.6785 85.1584 95.6399C85.2589 95.7403 85.3593 95.833 85.452 95.9258C85.5216 95.864 85.5834 95.7481 85.6529 95.7403C86.1165 95.7094 86.5801 95.694 87.0514 95.694C87.1287 95.694 87.2059 95.8099 87.2678 95.864C87.4686 95.7017 87.6 95.4699 87.855 95.6245C87.9709 95.694 88.1254 95.694 88.2568 95.6631C89.0526 95.5086 89.8716 95.7172 90.6597 95.4545C90.737 95.4313 90.8374 95.4931 90.9224 95.5086C91.1928 95.5549 91.4632 95.6476 91.7259 95.6245C91.9191 95.609 92.1045 95.4544 92.3363 95.3385C92.4213 95.4467 92.5218 95.5781 92.6299 95.7326C92.8154 95.609 92.9776 95.5086 93.1167 95.4158C93.2403 95.4622 93.3408 95.5163 93.4567 95.5317C93.9975 95.609 94.5384 95.5549 95.0715 95.7558C95.2338 95.8176 95.4424 95.6554 95.5815 95.609C96.076 95.6167 96.5241 95.6244 97.0263 95.6399C97.3122 95.3772 97.6908 95.4313 98.2007 95.8331C98.3553 95.8099 98.4944 95.7867 98.6334 95.7635C98.6643 95.6167 98.6875 95.4931 98.7416 95.2304C98.9502 95.5008 99.0815 95.6708 99.2438 95.8794C100.094 95.5549 101.013 95.864 101.902 95.609C102.164 95.5317 102.427 95.4777 102.728 95.609C102.945 95.7017 103.246 95.4777 103.571 95.3772C104.011 95.7635 104.212 95.0063 104.575 94.9059C104.521 94.4886 104.822 94.3882 105.046 94.1487C104.815 93.9169 104.637 93.7469 104.451 93.5615C104.567 93.4687 104.66 93.4069 104.784 93.3142C104.614 92.9202 104.251 92.9279 104.096 92.5802C103.972 92.3021 103.609 92.5648 103.408 92.2325C103.285 92.0239 102.999 92.3793 102.813 92.1243C102.365 92.2016 101.917 92.2789 101.554 92.3407C100.704 91.8926 100.465 91.8694 100.001 92.1784C99.7461 91.9312 99.4601 91.8771 99.1434 91.9467C98.6334 92.0548 98.108 91.8076 97.6058 92.0239C97.2117 91.8153 96.8177 92.0084 96.4237 92.0239C96.246 92.0316 96.0682 91.9776 95.8828 91.9467C95.8287 92.0162 95.7669 92.1012 95.7205 92.1552C95.2106 91.9698 94.7393 91.7921 94.2834 91.6221C93.9898 92.0625 93.588 91.8694 93.2712 92.0239C93.1476 91.908 93.0317 91.7998 92.854 91.6376C92.4909 91.8307 92.0968 92.0394 91.6487 92.2712C91.5637 92.1398 91.4401 91.9698 91.3087 91.7766C90.9842 92.0239 90.6056 91.4985 90.2579 91.8462C90.2579 92.0162 90.2579 92.1784 90.2579 92.3252C89.9952 92.163 89.7711 92.0239 89.5007 91.8462C89.2689 92.4025 88.8672 92.2171 88.5967 92.0316C88.2799 91.8076 88.1254 92.0316 87.9709 92.1398C87.2137 92.0162 86.5183 91.5526 85.7998 92.1166C85.3284 91.8307 84.8262 91.9157 84.1694 92.0703C84.1385 92.0007 84.069 91.823 83.9917 91.6221C83.8218 91.7689 83.7213 91.9003 83.6054 91.9544C83.3659 92.0548 83.1573 92.4566 82.8636 92.0935C82.3537 92.2634 81.8824 91.7766 81.3879 91.9698C81.3338 91.8307 81.2952 91.7303 81.2411 91.6067C81.0016 91.7226 80.708 91.993 80.5457 91.9003C80.2907 91.7535 80.0821 91.8462 79.8581 91.8694C79.4949 91.908 79.1395 91.9853 78.6836 92.0625C78.6373 91.9853 78.5445 91.8308 78.4673 91.7071C78.1659 91.908 77.911 92.078 77.656 92.248C77.3547 91.9312 77.0456 92.2712 76.7598 92.1939C76.4584 92.1089 76.1725 91.908 75.8789 91.7535C75.6085 91.9235 75.3844 92.1784 75.0445 91.9621C74.8976 91.8694 74.5577 91.8771 74.4263 92.1939C74.2023 92.0471 73.9782 91.908 73.731 91.7458C73.136 92.1244 72.4484 91.4676 71.8689 92.0625C71.8225 91.8771 71.7761 91.7148 71.7143 91.4521C71.6062 91.6839 71.5366 91.8462 71.4748 91.9853C70.7176 92.0471 69.9913 91.2744 69.2419 92.0162C69.1414 91.8848 69.041 91.7535 68.9792 91.6685C68.6238 91.653 68.3456 91.7766 68.0211 91.6685C67.7816 91.5835 67.4648 91.8694 67.1712 91.9544C67.0707 91.9853 66.9471 91.9312 66.8389 91.9003C66.5221 91.8076 66.244 91.9003 65.9968 92.163C65.68 92.0239 65.3632 91.8771 65.031 91.7303C64.7837 91.9157 64.5519 92.1861 64.2196 91.9157C64.1269 91.8385 63.9415 91.9466 63.7947 91.9698C63.5165 92.0162 63.2307 92.0625 62.9525 92.1166C62.8444 91.9775 62.7594 91.8694 62.6975 91.7921C62.4194 91.8385 62.1799 91.8771 61.8477 91.9389C61.8245 92.0239 61.7781 92.1861 61.7317 92.3484C61.6931 92.3329 61.6622 92.3175 61.6236 92.302C61.6004 92.078 61.5772 91.8462 61.5463 91.5371C61.1754 92.2557 60.65 91.4753 60.2946 91.9003C60.2946 91.9853 60.2869 92.078 60.2792 92.1476C60.0087 92.3716 59.8001 92.078 59.5374 92.0316C59.5219 91.8926 59.5065 91.7457 59.491 91.5758C59.1356 91.7689 58.8034 91.9466 58.4712 92.1321C58.4094 92.0162 58.3553 91.9003 58.2934 91.7766C57.8067 91.8616 57.3276 91.9389 56.8486 92.0239C56.3695 91.429 55.736 91.8307 55.2183 91.5294C55.087 91.8694 54.7779 91.9157 54.6543 91.8153C54.3298 91.568 54.0439 91.7921 53.7503 91.8153C53.4258 91.8462 53.1244 91.6531 52.7767 91.7612C52.4754 91.8617 52.1586 91.9621 51.8032 91.7921C51.6023 91.6994 51.301 91.8694 51.0692 92.0007C50.9069 92.0935 50.7988 92.1244 50.621 92.0471C50.3893 91.9467 50.1343 91.9312 49.887 91.9003C49.6398 91.8694 49.3848 91.8617 49.1376 91.8385C49.0912 91.8385 49.0526 91.7998 49.0139 91.7844C48.9907 91.6994 48.9676 91.6144 48.9367 91.514C48.8362 91.5217 48.7435 91.5294 48.6122 91.5449C48.4808 91.7612 48.3418 91.993 48.1795 92.2634C48.0095 92.1166 47.8781 92.0007 47.7081 91.8539C47.3141 91.9698 46.8814 92.0934 46.4333 92.2248C46.4101 92.1089 46.3715 91.9389 46.3174 91.6994C46.1088 91.823 45.9233 91.9312 45.7456 92.0394C45.6143 91.9235 45.483 91.8075 45.3284 91.6762C45.0348 92.1707 44.6098 91.9544 44.2853 92.1862C43.9454 92.4025 43.6131 92.6188 43.25 92.8506C43.2886 93.1211 43.3195 93.3452 43.3504 93.546C43.4741 93.5538 43.5359 93.5615 43.6286 93.5692C43.6749 94.0405 43.7213 94.4886 43.7754 94.96C44.0613 95.184 44.3471 95.4004 44.633 95.6245C44.888 95.5781 45.1507 95.5394 45.3979 95.4931C45.4366 95.6013 45.4598 95.6863 45.5293 95.8949C45.7302 95.7635 45.8847 95.6553 46.0006 95.5781L45.9774 95.5394ZM48.9753 92.2016C48.9753 92.2016 48.9444 92.2016 48.9289 92.2093C48.9289 92.1475 48.9135 92.0857 48.9135 92.0239C48.9289 92.0239 48.9444 92.0239 48.9598 92.0162C48.9598 92.078 48.9753 92.1398 48.9753 92.2016Z" fill="#FFE4D5"/>
<path id="Vector_7" d="M53.6963 105.584C53.9204 105.615 54.0904 105.653 54.2681 105.653C54.4535 105.653 54.6621 105.553 54.8321 105.607C55.4889 105.823 56.1379 105.777 56.7946 105.661C57.1346 105.599 57.4668 105.522 57.8145 105.684C58.139 105.839 58.4867 105.785 58.8267 105.738C58.9658 105.715 59.1203 105.808 59.213 105.831C59.5221 105.692 59.7848 105.576 60.032 105.468C60.032 105.368 60.0398 105.283 60.0475 105.19C60.1943 105.167 60.3257 105.151 60.6347 105.105C60.6579 105.159 60.7274 105.337 60.7969 105.499C61.0596 105.344 61.2451 105.244 61.4383 105.128C61.4923 105.252 61.5387 105.352 61.5773 105.437C61.8787 105.553 62.1645 105.661 62.4504 105.762C62.5818 105.507 62.744 105.646 62.8986 105.677C63.0995 105.715 63.3004 105.738 63.4858 105.769C63.5708 105.684 63.648 105.599 63.7098 105.538C63.8644 105.607 63.9803 105.661 64.0884 105.708C64.1889 105.615 64.2661 105.538 64.3743 105.437C65.1624 105.808 66.0587 105.375 66.8623 105.808C67.0786 105.429 67.434 105.646 67.7044 105.669C67.7276 105.507 67.7353 105.422 67.7508 105.36C68.1757 105.298 68.5775 105.236 69.0643 105.167C69.327 105.398 69.6283 105.661 69.976 105.955C70.0842 105.893 70.2464 105.8 70.4087 105.7C70.8723 105.97 71.3436 105.661 71.7608 105.677C71.8845 105.576 71.9617 105.491 72.0544 105.453C72.1472 105.414 72.2553 105.414 72.3326 105.406C72.3789 105.561 72.4099 105.646 72.4408 105.754C72.6803 105.715 72.9198 105.684 73.2366 105.638C73.3216 105.754 73.422 105.901 73.4993 106.001C73.9551 105.862 74.3956 105.978 74.7124 105.615C75.1296 105.731 75.5545 105.708 75.9718 105.615C76.1881 105.568 76.4044 105.545 76.6826 105.507C76.7676 105.607 76.8835 105.731 76.9298 105.785C77.7798 105.854 78.5061 105.391 79.1397 105.638C79.5492 105.522 79.8428 105.429 80.005 105.383C80.9013 105.862 81.643 105.885 82.4002 105.414C82.5084 105.468 82.6243 105.522 82.7247 105.576C82.8329 105.468 82.9101 105.391 82.9565 105.337C83.451 105.414 83.9069 105.483 84.355 105.561C84.3937 105.669 84.4323 105.769 84.4864 105.908C84.7413 105.769 84.95 105.661 85.174 105.545C85.429 105.646 85.6917 105.754 85.9158 105.839C86.2248 105.592 86.4952 105.375 86.7888 105.143C86.897 105.298 87.0129 105.453 87.1057 105.584C87.6002 105.939 88.1256 105.63 88.651 105.762C89.1532 105.885 89.694 105.483 90.1344 105.692C90.4667 105.599 90.7371 105.422 90.9534 105.491C91.587 105.677 92.2051 105.669 92.831 105.545C92.9855 105.514 93.1477 105.499 93.2945 105.476C93.3563 105.615 93.4027 105.723 93.48 105.885C93.7736 105.53 94.129 105.514 94.4844 105.507C94.5308 105.63 94.5617 105.707 94.6158 105.87C94.7703 105.785 94.9248 105.707 95.0793 105.63C95.1489 105.599 95.2184 105.576 95.2494 105.568C95.4116 105.762 95.5507 105.924 95.6125 106.001C95.9911 105.893 96.2847 105.87 96.5319 105.731C96.7946 105.584 97.0187 105.391 97.32 105.491C97.3664 105.607 97.405 105.708 97.4436 105.808C97.7527 105.762 98.0232 105.723 98.2859 105.684C98.4018 105.785 98.5099 105.877 98.6181 105.97C98.6954 105.908 98.7649 105.792 98.8499 105.785C99.3753 105.754 99.9084 105.738 100.442 105.738C100.527 105.738 100.612 105.854 100.689 105.908C100.921 105.746 101.067 105.514 101.353 105.669C101.485 105.738 101.662 105.738 101.809 105.708C102.713 105.553 103.64 105.762 104.544 105.499C104.637 105.476 104.745 105.538 104.846 105.553C105.147 105.599 105.456 105.692 105.757 105.669C105.974 105.653 106.19 105.499 106.453 105.383C106.545 105.491 106.661 105.623 106.793 105.777C107.001 105.653 107.187 105.553 107.349 105.46C107.488 105.507 107.604 105.561 107.735 105.576C108.346 105.653 108.972 105.599 109.574 105.8C109.76 105.862 109.999 105.7 110.154 105.653C110.718 105.661 111.228 105.669 111.799 105.684C112.132 105.422 112.557 105.476 113.136 105.877C113.314 105.854 113.476 105.831 113.623 105.808C113.654 105.661 113.685 105.538 113.747 105.275C113.978 105.545 114.133 105.715 114.318 105.924C115.284 105.599 116.327 105.908 117.339 105.653C117.641 105.576 117.942 105.522 118.282 105.653C118.529 105.746 118.877 105.522 119.232 105.422C119.727 105.808 119.959 105.051 120.376 104.95C120.314 104.533 120.662 104.433 120.909 104.193C120.646 103.961 120.445 103.791 120.229 103.606C120.368 103.513 120.469 103.451 120.6 103.359C120.407 102.965 119.997 102.972 119.82 102.625C119.68 102.347 119.263 102.609 119.039 102.277C118.9 102.068 118.568 102.424 118.367 102.169C117.857 102.246 117.347 102.323 116.938 102.385C115.972 101.937 115.694 101.914 115.176 102.223C114.882 101.976 114.566 101.922 114.202 101.991C113.623 102.099 113.028 101.852 112.449 102.068C112 101.86 111.552 102.053 111.104 102.068C110.903 102.076 110.695 102.022 110.486 101.991C110.424 102.061 110.347 102.146 110.301 102.2C109.721 102.014 109.188 101.837 108.663 101.667C108.33 102.107 107.874 101.914 107.511 102.068C107.372 101.952 107.241 101.844 107.032 101.682C106.623 101.875 106.167 102.084 105.657 102.316C105.556 102.184 105.425 102.014 105.271 101.821C104.9 102.068 104.475 101.543 104.073 101.891C104.073 102.061 104.073 102.223 104.073 102.37C103.779 102.207 103.524 102.068 103.208 101.891C102.945 102.447 102.489 102.262 102.18 102.076C101.817 101.852 101.647 102.076 101.461 102.184C100.604 102.061 99.808 101.597 98.9967 102.161C98.4636 101.875 97.8841 101.96 97.1424 102.115C97.1114 102.045 97.0342 101.867 96.9415 101.667C96.7483 101.813 96.6324 101.945 96.501 101.999C96.2306 102.099 95.9911 102.501 95.6588 102.138C95.0793 102.308 94.5462 101.821 93.9822 102.014C93.9204 101.875 93.8741 101.775 93.8122 101.651C93.5341 101.767 93.2096 102.037 93.0164 101.945C92.7228 101.798 92.4832 101.891 92.2283 101.914C91.8188 101.952 91.4093 102.03 90.8916 102.107C90.8375 102.03 90.7371 101.875 90.6444 101.752C90.3044 101.952 90.0108 102.122 89.7249 102.292C89.3849 101.976 89.0295 102.316 88.705 102.238C88.3573 102.153 88.0405 101.952 87.7083 101.798C87.3992 101.968 87.152 102.223 86.758 102.007C86.588 101.914 86.2016 101.922 86.0548 102.238C85.7998 102.092 85.5449 101.952 85.2668 101.79C84.5945 102.169 83.8064 101.512 83.1497 102.107C83.0956 101.922 83.0492 101.759 82.972 101.497C82.8483 101.728 82.7711 101.891 82.7016 102.03C81.8362 102.092 81.0172 101.319 80.1595 102.061C80.0436 101.929 79.9278 101.798 79.8582 101.713C79.4564 101.697 79.1396 101.821 78.7688 101.713C78.4906 101.628 78.1352 101.914 77.8029 101.999C77.687 102.03 77.548 101.976 77.4244 101.945C77.0612 101.852 76.7522 101.945 76.4663 102.207C76.1109 102.068 75.7477 101.922 75.3691 101.775C75.0833 101.96 74.8205 102.231 74.4497 101.96C74.3415 101.883 74.1329 101.991 73.9706 102.014C73.6539 102.061 73.3293 102.107 73.0125 102.161C72.8889 102.022 72.7884 101.914 72.7189 101.837C72.4021 101.883 72.1317 101.922 71.7531 101.983C71.7222 102.068 71.6681 102.231 71.6218 102.393C71.5831 102.377 71.5368 102.362 71.4982 102.346C71.475 102.122 71.4441 101.891 71.4054 101.582C70.9805 102.3 70.3855 101.52 69.9837 101.945C69.9837 102.03 69.9683 102.122 69.9683 102.192C69.6592 102.416 69.4197 102.122 69.1184 102.076C69.1029 101.937 69.0875 101.79 69.0643 101.62C68.6548 101.813 68.2839 101.991 67.9053 102.177C67.8358 102.061 67.774 101.945 67.7044 101.821C67.1481 101.906 66.6073 101.983 66.0664 102.068C65.5256 101.473 64.7993 101.875 64.2121 101.574C64.0576 101.914 63.7176 101.96 63.5708 101.86C63.1999 101.612 62.8754 101.837 62.5431 101.86C62.1723 101.891 61.8246 101.697 61.4383 101.806C61.0906 101.906 60.7352 102.007 60.3334 101.837C60.1093 101.744 59.7616 101.914 59.4989 102.045C59.3135 102.138 59.1899 102.169 58.9812 102.092C58.7185 101.991 58.4326 101.976 58.1468 101.945C57.8609 101.914 57.575 101.906 57.2969 101.883C57.2505 101.883 57.2042 101.844 57.1578 101.829C57.1269 101.744 57.1037 101.659 57.0728 101.558C56.9569 101.566 56.8487 101.574 56.7019 101.589C56.5551 101.806 56.3929 102.037 56.2151 102.308C56.022 102.161 55.8674 102.045 55.6743 101.898C55.2261 102.014 54.7394 102.138 54.2217 102.269C54.1908 102.153 54.1522 101.983 54.0904 101.744C53.8508 101.867 53.6423 101.976 53.4414 102.084C53.2946 101.968 53.1477 101.852 52.97 101.721C52.6378 102.215 52.151 101.999 51.7802 102.231C51.3938 102.447 51.0152 102.663 50.6057 102.895C50.6521 103.166 50.683 103.39 50.7139 103.59C50.853 103.598 50.9303 103.606 51.0307 103.614C51.0848 104.085 51.1388 104.533 51.1929 105.004C51.5252 105.228 51.842 105.445 52.1742 105.669C52.4678 105.623 52.7614 105.584 53.0396 105.538C53.0782 105.646 53.1091 105.731 53.1864 105.939C53.4104 105.808 53.5882 105.7 53.7272 105.622L53.6963 105.584ZM57.1114 102.246C57.1114 102.246 57.0728 102.246 57.0574 102.254C57.0574 102.192 57.0419 102.13 57.0342 102.068C57.0496 102.068 57.0728 102.068 57.0882 102.061C57.0882 102.122 57.1037 102.184 57.1114 102.246Z" fill="#FFE4D5"/>
</g>
</g>
<defs>
<clipPath id="clip0_568_864">
<rect width="120" height="157" fill="white"/>
</clipPath>
</defs>
</svg>
