<svg width="122" height="157" viewBox="0 0 122 157" fill="none" xmlns="http://www.w3.org/2000/svg">
<g id="Graphic 08">
<g id="circle-dark">
<g id="Frame 43827">
<path id="Vector" d="M1.25557 0.125822L18.0471 0.125823C18.0471 22.1618 35.9767 40.0834 58.0047 40.0834C80.0327 40.0834 97.9623 22.1538 97.9623 0.12583L114.754 0.125832C114.754 31.4171 89.296 56.875 58.0047 56.875C26.7135 56.875 1.25557 31.417 1.25557 0.125822Z" fill="#FF8241"/>
<path id="Vector_2" d="M1.85251 15.3817C2.139 16.4481 2.29019 17.3075 2.58464 18.1272C2.89501 19.0106 3.28497 19.9576 3.54759 20.7534C4.46276 23.8809 5.93502 26.7936 7.6858 29.555C8.11554 30.2713 8.59301 30.9636 9.06254 31.6639C9.51615 32.3722 9.95383 33.0884 10.3915 33.8285C11.1794 35.253 12.2935 36.5741 13.4236 37.8633C13.901 38.3806 14.3308 39.0172 14.6014 39.3674C15.1585 39.9085 15.7155 40.3542 16.2089 40.7998C16.7102 41.2455 17.1878 41.6513 17.6732 42.0254C17.7687 41.9697 17.8483 41.9299 17.9358 41.8821C18.5008 42.3596 18.9226 42.8291 20.1084 43.7682C20.1482 43.8717 20.3073 44.2536 20.4426 44.6038C21.5249 45.3598 22.3128 45.7816 23.1324 46.2909C23.2677 46.5535 23.3791 46.7764 23.4746 46.9674C24.6126 47.9144 25.7029 48.8614 26.8568 49.697C27.5412 49.8243 28.1381 50.3893 28.7906 50.7793C29.6342 51.3045 30.4857 51.8536 31.2895 52.2754C31.7033 52.3868 32.0694 52.4823 32.3797 52.5619C33.0243 52.9916 33.5416 53.2702 34.0032 53.5328C34.4887 53.6442 34.8707 53.7397 35.3959 53.8591C36.2474 54.3366 37.1785 54.7185 38.1255 55.1244C39.0884 55.4905 40.0832 55.8088 41.0779 56.143C42.0886 56.4295 43.0993 56.724 44.0941 57.0105C45.1048 57.2651 46.0836 57.5755 47.0465 57.8699C48.2004 57.6789 49.8637 58.2201 51.2007 58.3793C51.328 58.2281 51.3996 58.1485 51.4553 58.0928C53.5483 58.2838 55.5299 58.3474 57.9253 58.3156C58.5778 58.4668 59.2701 58.5464 60.0261 58.6737C60.7822 58.7931 61.586 58.9284 62.4534 59C62.9946 58.8886 63.7665 58.7294 64.5862 58.5623C66.902 58.5703 69.178 57.9018 71.2073 57.4482C71.7962 57.2094 72.1464 57.0343 72.584 56.8911C73.0138 56.7638 73.5151 56.6046 73.9051 56.4932C74.1836 56.5807 74.3348 56.6285 74.5338 56.6842C75.6957 56.342 76.8018 55.9202 78.2422 55.3711C78.672 55.3631 79.1972 55.2995 79.5872 55.2676C80.6217 54.7902 81.6563 54.3763 82.5714 53.9068C83.4946 53.4612 84.3222 52.9996 84.9271 52.4584C85.4045 52.2436 85.882 52.0287 86.3515 51.7979C86.8131 51.5592 87.2668 51.2966 87.7204 51.0339C88.6355 50.5246 89.503 49.9437 90.3545 49.3309C91.2458 48.7341 92.0973 48.0576 93.1876 47.2459C93.6093 47.0867 94.1266 46.8241 94.3335 46.7286C97.7237 44.1979 99.9679 41.3251 102.244 39.1684C102.857 38.3647 103.398 37.6803 103.812 37.0993C104.217 36.5104 104.544 36.0409 104.775 35.7067C107.862 32.5155 109.828 29.2606 111.038 25.7033C111.332 25.2577 111.603 24.7563 111.857 24.3266C111.969 23.8013 112.048 23.4273 112.104 23.1965C112.621 22.0983 113.075 21.016 113.513 19.9576C113.902 18.8833 114.348 17.8487 114.666 16.7744C114.826 16.6152 114.977 16.464 115.184 16.2491C115.422 14.9838 115.534 13.9572 115.661 12.8351C116.083 11.6175 116.354 10.3363 116.656 9.28579C116.656 8.49794 116.608 7.76579 116.584 7.05752C116.568 6.34925 116.521 5.64893 116.449 4.91679C116.648 4.39156 116.847 3.84246 117.022 3.37293L117.07 3.15009C117.086 3.06255 117.094 2.91135 117.11 2.79198L117.173 2.02004C117.213 1.49481 117.245 0.961617 117.269 0.428425C117.285 -0.104767 117.309 -0.645912 117.332 -1.19502C117.332 -1.44968 117.38 -1.768 117.317 -1.97491L116.433 -1.97491C115.255 -1.959 114.07 -1.95104 112.884 -1.94309C112.199 -1.94309 111.611 -1.94308 110.974 -1.97491C108.571 -2.10224 105.952 -1.68842 103.859 -1.90329C103.056 -1.83963 102.331 -1.78393 101.679 -1.73618C101.353 -1.7123 101.042 -1.68842 100.756 -1.68047C100.525 -1.68047 100.31 -1.68047 100.095 -1.68047C99.8564 -1.68047 99.6177 -1.68843 99.3869 -1.69639C98.1773 -1.59293 96.0684 -2.38078 96.5459 -0.431055C96.4742 0.698996 96.4026 1.82905 96.331 2.9591L96.2753 4.02548L96.1241 5.08391C96.0286 5.79218 95.949 6.50046 95.8694 7.22464L95.8058 7.76579C95.766 7.94087 95.7262 8.11595 95.6864 8.29102C95.6068 8.64118 95.5352 8.97542 95.4556 9.3017C95.2407 9.54841 95.0896 9.73144 94.8349 10.0179C94.9304 11.4106 94.2858 12.9465 93.7605 14.4824C93.5695 14.6257 93.4582 14.7212 93.1955 14.8962C92.9648 15.5727 92.7339 16.2252 92.5031 16.8937C92.3997 17.1882 92.2724 17.4985 92.2167 17.6259C91.7471 18.2148 91.2378 18.6365 91.0389 18.8435C90.641 19.5915 90.2749 20.268 89.9566 20.8728C89.6383 21.4855 89.2563 21.971 88.9936 22.4723C88.4047 23.5069 87.9591 24.5096 86.9166 25.4407C86.6778 25.5203 86.4789 25.5919 86.2879 25.6556C85.8263 26.1808 85.4364 26.714 84.9748 27.1517C84.5212 27.5974 84.0835 28.0191 83.6458 28.4409C83.1843 28.7194 82.7624 28.99 82.3168 29.2367C82.086 29.4914 81.8871 29.7858 81.6006 30.0087C80.6377 30.7249 79.7304 31.5287 78.672 32.1176C77.6295 32.7224 76.6507 33.4466 75.5365 33.9161C75.1864 34.0832 74.7805 34.1469 74.4621 34.2424C74.0324 34.5448 73.6823 34.8233 73.2844 35.0859C72.8785 35.3167 72.409 35.4997 71.7723 35.6509C71.1914 35.7862 70.4274 36.0727 69.7908 36.3353C65.8674 37.6962 61.6098 38.0463 57.4955 38.2373C57.0817 38.2373 56.5883 38.1498 56.1267 38.11L55.0842 38.0145L54.5669 37.9668L54.0497 37.8633C53.3653 37.728 52.6809 37.6086 51.9965 37.5131C51.5031 37.4336 51.0017 37.4415 50.4924 37.3619C49.9751 37.2903 49.426 37.2107 48.8132 37.1232C48.4312 36.9083 47.9617 36.6537 47.4285 36.3513C46.4815 36.1921 45.6777 35.9693 44.9376 35.8101C44.3647 35.5395 43.8553 35.3326 43.346 35.07C42.7253 34.7517 42.0966 34.4334 41.4679 34.115C40.8392 33.8047 40.2026 33.5102 39.6216 33.1044C38.4438 32.3404 37.2183 31.656 36.2076 30.6851C35.5868 30.1201 34.5682 29.6346 34.0111 29.189C33.08 28.3056 32.133 27.5257 31.2815 26.6344C30.8677 26.1729 30.4539 25.7192 30.0401 25.2497C29.6342 24.7722 29.1647 24.3425 28.7986 23.7934C28.2495 23.2761 27.6765 22.6076 27.1035 21.78C26.5305 20.9523 26.0849 19.8621 25.5756 18.6604C25.1061 18.0079 24.8275 17.3314 24.4853 16.7266C24.2864 16.655 24.1033 16.5834 23.7452 16.4481C23.6338 15.9069 23.5463 15.4613 23.4588 15.0395C23.3792 14.6257 23.3632 14.2198 23.3155 13.798C23.0926 13.3046 22.8698 12.7953 22.655 12.278C22.4321 11.7607 22.2173 11.2435 22.0899 10.6864C21.8034 9.58819 21.4613 8.48997 21.2543 7.35196C21.0793 6.206 20.9042 5.06003 20.7291 3.91407C20.6097 2.21103 20.4824 0.500041 20.363 -1.18708L20.3233 -1.66456L20.3233 -1.78393C20.3233 -1.78393 20.3232 -1.83168 20.2994 -1.83963L20.2357 -1.83963L19.9811 -1.83168C19.6468 -1.83168 19.3126 -1.81577 18.9783 -1.80781C18.3178 -1.79985 17.6493 -1.79189 16.9729 -1.78393C16.6784 -1.78393 16.384 -1.78393 16.0895 -1.78393C15.8985 -1.78393 15.7075 -1.79188 15.5086 -1.79984C15.1186 -1.81576 14.7208 -1.83168 14.307 -1.87147C13.1212 -1.96697 11.4739 -1.73618 9.73105 -1.63273C7.34362 -2.03063 6.22946 -1.25074 4.23994 -1.14728C4.51848 -0.717547 2.88708 -0.614096 1.67746 -0.367396C2.95075 -0.128653 3.91366 0.046434 4.94025 0.237428C4.28769 0.332925 3.80224 0.396585 3.14172 0.492082C4.07281 0.897943 6.03848 0.889982 6.89 1.2481C7.55848 1.53459 9.56389 1.26402 10.6382 1.60622C11.3147 1.82109 12.8824 1.45502 13.8692 1.71763C14.482 1.70172 15.0948 1.67784 15.6996 1.66192L16.1532 1.646C16.2487 1.646 16.2805 1.646 16.2965 1.646L16.376 1.646L16.6864 1.61418C16.7978 1.60622 16.9092 1.59826 17.0127 1.5903C17.0922 1.55847 17.0604 1.65396 17.0763 1.6858L17.1002 1.82905C17.1241 2.04392 17.1559 2.25083 17.1798 2.44978C17.1559 3.05459 17.132 3.6037 17.1082 4.11302C17.0922 4.62234 17.1559 5.07595 17.1798 5.49773C17.2435 6.34925 17.3151 7.04955 17.4026 7.6862C17.4504 8.00452 17.4822 8.29898 17.5538 8.58547C17.6334 8.87196 17.713 9.14254 17.8005 9.41311C17.9756 9.96222 18.1746 10.5034 18.4213 11.1161C18.477 12.6123 19.0738 14.1243 19.7343 15.7955C19.981 16.4799 20.363 17.1086 20.6575 17.7771C20.9679 18.4455 21.2782 19.1061 21.5886 19.7745C22.2968 21.0638 23.0688 22.3211 23.9282 23.483C24.5092 24.4459 25.1777 25.3532 25.878 26.2365C26.2043 26.6901 26.626 27.0721 27.008 27.478L28.1699 28.6956C28.8304 29.4595 29.5546 30.1758 30.3186 30.9079C30.6051 31.0671 30.9234 31.2501 31.1383 31.3615C33.1676 33.4068 35.2924 35.1018 37.4809 36.5741C38.2926 36.8447 39.2157 37.2107 40.1389 37.6166C40.6005 37.8235 41.0621 38.0384 41.5157 38.2453C41.7464 38.3487 41.9692 38.4442 42.1841 38.5397C42.4149 38.6114 42.6378 38.683 42.8606 38.7387C43.4972 39.0968 44.0781 39.431 44.9695 39.9404C45.9642 40.2507 47.0704 40.3621 48.2004 40.5611C48.7655 40.6486 49.3464 40.7441 49.9433 40.8317C50.5481 40.8874 51.1688 40.9112 51.7975 40.951C52.275 41.1579 52.9116 41.4365 53.6438 41.7548C54.5749 41.7707 55.5776 41.8264 56.5962 41.9617C57.1055 42.0174 57.6228 42.0652 58.1321 42.089C58.6414 42.1129 59.1587 42.0174 59.6521 41.914C59.6521 41.7389 59.668 41.5718 59.676 41.4206C60.4161 41.4683 61.1005 41.5081 61.8008 41.5559C62.151 41.5718 62.5091 41.6195 62.8752 41.6036C63.2412 41.5877 63.6153 41.5797 64.0052 41.5638C64.6339 41.1818 65.5013 40.951 66.4165 40.8078C67.3237 40.6486 68.2628 40.4497 69.0427 40.3701C69.942 40.2428 70.6104 40.1075 71.1197 39.8767C71.6291 39.6459 72.019 39.4072 72.4249 39.2003C72.9342 39.0331 73.4435 38.874 73.9449 38.7069C74.1996 38.6273 74.4463 38.5557 74.693 38.4681L75.4171 38.1657C76.3801 37.7678 77.3271 37.3619 78.2661 36.9481C80.0408 35.9454 81.8314 34.9427 83.24 33.4227C83.8129 33.0805 84.3939 32.7144 84.9748 32.3165C85.516 31.8709 86.0651 31.3854 86.6221 30.8761C86.9007 30.6135 87.1872 30.3509 87.4737 30.0803C87.7681 29.8097 88.0546 29.5232 88.3172 29.1969C88.8584 28.5603 89.4234 27.8918 90.0202 27.1756C90.1794 27.096 90.6012 26.9368 91.0389 26.7061C91.5004 25.8386 91.7392 25.2975 92.1052 24.7165C92.4554 24.1356 92.7737 23.5785 93.0522 22.9578C93.3467 22.345 93.7048 21.7322 94.2937 21.1274C95.0259 19.87 95.6307 18.6206 96.3151 17.411L96.8165 16.4958C96.9836 16.1934 97.095 15.8592 97.2302 15.5408C97.4849 14.8962 97.7237 14.2357 97.9147 13.5513C98.1534 13.2967 98.3365 13.1136 98.5672 12.8749C98.8617 11.4981 98.9651 9.81898 99.2994 8.93563C99.753 7.52704 99.7848 6.31742 99.9678 5.04412C100.055 4.5348 100.071 4.02548 100.079 3.50025C100.079 3.23763 100.095 2.97502 100.095 2.7124L100.095 2.51345L100.095 2.41794L100.095 2.39407L100.087 2.30653C100.079 2.17124 100.063 2.03597 100.055 1.89272C100.127 1.8211 100.294 1.83702 100.453 1.80518C100.501 1.84497 100.557 1.90863 100.597 1.9723C100.772 2.03596 101.018 2.10758 101.225 2.17125C102.857 1.96434 104.265 1.78926 105.65 1.61418C107.281 1.94047 109 1.59032 110.56 1.66989C110.974 1.70173 111.38 1.72559 111.778 1.75742L112.375 1.81314C112.55 1.82905 112.852 1.85293 112.828 1.8768C112.916 1.9166 112.987 1.96434 113.035 2.00413C113.059 2.02801 113.075 2.04393 113.091 2.0678C113.091 2.09963 113.131 2.07575 113.091 2.17125C113.178 2.28266 113.282 2.44978 113.337 2.69649C113.353 2.76015 113.361 2.82381 113.369 2.89544C113.369 2.99889 113.353 3.2456 113.337 3.42067C113.306 3.80266 113.25 4.21648 113.162 4.67009C113.043 5.44998 112.796 7.20872 113.043 7.94087C112.733 9.10275 112.359 10.2487 111.961 11.4663C111.714 14.6416 109.979 17.9044 109.366 20.9444C109.088 21.1036 108.873 21.2548 108.475 21.4696C108.467 22.0744 108.459 22.4803 108.459 22.8305C107.671 24.6847 106.573 26.3241 105.507 27.9475C104.989 28.7672 104.408 29.5471 103.923 30.3986C103.406 31.2262 102.904 32.0698 102.483 32.9929C102.045 33.3272 101.607 33.6614 101.329 33.8763C100.756 34.6164 100.238 35.269 99.7052 35.8897C99.4426 36.2001 99.18 36.5025 98.9174 36.8128C98.6309 37.1073 98.3365 37.3938 98.0181 37.6803C97.095 38.5557 96.0923 39.9085 95.0179 41.0067C94.628 41.3808 94.1107 41.7628 93.6571 42.1129C92.3042 43.0997 91.2378 44.0786 90.2908 45.0495L89.2085 45.6861C88.8345 45.8851 88.4604 46.0761 88.0864 46.275C87.3383 46.6809 86.5744 47.0708 85.7627 47.4289C84.744 48.2645 83.7493 49.0763 82.086 49.6094C81.6006 49.7447 80.757 50.2461 80.0726 50.5883C78.7197 51.2011 77.3509 51.8138 75.9503 52.3072C75.3535 52.355 74.8999 52.4027 74.5736 52.4186C73.1809 52.8643 71.9951 53.2702 70.2841 53.6919C70.1727 53.8034 69.9658 54.0262 69.7589 54.249C69.5679 54.2808 69.369 54.2888 69.178 54.3127C69.0108 54.1058 68.8438 53.8989 68.613 53.6124C67.7217 54.1535 66.5518 54.3525 65.382 54.4241C64.2201 54.5435 63.0582 54.5275 62.1351 54.814C62.1112 54.9095 62.0953 54.9971 62.0714 55.0767C61.3552 55.2597 60.7106 55.2517 60.0819 55.2119C59.4532 55.1722 58.8245 55.1324 58.1321 55.0846C58.0525 54.9334 57.9809 54.7902 57.8854 54.6071C56.9464 54.6708 56.0392 54.7822 55.1558 54.8061C54.2645 54.822 53.3891 54.8777 52.4978 54.8697L51.6065 54.3923C49.0361 54.1853 46.5452 53.7397 44.102 53.1826C41.8419 51.9889 38.5552 51.217 36.1996 49.8164C35.8097 49.8323 35.2447 49.6811 34.7035 49.4901C34.1783 49.2672 33.6769 48.9967 33.3904 48.7898C33.0403 48.5351 32.6821 48.3202 32.332 48.1213C31.9898 47.9064 31.6396 47.7154 31.2974 47.5324C30.6051 47.1743 29.9048 46.848 29.2522 46.4262C27.78 45.5349 26.5863 44.4606 25.0981 43.4578C23.7691 42.5665 22.4162 41.5638 21.1827 40.1791C20.8405 39.7812 20.3471 39.3435 19.8139 38.9058C19.2966 38.4522 18.7635 37.9906 18.286 37.6007C17.6095 37.0516 17.2196 36.6139 16.6545 35.8499C15.9224 34.887 15.1266 33.7888 14.3547 32.7462C13.6225 31.656 12.8426 30.5816 12.1741 29.4436C12.0548 29.2526 11.9672 29.0457 11.8797 28.8786C11.8876 28.7274 11.8956 28.5842 11.9036 28.4091C11.625 27.9475 11.3704 27.5337 11.0203 26.9527C10.7576 26.714 10.4791 26.4673 10.1846 26.1967C9.90608 25.9182 9.60372 25.6237 9.28539 25.3054C9.00685 24.438 8.784 23.7536 8.56118 22.8623C8.31447 22.4007 8.06778 21.9232 7.82108 21.4378C7.5903 20.9444 7.35952 20.443 7.12873 19.9337C6.62737 18.923 6.23742 17.8248 5.77584 16.7186C5.84747 16.5515 5.95091 16.3128 6.11007 15.9706C5.7042 14.944 5.28244 14.0686 4.98004 13.1455C4.94024 12.4531 4.89252 11.7528 4.86069 10.9251C4.4787 10.2248 4.23197 9.30169 4.03302 8.34672C3.87386 7.38379 3.7306 6.39699 3.52369 5.55343C3.34861 4.67008 3.16559 3.77877 2.98255 2.87951C2.84726 1.96433 2.70405 1.04119 2.56876 0.0862212C2.29818 0.293134 2.0674 0.460256 1.86844 0.611459C1.86844 1.27198 1.87637 1.63805 1.88433 2.12349C1.40684 2.40998 0.95326 2.68852 0.475774 2.97501C0.364362 4.5905 0.237012 6.18212 0.252927 7.84536C0.356381 8.56159 0.4837 9.27781 0.642865 9.98609C0.794064 10.6864 0.929364 11.3867 1.09648 12.0711C1.03282 12.2939 0.985073 12.4451 0.857746 12.8669C1.24769 13.9333 1.53418 14.7769 1.80476 15.3896L1.85251 15.3817ZM11.4818 29.0457L11.3385 28.8388L11.442 28.6558L11.5852 28.8627L11.4818 29.0457Z" fill="#FF8241"/>
</g>
</g>
<g id="circle-light">
<path id="Vector_3" d="M115.766 117.793C127.563 107.802 129.027 90.1396 119.036 78.3428C109.045 66.546 91.3828 65.0821 79.586 75.073C67.7892 85.0639 66.3253 102.726 76.3162 114.523C86.307 126.32 103.969 127.784 115.766 117.793Z" fill="#FFA972"/>
<path id="Vector_4" d="M113.842 71.9764C113.386 71.5938 112.992 71.3313 112.584 71.1005C112.146 70.8453 111.619 70.6648 111.253 70.3991C110.904 70.1184 110.522 69.9061 110.133 69.7097C109.744 69.5133 109.35 69.3219 108.948 69.1464C108.165 68.7585 107.3 68.561 106.449 68.3317C106.009 68.2296 105.577 68.0898 105.142 67.9935C104.696 67.8964 104.268 67.7733 103.84 67.5901C103.433 67.4195 102.995 67.2847 102.554 67.1934C102.099 67.1339 101.637 67.101 101.18 67.0632C100.805 67.0375 100.406 66.8896 100.17 66.8371C99.3298 66.8715 98.6287 67.0104 97.9716 67.0818C97.9526 67.1787 97.9345 67.2648 97.9214 67.3567C97.5305 67.3845 97.1904 67.329 96.3824 67.4371C96.3257 67.3941 96.1268 67.219 95.937 67.0664C95.2473 67.2665 94.7821 67.3976 94.2776 67.5418C94.1227 67.4305 93.9935 67.3377 93.8844 67.2684C93.0786 67.2837 92.3005 67.2958 91.5332 67.3089C91.2353 67.6016 90.7937 67.5814 90.3884 67.6518C89.8598 67.7558 89.3254 67.8647 88.8472 67.9564C88.6547 68.0992 88.4809 68.2161 88.3396 68.3357C87.9284 68.4111 87.6168 68.4728 87.3337 68.5205C87.1218 68.7 86.9511 68.8445 86.7216 69.0389C84.6061 69.4054 82.6954 70.9326 80.6594 71.7271C80.3521 72.331 79.523 72.7603 78.9248 73.1759C78.9775 73.3335 79.0029 73.4231 79.0251 73.4852C78.1408 74.1835 77.4441 74.9959 76.5527 75.9126C75.8607 76.2055 75.1779 76.6524 74.3316 77.1569C74.1895 77.4188 73.9831 77.7957 73.7691 78.1994C73.2864 78.6081 72.942 79.1323 72.6193 79.6583C72.3075 80.1852 72.0024 80.6963 71.7318 81.1883C71.6486 81.5316 71.6247 81.754 71.5396 81.9878C71.4605 82.2166 71.3143 82.4616 71.2161 82.656C71.01 82.6991 70.9095 82.7236 70.7645 82.7554C70.4491 83.3258 70.2664 83.9454 69.9615 84.7192C69.7731 84.8787 69.5218 85.0713 69.3403 85.215C69.1335 85.7944 68.9703 86.3774 68.8165 86.9119C68.6737 87.4473 68.572 87.9479 68.6161 88.4058C68.2116 89.4558 67.9884 90.5647 67.8571 91.6867C67.8152 92.2579 67.7665 92.8449 67.7171 93.5741C67.5894 93.7934 67.417 94.0911 67.3586 94.2011C67.2758 95.3326 67.3188 96.3979 67.3967 97.373C67.5348 98.3477 67.6358 99.2426 67.5755 100.102C67.8604 101.155 68.0659 101.911 68.1838 102.336C68.1491 103.548 68.371 104.634 68.6093 105.655C68.9481 106.652 69.4095 107.555 69.9743 108.401C70.0496 108.681 70.129 108.977 70.2002 109.24C70.424 109.445 70.5813 109.595 70.6778 109.685C71.134 110.916 71.7369 111.962 72.3003 113.021C72.266 113.171 72.2384 113.306 72.1995 113.511C72.6717 114.02 73.1406 114.371 73.5824 114.785C73.9269 115.383 74.2393 116.038 74.5828 116.516C75.329 116.955 75.9719 117.32 76.6714 117.729C76.754 118.053 76.876 118.364 76.9798 118.63C77.3546 119.192 77.8639 119.65 78.4017 120.094C78.9219 120.553 79.5625 120.88 80.0877 121.345C81.0886 122.276 82.6061 122.588 83.505 123.363C84.3422 123.695 85.0837 123.795 85.568 124.092C86.2856 124.546 87.0712 124.84 87.8594 125.103C88.2535 125.234 88.6535 125.36 89.0485 125.48C89.4562 125.58 89.8675 125.636 90.2828 125.709C90.6982 125.781 91.1136 125.854 91.4914 125.918C91.6409 126.095 91.7397 126.223 91.9033 126.429C92.7388 126.186 93.6828 126.286 94.62 126.402C94.7287 126.542 94.7976 126.636 94.9431 126.795C95.3643 126.732 95.7746 126.667 96.1908 126.598C96.3733 126.575 96.5717 126.558 96.6487 126.554C97.08 126.765 97.4488 126.937 97.6064 127.016C98.6205 126.865 99.4099 126.783 100.054 126.601C100.741 126.433 101.301 126.091 102.117 126.077C102.262 126.176 102.387 126.252 102.506 126.333C103.323 126.188 104.01 125.949 104.685 125.731C105.012 125.747 105.322 125.768 105.639 125.783C105.817 125.672 105.973 125.51 106.186 125.451C107.505 124.92 108.865 124.496 110.119 123.828C110.324 123.725 110.581 123.73 110.781 123.692C111.27 123.278 111.53 122.916 112.242 122.636C112.575 122.516 112.985 122.26 113.311 122.024L114.065 121.507C114.315 121.336 114.545 121.131 114.785 120.948L116.235 119.831C116.734 119.479 117.14 119.014 117.585 118.597C118.009 118.167 118.444 117.738 118.807 117.259C118.943 117.062 119.182 116.89 119.368 116.692C119.92 116.103 120.572 115.572 121.027 114.903C121.357 114.422 121.556 113.869 121.867 113.222C122.093 113.071 122.395 112.915 122.699 112.689C122.87 112.139 123.024 111.665 123.163 111.244C123.385 110.945 123.592 110.7 123.774 110.414C124.55 108.978 125.185 107.449 125.84 105.955C126.053 105.502 126.124 104.846 126.153 104.427C126.323 103.696 126.49 102.999 126.657 102.301C126.798 101.596 126.869 100.869 126.981 100.117C126.886 99.2172 126.912 98.1029 127.385 96.5605C127.364 96.0827 127.29 95.6606 127.253 95.247C127.101 95.1633 126.97 95.0923 126.703 94.9443C126.926 94.3114 127.093 93.8765 127.244 93.3746C126.856 92.1165 126.737 90.7714 126.348 89.4639C126.167 88.8086 126.043 88.1252 125.795 87.4863C125.547 86.8473 125.282 86.2124 124.988 85.6024C124.832 85.2392 124.625 84.8883 124.437 84.5224C124.254 84.1515 124.079 83.7539 123.94 83.3156C123.835 83.0004 123.651 82.6512 123.378 82.3058C123.1 81.9653 122.785 81.6053 122.494 81.2255C122.302 80.5692 121.989 80.1876 121.596 79.9033C121.192 79.629 120.767 79.4132 120.4 79.0161C120.161 79.3903 119.547 78.7483 118.974 78.3944C119.198 79.0642 119.369 79.5764 119.554 80.1171C119.281 79.903 119.07 79.7486 118.792 79.5286C118.774 80.151 119.387 80.9352 119.364 81.4805C119.335 81.8995 120.057 82.6325 120.061 83.2457C120.062 83.6289 120.777 84.115 120.741 84.6812C121.036 85.2092 121.338 85.7322 121.619 86.2317C121.889 86.7411 122.081 87.2551 122.286 87.6989C122.508 88.8447 122.54 89.5861 122.672 90.1717C122.782 90.7555 123.031 91.1811 123.256 91.7689C123.114 92.496 123.195 93.236 123.367 94.0603C123.459 94.7301 123.473 95.4263 123.487 96.1116C123.502 96.7968 123.423 97.4799 123.519 98.1665C123.459 98.4297 123.427 98.6897 123.4 98.9447C123.357 99.2038 123.324 99.4638 123.303 99.7247C123.259 100.246 123.243 100.776 123.194 101.303C123.127 101.773 122.936 102.228 122.804 102.704C122.84 102.866 122.885 103.05 122.907 103.173C122.689 103.822 122.383 104.415 122.095 104.982C121.797 105.549 121.574 106.121 121.22 106.634C121.266 107.07 121.13 107.518 120.967 107.959C120.878 108.176 120.794 108.399 120.705 108.616C120.6 108.826 120.501 109.031 120.429 109.233C120.159 109.463 119.916 109.678 119.539 110.008C119.465 110.243 119.385 110.482 119.299 110.727C119.192 110.959 119.084 111.202 118.977 111.444C118.754 111.946 118.514 112.473 118.265 113.027C118.031 113.145 117.677 113.263 117.287 113.411C116.886 114.215 115.903 114.654 115.44 115.491C115.549 115.621 115.66 115.739 115.76 115.846C115.129 116.199 114.619 116.54 113.941 116.861C113.793 117.664 112.813 118.19 112.133 118.473C111.291 118.732 111.066 119.135 110.755 119.448C108.946 120.415 107.09 120.682 105.467 121.845C104.836 121.935 104.179 121.995 103.501 122.196C103.155 122.277 102.809 122.418 102.425 122.501C102.045 122.59 101.643 122.688 101.213 122.789C101.131 122.728 100.918 122.584 100.686 122.417C100.268 122.64 100.018 122.811 99.7017 122.866C99.0884 123.002 98.532 123.443 97.7374 123.125C96.3587 123.252 95.1284 122.777 93.8067 122.744C93.6771 122.591 93.5824 122.48 93.4686 122.333C92.8182 122.389 92.012 122.475 91.6066 122.283C90.976 121.968 90.3994 121.991 89.8341 121.813C89.3747 121.677 88.9145 121.551 88.4158 121.427C88.1693 121.363 87.9062 121.303 87.6448 121.221C87.3843 121.129 87.1139 121.024 86.8325 120.919C86.7446 120.791 86.5887 120.559 86.4577 120.357C86.0591 120.28 85.6745 120.232 85.3203 120.148C84.967 120.053 84.6304 119.954 84.2988 119.86C84.0255 119.526 83.6695 119.332 83.2957 119.153C82.9211 118.985 82.5718 118.776 82.2745 118.532C81.6696 117.973 81.1399 117.431 80.6744 116.774C80.0356 116.426 79.3824 116.251 78.8852 115.449C78.674 115.093 78.0654 114.446 77.5871 114.406C77.258 113.886 77.0105 113.307 76.7489 112.7C76.1236 112.189 75.6291 111.485 75.2547 110.721C74.8576 109.966 74.3889 109.281 73.8243 108.698C73.9393 108.5 74.0357 108.327 74.1846 108.049C73.8525 107.896 73.6255 107.795 73.4303 107.708C73.312 107.484 73.2054 107.251 73.1098 107.019C73.0308 106.782 72.9746 106.537 72.9074 106.291C72.789 105.805 72.6697 105.33 72.5562 104.85C72.3343 103.895 72.1441 102.955 71.5227 102.066C71.6123 101.778 71.6969 101.484 71.7557 101.303C71.6357 100.373 71.3387 99.6644 71.4384 98.7916C71.4595 98.4705 71.3914 98.1036 71.2916 97.7232C71.2417 97.533 71.1927 97.3319 71.1428 97.1417C71.1047 96.9415 71.0824 96.7481 71.071 96.5556C71.05 96.2803 71.1147 95.9627 71.1549 95.676C71.2226 95.2548 71.2165 94.8657 71.2037 94.4925C71.2076 94.1152 71.1653 93.7669 71.0795 93.415C71.2007 93.0091 71.3279 92.5983 71.4549 92.1874C71.6038 91.7783 71.7902 91.3778 71.9617 90.9597C71.9247 90.2835 71.7858 89.5824 72.3398 88.8403C72.4942 88.6287 72.5415 88.1236 72.6433 87.7545L72.7871 87.2082L72.9843 86.6772L73.3788 85.6154C73.6201 85.411 73.8085 85.2515 73.9438 85.1368C74.2407 84.4609 74.5384 83.9055 74.9222 83.1055C74.8868 83.004 74.8043 82.8111 74.7276 82.6132C74.7892 82.5308 74.8549 82.465 74.9323 82.3894C75.1561 82.4626 75.3857 82.5309 75.6947 82.6332C75.6851 81.4284 77.068 80.7221 77.4082 79.7871C77.3484 79.7165 77.2935 79.6517 77.2437 79.5928C77.3989 79.239 77.6262 79.0061 77.8734 78.7968C77.997 78.6921 78.1256 78.5933 78.2541 78.4945C78.3927 78.4075 78.5322 78.3096 78.6725 78.2008C78.7976 78.2768 78.9285 78.3479 79.0853 78.4375C79.3587 78.0443 79.6253 77.6668 79.891 77.3003C80.0268 77.1145 80.1576 76.9229 80.2875 76.7421L80.7348 76.2319L81.3322 76.2212C81.8316 75.8084 82.2811 75.3367 82.8145 74.9759C83.3379 74.6034 83.8605 74.2417 84.378 73.8741C85.0578 73.7937 85.7661 73.5678 86.434 73.2346C87.0979 72.8846 87.8138 72.632 88.5004 72.5357C88.7163 72.1103 89.4481 71.7331 89.8218 71.7805C90.7277 71.8118 91.382 71.379 92.1469 71.1961C93.0019 71.0481 93.81 71.0713 94.6963 70.8766C95.4893 70.7507 96.3271 70.5466 97.2589 70.7278C97.7803 70.8421 98.5968 70.6964 99.2191 70.5838C99.6639 70.5002 99.9615 70.5413 100.427 70.6729C101.018 70.8697 101.704 70.9156 102.333 71.11C102.971 71.2778 103.619 71.4465 104.261 71.6201C104.374 71.6459 104.466 71.7192 104.551 71.759C104.586 71.8605 104.616 71.956 104.661 72.0801C104.917 72.1561 105.147 72.2244 105.479 72.3175C105.875 72.2245 106.305 72.1233 106.807 72.0008C107.182 72.3 107.461 72.5694 107.818 72.8836C108.318 73.0563 108.859 73.1943 109.388 73.4132C109.916 73.6431 110.456 73.8738 111.016 74.1173C111.016 74.2486 111.016 74.4402 111.009 74.7188C111.559 74.8902 111.983 75.1169 112.45 75.2979C112.662 75.5836 112.883 75.8811 113.134 76.2247C114.041 76.3054 114.756 77.2567 115.578 77.6422C116.357 78.1446 117.134 78.6688 117.985 79.2319C118.116 78.98 118.231 78.7707 118.324 78.5813C118.104 78.3223 117.974 78.1802 117.804 77.9909C118.052 77.5682 118.288 77.1663 118.536 76.7436C118.317 76.3533 118.108 75.9639 117.894 75.5795C117.669 75.1941 117.407 74.8495 117.154 74.4674C116.525 73.9993 115.95 73.4755 115.298 73.0877C115.278 72.9328 115.26 72.8273 115.218 72.5392C114.647 72.2949 114.192 72.1039 113.859 71.9614L113.842 71.9764ZM104.706 71.3341L104.835 71.3667L104.835 71.5582L104.713 71.5207L104.712 71.3291L104.706 71.3341Z" fill="#FFA972"/>
</g>
<g id="lines">
<path id="Vector_5" d="M62.9149 77.7937C62.7372 77.7628 62.5904 77.7241 62.4513 77.7241C62.2968 77.7241 62.1268 77.8246 61.9954 77.7705C61.4623 77.5541 60.9369 77.6005 60.4038 77.7164C60.1256 77.7782 59.8552 77.8555 59.5771 77.6932C59.3144 77.5387 59.0285 77.5928 58.7503 77.6391C58.6344 77.6623 58.5108 77.5696 58.4412 77.5464C58.1863 77.6855 57.9777 77.8014 57.7768 77.9096C57.7768 78.01 57.769 78.095 57.7613 78.1877C57.6377 78.2109 57.5372 78.2264 57.2823 78.2727C57.2668 78.2186 57.205 78.0409 57.1509 77.8787C56.9346 78.0332 56.7878 78.1336 56.6333 78.2495C56.5869 78.1259 56.556 78.0255 56.5174 77.9405C56.2701 77.8246 56.0383 77.7164 55.8065 77.616C55.6984 77.871 55.567 77.7319 55.4434 77.701C55.2811 77.6623 55.1189 77.6392 54.9643 77.6082C54.8948 77.6932 54.833 77.7782 54.7866 77.84C54.663 77.7705 54.5625 77.7164 54.4776 77.67C54.4003 77.7627 54.3308 77.84 54.2458 77.9405C53.6045 77.5696 52.8782 78.0023 52.2292 77.5696C52.0515 77.9482 51.7656 77.7319 51.5415 77.7087C51.526 77.871 51.5106 77.9559 51.5029 78.0177C51.1552 78.0795 50.8307 78.1414 50.4366 78.2109C50.2203 77.9791 49.9807 77.7164 49.6949 77.4228C49.6021 77.4846 49.4785 77.5773 49.3395 77.6778C48.9609 77.4073 48.5823 77.7164 48.2423 77.701C48.1419 77.8014 48.08 77.8864 48.0028 77.925C47.9255 77.9636 47.8405 77.9636 47.7787 77.9714C47.7401 77.8168 47.7169 77.7318 47.686 77.6237C47.4851 77.6623 47.2919 77.6932 47.0447 77.7396C46.9751 77.6237 46.8979 77.4769 46.8361 77.3765C46.4652 77.5155 46.1098 77.3996 45.8548 77.7628C45.5148 77.6469 45.1749 77.6701 44.8272 77.7628C44.6495 77.8091 44.4718 77.8323 44.2477 77.8709C44.1782 77.7705 44.0854 77.6469 44.0468 77.5928C43.3591 77.5232 42.7642 77.9868 42.2543 77.7396C41.9221 77.8555 41.6825 77.9482 41.5512 77.9946C40.8249 77.5155 40.2222 77.4923 39.6041 77.9636C39.5191 77.9096 39.4264 77.8555 39.3414 77.8014C39.2564 77.9096 39.1946 77.9868 39.156 78.0409C38.7542 77.9637 38.3833 77.8941 38.0201 77.8168C37.9892 77.7087 37.9583 77.6083 37.912 77.4692C37.7034 77.6083 37.5334 77.7164 37.3557 77.8323C37.1471 77.7319 36.9307 77.6237 36.753 77.5387C36.498 77.7859 36.2817 78.0023 36.0422 78.2341C35.9572 78.0796 35.8645 77.925 35.7795 77.7937C35.3777 77.4383 34.945 77.7473 34.5201 77.616C34.1106 77.4924 33.6702 77.8941 33.3147 77.6855C33.0443 77.7782 32.8202 77.9559 32.6502 77.8864C32.1403 77.701 31.6304 77.7087 31.1204 77.8323C30.9891 77.8632 30.8654 77.8787 30.7418 77.9019C30.6877 77.7628 30.6491 77.6546 30.5873 77.4923C30.3478 77.8478 30.0619 77.8632 29.7683 77.8709C29.7296 77.7473 29.7064 77.6701 29.6601 77.5078C29.5365 77.5928 29.4128 77.6701 29.2815 77.7473C29.2274 77.7782 29.1656 77.8014 29.1424 77.8091C29.0111 77.616 28.9029 77.4537 28.8488 77.3765C28.5398 77.4846 28.3002 77.5078 28.1071 77.6469C27.8984 77.7937 27.713 77.9868 27.4658 77.8864C27.4272 77.7705 27.3962 77.6701 27.3653 77.5696C27.1181 77.616 26.894 77.6546 26.6777 77.6932C26.585 77.5928 26.4923 77.5001 26.4073 77.4074C26.3455 77.4692 26.2837 77.5851 26.2218 77.5928C25.7892 77.6237 25.3642 77.6391 24.9315 77.6391C24.8619 77.6391 24.7924 77.5233 24.7306 77.4692C24.5452 77.6314 24.4216 77.8632 24.1898 77.7087C24.0816 77.6392 23.9348 77.6391 23.8189 77.67C23.0849 77.8246 22.3277 77.616 21.5936 77.8787C21.5241 77.9018 21.4314 77.84 21.3464 77.8246C21.0991 77.7782 20.8519 77.6855 20.6047 77.7087C20.427 77.7242 20.257 77.8787 20.0329 77.9946C19.9557 77.8864 19.8629 77.755 19.7625 77.6005C19.5925 77.7241 19.4457 77.8246 19.3144 77.9173C19.1985 77.8709 19.1057 77.8169 19.0053 77.8014C18.5108 77.7241 18.0008 77.7782 17.5063 77.5773C17.3595 77.5155 17.1587 77.6778 17.035 77.7241C16.5792 77.7164 16.1619 77.7087 15.6983 77.6932C15.4279 77.9559 15.0802 77.9018 14.6166 77.5001C14.4698 77.5232 14.3462 77.5464 14.2149 77.5696C14.1839 77.7164 14.1608 77.8401 14.1144 78.1028C13.9212 77.8323 13.7976 77.6623 13.6508 77.4537C12.8705 77.7782 12.0128 77.4691 11.1938 77.7241C10.9543 77.8014 10.7071 77.8555 10.4289 77.7241C10.228 77.6314 9.94986 77.8555 9.65626 77.956C9.25448 77.5696 9.06131 78.3268 8.72907 78.4273C8.77543 78.8445 8.49728 78.9449 8.29639 79.1844C8.51273 79.4162 8.67496 79.5862 8.85267 79.7717C8.7445 79.8644 8.6595 79.9262 8.55133 80.0189C8.70586 80.413 9.04583 80.4052 9.1849 80.7529C9.3008 81.0311 9.64077 80.7683 9.81848 81.1006C9.93438 81.3092 10.1971 80.9538 10.3671 81.2088C10.7843 81.1315 11.1938 81.0543 11.5261 80.9925C12.3142 81.4406 12.5382 81.4637 12.9632 81.1547C13.2027 81.4019 13.4654 81.4561 13.7513 81.3865C14.2226 81.2783 14.7093 81.5256 15.1729 81.3092C15.5361 81.5178 15.8992 81.3247 16.2624 81.3092C16.4246 81.3015 16.5946 81.3556 16.7646 81.3865C16.8187 81.317 16.8728 81.232 16.9114 81.1779C17.3827 81.3633 17.8154 81.541 18.2404 81.711C18.5108 81.2706 18.8816 81.4637 19.1752 81.3092C19.2911 81.4251 19.3993 81.5333 19.5616 81.6955C19.8938 81.5024 20.2647 81.2938 20.6742 81.062C20.7592 81.1933 20.8674 81.3633 20.991 81.5565C21.2923 81.3092 21.64 81.8346 21.9645 81.4869C21.9645 81.3169 21.9645 81.1547 21.9645 81.0079C22.2041 81.1701 22.4127 81.3092 22.6676 81.4869C22.884 80.9306 23.2549 81.116 23.5098 81.3015C23.8034 81.5256 23.9425 81.3015 24.0893 81.1933C24.7847 81.317 25.4337 81.7805 26.0982 81.2165C26.5309 81.5024 27.0022 81.4174 27.6049 81.2629C27.628 81.3324 27.6976 81.5101 27.7671 81.711C27.9217 81.5642 28.0144 81.4329 28.1303 81.3788C28.3466 81.2783 28.5475 80.8766 28.8179 81.2397C29.2892 81.0697 29.7219 81.5565 30.1855 81.3633C30.2396 81.5024 30.2782 81.6028 30.3246 81.7264C30.5487 81.6105 30.8191 81.3402 30.9659 81.4329C31.2054 81.5797 31.3986 81.4869 31.6072 81.4638C31.9394 81.4251 32.2716 81.3479 32.6966 81.2706C32.7429 81.3479 32.8202 81.5024 32.8975 81.626C33.1756 81.4251 33.4152 81.2552 33.647 81.0852C33.9251 81.402 34.211 81.062 34.4814 81.1393C34.7596 81.2243 35.0223 81.4251 35.2927 81.5797C35.5477 81.4097 35.7486 81.1547 36.0654 81.371C36.2044 81.4638 36.5135 81.456 36.6371 81.1393C36.8457 81.2861 37.0544 81.4251 37.2784 81.5874C37.827 81.2088 38.4683 81.8655 39.0014 81.2706C39.0478 81.456 39.0864 81.6183 39.1482 81.881C39.2487 81.6492 39.3105 81.4869 39.3723 81.3478C40.0754 81.286 40.7399 82.0587 41.4352 81.317C41.528 81.4483 41.6207 81.5797 41.6825 81.6647C42.0147 81.6801 42.2697 81.5565 42.5711 81.6647C42.7951 81.7496 43.0887 81.4638 43.3592 81.3788C43.4519 81.3479 43.5678 81.402 43.6682 81.4329C43.9618 81.5256 44.2168 81.4328 44.4486 81.1701C44.7422 81.3092 45.0358 81.456 45.3449 81.6028C45.5767 81.4174 45.793 81.147 46.0943 81.4174C46.1793 81.4947 46.357 81.3865 46.4884 81.3633C46.7511 81.317 47.0061 81.2706 47.2688 81.2165C47.3692 81.3556 47.4465 81.4637 47.5083 81.541C47.7633 81.4946 47.9873 81.456 48.2964 81.3942C48.3195 81.3092 48.3659 81.147 48.4045 80.9847C48.4355 81.0002 48.4741 81.0156 48.505 81.0311C48.5282 81.2551 48.5513 81.4869 48.5822 81.796C48.9299 81.0774 49.409 81.8578 49.7412 81.4329C49.7412 81.3479 49.749 81.2552 49.7567 81.1856C50.0117 80.9615 50.2048 81.2551 50.4443 81.3015C50.4598 81.4406 50.4753 81.5874 50.4907 81.7574C50.8229 81.5642 51.1243 81.3865 51.4333 81.201C51.4874 81.3169 51.5415 81.4328 51.5956 81.5565C52.0514 81.4715 52.4918 81.3942 52.9323 81.3092C53.3727 81.9042 53.9676 81.5024 54.4389 81.8037C54.5625 81.4638 54.8407 81.4174 54.9643 81.5178C55.2657 81.7651 55.5284 81.541 55.7988 81.5178C56.1001 81.4869 56.3783 81.6801 56.695 81.5719C56.9732 81.4715 57.2668 81.371 57.5913 81.541C57.7768 81.6337 58.0549 81.4638 58.2713 81.3324C58.4258 81.2397 58.5262 81.2088 58.6885 81.2861C58.8971 81.3865 59.1366 81.402 59.3607 81.4329C59.5925 81.4638 59.8243 81.4715 60.0561 81.4946C60.0947 81.4946 60.1334 81.5333 60.1643 81.5487C60.1875 81.6337 60.2106 81.7187 60.2338 81.8192C60.3265 81.8115 60.4115 81.8037 60.5351 81.7883C60.651 81.5719 60.7824 81.3401 60.9369 81.0697C61.0915 81.2165 61.2151 81.3324 61.3773 81.4792C61.7482 81.3633 62.1422 81.2397 62.5595 81.1083C62.5826 81.2242 62.6213 81.3942 62.6677 81.6337C62.8608 81.5101 63.0308 81.4019 63.2008 81.2938C63.3167 81.4096 63.4403 81.5256 63.5871 81.6569C63.8575 81.1624 64.2516 81.3787 64.5529 81.1469C64.862 80.9306 65.1788 80.7143 65.511 80.4825C65.4724 80.2121 65.4492 79.988 65.4183 79.7871C65.3101 79.7794 65.2406 79.7716 65.1633 79.7639C65.1169 79.2926 65.0783 78.8445 65.032 78.3732C64.7615 78.1491 64.5065 77.9328 64.2361 77.7087C63.9966 77.7551 63.7571 77.7937 63.533 77.84C63.5021 77.7319 63.4789 77.6469 63.4171 77.4382C63.2317 77.5696 63.0849 77.6778 62.9767 77.7551L62.9149 77.7937ZM60.1411 81.1315C60.1411 81.1315 60.172 81.1315 60.1874 81.1238C60.1874 81.1856 60.2029 81.2474 60.2029 81.3092C60.1874 81.3092 60.172 81.3092 60.1565 81.317C60.1565 81.2551 60.1411 81.1933 60.1411 81.1315Z" fill="#FFE4D5"/>
<path id="Vector_6" d="M17.9774 91.5394C18.1706 91.5703 18.3251 91.609 18.4797 91.609C18.6419 91.609 18.8274 91.5086 18.9742 91.5626C19.5459 91.779 20.1177 91.7326 20.6972 91.6167C20.9908 91.5549 21.2921 91.4776 21.5934 91.6399C21.8793 91.7944 22.1807 91.7403 22.4897 91.694C22.6133 91.6708 22.7524 91.7635 22.8297 91.7867C23.1001 91.6476 23.3319 91.5317 23.5482 91.4236C23.5482 91.3231 23.556 91.2381 23.5637 91.1454C23.6951 91.1222 23.8109 91.1068 24.0814 91.0604C24.0968 91.1145 24.1664 91.2922 24.2204 91.4545C24.4522 91.2999 24.6145 91.1995 24.7845 91.0836C24.8308 91.2072 24.8695 91.3076 24.9081 91.3926C25.1708 91.5085 25.4258 91.6167 25.673 91.7172C25.7889 91.4622 25.928 91.6012 26.0671 91.6322C26.2448 91.6708 26.4225 91.694 26.5847 91.7249C26.662 91.6399 26.7238 91.5549 26.7779 91.4931C26.917 91.5626 27.0174 91.6167 27.1101 91.6631C27.1951 91.5704 27.2647 91.4931 27.3574 91.3926C28.045 91.7635 28.8332 91.3309 29.544 91.7635C29.7372 91.3849 30.0462 91.6013 30.2857 91.6245C30.3089 91.4622 30.3167 91.3772 30.3244 91.3154C30.6952 91.2536 31.0507 91.1918 31.4756 91.1222C31.7074 91.354 31.9701 91.6167 32.2792 91.9103C32.3796 91.8485 32.5109 91.7558 32.6577 91.6554C33.0672 91.9258 33.4768 91.6167 33.8477 91.6322C33.9558 91.5317 34.0253 91.4467 34.1103 91.4081C34.1876 91.3695 34.2803 91.3695 34.3576 91.3617C34.4039 91.5163 34.4271 91.6013 34.458 91.7094C34.6744 91.6708 34.883 91.6399 35.1534 91.5935C35.223 91.7094 35.3157 91.8563 35.3852 91.9567C35.787 91.8176 36.1733 91.9335 36.4515 91.5704C36.8223 91.6863 37.1932 91.6631 37.5641 91.5704C37.7572 91.524 37.9504 91.5008 38.1899 91.4622C38.2672 91.5626 38.3676 91.6863 38.4062 91.7403C39.148 91.8099 39.7893 91.3463 40.3456 91.5935C40.701 91.4776 40.9637 91.3849 41.1028 91.3385C41.8909 91.8176 42.5399 91.8408 43.2044 91.3695C43.2971 91.4236 43.3976 91.4776 43.4903 91.5317C43.583 91.4235 43.6526 91.3463 43.6912 91.2922C44.1239 91.3695 44.5256 91.439 44.9197 91.5163C44.9583 91.6245 44.9892 91.7249 45.0356 91.864C45.2597 91.7249 45.4451 91.6167 45.6382 91.5008C45.8623 91.6013 46.0941 91.7094 46.2873 91.7944C46.5577 91.5472 46.7972 91.3308 47.0522 91.099C47.1449 91.2536 47.2453 91.4081 47.3303 91.5394C47.763 91.8949 48.2266 91.5858 48.6902 91.7172C49.1306 91.8408 49.6096 91.439 49.996 91.6476C50.2896 91.5549 50.5291 91.3772 50.7145 91.4467C51.2708 91.6322 51.8117 91.6244 52.368 91.5008C52.5071 91.4699 52.6462 91.4545 52.7698 91.4313C52.8239 91.5704 52.8702 91.6785 52.932 91.8408C53.187 91.4854 53.5038 91.4699 53.8129 91.4622C53.8515 91.5858 53.8747 91.6631 53.9288 91.8253C54.0679 91.7403 54.1992 91.6631 54.3383 91.5858C54.4001 91.5549 54.4619 91.5317 54.4928 91.524C54.6319 91.7172 54.7555 91.8794 54.8096 91.9567C55.1418 91.8485 55.3968 91.8253 55.6131 91.6862C55.8449 91.5394 56.0458 91.3463 56.3085 91.4467C56.3471 91.5626 56.3858 91.6631 56.4167 91.7635C56.6871 91.7172 56.9266 91.6785 57.1584 91.6399C57.2589 91.7403 57.3593 91.833 57.452 91.9258C57.5216 91.864 57.5834 91.7481 57.6529 91.7403C58.1165 91.7094 58.5801 91.694 59.0514 91.694C59.1287 91.694 59.2059 91.8099 59.2678 91.864C59.4686 91.7017 59.6 91.4699 59.855 91.6245C59.9709 91.694 60.1254 91.694 60.2568 91.6631C61.0526 91.5086 61.8716 91.7172 62.6597 91.4545C62.737 91.4313 62.8374 91.4931 62.9224 91.5086C63.1928 91.5549 63.4632 91.6476 63.7259 91.6245C63.9191 91.609 64.1045 91.4544 64.3363 91.3385C64.4213 91.4467 64.5218 91.5781 64.6299 91.7326C64.8154 91.609 64.9776 91.5086 65.1167 91.4158C65.2403 91.4622 65.3408 91.5163 65.4567 91.5317C65.9975 91.609 66.5384 91.5549 67.0715 91.7558C67.2338 91.8176 67.4424 91.6554 67.5815 91.609C68.076 91.6167 68.5241 91.6244 69.0263 91.6399C69.3122 91.3772 69.6908 91.4313 70.2007 91.8331C70.3553 91.8099 70.4944 91.7867 70.6334 91.7635C70.6643 91.6167 70.6875 91.4931 70.7416 91.2304C70.9502 91.5008 71.0815 91.6708 71.2438 91.8794C72.0937 91.5549 73.0132 91.864 73.9017 91.609C74.1644 91.5317 74.4271 91.4777 74.7285 91.609C74.9448 91.7017 75.2461 91.4777 75.5707 91.3772C76.0111 91.7635 76.2119 91.0063 76.5751 90.9059C76.521 90.4886 76.8223 90.3882 77.0464 90.1487C76.8146 89.9169 76.6369 89.7469 76.4514 89.5615C76.5673 89.4687 76.6601 89.4069 76.7837 89.3142C76.6137 88.9202 76.2506 88.9279 76.0961 88.5802C75.9724 88.3021 75.6093 88.5648 75.4084 88.2325C75.2848 88.0239 74.9989 88.3793 74.8134 88.1243C74.3653 88.2016 73.9172 88.2789 73.554 88.3407C72.7041 87.8926 72.4646 87.8694 72.001 88.1784C71.7461 87.9312 71.4601 87.8771 71.1434 87.9467C70.6334 88.0548 70.108 87.8076 69.6058 88.0239C69.2117 87.8153 68.8177 88.0084 68.4237 88.0239C68.246 88.0316 68.0682 87.9776 67.8828 87.9467C67.8287 88.0162 67.7669 88.1012 67.7205 88.1552C67.2106 87.9698 66.7393 87.7921 66.2834 87.6221C65.9898 88.0625 65.588 87.8694 65.2712 88.0239C65.1476 87.908 65.0317 87.7998 64.854 87.6376C64.4909 87.8307 64.0968 88.0394 63.6487 88.2712C63.5637 88.1398 63.4401 87.9698 63.3087 87.7766C62.9842 88.0239 62.6056 87.4985 62.2579 87.8462C62.2579 88.0162 62.2579 88.1784 62.2579 88.3252C61.9952 88.163 61.7711 88.0239 61.5007 87.8462C61.2689 88.4025 60.8672 88.2171 60.5967 88.0316C60.2799 87.8076 60.1254 88.0316 59.9709 88.1398C59.2137 88.0162 58.5183 87.5526 57.7998 88.1166C57.3284 87.8307 56.8262 87.9157 56.1694 88.0703C56.1385 88.0007 56.069 87.823 55.9917 87.6221C55.8218 87.7689 55.7213 87.9003 55.6054 87.9544C55.3659 88.0548 55.1573 88.4566 54.8636 88.0935C54.3537 88.2634 53.8824 87.7766 53.3879 87.9698C53.3338 87.8307 53.2952 87.7303 53.2411 87.6067C53.0016 87.7226 52.708 87.993 52.5457 87.9003C52.2907 87.7535 52.0821 87.8462 51.8581 87.8694C51.4949 87.908 51.1395 87.9853 50.6836 88.0625C50.6373 87.9853 50.5445 87.8308 50.4673 87.7071C50.1659 87.908 49.911 88.078 49.656 88.248C49.3547 87.9312 49.0456 88.2712 48.7598 88.1939C48.4584 88.1089 48.1725 87.908 47.8789 87.7535C47.6085 87.9235 47.3844 88.1784 47.0445 87.9621C46.8976 87.8694 46.5577 87.8771 46.4263 88.1939C46.2023 88.0471 45.9782 87.908 45.731 87.7458C45.136 88.1244 44.4484 87.4676 43.8689 88.0625C43.8225 87.8771 43.7761 87.7148 43.7143 87.4521C43.6062 87.6839 43.5366 87.8462 43.4748 87.9853C42.7176 88.0471 41.9913 87.2744 41.2419 88.0162C41.1414 87.8848 41.041 87.7535 40.9792 87.6685C40.6238 87.653 40.3456 87.7766 40.0211 87.6685C39.7816 87.5835 39.4648 87.8694 39.1712 87.9544C39.0707 87.9853 38.9471 87.9312 38.8389 87.9003C38.5221 87.8076 38.244 87.9003 37.9968 88.163C37.68 88.0239 37.3632 87.8771 37.031 87.7303C36.7837 87.9157 36.5519 88.1861 36.2196 87.9157C36.1269 87.8385 35.9415 87.9466 35.7947 87.9698C35.5165 88.0162 35.2307 88.0625 34.9525 88.1166C34.8444 87.9775 34.7594 87.8694 34.6975 87.7921C34.4194 87.8385 34.1799 87.8771 33.8477 87.9389C33.8245 88.0239 33.7781 88.1861 33.7317 88.3484C33.6931 88.3329 33.6622 88.3175 33.6236 88.302C33.6004 88.078 33.5772 87.8462 33.5463 87.5371C33.1754 88.2557 32.65 87.4753 32.2946 87.9003C32.2946 87.9853 32.2869 88.078 32.2792 88.1476C32.0087 88.3716 31.8001 88.078 31.5374 88.0316C31.5219 87.8926 31.5065 87.7457 31.491 87.5758C31.1356 87.7689 30.8034 87.9466 30.4712 88.1321C30.4094 88.0162 30.3553 87.9003 30.2934 87.7766C29.8067 87.8616 29.3276 87.9389 28.8486 88.0239C28.3695 87.429 27.736 87.8307 27.2183 87.5294C27.087 87.8694 26.7779 87.9157 26.6543 87.8153C26.3298 87.568 26.0439 87.7921 25.7503 87.8153C25.4258 87.8462 25.1244 87.6531 24.7767 87.7612C24.4754 87.8617 24.1586 87.9621 23.8032 87.7921C23.6023 87.6994 23.301 87.8694 23.0692 88.0007C22.9069 88.0935 22.7988 88.1244 22.621 88.0471C22.3893 87.9467 22.1343 87.9312 21.887 87.9003C21.6398 87.8694 21.3848 87.8617 21.1376 87.8385C21.0912 87.8385 21.0526 87.7998 21.0139 87.7844C20.9907 87.6994 20.9676 87.6144 20.9367 87.514C20.8362 87.5217 20.7435 87.5294 20.6122 87.5449C20.4808 87.7612 20.3418 87.993 20.1795 88.2634C20.0095 88.1166 19.8781 88.0007 19.7081 87.8539C19.3141 87.9698 18.8814 88.0934 18.4333 88.2248C18.4101 88.1089 18.3715 87.9389 18.3174 87.6994C18.1088 87.823 17.9233 87.9312 17.7456 88.0394C17.6143 87.9235 17.483 87.8075 17.3284 87.6762C17.0348 88.1707 16.6098 87.9544 16.2853 88.1862C15.9454 88.4025 15.6131 88.6188 15.25 88.8506C15.2886 89.1211 15.3195 89.3452 15.3504 89.546C15.4741 89.5538 15.5359 89.5615 15.6286 89.5692C15.6749 90.0405 15.7213 90.4886 15.7754 90.96C16.0613 91.184 16.3471 91.4004 16.633 91.6245C16.888 91.5781 17.1507 91.5394 17.3979 91.4931C17.4366 91.6013 17.4598 91.6863 17.5293 91.8949C17.7302 91.7635 17.8847 91.6553 18.0006 91.5781L17.9774 91.5394ZM20.9753 88.2016C20.9753 88.2016 20.9444 88.2016 20.9289 88.2093C20.9289 88.1475 20.9135 88.0857 20.9135 88.0239C20.9289 88.0239 20.9444 88.0239 20.9598 88.0162C20.9598 88.078 20.9753 88.1398 20.9753 88.2016Z" fill="#FFE4D5"/>
<path id="Vector_7" d="M25.6963 101.584C25.9204 101.615 26.0904 101.653 26.2681 101.653C26.4535 101.653 26.6621 101.553 26.8321 101.607C27.4889 101.823 28.1379 101.777 28.7946 101.661C29.1346 101.599 29.4668 101.522 29.8145 101.684C30.139 101.839 30.4867 101.785 30.8267 101.738C30.9658 101.715 31.1203 101.808 31.213 101.831C31.5221 101.692 31.7848 101.576 32.032 101.468C32.032 101.368 32.0398 101.283 32.0475 101.19C32.1943 101.167 32.3257 101.151 32.6347 101.105C32.6579 101.159 32.7274 101.337 32.7969 101.499C33.0596 101.344 33.2451 101.244 33.4383 101.128C33.4923 101.252 33.5387 101.352 33.5773 101.437C33.8787 101.553 34.1645 101.661 34.4504 101.762C34.5818 101.507 34.744 101.646 34.8986 101.677C35.0995 101.715 35.3004 101.738 35.4858 101.769C35.5708 101.684 35.648 101.599 35.7098 101.538C35.8644 101.607 35.9803 101.661 36.0884 101.708C36.1889 101.615 36.2661 101.538 36.3743 101.437C37.1624 101.808 38.0587 101.375 38.8623 101.808C39.0786 101.429 39.434 101.646 39.7044 101.669C39.7276 101.507 39.7353 101.422 39.7508 101.36C40.1757 101.298 40.5775 101.236 41.0643 101.167C41.327 101.398 41.6283 101.661 41.976 101.955C42.0842 101.893 42.2464 101.8 42.4087 101.7C42.8723 101.97 43.3436 101.661 43.7608 101.677C43.8845 101.576 43.9617 101.491 44.0544 101.453C44.1472 101.414 44.2553 101.414 44.3326 101.406C44.3789 101.561 44.4099 101.646 44.4408 101.754C44.6803 101.715 44.9198 101.684 45.2366 101.638C45.3216 101.754 45.422 101.901 45.4993 102.001C45.9551 101.862 46.3956 101.978 46.7124 101.615C47.1296 101.731 47.5545 101.708 47.9718 101.615C48.1881 101.568 48.4044 101.545 48.6826 101.507C48.7676 101.607 48.8835 101.731 48.9298 101.785C49.7798 101.854 50.5061 101.391 51.1397 101.638C51.5492 101.522 51.8428 101.429 52.005 101.383C52.9013 101.862 53.643 101.885 54.4002 101.414C54.5084 101.468 54.6243 101.522 54.7247 101.576C54.8329 101.468 54.9101 101.391 54.9565 101.337C55.451 101.414 55.9069 101.483 56.355 101.561C56.3937 101.669 56.4323 101.769 56.4864 101.908C56.7413 101.769 56.95 101.661 57.174 101.545C57.429 101.646 57.6917 101.754 57.9158 101.839C58.2248 101.592 58.4952 101.375 58.7888 101.143C58.897 101.298 59.0129 101.453 59.1057 101.584C59.6002 101.939 60.1256 101.63 60.651 101.762C61.1532 101.885 61.694 101.483 62.1344 101.692C62.4667 101.599 62.7371 101.422 62.9534 101.491C63.587 101.677 64.2051 101.669 64.831 101.545C64.9855 101.514 65.1477 101.499 65.2945 101.476C65.3563 101.615 65.4027 101.723 65.48 101.885C65.7736 101.53 66.129 101.514 66.4844 101.507C66.5308 101.63 66.5617 101.707 66.6158 101.87C66.7703 101.785 66.9248 101.707 67.0793 101.63C67.1489 101.599 67.2184 101.576 67.2494 101.568C67.4116 101.762 67.5507 101.924 67.6125 102.001C67.9911 101.893 68.2847 101.87 68.5319 101.731C68.7946 101.584 69.0187 101.391 69.32 101.491C69.3664 101.607 69.405 101.708 69.4436 101.808C69.7527 101.762 70.0232 101.723 70.2859 101.684C70.4018 101.785 70.5099 101.877 70.6181 101.97C70.6954 101.908 70.7649 101.792 70.8499 101.785C71.3753 101.754 71.9084 101.738 72.4415 101.738C72.5265 101.738 72.6115 101.854 72.6888 101.908C72.9206 101.746 73.0674 101.514 73.3533 101.669C73.4846 101.738 73.6623 101.738 73.8091 101.708C74.7131 101.553 75.6403 101.762 76.5443 101.499C76.637 101.476 76.7452 101.538 76.8456 101.553C77.147 101.599 77.456 101.692 77.7574 101.669C77.9737 101.653 78.1901 101.499 78.4528 101.383C78.5455 101.491 78.6614 101.623 78.7927 101.777C79.0013 101.653 79.1868 101.553 79.349 101.46C79.4881 101.507 79.604 101.561 79.7353 101.576C80.3457 101.653 80.9716 101.599 81.5742 101.8C81.7597 101.862 81.9992 101.7 82.1537 101.653C82.7178 101.661 83.2277 101.669 83.7995 101.684C84.1317 101.422 84.5567 101.476 85.1362 101.877C85.3139 101.854 85.4761 101.831 85.6229 101.808C85.6538 101.661 85.6847 101.538 85.7466 101.275C85.9784 101.545 86.1329 101.715 86.3183 101.924C87.2841 101.599 88.3272 101.908 89.3393 101.653C89.6407 101.576 89.942 101.522 90.282 101.653C90.5293 101.746 90.8769 101.522 91.2323 101.422C91.7268 101.808 91.9587 101.051 92.3759 100.95C92.3141 100.533 92.6618 100.433 92.909 100.193C92.6463 99.9613 92.4454 99.7913 92.2291 99.6059C92.3682 99.5132 92.4686 99.4514 92.5999 99.3586C92.4068 98.9646 91.9973 98.9724 91.8196 98.6247C91.6805 98.3465 91.2633 98.6092 91.0392 98.277C90.9001 98.0683 90.5679 98.4238 90.367 98.1688C89.857 98.246 89.3471 98.3233 88.9376 98.3851C87.9718 97.937 87.6936 97.9138 87.1759 98.2229C86.8823 97.9756 86.5655 97.9215 86.2024 97.9911C85.6229 98.0993 85.028 97.852 84.4485 98.0683C84.0004 97.8597 83.5522 98.0529 83.1041 98.0683C82.9032 98.0761 82.6946 98.022 82.486 97.9911C82.4241 98.0606 82.3469 98.1456 82.3005 98.1997C81.721 98.0142 81.1879 97.8365 80.6625 97.6665C80.3303 98.107 79.8744 97.9138 79.5113 98.0683C79.3722 97.9524 79.2409 97.8443 79.0322 97.682C78.6227 97.8752 78.1669 98.0838 77.6569 98.3156C77.5565 98.1842 77.4251 98.0142 77.2706 97.8211C76.8997 98.0683 76.4748 97.5429 76.073 97.8906C76.073 98.0606 76.073 98.2229 76.073 98.3697C75.7794 98.2074 75.5244 98.0683 75.2076 97.8906C74.9449 98.4469 74.489 98.2615 74.18 98.0761C73.8168 97.852 73.6469 98.0761 73.4614 98.1843C72.6038 98.0606 71.808 97.597 70.9967 98.161C70.4636 97.8752 69.8841 97.9602 69.1424 98.1147C69.1114 98.0452 69.0342 97.8674 68.9415 97.6665C68.7483 97.8133 68.6324 97.9447 68.501 97.9988C68.2306 98.0993 67.9911 98.501 67.6588 98.1379C67.0793 98.3079 66.5462 97.8211 65.9822 98.0142C65.9204 97.8752 65.8741 97.7747 65.8122 97.6511C65.5341 97.767 65.2096 98.0374 65.0164 97.9447C64.7228 97.7979 64.4832 97.8906 64.2283 97.9138C63.8188 97.9524 63.4093 98.0297 62.8916 98.107C62.8375 98.0297 62.7371 97.8752 62.6444 97.7516C62.3044 97.9525 62.0108 98.1224 61.7249 98.2924C61.3849 97.9756 61.0295 98.3156 60.705 98.2383C60.3573 98.1534 60.0405 97.9525 59.7083 97.7979C59.3992 97.9679 59.152 98.2229 58.758 98.0065C58.588 97.9138 58.2016 97.9216 58.0548 98.2383C57.7998 98.0915 57.5449 97.9524 57.2668 97.7902C56.5945 98.1688 55.8064 97.512 55.1497 98.107C55.0956 97.9215 55.0492 97.7593 54.972 97.4966C54.8483 97.7284 54.7711 97.8906 54.7016 98.0297C53.8362 98.0915 53.0172 97.3189 52.1595 98.0606C52.0436 97.9293 51.9278 97.7979 51.8582 97.7129C51.4564 97.6974 51.1396 97.8211 50.7688 97.7129C50.4906 97.6279 50.1352 97.9138 49.8029 97.9988C49.687 98.0297 49.548 97.9756 49.4244 97.9447C49.0612 97.852 48.7522 97.9447 48.4663 98.2074C48.1109 98.0683 47.7477 97.9215 47.3691 97.7747C47.0833 97.9602 46.8205 98.2306 46.4497 97.9602C46.3415 97.8829 46.1329 97.9911 45.9706 98.0142C45.6539 98.0606 45.3293 98.107 45.0125 98.161C44.8889 98.022 44.7884 97.9138 44.7189 97.8365C44.4021 97.8829 44.1317 97.9215 43.7531 97.9834C43.7222 98.0683 43.6681 98.2306 43.6218 98.3928C43.5831 98.3774 43.5368 98.3619 43.4982 98.3465C43.475 98.1224 43.4441 97.8906 43.4054 97.5816C42.9805 98.3001 42.3855 97.5198 41.9837 97.9447C41.9837 98.0297 41.9683 98.1224 41.9683 98.192C41.6592 98.4161 41.4197 98.1224 41.1184 98.0761C41.1029 97.937 41.0875 97.7902 41.0643 97.6202C40.6548 97.8133 40.2839 97.9911 39.9053 98.1765C39.8358 98.0606 39.774 97.9447 39.7044 97.8211C39.1481 97.9061 38.6073 97.9833 38.0664 98.0683C37.5256 97.4734 36.7993 97.8752 36.2121 97.5738C36.0576 97.9138 35.7176 97.9601 35.5708 97.8597C35.1999 97.6125 34.8754 97.8365 34.5431 97.8597C34.1723 97.8906 33.8246 97.6975 33.4383 97.8057C33.0906 97.9061 32.7352 98.0065 32.3334 97.8365C32.1093 97.7438 31.7616 97.9138 31.4989 98.0452C31.3135 98.1379 31.1899 98.1688 30.9812 98.0915C30.7185 97.9911 30.4326 97.9756 30.1468 97.9447C29.8609 97.9138 29.575 97.9061 29.2969 97.8829C29.2505 97.8829 29.2042 97.8443 29.1578 97.8288C29.1269 97.7438 29.1037 97.6589 29.0728 97.5584C28.9569 97.5661 28.8487 97.5738 28.7019 97.5893C28.5551 97.8056 28.3929 98.0374 28.2151 98.3079C28.022 98.1611 27.8674 98.0452 27.6743 97.8984C27.2261 98.0143 26.7394 98.1379 26.2217 98.2692C26.1908 98.1533 26.1522 97.9834 26.0904 97.7438C25.8508 97.8675 25.6423 97.9756 25.4414 98.0838C25.2946 97.9679 25.1477 97.852 24.97 97.7206C24.6378 98.2151 24.151 97.9988 23.7802 98.2306C23.3938 98.4469 23.0152 98.6633 22.6057 98.8951C22.6521 99.1655 22.683 99.3896 22.7139 99.5905C22.853 99.5982 22.9303 99.6059 23.0307 99.6136C23.0848 100.085 23.1388 100.533 23.1929 101.004C23.5252 101.228 23.842 101.445 24.1742 101.669C24.4678 101.623 24.7614 101.584 25.0396 101.538C25.0782 101.646 25.1091 101.731 25.1864 101.939C25.4104 101.808 25.5882 101.7 25.7272 101.622L25.6963 101.584ZM29.1114 98.246C29.1114 98.246 29.0728 98.246 29.0574 98.2538C29.0574 98.192 29.0419 98.1301 29.0342 98.0683C29.0496 98.0683 29.0728 98.0683 29.0882 98.0606C29.0882 98.1224 29.1037 98.1842 29.1114 98.246Z" fill="#FFE4D5"/>
</g>
</g>
</svg>
