<svg width="135" height="157" viewBox="0 0 135 157" fill="none" xmlns="http://www.w3.org/2000/svg">
<g id="Graphic 06">
<g id="circle-dark">
<path id="Vector" d="M74.1368 158.959H46.7183C46.7183 107.673 88.2879 65.9478 139.383 65.9478V93.4689C103.401 93.4689 74.1368 122.855 74.1368 158.959Z" fill="#FF8241"/>
<path id="Vector_2" d="M78.5676 146.202C78.8535 145.329 79.1004 144.65 79.2694 143.946C79.4643 143.202 79.5032 142.329 79.7761 141.689C80.2179 140.424 80.8417 139.224 81.2835 137.959C81.7773 136.72 82.0632 135.403 82.5699 134.137C83.0767 132.846 83.5705 131.529 84.4152 130.394C85.1688 129.285 85.9225 128.098 86.5463 126.82C86.8192 126.312 87.2739 125.855 87.4949 125.568C87.9107 124.329 88.4175 123.377 88.8723 122.464C88.7553 122.346 88.6514 122.242 88.5345 122.138C88.8723 121.616 89.1712 121.172 89.8729 120.103C89.9898 120.09 90.4057 120.038 90.7955 119.986C91.2114 118.916 91.6402 118.303 92.03 117.573C92.3289 117.546 92.5888 117.52 92.8097 117.494C93.7713 116.712 94.7068 115.955 95.6165 115.212C95.6944 114.533 96.3702 114.26 96.864 113.868C97.5007 113.36 98.1504 112.838 98.7352 112.368C98.8911 112.016 99.0341 111.716 99.151 111.455C99.6968 111.103 100.113 110.855 100.528 110.673C100.749 110.307 100.931 110.021 101.178 109.616C101.919 109.251 102.634 108.808 103.322 108.325C104.024 107.842 104.687 107.281 105.44 106.851C106.909 105.938 108.416 105.025 109.988 104.49C110.495 103.538 111.964 103.238 112.977 102.782C112.951 102.495 112.925 102.351 112.912 102.234C113.679 101.816 114.42 101.36 115.212 100.969C116.031 100.616 116.876 100.238 117.798 99.8338C118.968 99.8468 120.241 99.7425 121.749 99.8729C122.151 99.6512 122.723 99.3512 123.334 99.0121C125.27 98.999 126.985 97.9164 128.714 97.7599C129.194 97.5121 129.48 97.3295 129.857 97.199C130.221 97.0686 130.65 97.0164 130.988 96.9512C131.222 97.186 131.352 97.3034 131.52 97.4599C132.001 97.3556 132.495 97.2512 133.002 97.1338C133.522 97.0686 134.08 97.0034 134.717 96.9382C135.068 97.1208 135.497 97.3425 135.822 97.499L135.991 97.473L136.341 97.4338L137.056 97.3686C137.524 97.3295 137.992 97.2903 138.46 97.2512C139.369 97.186 140.266 97.1077 141.123 97.0425C141.539 97.0034 141.942 96.9643 142.345 96.9251C142.54 96.899 142.722 96.886 142.917 96.8599C142.982 96.7295 142.917 96.4556 142.917 96.273C142.839 95.4382 142.748 94.6556 142.592 93.9382C142.644 93.1296 142.67 92.3078 142.696 91.4731L142.722 89.3731C142.722 88.4601 142.67 87.5601 142.592 86.6471C142.514 85.721 142.475 84.7689 142.41 83.5819C142.579 83.2037 142.787 82.708 142.878 82.5124C142.995 78.8472 142.215 75.7169 142.631 72.9778C142.527 72.1039 142.449 71.3474 142.371 70.7213C142.332 70.3952 142.306 70.1083 142.28 69.8474C142.254 69.417 142.228 69.0518 142.202 68.7518C142.41 67.0562 142.553 65.2692 142.67 63.5214C142.644 63.1432 142.904 62.4389 142.371 62.6215C142.007 62.6215 141.643 62.6084 141.279 62.5954C140.552 62.5954 139.811 62.5954 139.07 62.5954C137.602 62.6215 136.121 62.7128 134.73 62.8432C134.522 62.8563 134.418 62.8823 134.327 62.8954L134.015 62.9606L133.392 63.1041C132.976 63.2084 132.573 63.3258 132.157 63.4562C131.676 63.4041 131.157 63.3519 130.702 63.2997C130.247 63.5214 129.922 63.678 129.727 63.7693C127.557 63.9388 125.517 63.978 123.529 64.2519C123.321 64.1084 123.126 63.978 122.853 63.7823C121.762 64.2128 120.891 64.5519 119.942 64.9432C118.786 65.0345 117.603 65.1258 116.616 65.204C115.355 65.8953 114.303 66.6127 113.172 67.3431C112.639 67.2257 112.081 67.1214 111.6 67.017C110.456 67.017 109.378 67.4214 108.286 67.7996C107.195 68.1909 106.116 68.6474 104.999 68.9996C103.92 69.3257 102.867 69.8474 101.867 70.3822C100.879 70.943 99.9177 71.4648 98.9561 71.7126C97.6436 72.443 96.747 73.3169 95.8374 73.643C95.1747 73.8908 94.525 74.1647 93.8882 74.4517C93.2645 74.7517 92.6537 75.0908 92.043 75.4299C90.8345 76.1212 89.639 76.8386 88.5345 77.7125C87.9627 78.1299 87.3909 78.5472 86.8711 78.9255C86.4943 78.8864 86.2214 78.8472 85.7926 78.7951C85.0519 80.0342 83.7915 80.9994 82.505 81.9124C82.2191 81.8602 82.0372 81.8341 81.6603 81.7689C81.1925 82.3037 80.7507 82.8385 80.2829 83.3732C80.075 83.608 79.8411 83.8297 79.7501 83.9341C78.9835 84.1297 78.3207 84.2993 78.0349 84.3645C76.8783 85.6036 75.9037 86.5036 75.228 87.4036C74.5263 88.3688 74.0325 89.3209 72.941 90.1296C72.6421 90.1296 72.3952 90.1296 72.1613 90.1296C71.1997 91.1209 70.459 92.0861 69.6794 92.9861C69.1986 93.247 68.7437 93.4948 68.2889 93.7426C68.133 94.0556 68.0681 94.4469 67.8341 94.7208L65.5601 97.4469L63.3769 100.251C63.143 100.551 62.7532 100.734 62.4803 100.942C62.0775 101.921 62.0126 102.716 61.0639 103.603C60.6351 104.008 60.1673 104.673 59.8164 105.247C57.8283 108.781 55.3463 112.147 53.9819 115.968C53.839 116.346 53.5271 116.725 53.2932 117.116C52.6435 118.303 51.9548 119.503 51.422 120.742C51.0192 121.629 50.9542 122.633 50.6813 123.807C50.3564 124.133 49.9666 124.525 49.5118 124.968C49.3428 125.907 49.2648 126.742 49.1739 127.485C48.901 128.046 48.6411 128.516 48.4332 129.038C47.9004 130.303 47.5496 131.633 47.1337 132.951C46.9258 133.603 46.7179 134.268 46.497 134.907C46.3021 135.559 46.0942 136.211 45.8603 136.863C45.5744 137.646 45.6004 138.768 45.5094 139.459C45.0546 141.924 44.5739 144.168 44.275 146.711C44.4049 147.468 44.3789 148.315 44.21 149.294C44.08 150.272 43.8072 151.368 43.3654 152.633C43.3654 153.024 43.3523 153.402 43.3393 153.767C43.3393 154.015 43.3393 154.263 43.3393 154.498C43.3393 154.798 43.3393 155.098 43.3393 155.385C43.5732 155.607 43.7811 155.815 44.21 156.128C43.7162 157.837 43.3913 159.167 43.0015 160.837L43.0535 162.167V162.506C43.1185 162.572 43.3133 162.506 43.4173 162.519L44.21 162.493C45.2365 162.467 46.2761 162.441 47.3157 162.415C48.901 162.415 50.5124 162.402 52.1237 162.389C54.3198 162.389 56.5288 162.428 58.7119 162.206C59.9984 162.076 61.2979 161.985 62.7792 162.206C63.8448 162.363 65.3261 161.985 66.8855 161.815C69.0296 162.467 70.0302 161.189 71.8105 161.02C71.5636 160.315 73.0319 160.146 74.1105 159.741C72.9669 159.35 72.0963 159.063 71.1867 158.75C71.7714 158.593 72.2003 158.489 72.798 158.333C71.9664 157.667 70.1991 157.68 69.4325 157.093C68.8347 156.624 67.0284 157.067 66.0668 156.507C65.4561 156.154 64.0527 156.754 63.1691 156.324C60.973 156.454 58.7769 156.585 57.0096 156.689C54.9305 156.311 53.592 156.115 52.4875 156.076C51.9417 156.063 51.4479 156.076 50.9541 156.141L50.5903 156.194L50.4863 156.259C50.3954 156.311 50.3044 156.363 50.2134 156.428C49.9925 155.946 49.7456 156.167 49.7456 155.528C49.7067 155.346 49.7067 155.111 49.7197 154.889L49.7456 154.55L49.8106 153.924C49.9406 152.698 50.0446 151.485 49.9536 150.259C50.5124 148.433 50.4084 146.542 50.6553 144.676C50.7852 143.842 51.0321 143.02 51.2401 142.159C51.1751 141.872 51.0841 141.546 51.0321 141.337C51.8638 139.042 52.5915 136.903 53.5011 134.907C53.3322 134.137 53.4621 133.316 53.644 132.494C53.8519 131.672 54.1639 130.877 54.2678 130.107C54.6447 129.611 54.9955 129.155 55.5152 128.438C55.8531 126.742 56.152 124.825 56.6718 122.725C57.0486 122.425 57.5294 122.046 58.1011 121.59C58.3351 119.986 59.9724 118.812 60.1933 117.064C59.9464 116.92 59.7125 116.79 59.4916 116.66C60.2713 115.668 61.0769 114.886 61.9476 113.894C61.6747 112.434 62.9742 110.973 63.9358 110.06C65.0403 108.99 65.1572 108.181 65.4431 107.464C66.5606 106.042 67.7561 104.79 68.9126 103.538C70.0172 102.247 71.0697 100.955 71.8364 99.3512C72.733 98.6468 73.5907 97.8773 74.4613 96.9512C75.306 95.9991 76.2156 94.9686 77.2552 93.8078C77.4371 93.8078 77.8789 93.7948 78.3857 93.7817C78.8016 93.0513 78.9705 92.5426 79.3603 92.1122C80.088 91.2513 80.4129 90.0644 81.8683 89.6209C83.5965 87.8601 85.8186 87.1166 87.5728 85.5123C87.9237 85.5514 88.1706 85.5775 88.4955 85.6167C89.3011 84.7689 90.2238 83.6602 90.9645 83.3732C92.134 82.9298 92.8486 82.2254 93.7713 81.6776C95.2137 80.7776 96.6041 79.7733 98.4883 78.7038C98.7482 78.7168 99.242 78.7559 99.6578 78.782C100.749 77.8038 101.776 77.0995 102.751 76.3169C104.245 76.1864 105.414 75.1169 106.74 74.7517C108.117 74.3343 109.508 74.2169 110.911 74.0212C112.029 73.3169 112.899 72.5865 114.576 72.5082C115.303 72.4691 116.824 71.9865 117.291 71.3474C118.383 71.3474 119.488 71.3474 120.657 71.3474C121.956 70.7213 123.49 70.617 124.984 70.4083C126.479 70.2126 127.973 70.1083 129.285 69.417C129.545 69.7039 129.766 69.9518 130.13 70.3431C130.585 69.9126 130.897 69.6126 131.17 69.3648C132.82 69.1953 135.315 69.2866 135.211 69.4822C135.432 69.5605 135.601 69.5865 135.874 69.5344C136.043 69.5344 136.121 69.5344 136.458 69.6257C136.238 69.8344 136.017 69.9387 135.874 69.9648C135.848 71.5691 136.056 73.043 135.874 74.6082C135.731 75.7951 136.212 77.3603 136.354 78.782C136.406 79.2777 136.315 79.8777 136.264 80.4124C136.108 81.9646 136.264 83.3211 136.705 84.5602C136.471 86.1123 136.224 87.6645 135.978 89.3209C136.134 90.1427 136.328 89.9861 136.419 90.234C136.51 90.4035 136.51 90.6514 136.29 90.6253C136.186 90.6122 136.108 90.7166 135.978 90.7948L135.757 90.86L135.627 90.8992H135.562L135.289 90.9514L133.145 91.1861C132.573 90.9644 132.118 90.834 131.793 90.7687C130.39 91.0687 129.194 91.3165 127.518 91.6687C127.414 91.8252 127.232 92.1383 127.037 92.4383H126.479C126.284 92.0861 126.089 91.7209 125.829 91.2252C124.205 92.8165 121.32 92.2557 119.708 93.4035C119.721 93.5469 119.747 93.7035 119.76 93.8339C118.526 94.5643 117.408 94.5382 116.109 94.9034C115.953 94.7078 115.797 94.4991 115.615 94.2643C113.991 95.2034 112.509 96.0382 111.145 97.1208L110.079 96.9773C108.975 97.5903 107.896 98.1903 106.818 98.7903C105.804 99.4947 104.791 100.186 103.79 100.877C102.517 101.112 101.165 101.699 100.009 102.612C98.8261 103.473 97.6566 104.399 96.4351 105.012C96.2012 105.847 95.1097 106.929 94.512 107.268C92.9916 108.09 92.1599 109.368 91.0684 110.412C89.9508 111.664 88.6904 112.616 87.6379 114.038C86.6633 115.264 85.8576 116.699 84.5582 117.977C83.8305 118.707 83.0767 120.116 82.6349 121.225C82.336 122.033 82.0891 122.542 81.5044 123.246C80.7507 124.159 80.049 125.281 79.3473 126.325C78.7236 127.446 78.1648 128.607 77.5671 129.742C77.4631 129.938 77.3201 130.107 77.2162 130.264C77.0343 130.316 76.8523 130.355 76.6444 130.42C76.4235 130.903 76.2416 131.346 75.9687 131.959C76.0337 132.703 76.1766 133.55 76.3066 134.49C75.7738 135.22 75.3579 135.794 74.8252 136.537C74.2274 138.494 73.9416 140.698 73.5777 142.981C73.3438 143.059 73.0319 143.176 72.5771 143.346C72.5121 144.442 72.4342 145.381 72.4992 146.346C72.2133 146.972 71.9144 147.611 71.5636 148.355C72.1873 149.959 71.3946 152.085 71.7845 153.781C72.0574 155.502 72.3432 157.224 72.6421 159.05C73.1099 158.867 73.4998 158.711 73.8376 158.567C73.8896 157.967 73.9155 157.641 73.9415 157.198C74.7472 156.989 75.5139 156.794 76.3196 156.572C76.7614 155.241 77.1902 153.95 77.645 152.594C77.749 151.394 77.8659 150.194 77.9699 149.033C78.1778 148.902 78.3337 148.798 78.7235 148.55C78.6586 147.611 78.5547 146.828 78.5547 146.281L78.5676 146.202ZM77.9049 130.551L77.814 130.772L77.4891 130.733L77.5801 130.511L77.9049 130.551Z" fill="#FF8241"/>
</g>
<g id="circle-light">
<path id="Vector_3" d="M63.7703 64.5066C76.0121 54.1389 77.5313 35.8102 67.1635 23.5684C56.7957 11.3266 38.4671 9.80744 26.2253 20.1752C13.9835 30.543 12.4643 48.8717 22.8321 61.1135C33.1999 73.3552 51.5286 74.8744 63.7703 64.5066Z" fill="#FFA972"/>
<path id="Vector_4" d="M61.7728 16.9619C61.3003 16.5649 60.8912 16.2925 60.4681 16.053C60.013 15.7881 59.4663 15.6008 59.0859 15.3251C58.7239 15.0338 58.3276 14.8135 57.9242 14.6097C57.5208 14.4059 57.1114 14.2073 56.6949 14.0251C55.882 13.6227 54.9847 13.4177 54.1014 13.1798C53.6445 13.0738 53.1965 12.9287 52.7447 12.8288C52.2817 12.728 51.838 12.6003 51.3937 12.4101C50.9711 12.2331 50.517 12.0933 50.0592 11.9985C49.5872 11.9367 49.1073 11.9026 48.6335 11.8633C48.2439 11.8367 47.8307 11.6832 47.5853 11.6288C46.7134 11.6644 45.9859 11.8086 45.3039 11.8827C45.2842 11.9833 45.2655 12.0726 45.2519 12.168C44.8463 12.1968 44.4933 12.1392 43.6548 12.2514C43.596 12.2068 43.3896 12.025 43.1926 11.8667C42.4769 12.0743 41.9942 12.2103 41.4707 12.36C41.3099 12.2445 41.1759 12.1482 41.0626 12.0763C40.2264 12.0922 39.4189 12.1048 38.6227 12.1183C38.3136 12.4221 37.8553 12.4011 37.4347 12.4742C36.8862 12.582 36.3316 12.6951 35.8353 12.7903C35.6357 12.9384 35.4552 13.0597 35.3086 13.1839C34.8819 13.2621 34.5585 13.3262 34.2648 13.3757C34.0449 13.5619 33.8678 13.7119 33.6296 13.9136C31.4343 14.2939 29.4515 15.8788 27.3387 16.7032C27.0198 17.3299 26.1594 17.7754 25.5387 18.2066C25.5933 18.3702 25.6197 18.4632 25.6427 18.5276C24.7251 19.2523 24.0021 20.0954 23.0771 21.0466C22.359 21.3506 21.6504 21.8144 20.7722 22.3379C20.6247 22.6096 20.4106 23.0008 20.1885 23.4196C19.6876 23.8438 19.3302 24.3878 18.9953 24.9336C18.6717 25.4804 18.3551 26.0107 18.0743 26.5213C17.988 26.8776 17.9631 27.1084 17.8749 27.351C17.7927 27.5884 17.6411 27.8427 17.5391 28.0444C17.3253 28.0891 17.221 28.1146 17.0706 28.1475C16.7432 28.7394 16.5536 29.3825 16.2372 30.1854C16.0417 30.3509 15.781 30.5508 15.5926 30.6999C15.378 31.3012 15.2086 31.9062 15.0491 32.4608C14.9008 33.0165 14.7953 33.5359 14.8411 34.0111C14.4214 35.1008 14.1897 36.2515 14.0534 37.4158C14.01 38.0085 13.9595 38.6176 13.9081 39.3744C13.7757 39.6019 13.5967 39.9108 13.5361 40.0251C13.4502 41.1992 13.4949 42.3047 13.5757 43.3166C13.719 44.328 13.8238 45.2567 13.7612 46.1488C14.0569 47.241 14.2701 48.0254 14.3925 48.4671C14.3564 49.7249 14.5868 50.8515 14.834 51.9112C15.1856 52.9456 15.6644 53.8826 16.2505 54.7603C16.3286 55.0508 16.411 55.3586 16.4849 55.6317C16.7172 55.844 16.8804 55.9995 16.9805 56.093C17.4539 57.3703 18.0796 58.4558 18.6643 59.5549C18.6286 59.7109 18.6 59.8505 18.5597 60.063C19.0497 60.592 19.5363 60.9561 19.9948 61.3859C20.3523 62.0062 20.6764 62.6862 21.0329 63.1814C21.8072 63.6375 22.4743 64.0165 23.2002 64.4401C23.2859 64.7766 23.4125 65.0994 23.5203 65.3753C23.9093 65.9584 24.4378 66.4338 24.9959 66.8947C25.5357 67.371 26.2004 67.7101 26.7454 68.1926C27.7841 69.1589 29.3588 69.4825 30.2917 70.2868C31.1604 70.6314 31.9299 70.7349 32.4325 71.0435C33.1772 71.5141 33.9923 71.8202 34.8103 72.0925C35.2193 72.2286 35.6343 72.3596 36.0443 72.4844C36.4673 72.5876 36.8941 72.6457 37.3252 72.7212C37.7562 72.7967 38.1873 72.8721 38.5793 72.9387C38.7345 73.122 38.837 73.2554 39.0068 73.4683C39.8738 73.2164 40.8534 73.3203 41.8259 73.4407C41.9388 73.5863 42.0103 73.6831 42.1612 73.849C42.5983 73.783 43.0241 73.716 43.456 73.6439C43.6454 73.6199 43.8513 73.6029 43.9312 73.5981C44.3787 73.817 44.7614 73.9963 44.925 74.078C45.9773 73.9211 46.7965 73.8356 47.4653 73.6468C48.1782 73.4731 48.7585 73.118 49.606 73.103C49.7564 73.2064 49.8862 73.2853 50.0098 73.3693C50.8572 73.2181 51.5706 72.9705 52.2708 72.7446C52.6102 72.7614 52.9322 72.7824 53.2602 72.7982C53.4459 72.683 53.6075 72.5147 53.8284 72.4535C55.1973 71.9025 56.6081 71.4628 57.9092 70.7699C58.1226 70.6627 58.3891 70.6677 58.5968 70.6281C59.1038 70.1988 59.3734 69.8236 60.1131 69.5328C60.4585 69.4081 60.8837 69.1423 61.222 68.8978L62.0048 68.3607C62.2638 68.1833 62.5029 67.9703 62.7515 67.7808L64.2559 66.622C64.7747 66.2561 65.1951 65.7741 65.657 65.3411C66.0972 64.8948 66.5487 64.4495 66.9249 63.9525C67.0668 63.7485 67.3144 63.5702 67.5075 63.3647C68.0806 62.7534 68.7567 62.2018 69.2288 61.5083C69.5712 61.0086 69.7778 60.435 70.1004 59.7632C70.3349 59.6066 70.6492 59.4453 70.964 59.2101C71.1419 58.6399 71.302 58.1477 71.4461 57.711C71.6762 57.4007 71.8905 57.1458 72.0797 56.8492C72.8847 55.3598 73.5444 53.7732 74.2238 52.2223C74.4445 51.7522 74.518 51.0711 74.5483 50.6363C74.7247 49.8786 74.8983 49.1547 75.0719 48.4308C75.2177 47.6989 75.2917 46.944 75.4074 46.1642C75.3088 45.2303 75.3365 44.074 75.8269 42.4734C75.8055 41.9776 75.7283 41.5395 75.69 41.1104C75.5325 41.0235 75.3966 40.9498 75.1197 40.7962C75.3502 40.1395 75.5239 39.6882 75.6807 39.1674C75.2778 37.8618 75.1549 36.4659 74.7506 35.1092C74.5628 34.4291 74.4341 33.7199 74.1767 33.0569C73.9193 32.3938 73.6445 31.7349 73.3392 31.1019C73.1774 30.7251 72.9634 30.3609 72.7677 29.9812C72.5781 29.5963 72.3965 29.1838 72.2524 28.7288C72.1432 28.4018 71.9518 28.0395 71.6691 27.681C71.3804 27.3276 71.0536 26.9541 70.7512 26.5599C70.552 25.8789 70.2271 25.4828 69.8199 25.1878C69.4005 24.9032 68.9591 24.6792 68.5787 24.2672C68.3307 24.6555 67.693 23.9893 67.0987 23.622C67.3308 24.3171 67.5082 24.8486 67.7002 25.4097C67.4176 25.1875 67.1981 25.0273 66.9103 24.799C66.8909 25.4449 67.5276 26.2586 67.5034 26.8245C67.4731 27.2593 68.2222 28.02 68.2262 28.6564C68.2273 29.054 68.9692 29.5585 68.9319 30.146C69.2386 30.6939 69.5514 31.2366 69.8435 31.7549C70.1234 32.2836 70.3234 32.817 70.5351 33.2775C70.766 34.4665 70.7987 35.2359 70.9358 35.8436C71.0502 36.4494 71.309 36.8911 71.5424 37.5011C71.3946 38.2556 71.4786 39.0235 71.6576 39.8789C71.7534 40.574 71.7673 41.2964 71.7822 42.0076C71.7971 42.7187 71.7156 43.4275 71.8156 44.14C71.7532 44.4131 71.7195 44.6829 71.6918 44.9475C71.6468 45.2164 71.6131 45.4862 71.5907 45.757C71.5458 46.2984 71.5287 46.8479 71.4777 47.3946C71.4088 47.8829 71.2107 48.3549 71.0732 48.849C71.1104 49.0168 71.157 49.208 71.1805 49.3349C70.9543 50.009 70.6364 50.6244 70.3377 51.213C70.0277 51.8007 69.7968 52.3949 69.429 52.9267C69.4766 53.3793 69.3358 53.8446 69.1673 54.302C69.0748 54.5272 68.9875 54.7585 68.895 54.9837C68.7861 55.2018 68.6832 55.4148 68.609 55.6244C68.3281 55.8624 68.0767 56.0858 67.6849 56.4281C67.6079 56.6716 67.5248 56.9203 67.4356 57.1741C67.3248 57.4148 67.2131 57.6668 67.1013 57.9188C66.8708 58.4392 66.621 58.9864 66.3632 59.5614C66.1202 59.6832 65.7523 59.8061 65.3476 59.9599C64.9321 60.7944 63.9118 61.2494 63.4309 62.1182C63.5447 62.2526 63.6595 62.3757 63.7639 62.4865C63.1088 62.8525 62.5797 63.2062 61.8763 63.5397C61.722 64.3732 60.7056 64.9193 59.9997 65.2129C59.1256 65.4812 58.8922 65.8992 58.5699 66.2245C56.6922 67.2275 54.7666 67.5052 53.0822 68.7115C52.427 68.8049 51.746 68.8677 51.0415 69.0762C50.6825 69.16 50.3239 69.3064 49.9249 69.3926C49.5311 69.4849 49.1137 69.5866 48.6677 69.6916C48.5821 69.6277 48.3616 69.4788 48.1205 69.3055C47.6867 69.5364 47.4278 69.7137 47.0993 69.7717C46.463 69.912 45.8855 70.3696 45.061 70.0401C43.6303 70.1714 42.3535 69.6793 40.9819 69.6452C40.8475 69.4864 40.7492 69.3703 40.6311 69.2185C39.9562 69.2762 39.1196 69.3659 38.6989 69.1663C38.0444 68.8395 37.4461 68.8637 36.8595 68.6788C36.3828 68.537 35.9052 68.4066 35.3877 68.2785C35.1319 68.2119 34.8588 68.1495 34.5876 68.0645C34.3173 67.9683 34.0366 67.8598 33.7447 67.7505C33.6535 67.618 33.4917 67.3774 33.3557 67.1673C32.9421 67.0876 32.543 67.0375 32.1754 66.9502C31.8088 66.8517 31.4595 66.7489 31.1154 66.6522C30.8318 66.305 30.4623 66.104 30.0745 65.9185C29.6857 65.7443 29.3232 65.5269 29.0147 65.2742C28.387 64.694 27.8373 64.1316 27.3543 63.4498C26.6914 63.0882 26.0136 62.9071 25.4976 62.0749C25.2784 61.7046 24.6469 61.0332 24.1505 60.9921C23.809 60.4527 23.5521 59.8521 23.2807 59.2219C22.6318 58.6911 22.1187 57.9614 21.7301 57.1682C21.318 56.3844 20.8317 55.6739 20.2458 55.0688C20.3651 54.8629 20.4651 54.6838 20.6196 54.3956C20.275 54.2364 20.0395 54.1317 19.8369 54.041C19.7141 53.8094 19.6035 53.5674 19.5043 53.3263C19.4224 53.081 19.364 52.8262 19.2943 52.5706C19.1714 52.0663 19.0476 51.5733 18.9298 51.0752C18.6996 50.0849 18.5022 49.1088 17.8574 48.1864C17.9503 47.8874 18.038 47.5824 18.0991 47.3943C17.9746 46.4299 17.6664 45.6945 17.7698 44.7887C17.7918 44.4554 17.7211 44.0748 17.6175 43.68C17.5657 43.4826 17.5149 43.2739 17.4631 43.0765C17.4235 42.8688 17.4004 42.6681 17.3886 42.4684C17.3668 42.1826 17.4339 41.8531 17.4756 41.5556C17.5459 41.1184 17.5396 40.7147 17.5263 40.3274C17.5303 39.9359 17.4864 39.5744 17.3975 39.2093C17.5232 38.7881 17.6551 38.3617 17.787 37.9353C17.9415 37.5108 18.1349 37.0953 18.3129 36.6614C18.2745 35.9596 18.1303 35.2321 18.7053 34.462C18.8655 34.2424 18.9146 33.7183 19.0202 33.3352L19.1694 32.7683L19.3741 32.2173L19.7834 31.1154C20.0338 30.9033 20.2293 30.7378 20.3698 30.6188C20.6778 29.9174 20.9868 29.341 21.385 28.5108C21.3483 28.4055 21.2627 28.2054 21.1832 28C21.247 27.9144 21.3152 27.8462 21.3955 27.7677C21.6277 27.8437 21.8661 27.9146 22.1867 28.0207C22.1767 26.7705 23.6118 26.0375 23.9649 25.0672C23.9028 24.994 23.8459 24.9268 23.7941 24.8657C23.9552 24.4985 24.191 24.2568 24.4476 24.0396C24.5758 23.931 24.7093 23.8284 24.8427 23.7259C24.9865 23.6356 25.1312 23.534 25.2769 23.4211C25.4066 23.5 25.5425 23.5738 25.7052 23.6668C25.9889 23.2587 26.2655 22.867 26.5413 22.4866C26.6822 22.2939 26.818 22.095 26.9528 21.9074L27.4169 21.3779L28.0369 21.3669C28.5551 20.9385 29.0216 20.449 29.5751 20.0746C30.1183 19.688 30.6605 19.3127 31.1976 18.9312C31.903 18.8477 32.638 18.6133 33.3312 18.2676C34.0201 17.9044 34.763 17.6423 35.4755 17.5423C35.6995 17.1009 36.4589 16.7095 36.8467 16.7587C37.7868 16.7911 38.4658 16.342 39.2595 16.1522C40.1469 15.9986 40.9854 16.0226 41.9051 15.8206C42.728 15.69 43.5975 15.4781 44.5644 15.6662C45.1054 15.7848 45.9528 15.6336 46.5986 15.5167C47.0601 15.4301 47.3689 15.4727 47.8517 15.6093C48.4651 15.8134 49.1768 15.8611 49.8302 16.0629C50.4916 16.237 51.1642 16.412 51.8308 16.5922C51.9479 16.6189 52.0438 16.695 52.1312 16.7363C52.1679 16.8416 52.1995 16.9408 52.2456 17.0695C52.5117 17.1484 52.75 17.2192 53.0941 17.3159C53.5053 17.2194 53.9513 17.1144 54.473 16.9872C54.8618 17.2977 55.151 17.5773 55.5215 17.9033C56.0405 18.0826 56.6022 18.2257 57.1513 18.453C57.6995 18.6915 58.2589 18.9309 58.84 19.1835C58.84 19.3199 58.8406 19.5187 58.8337 19.8077C59.4039 19.9856 59.8444 20.2209 60.3286 20.4087C60.5482 20.7052 60.7782 21.0139 61.0383 21.3705C61.9798 21.4542 62.7214 22.4414 63.5742 22.8415C64.3829 23.3628 65.1897 23.9068 66.0726 24.4911C66.2079 24.2297 66.3281 24.0125 66.4239 23.816C66.1963 23.5472 66.0609 23.3997 65.884 23.2033C66.1419 22.7647 66.3866 22.3476 66.6444 21.909C66.4167 21.5039 66.2004 21.0998 65.9779 20.7009C65.7441 20.301 65.4727 19.9434 65.2103 19.5469C64.5577 19.0612 63.961 18.5176 63.2844 18.1151C63.2637 17.9544 63.2444 17.8449 63.201 17.546C62.6087 17.2924 62.1367 17.0943 61.7911 16.9464L61.7728 16.9619ZM52.2927 16.2954L52.4262 16.3292L52.4268 16.528L52.2994 16.489L52.2988 16.2902L52.2927 16.2954Z" fill="#FFA972"/>
</g>
<g id="lines">
<path id="Vector_5" d="M67.9149 83.7937C67.7372 83.7628 67.5904 83.7241 67.4513 83.7241C67.2968 83.7241 67.1268 83.8246 66.9954 83.7705C66.4623 83.5541 65.9369 83.6005 65.4038 83.7164C65.1256 83.7782 64.8552 83.8555 64.5771 83.6932C64.3144 83.5387 64.0285 83.5928 63.7503 83.6391C63.6344 83.6623 63.5108 83.5696 63.4412 83.5464C63.1863 83.6855 62.9777 83.8014 62.7768 83.9096C62.7768 84.01 62.769 84.095 62.7613 84.1877C62.6377 84.2109 62.5372 84.2264 62.2823 84.2727C62.2668 84.2186 62.205 84.0409 62.1509 83.8787C61.9346 84.0332 61.7878 84.1336 61.6333 84.2495C61.5869 84.1259 61.556 84.0255 61.5174 83.9405C61.2701 83.8246 61.0383 83.7164 60.8065 83.616C60.6984 83.871 60.567 83.7319 60.4434 83.701C60.2811 83.6623 60.1189 83.6392 59.9643 83.6082C59.8948 83.6932 59.833 83.7782 59.7866 83.84C59.663 83.7705 59.5625 83.7164 59.4776 83.67C59.4003 83.7627 59.3308 83.84 59.2458 83.9405C58.6045 83.5696 57.8782 84.0023 57.2292 83.5696C57.0515 83.9482 56.7656 83.7319 56.5415 83.7087C56.526 83.871 56.5106 83.9559 56.5029 84.0177C56.1552 84.0795 55.8307 84.1414 55.4366 84.2109C55.2203 83.9791 54.9807 83.7164 54.6949 83.4228C54.6021 83.4846 54.4785 83.5773 54.3395 83.6778C53.9609 83.4073 53.5823 83.7164 53.2423 83.701C53.1419 83.8014 53.08 83.8864 53.0028 83.925C52.9255 83.9636 52.8405 83.9636 52.7787 83.9714C52.7401 83.8168 52.7169 83.7318 52.686 83.6237C52.4851 83.6623 52.2919 83.6932 52.0447 83.7396C51.9751 83.6237 51.8979 83.4769 51.8361 83.3765C51.4652 83.5155 51.1098 83.3996 50.8548 83.7628C50.5148 83.6469 50.1749 83.6701 49.8272 83.7628C49.6495 83.8091 49.4718 83.8323 49.2477 83.8709C49.1782 83.7705 49.0854 83.6469 49.0468 83.5928C48.3591 83.5232 47.7642 83.9868 47.2543 83.7396C46.9221 83.8555 46.6825 83.9482 46.5512 83.9946C45.8249 83.5155 45.2222 83.4923 44.6041 83.9636C44.5191 83.9096 44.4264 83.8555 44.3414 83.8014C44.2564 83.9096 44.1946 83.9868 44.156 84.0409C43.7542 83.9637 43.3833 83.8941 43.0201 83.8168C42.9892 83.7087 42.9583 83.6083 42.912 83.4692C42.7034 83.6083 42.5334 83.7164 42.3557 83.8323C42.1471 83.7319 41.9307 83.6237 41.753 83.5387C41.498 83.7859 41.2817 84.0023 41.0422 84.2341C40.9572 84.0796 40.8645 83.925 40.7795 83.7937C40.3777 83.4383 39.945 83.7473 39.5201 83.616C39.1106 83.4924 38.6702 83.8941 38.3147 83.6855C38.0443 83.7782 37.8202 83.9559 37.6502 83.8864C37.1403 83.701 36.6304 83.7087 36.1204 83.8323C35.9891 83.8632 35.8654 83.8787 35.7418 83.9019C35.6877 83.7628 35.6491 83.6546 35.5873 83.4923C35.3478 83.8478 35.0619 83.8632 34.7683 83.8709C34.7296 83.7473 34.7064 83.6701 34.6601 83.5078C34.5365 83.5928 34.4128 83.6701 34.2815 83.7473C34.2274 83.7782 34.1656 83.8014 34.1424 83.8091C34.0111 83.616 33.9029 83.4537 33.8488 83.3765C33.5398 83.4846 33.3002 83.5078 33.1071 83.6469C32.8984 83.7937 32.713 83.9868 32.4658 83.8864C32.4272 83.7705 32.3962 83.6701 32.3653 83.5696C32.1181 83.616 31.894 83.6546 31.6777 83.6932C31.585 83.5928 31.4923 83.5001 31.4073 83.4074C31.3455 83.4692 31.2837 83.5851 31.2218 83.5928C30.7892 83.6237 30.3642 83.6391 29.9315 83.6391C29.8619 83.6391 29.7924 83.5233 29.7306 83.4692C29.5452 83.6314 29.4216 83.8632 29.1898 83.7087C29.0816 83.6392 28.9348 83.6391 28.8189 83.67C28.0849 83.8246 27.3277 83.616 26.5936 83.8787C26.5241 83.9018 26.4314 83.84 26.3464 83.8246C26.0991 83.7782 25.8519 83.6855 25.6047 83.7087C25.427 83.7242 25.257 83.8787 25.0329 83.9946C24.9557 83.8864 24.8629 83.755 24.7625 83.6005C24.5925 83.7241 24.4457 83.8246 24.3144 83.9173C24.1985 83.8709 24.1057 83.8169 24.0053 83.8014C23.5108 83.7241 23.0008 83.7782 22.5063 83.5773C22.3595 83.5155 22.1587 83.6778 22.035 83.7241C21.5792 83.7164 21.1619 83.7087 20.6983 83.6932C20.4279 83.9559 20.0802 83.9018 19.6166 83.5001C19.4698 83.5232 19.3462 83.5464 19.2149 83.5696C19.1839 83.7164 19.1608 83.8401 19.1144 84.1028C18.9212 83.8323 18.7976 83.6623 18.6508 83.4537C17.8705 83.7782 17.0128 83.4691 16.1938 83.7241C15.9543 83.8014 15.7071 83.8555 15.4289 83.7241C15.228 83.6314 14.9499 83.8555 14.6563 83.956C14.2545 83.5696 14.0613 84.3268 13.7291 84.4273C13.7754 84.8445 13.4973 84.9449 13.2964 85.1844C13.5127 85.4162 13.675 85.5862 13.8527 85.7717C13.7445 85.8644 13.6595 85.9262 13.5513 86.0189C13.7059 86.413 14.0458 86.4052 14.1849 86.7529C14.3008 87.0311 14.6408 86.7683 14.8185 87.1006C14.9344 87.3092 15.1971 86.9538 15.3671 87.2088C15.7843 87.1315 16.1938 87.0543 16.5261 86.9925C17.3142 87.4406 17.5382 87.4637 17.9632 87.1547C18.2027 87.4019 18.4654 87.4561 18.7513 87.3865C19.2226 87.2783 19.7093 87.5256 20.1729 87.3092C20.5361 87.5178 20.8992 87.3247 21.2624 87.3092C21.4246 87.3015 21.5946 87.3556 21.7646 87.3865C21.8187 87.317 21.8728 87.232 21.9114 87.1779C22.3827 87.3633 22.8154 87.541 23.2404 87.711C23.5108 87.2706 23.8816 87.4637 24.1752 87.3092C24.2911 87.4251 24.3993 87.5333 24.5616 87.6955C24.8938 87.5024 25.2647 87.2938 25.6742 87.062C25.7592 87.1933 25.8674 87.3633 25.991 87.5565C26.2923 87.3092 26.64 87.8346 26.9645 87.4869C26.9645 87.3169 26.9645 87.1547 26.9645 87.0079C27.2041 87.1701 27.4127 87.3092 27.6676 87.4869C27.884 86.9306 28.2549 87.116 28.5098 87.3015C28.8034 87.5256 28.9425 87.3015 29.0893 87.1933C29.7847 87.317 30.4337 87.7805 31.0982 87.2165C31.5309 87.5024 32.0022 87.4174 32.6049 87.2629C32.628 87.3324 32.6976 87.5101 32.7671 87.711C32.9217 87.5642 33.0144 87.4329 33.1303 87.3788C33.3466 87.2783 33.5475 86.8766 33.8179 87.2397C34.2892 87.0697 34.7219 87.5565 35.1855 87.3633C35.2396 87.5024 35.2782 87.6028 35.3246 87.7264C35.5487 87.6105 35.8191 87.3402 35.9659 87.4329C36.2054 87.5797 36.3986 87.4869 36.6072 87.4638C36.9394 87.4251 37.2716 87.3479 37.6966 87.2706C37.7429 87.3479 37.8202 87.5024 37.8975 87.626C38.1756 87.4251 38.4152 87.2552 38.647 87.0852C38.9251 87.402 39.211 87.062 39.4814 87.1393C39.7596 87.2243 40.0223 87.4251 40.2927 87.5797C40.5477 87.4097 40.7486 87.1547 41.0654 87.371C41.2044 87.4638 41.5135 87.456 41.6371 87.1393C41.8457 87.2861 42.0544 87.4251 42.2784 87.5874C42.827 87.2088 43.4683 87.8655 44.0014 87.2706C44.0478 87.456 44.0864 87.6183 44.1482 87.881C44.2487 87.6492 44.3105 87.4869 44.3723 87.3478C45.0754 87.286 45.7399 88.0587 46.4352 87.317C46.528 87.4483 46.6207 87.5797 46.6825 87.6647C47.0147 87.6801 47.2697 87.5565 47.5711 87.6647C47.7951 87.7496 48.0887 87.4638 48.3592 87.3788C48.4519 87.3479 48.5678 87.402 48.6682 87.4329C48.9618 87.5256 49.2168 87.4328 49.4486 87.1701C49.7422 87.3092 50.0358 87.456 50.3449 87.6028C50.5767 87.4174 50.793 87.147 51.0943 87.4174C51.1793 87.4947 51.357 87.3865 51.4884 87.3633C51.7511 87.317 52.0061 87.2706 52.2688 87.2165C52.3692 87.3556 52.4465 87.4637 52.5083 87.541C52.7633 87.4946 52.9873 87.456 53.2964 87.3942C53.3195 87.3092 53.3659 87.147 53.4045 86.9847C53.4355 87.0002 53.4741 87.0156 53.505 87.0311C53.5282 87.2551 53.5513 87.4869 53.5822 87.796C53.9299 87.0774 54.409 87.8578 54.7412 87.4329C54.7412 87.3479 54.749 87.2552 54.7567 87.1856C55.0117 86.9615 55.2048 87.2551 55.4443 87.3015C55.4598 87.4406 55.4753 87.5874 55.4907 87.7574C55.8229 87.5642 56.1243 87.3865 56.4333 87.201C56.4874 87.3169 56.5415 87.4328 56.5956 87.5565C57.0514 87.4715 57.4918 87.3942 57.9323 87.3092C58.3727 87.9042 58.9676 87.5024 59.4389 87.8037C59.5625 87.4638 59.8407 87.4174 59.9643 87.5178C60.2657 87.7651 60.5284 87.541 60.7988 87.5178C61.1001 87.4869 61.3783 87.6801 61.695 87.5719C61.9732 87.4715 62.2668 87.371 62.5913 87.541C62.7768 87.6337 63.0549 87.4638 63.2713 87.3324C63.4258 87.2397 63.5262 87.2088 63.6885 87.2861C63.8971 87.3865 64.1366 87.402 64.3607 87.4329C64.5925 87.4638 64.8243 87.4715 65.0561 87.4946C65.0947 87.4946 65.1334 87.5333 65.1643 87.5487C65.1875 87.6337 65.2106 87.7187 65.2338 87.8192C65.3265 87.8115 65.4115 87.8037 65.5351 87.7883C65.651 87.5719 65.7824 87.3401 65.9369 87.0697C66.0915 87.2165 66.2151 87.3324 66.3773 87.4792C66.7482 87.3633 67.1422 87.2397 67.5595 87.1083C67.5826 87.2242 67.6213 87.3942 67.6677 87.6337C67.8608 87.5101 68.0308 87.4019 68.2008 87.2938C68.3167 87.4096 68.4403 87.5256 68.5871 87.6569C68.8575 87.1624 69.2516 87.3787 69.5529 87.1469C69.862 86.9306 70.1788 86.7143 70.511 86.4825C70.4724 86.2121 70.4492 85.988 70.4183 85.7871C70.3101 85.7794 70.2406 85.7716 70.1633 85.7639C70.1169 85.2926 70.0783 84.8445 70.032 84.3732C69.7615 84.1491 69.5065 83.9328 69.2361 83.7087C68.9966 83.7551 68.7571 83.7937 68.533 83.84C68.5021 83.7319 68.4789 83.6469 68.4171 83.4382C68.2317 83.5696 68.0849 83.6778 67.9767 83.7551L67.9149 83.7937ZM65.1411 87.1315C65.1411 87.1315 65.172 87.1315 65.1874 87.1238C65.1874 87.1856 65.2029 87.2474 65.2029 87.3092C65.1874 87.3092 65.172 87.3092 65.1565 87.317C65.1565 87.2551 65.1411 87.1933 65.1411 87.1315Z" fill="#FFE4D5"/>
<path id="Vector_6" d="M22.9774 97.5394C23.1706 97.5703 23.3251 97.609 23.4797 97.609C23.6419 97.609 23.8274 97.5086 23.9742 97.5626C24.5459 97.779 25.1177 97.7326 25.6972 97.6167C25.9908 97.5549 26.2921 97.4776 26.5934 97.6399C26.8793 97.7944 27.1807 97.7403 27.4897 97.694C27.6133 97.6708 27.7524 97.7635 27.8297 97.7867C28.1001 97.6476 28.3319 97.5317 28.5482 97.4236C28.5482 97.3231 28.556 97.2381 28.5637 97.1454C28.6951 97.1222 28.8109 97.1068 29.0814 97.0604C29.0968 97.1145 29.1664 97.2922 29.2204 97.4545C29.4522 97.2999 29.6145 97.1995 29.7845 97.0836C29.8308 97.2072 29.8695 97.3076 29.9081 97.3926C30.1708 97.5085 30.4258 97.6167 30.673 97.7172C30.7889 97.4622 30.928 97.6012 31.0671 97.6322C31.2448 97.6708 31.4225 97.694 31.5847 97.7249C31.662 97.6399 31.7238 97.5549 31.7779 97.4931C31.917 97.5626 32.0174 97.6167 32.1101 97.6631C32.1951 97.5704 32.2647 97.4931 32.3574 97.3926C33.045 97.7635 33.8332 97.3309 34.544 97.7635C34.7372 97.3849 35.0462 97.6013 35.2857 97.6245C35.3089 97.4622 35.3167 97.3772 35.3244 97.3154C35.6952 97.2536 36.0507 97.1918 36.4756 97.1222C36.7074 97.354 36.9701 97.6167 37.2792 97.9103C37.3796 97.8485 37.5109 97.7558 37.6577 97.6554C38.0672 97.9258 38.4768 97.6167 38.8477 97.6322C38.9558 97.5317 39.0253 97.4467 39.1103 97.4081C39.1876 97.3695 39.2803 97.3695 39.3576 97.3617C39.4039 97.5163 39.4271 97.6013 39.458 97.7094C39.6744 97.6708 39.883 97.6399 40.1534 97.5935C40.223 97.7094 40.3157 97.8563 40.3852 97.9567C40.787 97.8176 41.1733 97.9335 41.4515 97.5704C41.8223 97.6863 42.1932 97.6631 42.5641 97.5704C42.7572 97.524 42.9504 97.5008 43.1899 97.4622C43.2672 97.5626 43.3676 97.6863 43.4062 97.7403C44.148 97.8099 44.7893 97.3463 45.3456 97.5935C45.701 97.4776 45.9637 97.3849 46.1028 97.3385C46.8909 97.8176 47.5399 97.8408 48.2044 97.3695C48.2971 97.4236 48.3976 97.4776 48.4903 97.5317C48.583 97.4235 48.6526 97.3463 48.6912 97.2922C49.1239 97.3695 49.5256 97.439 49.9197 97.5163C49.9583 97.6245 49.9892 97.7249 50.0356 97.864C50.2597 97.7249 50.4451 97.6167 50.6382 97.5008C50.8623 97.6013 51.0941 97.7094 51.2873 97.7944C51.5577 97.5472 51.7972 97.3308 52.0522 97.099C52.1449 97.2536 52.2453 97.4081 52.3303 97.5394C52.763 97.8949 53.2266 97.5858 53.6902 97.7172C54.1306 97.8408 54.6096 97.439 54.996 97.6476C55.2896 97.5549 55.5291 97.3772 55.7145 97.4467C56.2708 97.6322 56.8117 97.6244 57.368 97.5008C57.5071 97.4699 57.6462 97.4545 57.7698 97.4313C57.8239 97.5704 57.8702 97.6785 57.932 97.8408C58.187 97.4854 58.5038 97.4699 58.8129 97.4622C58.8515 97.5858 58.8747 97.6631 58.9288 97.8253C59.0679 97.7403 59.1992 97.6631 59.3383 97.5858C59.4001 97.5549 59.4619 97.5317 59.4928 97.524C59.6319 97.7172 59.7555 97.8794 59.8096 97.9567C60.1418 97.8485 60.3968 97.8253 60.6131 97.6862C60.8449 97.5394 61.0458 97.3463 61.3085 97.4467C61.3471 97.5626 61.3858 97.6631 61.4167 97.7635C61.6871 97.7172 61.9266 97.6785 62.1584 97.6399C62.2589 97.7403 62.3593 97.833 62.452 97.9258C62.5216 97.864 62.5834 97.7481 62.6529 97.7403C63.1165 97.7094 63.5801 97.694 64.0514 97.694C64.1287 97.694 64.2059 97.8099 64.2678 97.864C64.4686 97.7017 64.6 97.4699 64.855 97.6245C64.9709 97.694 65.1254 97.694 65.2568 97.6631C66.0526 97.5086 66.8716 97.7172 67.6597 97.4545C67.737 97.4313 67.8374 97.4931 67.9224 97.5086C68.1928 97.5549 68.4632 97.6476 68.7259 97.6245C68.9191 97.609 69.1045 97.4544 69.3363 97.3385C69.4213 97.4467 69.5218 97.5781 69.6299 97.7326C69.8154 97.609 69.9776 97.5086 70.1167 97.4158C70.2403 97.4622 70.3408 97.5163 70.4567 97.5317C70.9975 97.609 71.5384 97.5549 72.0715 97.7558C72.2338 97.8176 72.4424 97.6554 72.5815 97.609C73.076 97.6167 73.5241 97.6244 74.0263 97.6399C74.3122 97.3772 74.6908 97.4313 75.2007 97.8331C75.3553 97.8099 75.4944 97.7867 75.6334 97.7635C75.6643 97.6167 75.6875 97.4931 75.7416 97.2304C75.9502 97.5008 76.0815 97.6708 76.2438 97.8794C77.0937 97.5549 78.0132 97.864 78.9017 97.609C79.1644 97.5317 79.4271 97.4777 79.7285 97.609C79.9448 97.7017 80.2461 97.4777 80.5707 97.3772C81.0111 97.7635 81.2119 97.0063 81.5751 96.9059C81.521 96.4886 81.8223 96.3882 82.0464 96.1487C81.8146 95.9169 81.6369 95.7469 81.4514 95.5615C81.5673 95.4687 81.6601 95.4069 81.7837 95.3142C81.6137 94.9202 81.2506 94.9279 81.0961 94.5802C80.9724 94.3021 80.6093 94.5648 80.4084 94.2325C80.2848 94.0239 79.9989 94.3793 79.8134 94.1243C79.3653 94.2016 78.9172 94.2789 78.554 94.3407C77.7041 93.8926 77.4646 93.8694 77.001 94.1784C76.7461 93.9312 76.4601 93.8771 76.1434 93.9467C75.6334 94.0548 75.108 93.8076 74.6058 94.0239C74.2117 93.8153 73.8177 94.0084 73.4237 94.0239C73.246 94.0316 73.0682 93.9776 72.8828 93.9467C72.8287 94.0162 72.7669 94.1012 72.7205 94.1552C72.2106 93.9698 71.7393 93.7921 71.2834 93.6221C70.9898 94.0625 70.588 93.8694 70.2712 94.0239C70.1476 93.908 70.0317 93.7998 69.854 93.6376C69.4909 93.8307 69.0968 94.0394 68.6487 94.2712C68.5637 94.1398 68.4401 93.9698 68.3087 93.7766C67.9842 94.0239 67.6056 93.4985 67.2579 93.8462C67.2579 94.0162 67.2579 94.1784 67.2579 94.3252C66.9952 94.163 66.7711 94.0239 66.5007 93.8462C66.2689 94.4025 65.8672 94.2171 65.5967 94.0316C65.2799 93.8076 65.1254 94.0316 64.9709 94.1398C64.2137 94.0162 63.5183 93.5526 62.7998 94.1166C62.3284 93.8307 61.8262 93.9157 61.1694 94.0703C61.1385 94.0007 61.069 93.823 60.9917 93.6221C60.8218 93.7689 60.7213 93.9003 60.6054 93.9544C60.3659 94.0548 60.1573 94.4566 59.8636 94.0935C59.3537 94.2634 58.8824 93.7766 58.3879 93.9698C58.3338 93.8307 58.2952 93.7303 58.2411 93.6067C58.0016 93.7226 57.708 93.993 57.5457 93.9003C57.2907 93.7535 57.0821 93.8462 56.8581 93.8694C56.4949 93.908 56.1395 93.9853 55.6836 94.0625C55.6373 93.9853 55.5445 93.8308 55.4673 93.7071C55.1659 93.908 54.911 94.078 54.656 94.248C54.3547 93.9312 54.0456 94.2712 53.7598 94.1939C53.4584 94.1089 53.1725 93.908 52.8789 93.7535C52.6085 93.9235 52.3844 94.1784 52.0445 93.9621C51.8976 93.8694 51.5577 93.8771 51.4263 94.1939C51.2023 94.0471 50.9782 93.908 50.731 93.7458C50.136 94.1244 49.4484 93.4676 48.8689 94.0625C48.8225 93.8771 48.7761 93.7148 48.7143 93.4521C48.6062 93.6839 48.5366 93.8462 48.4748 93.9853C47.7176 94.0471 46.9913 93.2744 46.2419 94.0162C46.1414 93.8848 46.041 93.7535 45.9792 93.6685C45.6238 93.653 45.3456 93.7766 45.0211 93.6685C44.7816 93.5835 44.4648 93.8694 44.1712 93.9544C44.0707 93.9853 43.9471 93.9312 43.8389 93.9003C43.5221 93.8076 43.244 93.9003 42.9968 94.163C42.68 94.0239 42.3632 93.8771 42.031 93.7303C41.7837 93.9157 41.5519 94.1861 41.2196 93.9157C41.1269 93.8385 40.9415 93.9466 40.7947 93.9698C40.5165 94.0162 40.2307 94.0625 39.9525 94.1166C39.8444 93.9775 39.7594 93.8694 39.6975 93.7921C39.4194 93.8385 39.1799 93.8771 38.8477 93.9389C38.8245 94.0239 38.7781 94.1861 38.7317 94.3484C38.6931 94.3329 38.6622 94.3175 38.6236 94.302C38.6004 94.078 38.5772 93.8462 38.5463 93.5371C38.1754 94.2557 37.65 93.4753 37.2946 93.9003C37.2946 93.9853 37.2869 94.078 37.2792 94.1476C37.0087 94.3716 36.8001 94.078 36.5374 94.0316C36.5219 93.8926 36.5065 93.7457 36.491 93.5758C36.1356 93.7689 35.8034 93.9466 35.4712 94.1321C35.4094 94.0162 35.3553 93.9003 35.2934 93.7766C34.8067 93.8616 34.3276 93.9389 33.8486 94.0239C33.3695 93.429 32.736 93.8307 32.2183 93.5294C32.087 93.8694 31.7779 93.9157 31.6543 93.8153C31.3298 93.568 31.0439 93.7921 30.7503 93.8153C30.4258 93.8462 30.1244 93.6531 29.7767 93.7612C29.4754 93.8617 29.1586 93.9621 28.8032 93.7921C28.6023 93.6994 28.301 93.8694 28.0692 94.0007C27.9069 94.0935 27.7988 94.1244 27.621 94.0471C27.3893 93.9467 27.1343 93.9312 26.887 93.9003C26.6398 93.8694 26.3848 93.8617 26.1376 93.8385C26.0912 93.8385 26.0526 93.7998 26.0139 93.7844C25.9907 93.6994 25.9676 93.6144 25.9367 93.514C25.8362 93.5217 25.7435 93.5294 25.6122 93.5449C25.4808 93.7612 25.3418 93.993 25.1795 94.2634C25.0095 94.1166 24.8781 94.0007 24.7081 93.8539C24.3141 93.9698 23.8814 94.0934 23.4333 94.2248C23.4101 94.1089 23.3715 93.9389 23.3174 93.6994C23.1088 93.823 22.9233 93.9312 22.7456 94.0394C22.6143 93.9235 22.483 93.8075 22.3284 93.6762C22.0348 94.1707 21.6098 93.9544 21.2853 94.1862C20.9454 94.4025 20.6131 94.6188 20.25 94.8506C20.2886 95.1211 20.3195 95.3452 20.3504 95.546C20.4741 95.5538 20.5359 95.5615 20.6286 95.5692C20.6749 96.0405 20.7213 96.4886 20.7754 96.96C21.0613 97.184 21.3471 97.4004 21.633 97.6245C21.888 97.5781 22.1507 97.5394 22.3979 97.4931C22.4366 97.6013 22.4598 97.6863 22.5293 97.8949C22.7302 97.7635 22.8847 97.6553 23.0006 97.5781L22.9774 97.5394ZM25.9753 94.2016C25.9753 94.2016 25.9444 94.2016 25.9289 94.2093C25.9289 94.1475 25.9135 94.0857 25.9135 94.0239C25.9289 94.0239 25.9444 94.0239 25.9598 94.0162C25.9598 94.078 25.9753 94.1398 25.9753 94.2016Z" fill="#FFE4D5"/>
<path id="Vector_7" d="M30.6963 107.584C30.9204 107.615 31.0904 107.653 31.2681 107.653C31.4535 107.653 31.6621 107.553 31.8321 107.607C32.4889 107.823 33.1379 107.777 33.7946 107.661C34.1346 107.599 34.4668 107.522 34.8145 107.684C35.139 107.839 35.4867 107.785 35.8267 107.738C35.9658 107.715 36.1203 107.808 36.213 107.831C36.5221 107.692 36.7848 107.576 37.032 107.468C37.032 107.368 37.0398 107.283 37.0475 107.19C37.1943 107.167 37.3257 107.151 37.6347 107.105C37.6579 107.159 37.7274 107.337 37.7969 107.499C38.0596 107.344 38.2451 107.244 38.4383 107.128C38.4923 107.252 38.5387 107.352 38.5773 107.437C38.8787 107.553 39.1645 107.661 39.4504 107.762C39.5818 107.507 39.744 107.646 39.8986 107.677C40.0995 107.715 40.3004 107.738 40.4858 107.769C40.5708 107.684 40.648 107.599 40.7098 107.538C40.8644 107.607 40.9803 107.661 41.0884 107.708C41.1889 107.615 41.2661 107.538 41.3743 107.437C42.1624 107.808 43.0587 107.375 43.8623 107.808C44.0786 107.429 44.434 107.646 44.7044 107.669C44.7276 107.507 44.7353 107.422 44.7508 107.36C45.1757 107.298 45.5775 107.236 46.0643 107.167C46.327 107.398 46.6283 107.661 46.976 107.955C47.0842 107.893 47.2464 107.8 47.4087 107.7C47.8723 107.97 48.3436 107.661 48.7608 107.677C48.8845 107.576 48.9617 107.491 49.0544 107.453C49.1472 107.414 49.2553 107.414 49.3326 107.406C49.3789 107.561 49.4099 107.646 49.4408 107.754C49.6803 107.715 49.9198 107.684 50.2366 107.638C50.3216 107.754 50.422 107.901 50.4993 108.001C50.9551 107.862 51.3956 107.978 51.7124 107.615C52.1296 107.731 52.5545 107.708 52.9718 107.615C53.1881 107.568 53.4044 107.545 53.6826 107.507C53.7676 107.607 53.8835 107.731 53.9298 107.785C54.7798 107.854 55.5061 107.391 56.1397 107.638C56.5492 107.522 56.8428 107.429 57.005 107.383C57.9013 107.862 58.643 107.885 59.4002 107.414C59.5084 107.468 59.6243 107.522 59.7247 107.576C59.8329 107.468 59.9101 107.391 59.9565 107.337C60.451 107.414 60.9069 107.483 61.355 107.561C61.3937 107.669 61.4323 107.769 61.4864 107.908C61.7413 107.769 61.95 107.661 62.174 107.545C62.429 107.646 62.6917 107.754 62.9158 107.839C63.2248 107.592 63.4952 107.375 63.7888 107.143C63.897 107.298 64.0129 107.453 64.1057 107.584C64.6002 107.939 65.1256 107.63 65.651 107.762C66.1532 107.885 66.694 107.483 67.1344 107.692C67.4667 107.599 67.7371 107.422 67.9534 107.491C68.587 107.677 69.2051 107.669 69.831 107.545C69.9855 107.514 70.1477 107.499 70.2945 107.476C70.3563 107.615 70.4027 107.723 70.48 107.885C70.7736 107.53 71.129 107.514 71.4844 107.507C71.5308 107.63 71.5617 107.707 71.6158 107.87C71.7703 107.785 71.9248 107.707 72.0793 107.63C72.1489 107.599 72.2184 107.576 72.2494 107.568C72.4116 107.762 72.5507 107.924 72.6125 108.001C72.9911 107.893 73.2847 107.87 73.5319 107.731C73.7946 107.584 74.0187 107.391 74.32 107.491C74.3664 107.607 74.405 107.708 74.4436 107.808C74.7527 107.762 75.0232 107.723 75.2859 107.684C75.4018 107.785 75.5099 107.877 75.6181 107.97C75.6954 107.908 75.7649 107.792 75.8499 107.785C76.3753 107.754 76.9084 107.738 77.4415 107.738C77.5265 107.738 77.6115 107.854 77.6888 107.908C77.9206 107.746 78.0674 107.514 78.3533 107.669C78.4846 107.738 78.6623 107.738 78.8091 107.708C79.7131 107.553 80.6403 107.762 81.5443 107.499C81.637 107.476 81.7452 107.538 81.8456 107.553C82.147 107.599 82.456 107.692 82.7574 107.669C82.9737 107.653 83.1901 107.499 83.4528 107.383C83.5455 107.491 83.6614 107.623 83.7927 107.777C84.0013 107.653 84.1868 107.553 84.349 107.46C84.4881 107.507 84.604 107.561 84.7353 107.576C85.3457 107.653 85.9716 107.599 86.5742 107.8C86.7597 107.862 86.9992 107.7 87.1537 107.653C87.7178 107.661 88.2277 107.669 88.7995 107.684C89.1317 107.422 89.5567 107.476 90.1362 107.877C90.3139 107.854 90.4761 107.831 90.6229 107.808C90.6538 107.661 90.6847 107.538 90.7466 107.275C90.9784 107.545 91.1329 107.715 91.3183 107.924C92.2841 107.599 93.3272 107.908 94.3393 107.653C94.6407 107.576 94.942 107.522 95.282 107.653C95.5293 107.746 95.8769 107.522 96.2323 107.422C96.7268 107.808 96.9587 107.051 97.3759 106.95C97.3141 106.533 97.6618 106.433 97.909 106.193C97.6463 105.961 97.4454 105.791 97.2291 105.606C97.3682 105.513 97.4686 105.451 97.5999 105.359C97.4068 104.965 96.9973 104.972 96.8196 104.625C96.6805 104.347 96.2633 104.609 96.0392 104.277C95.9001 104.068 95.5679 104.424 95.367 104.169C94.857 104.246 94.3471 104.323 93.9376 104.385C92.9718 103.937 92.6936 103.914 92.1759 104.223C91.8823 103.976 91.5655 103.922 91.2024 103.991C90.6229 104.099 90.028 103.852 89.4485 104.068C89.0004 103.86 88.5522 104.053 88.1041 104.068C87.9032 104.076 87.6946 104.022 87.486 103.991C87.4241 104.061 87.3469 104.146 87.3005 104.2C86.721 104.014 86.1879 103.837 85.6625 103.667C85.3303 104.107 84.8744 103.914 84.5113 104.068C84.3722 103.952 84.2409 103.844 84.0322 103.682C83.6227 103.875 83.1669 104.084 82.6569 104.316C82.5565 104.184 82.4251 104.014 82.2706 103.821C81.8997 104.068 81.4748 103.543 81.073 103.891C81.073 104.061 81.073 104.223 81.073 104.37C80.7794 104.207 80.5244 104.068 80.2076 103.891C79.9449 104.447 79.489 104.262 79.18 104.076C78.8168 103.852 78.6469 104.076 78.4614 104.184C77.6038 104.061 76.808 103.597 75.9967 104.161C75.4636 103.875 74.8841 103.96 74.1424 104.115C74.1114 104.045 74.0342 103.867 73.9415 103.667C73.7483 103.813 73.6324 103.945 73.501 103.999C73.2306 104.099 72.9911 104.501 72.6588 104.138C72.0793 104.308 71.5462 103.821 70.9822 104.014C70.9204 103.875 70.8741 103.775 70.8122 103.651C70.5341 103.767 70.2096 104.037 70.0164 103.945C69.7228 103.798 69.4832 103.891 69.2283 103.914C68.8188 103.952 68.4093 104.03 67.8916 104.107C67.8375 104.03 67.7371 103.875 67.6444 103.752C67.3044 103.952 67.0108 104.122 66.7249 104.292C66.3849 103.976 66.0295 104.316 65.705 104.238C65.3573 104.153 65.0405 103.952 64.7083 103.798C64.3992 103.968 64.152 104.223 63.758 104.007C63.588 103.914 63.2016 103.922 63.0548 104.238C62.7998 104.092 62.5449 103.952 62.2668 103.79C61.5945 104.169 60.8064 103.512 60.1497 104.107C60.0956 103.922 60.0492 103.759 59.972 103.497C59.8483 103.728 59.7711 103.891 59.7016 104.03C58.8362 104.092 58.0172 103.319 57.1595 104.061C57.0436 103.929 56.9278 103.798 56.8582 103.713C56.4564 103.697 56.1396 103.821 55.7688 103.713C55.4906 103.628 55.1352 103.914 54.8029 103.999C54.687 104.03 54.548 103.976 54.4244 103.945C54.0612 103.852 53.7522 103.945 53.4663 104.207C53.1109 104.068 52.7477 103.922 52.3691 103.775C52.0833 103.96 51.8205 104.231 51.4497 103.96C51.3415 103.883 51.1329 103.991 50.9706 104.014C50.6539 104.061 50.3293 104.107 50.0125 104.161C49.8889 104.022 49.7884 103.914 49.7189 103.837C49.4021 103.883 49.1317 103.922 48.7531 103.983C48.7222 104.068 48.6681 104.231 48.6218 104.393C48.5831 104.377 48.5368 104.362 48.4982 104.346C48.475 104.122 48.4441 103.891 48.4054 103.582C47.9805 104.3 47.3855 103.52 46.9837 103.945C46.9837 104.03 46.9683 104.122 46.9683 104.192C46.6592 104.416 46.4197 104.122 46.1184 104.076C46.1029 103.937 46.0875 103.79 46.0643 103.62C45.6548 103.813 45.2839 103.991 44.9053 104.177C44.8358 104.061 44.774 103.945 44.7044 103.821C44.1481 103.906 43.6073 103.983 43.0664 104.068C42.5256 103.473 41.7993 103.875 41.2121 103.574C41.0576 103.914 40.7176 103.96 40.5708 103.86C40.1999 103.612 39.8754 103.837 39.5431 103.86C39.1723 103.891 38.8246 103.697 38.4383 103.806C38.0906 103.906 37.7352 104.007 37.3334 103.837C37.1093 103.744 36.7616 103.914 36.4989 104.045C36.3135 104.138 36.1899 104.169 35.9812 104.092C35.7185 103.991 35.4326 103.976 35.1468 103.945C34.8609 103.914 34.575 103.906 34.2969 103.883C34.2505 103.883 34.2042 103.844 34.1578 103.829C34.1269 103.744 34.1037 103.659 34.0728 103.558C33.9569 103.566 33.8487 103.574 33.7019 103.589C33.5551 103.806 33.3929 104.037 33.2151 104.308C33.022 104.161 32.8674 104.045 32.6743 103.898C32.2261 104.014 31.7394 104.138 31.2217 104.269C31.1908 104.153 31.1522 103.983 31.0904 103.744C30.8508 103.867 30.6423 103.976 30.4414 104.084C30.2946 103.968 30.1477 103.852 29.97 103.721C29.6378 104.215 29.151 103.999 28.7802 104.231C28.3938 104.447 28.0152 104.663 27.6057 104.895C27.6521 105.166 27.683 105.39 27.7139 105.59C27.853 105.598 27.9303 105.606 28.0307 105.614C28.0848 106.085 28.1388 106.533 28.1929 107.004C28.5252 107.228 28.842 107.445 29.1742 107.669C29.4678 107.623 29.7614 107.584 30.0396 107.538C30.0782 107.646 30.1091 107.731 30.1864 107.939C30.4104 107.808 30.5882 107.7 30.7272 107.622L30.6963 107.584ZM34.1114 104.246C34.1114 104.246 34.0728 104.246 34.0574 104.254C34.0574 104.192 34.0419 104.13 34.0342 104.068C34.0496 104.068 34.0728 104.068 34.0882 104.061C34.0882 104.122 34.1037 104.184 34.1114 104.246Z" fill="#FFE4D5"/>
</g>
</g>
</svg>
