<svg width="30" height="23" viewBox="0 0 30 23" fill="none" xmlns="http://www.w3.org/2000/svg">
<path d="M29 9.25H27.4875L23.9487 1.28875C23.8112 0.979574 23.587 0.716901 23.3033 0.53254C23.0195 0.348179 22.6884 0.250038 22.35 0.25H7.65C7.31161 0.250038 6.9805 0.348179 6.69675 0.53254C6.413 0.716901 6.18878 0.979574 6.05125 1.28875L2.5125 9.25H1C0.801088 9.25 0.610322 9.32902 0.46967 9.46967C0.329018 9.61032 0.25 9.80109 0.25 10C0.25 10.1989 0.329018 10.3897 0.46967 10.5303C0.610322 10.671 0.801088 10.75 1 10.75H2.25V21C2.25 21.4641 2.43437 21.9092 2.76256 22.2374C3.09075 22.5656 3.53587 22.75 4 22.75H7C7.46413 22.75 7.90925 22.5656 8.23744 22.2374C8.56563 21.9092 8.75 21.4641 8.75 21V18.75H21.25V21C21.25 21.4641 21.4344 21.9092 21.7626 22.2374C22.0908 22.5656 22.5359 22.75 23 22.75H26C26.4641 22.75 26.9092 22.5656 27.2374 22.2374C27.5656 21.9092 27.75 21.4641 27.75 21V10.75H29C29.1989 10.75 29.3897 10.671 29.5303 10.5303C29.671 10.3897 29.75 10.1989 29.75 10C29.75 9.80109 29.671 9.61032 29.5303 9.46967C29.3897 9.32902 29.1989 9.25 29 9.25ZM7.42125 1.89875C7.44087 1.85446 7.47293 1.81682 7.51354 1.79042C7.55415 1.76401 7.60156 1.74997 7.65 1.75H22.35C22.3984 1.74997 22.4458 1.76401 22.4865 1.79042C22.5271 1.81682 22.5591 1.85446 22.5788 1.89875L25.8463 9.25H4.15375L7.42125 1.89875ZM7.25 21C7.25 21.0663 7.22366 21.1299 7.17678 21.1768C7.12989 21.2237 7.0663 21.25 7 21.25H4C3.9337 21.25 3.87011 21.2237 3.82322 21.1768C3.77634 21.1299 3.75 21.0663 3.75 21V18.75H7.25V21ZM26 21.25H23C22.9337 21.25 22.8701 21.2237 22.8232 21.1768C22.7763 21.1299 22.75 21.0663 22.75 21V18.75H26.25V21C26.25 21.0663 26.2237 21.1299 26.1768 21.1768C26.1299 21.2237 26.0663 21.25 26 21.25ZM26.25 17.25H3.75V10.75H26.25V17.25ZM6.25 14C6.25 13.8011 6.32902 13.6103 6.46967 13.4697C6.61032 13.329 6.80109 13.25 7 13.25H9C9.19891 13.25 9.38968 13.329 9.53033 13.4697C9.67098 13.6103 9.75 13.8011 9.75 14C9.75 14.1989 9.67098 14.3897 9.53033 14.5303C9.38968 14.671 9.19891 14.75 9 14.75H7C6.80109 14.75 6.61032 14.671 6.46967 14.5303C6.32902 14.3897 6.25 14.1989 6.25 14ZM20.25 14C20.25 13.8011 20.329 13.6103 20.4697 13.4697C20.6103 13.329 20.8011 13.25 21 13.25H23C23.1989 13.25 23.3897 13.329 23.5303 13.4697C23.671 13.6103 23.75 13.8011 23.75 14C23.75 14.1989 23.671 14.3897 23.5303 14.5303C23.3897 14.671 23.1989 14.75 23 14.75H21C20.8011 14.75 20.6103 14.671 20.4697 14.5303C20.329 14.3897 20.25 14.1989 20.25 14Z" fill="#20201F"/>
</svg>
