<svg width="109" height="98" viewBox="0 0 109 98" fill="none" xmlns="http://www.w3.org/2000/svg">
<path d="M28.8727 58.4545C12.9455 58.4545 0 45.509 0 29.6545C0 13.7999 12.9455 0.854492 28.8 0.854492C44.6545 0.854492 57.6 13.7999 57.6 29.6545C57.6 45.509 44.7273 58.4545 28.8727 58.4545Z" fill="#FF8241"/>
<path d="M28.8001 23.3277C24.8001 23.3277 21.6001 20.055 21.6001 16.1277C21.6001 12.2005 24.8728 8.92773 28.8001 8.92773C32.7274 8.92773 36.0001 12.2005 36.0001 16.1277C36.0001 20.055 32.8001 23.3277 28.8001 23.3277ZM28.8001 11.7641C26.4001 11.7641 24.4365 13.7277 24.4365 16.1277C24.4365 18.5277 26.4001 20.4914 28.8001 20.4914C31.2001 20.4914 33.1637 18.5277 33.1637 16.1277C33.1637 13.7277 31.2001 11.7641 28.8001 11.7641Z" fill="white"/>
<path d="M16.4364 30.0183C13.2364 30.0183 10.6909 27.4001 10.6909 24.2728C10.6909 21.0728 13.3091 18.5273 16.4364 18.5273C19.6364 18.5273 22.1818 21.1455 22.1818 24.2728C22.2546 27.4001 19.6364 30.0183 16.4364 30.0183ZM16.4364 21.3637C14.8364 21.3637 13.5273 22.6728 13.5273 24.2728C13.5273 25.8728 14.8364 27.1819 16.4364 27.1819C18.0364 27.1819 19.3455 25.8728 19.3455 24.2728C19.3455 22.6001 18.0364 21.3637 16.4364 21.3637Z" fill="white"/>
<path d="M41.2364 30.0183C38.0364 30.0183 35.491 27.4001 35.491 24.2728C35.491 21.0728 38.1091 18.5273 41.2364 18.5273C44.3637 18.5273 46.9819 21.1455 46.9819 24.2728C46.9819 27.4001 44.4364 30.0183 41.2364 30.0183ZM41.2364 21.3637C39.6364 21.3637 38.3273 22.6728 38.3273 24.2728C38.3273 25.8728 39.6364 27.1819 41.2364 27.1819C42.8364 27.1819 44.1455 25.8728 44.1455 24.2728C44.1455 22.6001 42.8364 21.3637 41.2364 21.3637Z" fill="white"/>
<path d="M28.8001 50.4548C18.9092 50.4548 10.9092 42.4548 10.9092 32.5639V31.1094H12.3637C14.7637 31.1094 17.1637 31.6185 19.3455 32.4912L18.2546 35.1821C16.8728 34.6003 15.4183 34.2366 13.9637 34.0912C14.7637 41.6548 21.1637 47.6185 28.9455 47.6185V50.4548H28.8001Z" fill="white"/>
<path d="M28.8 50.4553V47.5462C36.5819 47.5462 42.9819 41.5826 43.7819 34.0189C42.3273 34.1644 40.8728 34.528 39.491 35.1098L38.4001 32.4189C40.5819 31.4735 42.9091 31.0371 45.3091 31.0371H46.7637V32.4917C46.691 42.3826 38.691 50.4553 28.8 50.4553Z" fill="white"/>
<path d="M28.8 50.4546C27.0546 50.4546 25.3091 49.8001 23.9273 48.4182C20.2182 44.7091 18.9091 39.2546 20.5091 34.3091C21.3819 31.6182 23.1273 29.2182 25.6728 27.4001L28.8 25.1455L31.9273 27.4001C34.4728 29.2182 36.2909 31.6182 37.0909 34.3091C38.6909 39.3273 37.3819 44.7091 33.6728 48.4182C32.2909 49.7273 30.5455 50.4546 28.8 50.4546ZM28.8 28.6364L27.4182 29.6546C25.3819 31.1091 23.9273 33.0728 23.2728 35.1091C22.0364 39.1091 23.0546 43.4001 26.0364 46.3091C27.5637 47.8364 30.1091 47.8364 31.6364 46.3091C34.5455 43.3273 35.6364 39.0364 34.4 35.1091C33.7455 33.0001 32.2909 31.1091 30.2546 29.6546L28.8 28.6364Z" fill="white"/>
<path d="M50.5454 96.8539V78.163H53.2363L53.6 81.9448H53.8181C54.8363 79.2539 56.8727 77.8721 59.8545 77.8721V80.6357C55.6363 80.7084 53.6 83.1812 53.6 88.1993V96.8539H50.5454Z" fill="#20201F"/>
<path d="M68.2909 85.7271H73.2364V84.3453C73.2364 81.6543 71.7818 80.2725 68.9455 80.2725C66.4 80.2725 64.6546 81.5816 64.5818 83.618H61.6C61.7455 81.8725 62.4728 80.4907 63.8546 79.3998C65.2364 78.3089 66.9818 77.7998 69.0909 77.7998C73.7455 77.7998 76.2909 80.2725 76.2909 84.5634V93.0725C76.2909 93.7998 76.3637 94.5271 77.4546 94.5271C77.6728 94.5271 77.9637 94.5271 78.1091 94.4543V96.8543C77.6 96.9998 77.0909 97.0725 76.5091 97.0725C74.4 97.0725 73.3818 95.9816 73.3818 93.7998H73.1637C72.3637 95.8362 69.8909 97.218 66.9818 97.218C63.2728 97.218 60.7273 95.0362 60.7273 91.7634C60.8 87.8362 63.6364 85.7271 68.2909 85.7271ZM67.6364 94.6725C70.9818 94.6725 73.2364 92.3453 73.2364 88.9998V87.9816H68.5091C65.4546 87.9816 64 89.218 64 91.3998C64 93.4362 65.3818 94.6725 67.6364 94.6725Z" fill="#20201F"/>
<path d="M81.1636 96.8543V78.1634H83.8545L84.2181 81.6543H84.509C85.6727 79.1089 87.5636 77.7998 90.2545 77.7998C92.8727 77.7998 94.8363 79.4725 95.709 81.8725H95.9999C97.0908 79.2543 99.4181 77.7998 102.109 77.7998C106.036 77.7998 108.364 80.6362 108.364 85.3634V96.8543H105.236V85.7271C105.236 82.3089 103.854 80.6362 101.164 80.6362C97.8908 80.6362 96.2908 83.1089 96.2908 87.0362V96.9271H93.2363V85.7271C93.2363 82.3089 91.8545 80.6362 89.1636 80.6362C86.109 80.6362 84.2181 83.1816 84.2181 86.9634V96.9271H81.1636V96.8543Z" fill="#20201F"/>
<path d="M3.85449 83.9087C3.85449 75.9087 8.72722 70.5996 15.9999 70.5996C21.9636 70.5996 26.3999 74.0178 27.1999 79.3996H23.9272C23.0545 75.6905 19.9999 73.5087 15.9999 73.5087C10.3272 73.5087 7.12722 77.6542 7.12722 83.9814C7.12722 90.3814 10.3272 94.4542 15.9272 94.4542C20.3636 94.4542 23.1272 92.0542 23.9272 88.4178H27.1999C26.4727 93.7996 22.0363 97.2905 15.9999 97.2905C8.65449 97.2178 3.85449 91.9087 3.85449 83.9087Z" fill="#20201F"/>
<path d="M30.5454 89.7995V78.3086H33.6V89.2177C33.6 92.854 34.9818 94.5268 38.0363 94.5268C41.2363 94.5268 43.3454 92.1268 43.3454 88.1268V78.3086H46.3272V96.854H43.4909L43.3454 93.4359H43.1272C42.2545 95.8359 40 97.2177 37.2363 97.2177C33.0909 97.2177 30.5454 94.8177 30.5454 89.7995Z" fill="#20201F"/>
<path d="M41.2363 70.8184H44.4363L41.6 75.7638H39.2727L41.2363 70.8184Z" fill="#20201F"/>
</svg>
