<svg width="189" height="55" viewBox="0 0 189 55" fill="none" xmlns="http://www.w3.org/2000/svg">
<g clip-path="url(#clip0_1349_16713)">
<path d="M121.677 41.631V19.8848H124.808L125.231 24.2848H125.484C126.669 21.1541 129.038 19.5464 132.508 19.5464V22.7618C127.6 22.8464 125.231 25.7233 125.231 31.5618V41.631H121.677Z" fill="#20201F"/>
<path d="M142.322 28.6845H148.076V27.0768C148.076 23.946 146.384 22.3384 143.084 22.3384C140.122 22.3384 138.092 23.8614 138.007 26.2307H134.538C134.707 24.1999 135.553 22.5922 137.161 21.323C138.769 20.0537 140.799 19.4614 143.253 19.4614C148.669 19.4614 151.63 22.3384 151.63 27.3307V37.2307C151.63 38.0768 151.715 38.923 152.984 38.923C153.238 38.923 153.576 38.923 153.746 38.8384V41.6307C153.153 41.7999 152.561 41.8845 151.884 41.8845C149.43 41.8845 148.246 40.6153 148.246 38.0768H147.992C147.061 40.446 144.184 42.0537 140.799 42.0537C136.484 42.0537 133.522 39.5153 133.522 35.7076C133.607 31.1383 136.907 28.6845 142.322 28.6845ZM141.561 39.0076C145.453 39.0076 148.076 36.2999 148.076 32.4076V31.3076H142.576C139.022 31.3076 137.33 32.746 137.33 35.2845C137.246 37.6537 138.938 39.0076 141.561 39.0076Z" fill="#20201F"/>
<path d="M157.3 41.6307V19.8845H160.431L160.854 23.946H161.192C162.546 20.9845 164.746 19.4614 167.877 19.4614C170.923 19.4614 173.207 21.4076 174.223 24.1999H174.561C175.831 21.1537 178.538 19.4614 181.669 19.4614C186.238 19.4614 188.946 22.7614 188.946 28.2614V41.6307H185.308V28.6845C185.308 24.7076 183.7 22.7614 180.569 22.7614C176.761 22.7614 174.9 25.6383 174.9 30.2076V41.7153H171.346V28.6845C171.346 24.7076 169.738 22.7614 166.607 22.7614C163.054 22.7614 160.854 25.723 160.854 30.123V41.7153H157.3V41.6307Z" fill="#20201F"/>
<path d="M67.3535 26.4846C67.3535 17.1769 73.0227 11 81.4843 11C88.4227 11 93.5843 14.9769 94.515 21.2385H90.7074C89.692 16.9231 86.1381 14.3846 81.4843 14.3846C74.8843 14.3846 71.1612 19.2077 71.1612 26.5692C71.1612 34.0154 74.8843 38.7539 81.3997 38.7539C86.5612 38.7539 89.7766 35.9615 90.7074 31.7308H94.515C93.6689 37.9923 88.5074 42.0538 81.4843 42.0538C72.9381 42.0538 67.3535 35.8769 67.3535 26.4846Z" fill="#20201F"/>
<path d="M98.4072 33.4229V20.0537H101.961V32.746C101.961 36.9768 103.569 38.9229 107.123 38.9229C110.846 38.9229 113.3 36.1306 113.3 31.4768V20.0537H116.769V41.6306H113.469L113.3 37.6537H112.961C111.946 40.446 109.323 42.0537 106.107 42.0537C101.369 42.0537 98.4072 39.1768 98.4072 33.4229Z" fill="#20201F"/>
<path d="M28.1764 55.3385C12.7764 55.3385 0.337891 42.8155 0.337891 27.5001C0.337891 12.1847 12.861 -0.338379 28.1764 -0.338379C43.4917 -0.338379 56.0148 12.1847 56.0148 27.5001C56.0148 42.8155 43.4917 55.3385 28.1764 55.3385Z" fill="#FF8241"/>
<path d="M28.0928 21.4077C24.2851 21.4077 21.1543 18.2769 21.1543 14.4692C21.1543 10.6615 24.2851 7.53076 28.0928 7.53076C31.9004 7.53076 35.0312 10.6615 35.0312 14.4692C35.0312 18.2769 31.9851 21.4077 28.0928 21.4077ZM28.0928 10.2385C25.8081 10.2385 23.9466 12.1 23.9466 14.3846C23.9466 16.6692 25.8081 18.6154 28.0928 18.6154C30.3774 18.6154 32.2389 16.7538 32.2389 14.4692C32.2389 12.1846 30.462 10.2385 28.0928 10.2385Z" fill="white"/>
<path d="M16.1618 27.8387C13.1156 27.8387 10.5771 25.3002 10.5771 22.2541C10.5771 19.2079 13.1156 16.6694 16.1618 16.6694C19.2079 16.6694 21.7464 19.2079 21.7464 22.2541C21.7464 25.3002 19.2925 27.8387 16.1618 27.8387ZM16.1618 19.4617C14.6387 19.4617 13.3695 20.731 13.3695 22.2541C13.3695 23.7771 14.6387 25.0464 16.1618 25.0464C17.6848 25.0464 18.9541 23.7771 18.9541 22.2541C18.9541 20.731 17.7695 19.4617 16.1618 19.4617Z" fill="white"/>
<path d="M40.1081 27.8387C37.0619 27.8387 34.5234 25.3002 34.5234 22.2541C34.5234 19.2079 37.0619 16.6694 40.1081 16.6694C43.1542 16.6694 45.6927 19.2079 45.6927 22.2541C45.6927 25.3002 43.2388 27.8387 40.1081 27.8387ZM40.1081 19.4617C38.585 19.4617 37.3157 20.731 37.3157 22.2541C37.3157 23.7771 38.585 25.0464 40.1081 25.0464C41.6311 25.0464 42.9004 23.7771 42.9004 22.2541C42.9004 20.731 41.7157 19.4617 40.1081 19.4617Z" fill="white"/>
<path d="M28.0922 47.6385C18.5307 47.6385 10.7461 39.8539 10.7461 30.2923V28.9385H12.0999C14.4692 28.9385 16.6692 29.3616 18.8692 30.2923L17.7692 32.8308C16.4153 32.2385 15.0615 31.9 13.623 31.7308C14.3846 39.0077 20.5615 44.7616 28.0922 44.7616V47.6385Z" fill="white"/>
<path d="M28.0928 47.6385V44.8462C35.6235 44.8462 41.8005 39.0923 42.562 31.8154C41.1235 31.9846 39.7697 32.3231 38.4159 32.8308L37.3159 30.2923C39.4312 29.3616 41.7159 28.9385 44.0005 28.9385H45.3543V30.2923C45.4389 39.8539 37.6543 47.6385 28.0928 47.6385Z" fill="white"/>
<path d="M28.0925 47.6384C26.4002 47.6384 24.7079 46.9615 23.4387 45.6923C19.8848 42.1384 18.6156 36.8923 20.1387 32.0692C20.9848 29.4461 22.6771 27.1615 25.131 25.3846L28.1771 23.1846L31.2233 25.3846C33.6771 27.1615 35.3694 29.5307 36.2156 32.0692C37.7387 36.8923 36.4694 42.1384 32.9156 45.6923C31.4771 46.9615 29.7848 47.6384 28.0925 47.6384ZM28.0925 26.5692L26.7387 27.5846C24.7925 29.023 23.354 30.8846 22.7617 32.9153C21.5771 36.723 22.5925 40.9538 25.3848 43.7461C26.9079 45.2692 29.2771 45.2692 30.8002 43.7461C33.6771 40.8692 34.6925 36.723 33.4233 32.9153C32.7464 30.8846 31.3925 29.023 29.4464 27.5846L28.0925 26.5692Z" fill="white"/>
<path d="M108.561 11.2539H112.284L108.984 17.0077H106.361L108.561 11.2539Z" fill="#20201F"/>
</g>
<defs>
<clipPath id="clip0_1349_16713">
<rect width="188.692" height="55" fill="white"/>
</clipPath>
</defs>
</svg>
