<svg width="23" height="25" viewBox="0 0 23 25" fill="none" xmlns="http://www.w3.org/2000/svg">
<path d="M5.25 7V0.999998C5.25 0.801085 5.32902 0.61032 5.46967 0.469668C5.61032 0.329015 5.80109 0.249998 6 0.249998C6.19891 0.249998 6.38968 0.329015 6.53033 0.469668C6.67098 0.61032 6.75 0.801085 6.75 0.999998V7C6.75 7.19891 6.67098 7.38968 6.53033 7.53033C6.38968 7.67098 6.19891 7.75 6 7.75C5.80109 7.75 5.61032 7.67098 5.46967 7.53033C5.32902 7.38968 5.25 7.19891 5.25 7ZM22.75 0.999998V24C22.75 24.1989 22.671 24.3897 22.5303 24.5303C22.3897 24.671 22.1989 24.75 22 24.75C21.8011 24.75 21.6103 24.671 21.4697 24.5303C21.329 24.3897 21.25 24.1989 21.25 24V17.75H15C14.8011 17.75 14.6103 17.671 14.4697 17.5303C14.329 17.3897 14.25 17.1989 14.25 17C14.25 16.4487 14.335 3.46875 21.705 0.311248C21.819 0.262473 21.9433 0.242727 22.0668 0.253779C22.1904 0.264831 22.3092 0.306335 22.4127 0.374576C22.5163 0.442817 22.6013 0.535666 22.6601 0.644811C22.719 0.753957 22.7499 0.875994 22.75 0.999998ZM21.25 2.25C16.6512 5.28625 15.8975 13.685 15.7738 16.25H21.25V2.25ZM10.74 0.874998C10.7236 0.77782 10.6882 0.684826 10.6358 0.601327C10.5835 0.517828 10.5152 0.445458 10.4349 0.38835C10.3545 0.331242 10.2638 0.290514 10.1677 0.268492C10.0716 0.246469 9.97218 0.243582 9.875 0.259998C9.77782 0.276413 9.68483 0.311808 9.60133 0.364162C9.51783 0.416516 9.44546 0.484804 9.38835 0.565127C9.33124 0.64545 9.29052 0.736234 9.26849 0.832297C9.24647 0.92836 9.24358 1.02782 9.26 1.125L10.25 7.06C10.25 8.18717 9.80223 9.26817 9.0052 10.0652C8.20817 10.8622 7.12717 11.31 6 11.31C4.87283 11.31 3.79183 10.8622 2.9948 10.0652C2.19777 9.26817 1.75 8.18717 1.75 7.06L2.74 1.125C2.77315 0.928738 2.72698 0.727346 2.61165 0.565127C2.49631 0.402908 2.32126 0.29315 2.125 0.259998C1.92874 0.226846 1.72735 0.273016 1.56513 0.388351C1.40291 0.503686 1.29315 0.678738 1.26 0.874998L0.26 6.875C0.253505 6.91635 0.250162 6.95814 0.25 7C0.251805 8.39449 0.75966 9.74094 1.67924 10.7893C2.59882 11.8376 3.86763 12.5165 5.25 12.7V24C5.25 24.1989 5.32902 24.3897 5.46967 24.5303C5.61032 24.671 5.80109 24.75 6 24.75C6.19891 24.75 6.38968 24.671 6.53033 24.5303C6.67098 24.3897 6.75 24.1989 6.75 24V12.7C8.13237 12.5165 9.40118 11.8376 10.3208 10.7893C11.2403 9.74094 11.7482 8.39449 11.75 7C11.7498 6.95814 11.7465 6.91635 11.74 6.875L10.74 0.874998Z" fill="#20201F"/>
</svg>
