<svg width="324" height="142" viewBox="0 0 324 142" fill="none" xmlns="http://www.w3.org/2000/svg">
<path d="M6 132.9V97.6H10.4V113H30.6V97.7H35V133H30.6V116.8H10.4V133H6V132.9Z" fill="#20201F"/>
<path d="M43.8996 129.9C41.6996 127.5 40.5996 124.3 40.5996 120.4C40.5996 116.4 41.6996 113.2 43.7996 110.9C45.9996 108.5 48.8996 107.3 52.4996 107.3C59.4996 107.3 63.6996 111.7 63.6996 118.7C63.6996 119.7 63.6996 120.6 63.5996 121.3H44.8996C44.8996 126.9 47.7996 130.1 52.6996 130.1C56.3996 130.1 59.0996 128.2 59.6996 125.5H63.8996C63.4996 127.9 62.1996 129.9 60.0996 131.4C58.0996 132.9 55.5996 133.6 52.5996 133.6C48.9996 133.4 46.0996 132.2 43.8996 129.9ZM59.4996 118.1C59.4996 113.3 56.8996 110.7 52.3996 110.7C47.9996 110.7 44.9996 113.7 44.8996 118.1H59.4996Z" fill="#20201F"/>
<path d="M77.3996 117.9H84.0996V116C84.0996 112.4 82.1996 110.5 78.2996 110.5C74.7996 110.5 72.4996 112.3 72.3996 115H68.2996C68.4996 112.6 69.4996 110.7 71.2996 109.3C73.1996 107.8 75.5996 107.1 78.3996 107.1C84.6996 107.1 88.1996 110.5 88.1996 116.2V127.7C88.1996 128.7 88.2996 129.6 89.6996 129.6C89.9996 129.6 90.3996 129.6 90.5996 129.5V132.7C89.8996 132.9 89.1996 133 88.4996 133C85.5996 133 84.1996 131.5 84.1996 128.6H83.8996C82.7996 131.4 79.4996 133.2 75.4996 133.2C70.4996 133.2 67.0996 130.2 67.0996 125.8C67.2996 120.7 71.1996 117.9 77.3996 117.9ZM76.5996 129.9C81.0996 129.9 84.0996 126.8 84.0996 122.3V120.9H77.6996C73.5996 120.9 71.5996 122.6 71.5996 125.5C71.5996 128.3 73.4996 129.9 76.5996 129.9Z" fill="#20201F"/>
<path d="M95.2998 132.9V97.4H99.4998V132.9H95.2998Z" fill="#20201F"/>
<path d="M103.2 107.7H107.6V100L111.8 98.4V107.6H117.5V111.1H111.8V125.7C111.8 127.7 112.1 129.5 115.3 129.7C116.2 129.7 116.9 129.6 117.4 129.4V132.9C116.5 133.1 115.4 133.3 114.3 133.3C109.9 133.3 107.6 130.9 107.6 126.1V111.2H103.2V107.7Z" fill="#20201F"/>
<path d="M121.5 132.9V97.4H125.7V112.2H126C127.5 109.1 130.8 107.1 134.5 107.1C140 107.1 143.3 111 143.3 117.3V132.9H139.1V117.8C139.1 113.2 137.1 110.9 133.1 110.9C128.6 110.9 125.7 114.3 125.7 119.6V132.9H121.5Z" fill="#20201F"/>
<path d="M166.2 132.9H161.8V97.6H166.2V132.9Z" fill="#20201F"/>
<path d="M173.4 132.9V107.7H177.1L177.6 112.4H177.9C179.4 109.2 182.6 107.2 186.4 107.2C191.9 107.2 195.2 111.2 195.2 117.4V132.9H191V117.8C191 113.2 189 110.9 185.1 110.9C180.6 110.9 177.7 114.4 177.7 119.7V132.9H173.4Z" fill="#20201F"/>
<path d="M204.1 125.3C204.1 128.3 206.5 130.1 210.4 130.1C213.9 130.1 216.1 128.6 216.1 125.9C216.1 124 215 122.9 212.7 122.4L207.3 121.4C202.8 120.6 200.5 118.4 200.5 114.7C200.5 110 204.2 107.2 210 107.2C216 107.2 219.6 110.2 219.7 114.9H215.7C215.6 112 213.7 110.5 210.1 110.5C206.7 110.5 204.7 112 204.7 114.4C204.7 115.8 205.3 116.7 206.3 117.3C207.3 117.7 207.8 117.9 208.8 118.1L213.8 119C218.2 119.8 220.4 122.1 220.4 126C220.4 130.6 216.4 133.5 210.3 133.5C203.9 133.5 200 130.3 200 125.4H204.1V125.3Z" fill="#20201F"/>
<path d="M225.7 103.4V97.9H229.9V103.4H225.7ZM225.7 132.9V107.7H229.9V132.9H225.7Z" fill="#20201F"/>
<path d="M238.3 130.5V130.2C236.8 129.8 235.8 128.3 235.8 126.8C235.8 124.8 237.1 123.2 239.1 122.6V122.3C236.7 120.8 235.5 118.5 235.5 115.5C235.5 113 236.4 111 238.1 109.5C239.9 108 242.2 107.2 245 107.2C247 107.2 248.6 107.5 249.8 108.3C250.8 105.6 253.6 103.9 257 103.9V107.4C254.7 107.4 252.8 108.4 252.3 109.9C253.8 111.4 254.6 113.4 254.6 115.8C254.6 120.7 250.9 124 245.3 124C244.1 124 243 123.9 241.9 123.6C240.4 123.8 239.7 124.6 239.7 125.9C239.7 127.4 240.8 128.1 243.1 128.1H249.8C254.6 128.1 257.4 130.5 257.4 134.4C257.4 139.2 252.9 141.8 245.3 141.8C238.1 141.8 234.7 139.4 234.7 135.6C234.5 133.1 236 131.3 238.3 130.5ZM245.3 138.5C250.5 138.5 253.1 137.1 253.1 134.4C253.1 132.4 251.8 131.4 249.3 131.4H242.5C239.7 131.4 238.3 132.5 238.3 134.7C238.3 137.3 240.6 138.5 245.3 138.5ZM245 120.9C248.4 120.9 250.4 118.8 250.4 115.6C250.4 112.3 248.3 110.2 245 110.2C241.7 110.2 239.6 112.3 239.6 115.6C239.6 118.9 241.7 120.9 245 120.9Z" fill="#20201F"/>
<path d="M261.3 132.9V97.4H265.5V112.2H265.8C267.3 109.1 270.6 107.1 274.3 107.1C279.8 107.1 283.1 111 283.1 117.3V132.9H278.9V117.8C278.9 113.2 276.9 110.9 272.9 110.9C268.4 110.9 265.5 114.3 265.5 119.6V132.9H261.3Z" fill="#20201F"/>
<path d="M286.1 107.7H290.5V100L294.7 98.4V107.6H300.4V111.1H294.7V125.7C294.7 127.7 295 129.5 298.2 129.7C299.1 129.7 299.8 129.6 300.3 129.4V132.9C299.4 133.1 298.3 133.3 297.2 133.3C292.8 133.3 290.5 130.9 290.5 126.1V111.2H286.1V107.7Z" fill="#20201F"/>
<path d="M307 125.3C307 128.3 309.4 130.1 313.3 130.1C316.8 130.1 319 128.6 319 125.9C319 124 317.9 122.9 315.6 122.4L310.2 121.4C305.7 120.6 303.4 118.4 303.4 114.7C303.4 110 307.1 107.2 312.9 107.2C318.9 107.2 322.5 110.2 322.6 114.9H318.6C318.5 112 316.6 110.5 313 110.5C309.6 110.5 307.6 112 307.6 114.4C307.6 115.8 308.2 116.7 309.2 117.3C310.2 117.7 310.7 117.9 311.7 118.1L316.7 119C321.1 119.8 323.3 122.1 323.3 126C323.3 130.6 319.3 133.5 313.2 133.5C306.8 133.5 302.9 130.3 302.9 125.4H307V125.3Z" fill="#20201F"/>
<path d="M39.7996 78.7C18.1996 78.7 0.599609 61.1 0.599609 39.5C0.599609 17.9 18.1996 0.299988 39.7996 0.299988C61.3996 0.299988 78.9996 17.9 78.9996 39.5C78.9996 61.1 61.4996 78.7 39.7996 78.7Z" fill="#9900FF"/>
<path d="M19.4 51.7L16.5 49.8C16.7 49.5 21.7 42 28.2 42.3C30 42.4 31.3 42.8 32.5 43.2C33.7 43.6 34.8 43.9 36.4 43.9C36.8 43.9 37.1 43.9 37.5 43.9C40 43.8 43 43.8 44.7 45.8C45.7 47 46 48.8 45.5 51.1L42.2 50.4C42.5 49.3 42.4 48.4 42.1 48.1C41.5 47.3 39.2 47.4 37.6 47.4C37.2 47.4 36.8 47.4 36.4 47.4C34.3 47.4 32.8 46.9 31.5 46.5C30.4 46.2 29.4 45.8 28 45.8C24.2 45.5 20.5 49.9 19.4 51.7Z" fill="white"/>
<path d="M23.5004 65.8L21.9004 62.8L24.4004 61.5C26.1004 60.6 28.0004 60 29.9004 59.8L44.1004 57.4C45.4004 57.2 46.7004 56.6 47.7004 55.7L62.2004 43.2L61.9004 42.9C60.8004 41.8 59.1004 41.7 57.8004 42.6L43.9004 52.1C42.6004 53 41.0004 53.6 39.4004 53.7L29.1004 54.4L28.9004 51L39.2004 50.3C40.2004 50.2 41.2004 49.9 42.0004 49.3L55.9004 39.8C58.5004 38 62.0004 38.2 64.3004 40.4L64.9004 41C65.5004 41.6 65.9004 42.4 65.8004 43.3C65.8004 44.2 65.4004 45 64.7004 45.5L49.8004 58.3C48.3004 59.6 46.5004 60.4 44.6004 60.7L30.4004 63.1C28.8004 63.3 27.3004 63.8 25.9004 64.5L23.5004 65.8Z" fill="white"/>
<path d="M30.5 27.3H27V39H30.5V27.3Z" fill="white"/>
<path d="M37.7002 18.2H34.2002V39H37.7002V18.2Z" fill="white"/>
<path d="M45 23.8H41.5V39H45V23.8Z" fill="white"/>
<path d="M52.2002 13.3H48.7002V39H52.2002V13.3Z" fill="white"/>
</svg>
