<svg width="231" height="102" viewBox="0 0 231 102" fill="none" xmlns="http://www.w3.org/2000/svg">
<path d="M3.93359 95.4637V70.1074H7.08034V81.1694H21.5268V70.1792H24.6735V95.5356H21.5268V83.899H7.08034V95.5356H3.93359V95.4637Z" fill="#20201F"/>
<path d="M31.0383 93.308C29.4649 91.5841 28.6782 89.2855 28.6782 86.4841C28.6782 83.6108 29.4649 81.3122 30.9668 79.6601C32.5401 77.9362 34.6141 77.0742 37.1887 77.0742C42.1949 77.0742 45.1986 80.2348 45.1986 85.2629C45.1986 85.9813 45.1987 86.6277 45.1271 87.1306H31.7535C31.7535 91.1531 33.8274 93.4517 37.3318 93.4517C39.9779 93.4517 41.9089 92.0869 42.338 90.1475H45.3417C45.0556 91.8714 44.1259 93.308 42.624 94.3855C41.1937 95.4629 39.4058 95.9658 37.2603 95.9658C34.6857 95.8221 32.6117 94.9601 31.0383 93.308ZM42.1949 84.832C42.1949 81.3841 40.3355 79.5165 37.1172 79.5165C33.9705 79.5165 31.825 81.6714 31.7535 84.832H42.1949Z" fill="#20201F"/>
<path d="M54.9964 84.6874H59.788V83.3226C59.788 80.7367 58.4292 79.3719 55.64 79.3719C53.1369 79.3719 51.492 80.6649 51.4205 82.6043H48.4883C48.6314 80.8804 49.3465 79.5156 50.6338 78.51C51.9927 77.4325 53.7091 76.9297 55.7116 76.9297C60.2171 76.9297 62.7202 79.3719 62.7202 83.4663V91.7269C62.7202 92.4452 62.7917 93.0917 63.793 93.0917C64.0075 93.0917 64.2936 93.0917 64.4366 93.0198V95.3184C63.936 95.4621 63.4354 95.5339 62.9348 95.5339C60.8608 95.5339 59.8595 94.4564 59.8595 92.3733H59.645C58.8583 94.3846 56.4982 95.6776 53.6376 95.6776C50.0617 95.6776 47.6301 93.5226 47.6301 90.3621C47.7732 86.6987 50.5623 84.6874 54.9964 84.6874ZM54.4242 93.3071C57.6425 93.3071 59.788 91.0804 59.788 87.848V86.8424H55.2109C52.2787 86.8424 50.8484 88.0635 50.8484 90.1466C50.8484 92.1579 52.2072 93.3071 54.4242 93.3071Z" fill="#20201F"/>
<path d="M67.7983 95.4629V69.9629H70.8021V95.4629H67.7983Z" fill="#20201F"/>
<path d="M73.4482 77.3619H76.595V71.8309L79.5987 70.6816V77.2901H83.6752V79.8042H79.5987V90.2915C79.5987 91.7281 79.8133 93.0211 82.1018 93.1647C82.7455 93.1647 83.2461 93.0929 83.6037 92.9492V95.4633C82.96 95.607 82.1733 95.7507 81.3866 95.7507C78.2399 95.7507 76.595 94.0267 76.595 90.5788V79.876H73.4482V77.3619Z" fill="#20201F"/>
<path d="M86.5356 95.4629V69.9629H89.5394V80.5939H89.7539C90.8267 78.3671 93.1867 76.9305 95.8329 76.9305C99.7663 76.9305 102.126 79.7319 102.126 84.2573V95.4629H99.1226V84.6164C99.1226 81.3122 97.6923 79.6601 94.8316 79.6601C91.6134 79.6601 89.5394 82.1023 89.5394 85.9094V95.4629H86.5356Z" fill="#20201F"/>
<path d="M118.504 95.4638H115.357V70.1074H118.504V95.4638Z" fill="#20201F"/>
<path d="M123.653 95.4625V77.3611H126.299L126.657 80.7372H126.872C127.944 78.4386 130.233 77.002 132.951 77.002C136.884 77.002 139.244 79.8752 139.244 84.3287V95.4625H136.24V84.616C136.24 81.3118 134.81 79.6597 132.021 79.6597C128.803 79.6597 126.729 82.1738 126.729 85.9808V95.4625H123.653Z" fill="#20201F"/>
<path d="M145.609 90.0034C145.609 92.1583 147.325 93.4513 150.115 93.4513C152.618 93.4513 154.191 92.3738 154.191 90.4343C154.191 89.0696 153.404 88.2794 151.759 87.9203L147.897 87.2019C144.679 86.6273 143.034 85.047 143.034 82.3893C143.034 79.0132 145.68 77.002 149.828 77.002C154.119 77.002 156.694 79.1569 156.766 82.5329H153.905C153.833 80.4498 152.475 79.3724 149.9 79.3724C147.468 79.3724 146.038 80.4498 146.038 82.1738C146.038 83.1794 146.467 83.8259 147.182 84.2569C147.897 84.5442 148.255 84.6879 148.97 84.8315L152.546 85.478C155.693 86.0527 157.266 87.7048 157.266 90.5062C157.266 93.8104 154.406 95.8935 150.043 95.8935C145.466 95.8935 142.677 93.5949 142.677 90.0752H145.609V90.0034Z" fill="#20201F"/>
<path d="M161.056 74.273V70.3223H164.06V74.273H161.056ZM161.056 95.4631V77.3617H164.06V95.4631H161.056Z" fill="#20201F"/>
<path d="M170.068 93.7399V93.5244C168.995 93.237 168.28 92.1596 168.28 91.0821C168.28 89.6455 169.21 88.4962 170.64 88.0652V87.8497C168.924 86.7723 168.066 85.1201 168.066 82.9652C168.066 81.1694 168.709 79.7328 169.925 78.6554C171.212 77.5779 172.857 77.0032 174.86 77.0032C176.29 77.0032 177.434 77.2187 178.293 77.7934C179.008 75.8539 181.01 74.6328 183.442 74.6328V77.1469C181.797 77.1469 180.438 77.8652 180.08 78.9427C181.153 80.0201 181.725 81.4568 181.725 83.1807C181.725 86.7004 179.079 89.0708 175.074 89.0708C174.216 89.0708 173.429 88.999 172.643 88.7835C171.57 88.9272 171.069 89.5018 171.069 90.4356C171.069 91.5131 171.856 92.0159 173.501 92.0159H178.293C181.725 92.0159 183.728 93.7399 183.728 96.5413C183.728 99.9891 180.51 101.857 175.074 101.857C169.925 101.857 167.493 100.133 167.493 97.4032C167.35 95.6075 168.423 94.3145 170.068 93.7399ZM175.074 99.4863C178.793 99.4863 180.653 98.4807 180.653 96.5413C180.653 95.1046 179.723 94.3863 177.935 94.3863H173.072C171.069 94.3863 170.068 95.1765 170.068 96.7568C170.068 98.6244 171.713 99.4863 175.074 99.4863ZM174.86 86.8441C177.291 86.8441 178.722 85.3356 178.722 83.037C178.722 80.6666 177.22 79.1582 174.86 79.1582C172.5 79.1582 170.998 80.6666 170.998 83.037C170.998 85.4075 172.5 86.8441 174.86 86.8441Z" fill="#20201F"/>
<path d="M186.517 95.4629V69.9629H189.52V80.5939H189.735C190.808 78.3671 193.168 76.9305 195.814 76.9305C199.747 76.9305 202.107 79.7319 202.107 84.2573V95.4629H199.104V84.6164C199.104 81.3122 197.673 79.6601 194.813 79.6601C191.594 79.6601 189.52 82.1023 189.52 85.9094V95.4629H186.517Z" fill="#20201F"/>
<path d="M204.252 77.3619H207.399V71.8309L210.403 70.6816V77.2901H214.479V79.8042H210.403V90.2915C210.403 91.7281 210.617 93.0211 212.906 93.1647C213.55 93.1647 214.05 93.0929 214.408 92.9492V95.4633C213.764 95.607 212.978 95.7507 212.191 95.7507C209.044 95.7507 207.399 94.0267 207.399 90.5788V79.876H204.252V77.3619Z" fill="#20201F"/>
<path d="M219.2 90.0034C219.2 92.1583 220.916 93.4513 223.706 93.4513C226.209 93.4513 227.782 92.3738 227.782 90.4343C227.782 89.0696 226.995 88.2794 225.35 87.9203L221.489 87.2019C218.27 86.6273 216.625 85.047 216.625 82.3893C216.625 79.0132 219.272 77.002 223.42 77.002C227.711 77.002 230.285 79.1569 230.357 82.5329H227.496C227.424 80.4498 226.066 79.3724 223.491 79.3724C221.059 79.3724 219.629 80.4498 219.629 82.1738C219.629 83.1794 220.058 83.8259 220.773 84.2569C221.489 84.5442 221.846 84.6879 222.561 84.8315L226.137 85.478C229.284 86.0527 230.857 87.7048 230.857 90.5062C230.857 93.8104 227.997 95.8935 223.634 95.8935C219.057 95.8935 216.268 93.5949 216.268 90.0752H219.2V90.0034Z" fill="#20201F"/>
<path d="M28.106 56.5303C12.6583 56.5303 0.0712891 43.8881 0.0712891 28.3726C0.0712891 12.8571 12.6583 0.214844 28.106 0.214844C43.5536 0.214844 56.1406 12.8571 56.1406 28.3726C56.1406 43.8881 43.6252 56.5303 28.106 56.5303Z" fill="#9900FF"/>
<path d="M13.5169 37.1354L11.4429 35.7706C11.5859 35.5551 15.1618 30.1678 19.8104 30.3832C21.0977 30.4551 22.0274 30.7424 22.8856 31.0297C23.7438 31.317 24.5305 31.5325 25.6748 31.5325C25.9608 31.5325 26.1754 31.5325 26.4614 31.5325C28.2494 31.4607 30.3949 31.4607 31.6107 32.8973C32.3258 33.7593 32.5404 35.0523 32.1828 36.7044L29.8228 36.2016C30.0373 35.4114 29.9658 34.7649 29.7512 34.5494C29.3221 33.9748 27.6772 34.0466 26.533 34.0466C26.2469 34.0466 25.9608 34.0466 25.6748 34.0466C24.1729 34.0466 23.1001 33.6875 22.1704 33.4001C21.3837 33.1847 20.6686 32.8973 19.6673 32.8973C16.9497 32.6818 14.3036 35.8424 13.5169 37.1354Z" fill="white"/>
<path d="M16.4494 47.2636L15.3052 45.1087L17.0931 44.1749C18.3089 43.5284 19.6677 43.0974 21.0265 42.9538L31.182 41.2298C32.1117 41.0862 33.0414 40.6552 33.7566 40.0087L44.1265 31.0298L43.912 30.8143C43.1253 30.0242 41.9095 29.9524 40.9798 30.5989L31.0389 37.4228C30.1092 38.0693 28.9649 38.5003 27.8207 38.5721L20.4544 39.0749L20.3114 36.6327L27.6776 36.1298C28.3928 36.058 29.108 35.8425 29.6801 35.4115L39.621 28.5876C41.4804 27.2946 43.9835 27.4383 45.6284 29.0186L46.0575 29.4496C46.4866 29.8805 46.7727 30.4552 46.7012 31.1017C46.7012 31.7482 46.4151 32.3228 45.9145 32.682L35.2584 41.8763C34.1857 42.8101 32.8984 43.3848 31.5395 43.6003L21.3841 45.3242C20.2399 45.4679 19.1671 45.827 18.1659 46.3298L16.4494 47.2636Z" fill="white"/>
<path d="M21.4552 19.6094H18.9521V28.0136H21.4552V19.6094Z" fill="white"/>
<path d="M26.6044 13.0723H24.1013V28.0131H26.6044V13.0723Z" fill="white"/>
<path d="M31.8251 17.0957H29.322V28.014H31.8251V17.0957Z" fill="white"/>
<path d="M36.9745 9.55273H34.4714V28.0133H36.9745V9.55273Z" fill="white"/>
</svg>
