<svg width="26" height="25" viewBox="0 0 26 25" fill="none" xmlns="http://www.w3.org/2000/svg">
<path d="M25.9594 24.8469V15.2578C25.9594 10.1203 23.2172 7.7297 19.5594 7.7297C16.6078 7.7297 15.2859 9.35314 14.55 10.4922V8.12189H8.99062C9.06406 9.6922 8.99062 24.8469 8.99062 24.8469H14.55V15.5063C14.55 15.0078 14.5859 14.5078 14.7328 14.1516C15.1344 13.1531 16.0484 12.1188 17.5844 12.1188C19.5969 12.1188 20.4016 13.6516 20.4016 15.9V24.8484L25.9594 24.8469ZM3.13281 5.83907C5.07031 5.83907 6.27812 4.55314 6.27812 2.94845C6.24219 1.30782 5.07031 0.0593872 3.16875 0.0593872C1.26719 0.0593872 0.0250015 1.30782 0.0250015 2.94845C0.0250015 4.5547 1.23125 5.83907 3.09844 5.83907H3.13281ZM5.9125 24.8469V8.12189H0.354689V24.8469H5.9125Z" fill="white"/>
</svg>
