<svg width="26" height="25" viewBox="0 0 26 25" fill="none" xmlns="http://www.w3.org/2000/svg">
    <path d="M25.9594 24.8469V15.2578C25.9594 10.1203 23.2172 7.72968 19.5594 7.72968C16.6078 7.72968 15.2859 9.35312 14.55 10.4922V8.12187H8.99062C9.06406 9.69218 8.99062 24.8469 8.99062 24.8469H14.55V15.5062C14.55 15.0078 14.5859 14.5078 14.7328 14.1516C15.1344 13.1531 16.0484 12.1187 17.5844 12.1187C19.5969 12.1187 20.4016 13.6516 20.4016 15.9V24.8484L25.9594 24.8469ZM3.13281 5.83906C5.07031 5.83906 6.27812 4.55312 6.27812 2.94843C6.24219 1.30781 5.07031 0.0593719 3.16875 0.0593719C1.26719 0.0593719 0.0250015 1.30781 0.0250015 2.94843C0.0250015 4.55468 1.23125 5.83906 3.09844 5.83906H3.13281ZM5.9125 24.8469V8.12187H0.354689V24.8469H5.9125Z" fill="#20201F"/>
    </svg>