<svg width="16" height="21" viewBox="0 0 16 21" fill="none" xmlns="http://www.w3.org/2000/svg">
<path d="M8 11.25C9.65685 11.25 11 9.90685 11 8.25C11 6.59315 9.65685 5.25 8 5.25C6.34315 5.25 5 6.59315 5 8.25C5 9.90685 6.34315 11.25 8 11.25Z" stroke="#20201F" stroke-linecap="round" stroke-linejoin="round"/>
<path d="M15.5 8.25C15.5 15 8 20.25 8 20.25C8 20.25 0.5 15 0.5 8.25C0.5 6.26088 1.29018 4.35322 2.6967 2.9467C4.10322 1.54018 6.01088 0.75 8 0.75C9.98912 0.75 11.8968 1.54018 13.3033 2.9467C14.7098 4.35322 15.5 6.26088 15.5 8.25V8.25Z" stroke="#20201F" stroke-linecap="round" stroke-linejoin="round"/>
<rect x="-175.5" y="-4276.5" width="1471" height="5823" rx="4.5" stroke="#9747FF" stroke-dasharray="10 5"/>
</svg>
