<svg width="44" height="39" viewBox="0 0 44 39" fill="none" xmlns="http://www.w3.org/2000/svg">
<g clip-path="url(#clip0_549_1650)">
<path d="M43.5472 21.9894H40.643C40.643 11.4635 32.1791 2.90425 21.7736 2.90425C11.3681 2.90425 2.90426 11.4635 2.90426 21.9894H0C0 9.86202 9.76659 0 21.7736 0C33.7806 0 43.5472 9.86202 43.5472 21.9894Z" fill="url(#paint0_linear_549_1650)"/>
<path d="M34.0005 28.5115V38.8839H31.0962V28.3912C31.0968 27.8738 30.9953 27.3614 30.7977 26.8832C30.6001 26.405 30.3101 25.9705 29.9445 25.6044C29.5788 25.2384 29.1446 24.948 28.6666 24.7498C28.1886 24.5517 27.6763 24.4497 27.1589 24.4497C25.0844 24.4497 23.2298 26.1093 23.2298 28.1464V38.8756H20.3256V28.1506C20.3256 26.1135 18.471 24.4539 16.3965 24.4539C15.8791 24.4539 15.3668 24.5559 14.8888 24.754C14.4108 24.9521 13.9766 25.2425 13.6109 25.6086C13.2453 25.9746 12.9553 26.4092 12.7577 26.8873C12.5601 27.3655 12.4586 27.878 12.4592 28.3954V38.8797H9.55493V28.5074C9.55717 27.0859 10.0022 25.7003 10.828 24.5433C11.6539 23.3863 12.8197 22.5153 14.1633 22.0513C15.507 21.5873 16.9618 21.5533 18.3256 21.9542C19.6895 22.355 20.8946 23.1707 21.7736 24.2879C22.6518 23.1671 23.8579 22.3482 25.2236 21.9454C26.5894 21.5427 28.0468 21.576 29.3927 22.041C30.7386 22.5059 31.9059 23.3791 32.7318 24.539C33.5578 25.6989 34.0013 27.0876 34.0005 28.5115Z" fill="white"/>
</g>
<defs>
<linearGradient id="paint0_linear_549_1650" x1="-2.70637" y1="10.805" x2="34.4782" y2="-3.88796" gradientUnits="userSpaceOnUse">
<stop stop-color="#9900FF"/>
<stop offset="1" stop-color="#FA1E32"/>
</linearGradient>
<clipPath id="clip0_549_1650">
<rect width="43.5638" height="39" fill="white"/>
</clipPath>
</defs>
</svg>
