<svg width="185" height="97" viewBox="0 0 185 97" fill="none" xmlns="http://www.w3.org/2000/svg">
<path d="M3.2373 70.0205H7.97321L15.7665 88.6644H15.9463L23.7995 70.0205H28.4755V95.9781H25.3582V81.9502L25.4781 73.6773H25.2383L15.8864 96.2178L6.47451 73.6773H6.23471L6.35461 81.9502V95.9781H3.2373V70.0205Z" fill="#20201F"/>
<path d="M31.8926 90.8822C31.8926 87.2254 34.4704 85.0672 38.9665 85.0672H44.2419V83.5086C44.2419 81.1706 42.983 79.6719 39.8657 79.6719C36.8683 79.6719 35.4295 80.9308 35.4295 82.8491H32.4921C32.4921 79.0125 35.6693 77.0342 39.9856 77.0342C44.3618 77.0342 47.2393 79.1923 47.2393 83.5685V92.7406C47.2393 93.6398 47.539 93.9995 48.1385 93.9995C48.5582 93.9995 48.9778 93.8796 49.2775 93.5799V95.798C48.798 96.0977 48.0186 96.2775 47.4192 96.2775C45.6207 96.2775 44.4817 95.3783 44.4817 93.3401V92.9204H44.2419C43.4626 94.9587 41.0047 96.2775 38.2471 96.2775C34.4104 96.3375 31.8926 94.1794 31.8926 90.8822ZM44.2419 89.6832V87.4052H39.0864C36.8683 87.4052 35.1298 88.1845 35.1298 90.5825C35.1298 92.6207 36.4486 93.7597 39.1463 93.7597C42.5034 93.7597 44.2419 91.6016 44.2419 89.6832Z" fill="#20201F"/>
<path d="M51.4354 77.3935H54.1331L54.3729 81.0503H54.5527C55.5119 78.5325 57.5501 77.0938 60.1879 77.0938C60.7873 77.0938 61.2669 77.1537 61.6266 77.3335V80.2111C61.207 80.0912 60.7873 80.0312 60.2478 80.0312C56.9507 80.0312 54.3729 82.2493 54.3729 86.7454V95.9774H51.3755V77.3935H51.4354Z" fill="#20201F"/>
<path d="M63.665 70.0205H66.6624V86.3864L75.3549 77.3941H79.2516L71.9978 84.7078L79.4914 95.9781H76.0144L69.8397 86.746L66.6624 89.9832V95.9781H63.665V70.0205Z" fill="#20201F"/>
<path d="M79.5518 86.6858C79.5518 80.9308 83.0288 77.0342 88.484 77.0342C93.3398 77.0342 96.577 80.3313 96.577 85.2471C96.577 86.0863 96.5171 86.8057 96.4571 87.2853H82.6691C82.9089 91.4217 85.067 93.6398 88.4241 93.6398C91.2416 93.6398 93.16 92.321 93.6396 90.3427H96.637C96.0974 93.8796 92.7404 96.2775 88.4241 96.2775C82.9688 96.3375 79.5518 92.5608 79.5518 86.6858ZM93.4597 84.9473C93.3998 81.5303 91.4814 79.7318 88.3042 79.7318C85.3667 79.7318 83.1486 81.5902 82.729 84.9473H93.4597Z" fill="#20201F"/>
<path d="M100.474 92.2008V79.9714H97.2964V77.4536H100.474V72.0582L103.471 71.3389V77.4536H107.607V79.9714H103.411V91.1817C103.411 92.8603 103.771 93.6995 105.569 93.6995C106.528 93.6995 107.188 93.4597 107.548 93.2199V95.7977C106.888 96.0975 105.749 96.3372 104.67 96.3372C102.272 96.3372 100.474 95.3181 100.474 92.2008Z" fill="#20201F"/>
<path d="M108.926 87.9443H112.163C112.283 91.781 114.561 93.7593 119.057 93.7593C123.193 93.7593 125.591 91.781 125.591 88.9035C125.591 85.6064 122.654 84.9469 121.455 84.6472L116.839 83.6281C114.381 83.1485 109.525 82.0095 109.525 76.794C109.525 72.4777 113.182 69.6602 118.757 69.6602C124.692 69.6602 127.929 72.6576 127.989 77.1537H124.812C124.572 73.7366 122.234 72.178 118.517 72.178C114.921 72.178 112.822 73.7966 112.822 76.3743C112.822 79.4317 115.76 80.211 117.438 80.5707L122.114 81.5299C124.872 82.0694 128.889 83.688 128.889 88.6038C128.889 93.4596 125.052 96.2771 119.117 96.2771C112.223 96.3371 108.986 92.8001 108.926 87.9443Z" fill="#20201F"/>
<path d="M130.927 86.6858C130.927 80.9308 134.404 77.0342 139.919 77.0342C144.236 77.0342 147.413 79.612 147.833 83.3887H144.835C144.236 80.8709 142.197 79.7318 139.86 79.7318C136.023 79.7318 134.105 82.5494 134.105 86.6858C134.105 91.1819 136.323 93.5799 139.86 93.5799C142.677 93.5799 144.655 91.9613 144.955 89.6233H148.012C147.653 93.6398 144.356 96.2775 139.86 96.2775C134.344 96.3375 130.927 92.5608 130.927 86.6858Z" fill="#20201F"/>
<path d="M149.631 90.8822C149.631 87.2254 152.209 85.0672 156.705 85.0672H161.98V83.5086C161.98 81.1706 160.721 79.6719 157.604 79.6719C154.607 79.6719 153.168 80.9308 153.168 82.8491H150.17C150.17 79.0125 153.348 77.0342 157.664 77.0342C162.04 77.0342 164.918 79.1923 164.918 83.5685V92.7406C164.918 93.6398 165.217 93.9995 165.817 93.9995C166.236 93.9995 166.656 93.8796 166.956 93.5799V95.798C166.476 96.0977 165.697 96.2775 165.097 96.2775C163.299 96.2775 162.16 95.3783 162.16 93.3401V92.9204H161.92C161.141 94.9587 158.683 96.2775 155.925 96.2775C152.149 96.3375 149.631 94.1794 149.631 90.8822ZM161.92 89.6832V87.4052H156.765C154.547 87.4052 152.808 88.1845 152.808 90.5825C152.808 92.6207 154.127 93.7597 156.825 93.7597C160.182 93.7597 161.92 91.6016 161.92 89.6832Z" fill="#20201F"/>
<path d="M169.114 77.3939H171.932L172.111 80.8109H172.351C173.25 78.413 175.469 77.0342 178.346 77.0342C182.303 77.0342 185 79.3722 185 84.5277V95.9778H182.003V85.0672C182.003 81.4104 180.564 79.7318 177.507 79.7318C174.21 79.7318 172.111 82.1298 172.111 86.1463V95.9178H169.114V77.3939Z" fill="#20201F"/>
<path d="M27.755 55.512C12.4682 55.512 -0.000976562 43.0428 -0.000976562 27.756C-0.000976562 12.4692 12.4682 0 27.755 0C43.0418 0 55.511 12.4692 55.511 27.756C55.511 43.0428 43.0418 55.512 27.755 55.512Z" fill="#FB4B5B"/>
<path d="M29.7929 20.6221C28.4141 20.6221 26.9753 19.9626 26.136 18.5838C25.2968 17.205 25.2968 15.4066 26.136 14.0877C27.8745 11.39 31.7112 11.39 33.4497 14.0877C34.289 15.4665 34.289 17.265 33.4497 18.5838C32.5505 19.9027 31.1717 20.6221 29.7929 20.6221ZM29.7929 14.8071C29.4332 14.8071 29.0136 14.927 28.7138 15.2267C28.1143 15.8262 28.1143 16.7854 28.7138 17.3249C29.3133 17.9244 30.2725 17.9244 30.812 17.3249C31.4115 16.7254 31.4115 15.7663 30.812 15.2267C30.5123 14.9869 30.1526 14.8071 29.7929 14.8071Z" fill="white"/>
<path d="M26.1363 17.7439H12.6479C12.6479 17.7439 13.5472 16.1853 14.7461 14.9863C15.6454 14.9863 26.1363 14.9863 26.1363 14.9863V17.7439Z" fill="white"/>
<path d="M41.0035 28.2361C39.8645 28.2361 38.7854 27.8164 37.9462 26.9771C37.1668 26.1978 36.6873 25.1187 36.6873 23.9198C36.6873 22.7808 37.1069 21.7017 37.9462 20.8624C38.7255 20.0831 39.8046 19.6035 41.0035 19.6035C42.1425 19.6035 43.2216 20.0232 44.0609 20.8624C44.8402 21.6418 45.3198 22.7208 45.3198 23.9198C45.3198 25.0588 44.9002 26.1379 44.0609 26.9771C43.2216 27.8164 42.1425 28.2361 41.0035 28.2361ZM41.0035 22.481C40.5839 22.481 40.2242 22.6609 39.9245 22.9007C39.6247 23.1405 39.5048 23.5601 39.5048 23.9797C39.5048 24.3994 39.6847 24.7591 39.9245 25.0588C40.464 25.5983 41.4831 25.5983 42.0226 25.0588C42.3224 24.7591 42.4423 24.3994 42.4423 23.9797C42.4423 23.5601 42.2624 23.2004 42.0226 22.9007C41.7829 22.6009 41.3632 22.481 41.0035 22.481Z" fill="white"/>
<path d="M38.0661 25.4783C38.0661 25.4783 16.6047 25.4783 9.95044 25.4783C10.0104 24.2794 10.43 22.7207 10.43 22.7207H38.0661V25.4783Z" fill="white"/>
<path d="M36.8067 43.5232C35.6677 43.5232 34.5887 43.1035 33.7494 42.2642C32.9701 41.4849 32.4905 40.4059 32.4905 39.2069C32.4905 38.0679 32.9101 36.9888 33.7494 36.1495C34.5287 35.3702 35.6078 34.8906 36.8067 34.8906C38.0057 34.8906 39.0248 35.3103 39.8641 36.1495C40.6434 36.9289 41.123 38.0079 41.123 39.2069C41.123 40.3459 40.7034 41.425 39.8641 42.2642C39.0248 43.1035 37.9458 43.5232 36.8067 43.5232ZM36.8067 37.7681C36.3871 37.7681 36.0274 37.948 35.7277 38.1878C35.4279 38.4875 35.308 38.8472 35.308 39.2668C35.308 39.6865 35.4879 40.0462 35.7277 40.3459C36.2672 40.8854 37.2863 40.8854 37.8259 40.3459C38.1256 40.0462 38.2455 39.6865 38.2455 39.2668C38.2455 38.8472 38.0657 38.4875 37.8259 38.1878C37.5861 37.888 37.1664 37.7681 36.8067 37.7681Z" fill="white"/>
<path d="M33.2702 40.6453C33.2702 40.6453 20.3214 40.6453 15.7054 40.6453C14.4465 39.5662 13.2476 37.8877 13.2476 37.8877H33.2702V40.6453Z" fill="white"/>
<path d="M24.5782 35.9095C23.4992 35.9095 22.3601 35.4899 21.5209 34.6506C19.8423 32.972 19.8423 30.2744 21.5209 28.5958C23.1994 26.9173 25.8971 26.9173 27.5756 28.5958C29.2542 30.2744 29.2542 32.972 27.5756 34.6506C26.7963 35.4899 25.6573 35.9095 24.5782 35.9095ZM24.5782 30.0945C24.2185 30.0945 23.7989 30.2144 23.4992 30.5142C22.8997 31.1136 22.8997 32.0728 23.4992 32.6123C24.0986 33.2118 25.0578 33.2118 25.5974 32.6123C26.1968 32.0129 26.1968 31.0537 25.5974 30.5142C25.3576 30.2744 24.9379 30.0945 24.5782 30.0945Z" fill="white"/>
<path d="M22.5399 32.9725C22.5399 32.9725 13.7275 32.9725 10.79 32.9725C10.3704 31.8334 10.1306 30.2148 10.1306 30.2148H22.5399V32.9725Z" fill="white"/>
</svg>
