<svg width="266" height="139" viewBox="0 0 266 139" fill="none" xmlns="http://www.w3.org/2000/svg">
<path d="M5.59473 100.47H12.3543L23.4777 127.08H23.7344L34.9434 100.47H41.6174V137.519H37.1681V117.497L37.3392 105.689H36.997L23.6489 137.861L10.2152 105.689H9.87296L10.0441 117.497V137.519H5.59473V100.47Z" fill="#20201F"/>
<path d="M46.4951 130.246C46.4951 125.027 50.1744 121.946 56.5917 121.946H64.1214V119.722C64.1214 116.385 62.3246 114.246 57.8752 114.246C53.597 114.246 51.5434 116.042 51.5434 118.78H47.3508C47.3508 113.304 51.8857 110.481 58.0463 110.481C64.2926 110.481 68.3997 113.561 68.3997 119.807V132.899C68.3997 134.182 68.8275 134.695 69.6831 134.695C70.2821 134.695 70.881 134.524 71.3089 134.097V137.262C70.6243 137.69 69.512 137.947 68.6564 137.947C66.0894 137.947 64.4637 136.663 64.4637 133.754V133.155H64.1214C63.0091 136.065 59.5009 137.947 55.565 137.947C50.0888 138.033 46.4951 134.952 46.4951 130.246ZM64.1214 128.535V125.283H56.7629C53.597 125.283 51.1156 126.396 51.1156 129.818C51.1156 132.727 52.998 134.353 56.8484 134.353C61.6401 134.353 64.1214 131.273 64.1214 128.535Z" fill="#20201F"/>
<path d="M74.3883 110.994H78.2387L78.581 116.213H78.8377C80.2067 112.62 83.1159 110.566 86.8807 110.566C87.7364 110.566 88.4209 110.652 88.9343 110.908V115.016C88.3353 114.844 87.7364 114.759 86.9663 114.759C82.2603 114.759 78.581 117.925 78.581 124.342V137.519H74.3027V110.994H74.3883Z" fill="#20201F"/>
<path d="M91.8438 100.47H96.122V123.829L108.529 110.994H114.091L103.737 121.433L114.433 137.519H109.47L100.657 124.342L96.122 128.963V137.519H91.8438V100.47Z" fill="#20201F"/>
<path d="M114.519 124.257C114.519 116.042 119.481 110.481 127.268 110.481C134.198 110.481 138.819 115.187 138.819 122.203C138.819 123.401 138.733 124.428 138.648 125.112H118.968C119.31 131.016 122.391 134.182 127.182 134.182C131.204 134.182 133.942 132.3 134.626 129.476H138.904C138.134 134.524 133.343 137.947 127.182 137.947C119.396 138.033 114.519 132.642 114.519 124.257ZM134.37 121.775C134.284 116.898 131.546 114.331 127.011 114.331C122.818 114.331 119.652 116.984 119.053 121.775H134.37Z" fill="#20201F"/>
<path d="M144.382 132.129V114.673H139.847V111.08H144.382V103.379L148.66 102.352V111.08H154.564V114.673H148.574V130.674C148.574 133.07 149.088 134.268 151.655 134.268C153.024 134.268 153.965 133.925 154.478 133.583V137.262C153.537 137.69 151.911 138.033 150.371 138.033C146.949 138.033 144.382 136.578 144.382 132.129Z" fill="#20201F"/>
<path d="M156.445 126.053H161.066C161.237 131.53 164.488 134.353 170.906 134.353C176.81 134.353 180.232 131.53 180.232 127.422C180.232 122.716 176.04 121.775 174.328 121.347L167.74 119.893C164.232 119.208 157.301 117.583 157.301 110.138C157.301 103.978 162.52 99.9562 170.478 99.9562C178.949 99.9562 183.569 104.234 183.655 110.652H179.12C178.778 105.775 175.441 103.55 170.136 103.55C165.002 103.55 162.007 105.86 162.007 109.539C162.007 113.903 166.2 115.016 168.595 115.529L175.27 116.898C179.206 117.668 184.938 119.978 184.938 126.995C184.938 133.925 179.462 137.947 170.991 137.947C161.151 138.032 156.531 132.984 156.445 126.053Z" fill="#20201F"/>
<path d="M187.848 124.257C187.848 116.042 192.81 110.481 200.682 110.481C206.843 110.481 211.378 114.16 211.977 119.551H207.699C206.843 115.957 203.934 114.331 200.597 114.331C195.121 114.331 192.383 118.353 192.383 124.257C192.383 130.674 195.548 134.097 200.597 134.097C204.618 134.097 207.442 131.786 207.87 128.449H212.234C211.72 134.182 207.014 137.947 200.597 137.947C192.725 138.033 187.848 132.642 187.848 124.257Z" fill="#20201F"/>
<path d="M214.544 130.246C214.544 125.027 218.223 121.946 224.641 121.946H232.17V119.722C232.17 116.385 230.373 114.246 225.924 114.246C221.646 114.246 219.592 116.042 219.592 118.78H215.314C215.314 113.304 219.849 110.481 226.01 110.481C232.256 110.481 236.363 113.561 236.363 119.807V132.899C236.363 134.182 236.791 134.695 237.646 134.695C238.245 134.695 238.844 134.524 239.272 134.097V137.262C238.588 137.69 237.475 137.947 236.62 137.947C234.053 137.947 232.427 136.663 232.427 133.754V133.155H232.085C230.972 136.065 227.464 137.947 223.528 137.947C218.138 138.033 214.544 134.952 214.544 130.246ZM232.085 128.535V125.283H224.726C221.56 125.283 219.079 126.396 219.079 129.818C219.079 132.727 220.961 134.353 224.812 134.353C229.603 134.353 232.085 131.273 232.085 128.535Z" fill="#20201F"/>
<path d="M242.353 110.994H246.374L246.631 115.871H246.973C248.256 112.449 251.422 110.481 255.529 110.481C261.177 110.481 265.027 113.818 265.027 121.176V137.519H260.749V121.946C260.749 116.727 258.695 114.331 254.332 114.331C249.626 114.331 246.631 117.754 246.631 123.487V137.434H242.353V110.994Z" fill="#20201F"/>
<path d="M40.5891 79.763C18.7701 79.763 0.972656 61.9655 0.972656 40.1465C0.972656 18.3275 18.7701 0.53009 40.5891 0.53009C62.4081 0.53009 80.2055 18.3275 80.2055 40.1465C80.2055 61.9655 62.4081 79.763 40.5891 79.763Z" fill="#FB4B5B"/>
<path d="M43.4977 29.9644C41.5298 29.9644 39.4762 29.0232 38.2783 27.0552C37.0804 25.0872 37.0804 22.5203 38.2783 20.6379C40.7597 16.7874 46.2358 16.7874 48.7172 20.6379C49.9151 22.6058 49.9151 25.1728 48.7172 27.0552C47.4337 28.9376 45.4657 29.9644 43.4977 29.9644ZM43.4977 21.6646C42.9844 21.6646 42.3854 21.8358 41.9576 22.2636C41.1019 23.1192 41.1019 24.4883 41.9576 25.2583C42.8132 26.114 44.1823 26.114 44.9523 25.2583C45.808 24.4027 45.808 23.0337 44.9523 22.2636C44.5245 21.9213 44.0111 21.6646 43.4977 21.6646Z" fill="white"/>
<path d="M38.2784 25.8573H19.0264C19.0264 25.8573 20.3098 23.6326 22.0211 21.9214C23.3046 21.9214 38.2784 21.9214 38.2784 21.9214V25.8573Z" fill="white"/>
<path d="M59.4985 40.8309C57.8728 40.8309 56.3327 40.2319 55.1348 39.034C54.0224 37.9217 53.3379 36.3815 53.3379 34.6702C53.3379 33.0445 53.9368 31.5044 55.1348 30.3064C56.2471 29.1941 57.7872 28.5096 59.4985 28.5096C61.1243 28.5096 62.6644 29.1085 63.8623 30.3064C64.9747 31.4188 65.6592 32.9589 65.6592 34.6702C65.6592 36.296 65.0603 37.8361 63.8623 39.034C62.6644 40.2319 61.1243 40.8309 59.4985 40.8309ZM59.4985 32.6167C58.8996 32.6167 58.3862 32.8734 57.9584 33.2156C57.5306 33.5579 57.3594 34.1569 57.3594 34.7558C57.3594 35.3548 57.6161 35.8681 57.9584 36.296C58.7285 37.0661 60.1831 37.0661 60.9532 36.296C61.381 35.8681 61.5521 35.3548 61.5521 34.7558C61.5521 34.1569 61.2954 33.6435 60.9532 33.2156C60.6109 32.7878 60.0119 32.6167 59.4985 32.6167Z" fill="white"/>
<path d="M55.3056 36.895C55.3056 36.895 24.6735 36.895 15.1758 36.895C15.2613 35.1837 15.8603 32.959 15.8603 32.959H55.3056V36.895Z" fill="white"/>
<path d="M53.5083 62.6501C51.8826 62.6501 50.3424 62.0511 49.1445 60.8532C48.0322 59.7408 47.3477 58.2007 47.3477 56.4894C47.3477 54.8637 47.9466 53.3235 49.1445 52.1256C50.2569 51.0133 51.797 50.3287 53.5083 50.3287C55.2196 50.3287 56.6742 50.9277 57.8721 52.1256C58.9845 53.2379 59.669 54.7781 59.669 56.4894C59.669 58.1151 59.07 59.6553 57.8721 60.8532C56.6742 62.0511 55.134 62.6501 53.5083 62.6501ZM53.5083 54.4358C52.9094 54.4358 52.396 54.6925 51.9682 55.0348C51.5403 55.4626 51.3692 55.976 51.3692 56.575C51.3692 57.1739 51.6259 57.6873 51.9682 58.1151C52.7382 58.8852 54.1928 58.8852 54.9629 58.1151C55.3907 57.6873 55.5619 57.1739 55.5619 56.575C55.5619 55.976 55.3052 55.4626 54.9629 55.0348C54.6207 54.607 54.0217 54.4358 53.5083 54.4358Z" fill="white"/>
<path d="M48.4604 58.543C48.4604 58.543 29.9785 58.543 23.39 58.543C21.5931 57.0028 19.8818 54.607 19.8818 54.607H48.4604V58.543Z" fill="white"/>
<path d="M36.0552 51.7833C34.515 51.7833 32.8893 51.1844 31.6914 49.9865C29.2956 47.5907 29.2956 43.7402 31.6914 41.3444C34.0872 38.9486 37.9376 38.9486 40.3334 41.3444C42.7292 43.7402 42.7292 47.5907 40.3334 49.9865C39.2211 51.1844 37.5954 51.7833 36.0552 51.7833ZM36.0552 43.4836C35.5418 43.4836 34.9428 43.6547 34.515 44.0825C33.6594 44.9381 33.6594 46.3072 34.515 47.0773C35.3707 47.9329 36.7397 47.9329 37.5098 47.0773C38.3654 46.2216 38.3654 44.8526 37.5098 44.0825C37.1675 43.7402 36.5686 43.4836 36.0552 43.4836Z" fill="white"/>
<path d="M33.1455 47.5907C33.1455 47.5907 20.5675 47.5907 16.3748 47.5907C15.7759 45.9649 15.4336 43.6547 15.4336 43.6547H33.1455V47.5907Z" fill="white"/>
</svg>
