<svg width="64" height="64" viewBox="0 0 64 64" fill="none" xmlns="http://www.w3.org/2000/svg">
<circle cx="32" cy="32" r="32" fill="#9900FF"/>
<path d="M36.6863 21.1569L41.1704 37.8916C41.2106 38.0411 41.2156 38.198 41.1848 38.3498C41.1541 38.5016 41.0885 38.6442 40.9933 38.7664C40.898 38.8885 40.7757 38.9869 40.6359 39.0536C40.4962 39.1204 40.3428 39.1538 40.1879 39.1512L17.2779 38.6513C17.0605 38.6476 16.8502 38.5732 16.6789 38.4393C16.5075 38.3054 16.3845 38.1193 16.3285 37.9092L15.1638 33.5625C15.1073 33.3526 15.1208 33.1299 15.2022 32.9283C15.2836 32.7267 15.4285 32.5571 15.615 32.4452L35.2057 20.5572C35.3385 20.4775 35.488 20.4297 35.6424 20.4177C35.7969 20.4057 35.952 20.4297 36.0955 20.4878C36.2391 20.546 36.3672 20.6367 36.4697 20.7528C36.5723 20.8689 36.6464 21.0072 36.6863 21.1569Z" stroke="white" stroke-width="1.5" stroke-linecap="round" stroke-linejoin="round"/>
<path d="M21.7308 38.7524L22.9052 43.1352C22.9738 43.3914 23.1414 43.6098 23.3711 43.7425C23.6008 43.8751 23.8737 43.911 24.1299 43.8424L27.9936 42.8071C28.2498 42.7384 28.4682 42.5708 28.6008 42.3411C28.7334 42.1115 28.7694 41.8385 28.7007 41.5823L24.7634 26.8882" stroke="white" stroke-width="1.5" stroke-linecap="round" stroke-linejoin="round"/>
<line x1="42.1111" y1="23.3953" x2="46.4406" y2="19.8894" stroke="white" stroke-width="1.5" stroke-linecap="round"/>
<line x1="44.3526" y1="27.8506" x2="50.3303" y2="26.5582" stroke="white" stroke-width="1.5" stroke-linecap="round"/>
<line x1="45.0069" y1="33.0489" x2="50.3849" y2="34.503" stroke="white" stroke-width="1.5" stroke-linecap="round"/>
</svg>
