<svg width="45" height="40" viewBox="0 0 45 40" fill="none" xmlns="http://www.w3.org/2000/svg">
<g clip-path="url(#clip0_3736_22241)">
<path d="M44.6638 22.5532H41.6851C41.6851 11.7575 33.0042 2.97875 22.3319 2.97875C11.6596 2.97875 2.97872 11.7575 2.97872 22.5532H0C0 10.1149 10.017 3.05176e-05 22.3319 3.05176e-05C34.6468 3.05176e-05 44.6638 10.1149 44.6638 22.5532Z" fill="url(#paint0_linear_3736_22241)"/>
<path d="M34.8721 29.2425V39.8808H31.8934V29.1192C31.894 28.5885 31.7899 28.0629 31.5872 27.5724C31.3846 27.082 31.0872 26.6363 30.7121 26.2609C30.3371 25.8854 29.8917 25.5876 29.4015 25.3844C28.9113 25.1812 28.3858 25.0766 27.8551 25.0766C25.7275 25.0766 23.8253 26.7787 23.8253 28.8681V39.8723H20.8466V28.8723C20.8466 26.783 18.9445 25.0809 16.8168 25.0809C16.2861 25.0809 15.7607 25.1854 15.2705 25.3887C14.7802 25.5919 14.3349 25.8897 13.9598 26.2651C13.5848 26.6406 13.2874 27.0863 13.0847 27.5767C12.882 28.0671 12.778 28.5927 12.7785 29.1234V39.8766H9.7998V29.2383C9.8021 27.7803 10.2585 26.3593 11.1055 25.1726C11.9526 23.9859 13.1483 23.0926 14.5264 22.6167C15.9045 22.1408 17.3966 22.1059 18.7954 22.517C20.1942 22.9281 21.4302 23.7648 22.3317 24.9106C23.2325 23.7611 24.4695 22.9212 25.8703 22.5081C27.271 22.095 28.7658 22.1292 30.1462 22.6061C31.5266 23.0829 32.7238 23.9786 33.571 25.1682C34.4181 26.3578 34.873 27.7821 34.8721 29.2425Z" fill="white"/>
</g>
<defs>
<linearGradient id="paint0_linear_3736_22241" x1="-2.77576" y1="11.0821" x2="35.3623" y2="-3.98762" gradientUnits="userSpaceOnUse">
<stop stop-color="#9900FF"/>
<stop offset="1" stop-color="#FA1E32"/>
</linearGradient>
<clipPath id="clip0_3736_22241">
<rect width="44.6809" height="40" fill="white"/>
</clipPath>
</defs>
</svg>
