<svg width="101" height="105" viewBox="0 0 101 105" fill="none" xmlns="http://www.w3.org/2000/svg">
<path d="M4.2876 97.5175V71.5874H8.62336L16.7891 90.3147H17.0058L25.2438 71.5874H29.5796V97.5175H26.4V83.472L26.6891 75.837H26.4723L16.9336 97.0133L7.39489 75.9091H7.17811L7.46716 83.544V97.5175H4.2876Z" fill="#20201F"/>
<path d="M36.1554 95.2845C34.5656 93.5558 33.6985 91.1789 33.6985 88.2977C33.6985 85.4166 34.4934 83.0397 36.0832 81.311C37.6729 79.5103 39.8408 78.646 42.4423 78.646C47.6452 78.646 50.6802 81.8872 50.6802 87.0012C50.6802 87.7215 50.6802 88.3698 50.608 88.946H36.8058C36.8058 93.0516 38.9737 95.4285 42.5145 95.4285C45.2605 95.4285 47.2116 94.06 47.7175 92.0432H50.8248C50.5357 93.8439 49.5963 95.2124 48.0065 96.3649C46.489 97.4453 44.6824 98.0215 42.4423 98.0215C39.9131 97.8775 37.7452 97.0131 36.1554 95.2845ZM47.7175 86.6411C47.7175 83.1117 45.8386 81.167 42.5145 81.167C39.2627 81.167 37.0226 83.3278 36.9503 86.6411H47.7175Z" fill="#20201F"/>
<path d="M54.6548 97.5173V78.9341H57.4008L57.7621 82.6796H57.9789C58.9906 79.9425 61.0139 78.646 63.9767 78.646V81.4551C59.7854 81.5271 57.7621 84.0481 57.7621 88.946V97.5173H54.6548Z" fill="#20201F"/>
<path d="M68.0233 95.7889V95.5728C66.9393 95.2847 66.1444 94.2043 66.1444 93.0518C66.1444 91.6113 67.0838 90.3868 68.6014 90.0266V89.8106C66.7948 88.7301 65.9276 87.0015 65.9276 84.8406C65.9276 82.9679 66.578 81.5273 67.8787 80.3749C69.1795 79.2224 70.8415 78.6462 72.9371 78.6462C74.3824 78.6462 75.6109 78.8623 76.478 79.4385C77.2006 77.4217 79.2963 76.1973 81.8255 76.1973V78.7903C80.0911 78.7903 78.7904 79.5106 78.3568 80.663C79.513 81.8155 80.0911 83.256 80.0911 84.9847C80.0911 88.5861 77.3452 91.035 73.2262 91.035C72.359 91.035 71.4919 90.963 70.697 90.7469C69.613 90.891 69.1072 91.4672 69.1072 92.4756C69.1072 93.556 69.9021 94.0602 71.6364 94.0602H76.5503C80.0911 94.0602 82.1868 95.7889 82.1868 98.67C82.1868 102.199 78.8627 104.072 73.2262 104.072C67.951 104.072 65.3495 102.343 65.3495 99.5343C65.205 97.6616 66.289 96.2931 68.0233 95.7889ZM73.2262 101.623C77.0561 101.623 78.9349 100.615 78.9349 98.67C78.9349 97.2294 77.9955 96.5092 76.1167 96.5092H71.0583C69.0349 96.5092 68.0233 97.3015 68.0233 98.9581C68.0233 100.759 69.7576 101.623 73.2262 101.623ZM73.0094 88.7301C75.5386 88.7301 76.9838 87.2175 76.9838 84.8406C76.9838 82.3917 75.3941 80.8791 73.0094 80.8791C70.5525 80.8791 69.0349 82.4637 69.0349 84.8406C68.9627 87.2896 70.5525 88.7301 73.0094 88.7301Z" fill="#20201F"/>
<path d="M85.5832 95.2845C83.9934 93.5558 83.1262 91.1789 83.1262 88.2977C83.1262 85.4166 83.9211 83.0397 85.5109 81.311C87.1007 79.5103 89.2686 78.646 91.87 78.646C97.0729 78.646 100.108 81.8872 100.108 87.0012C100.108 87.7215 100.108 88.3698 100.036 88.946H86.2335C86.2335 93.0516 88.4014 95.4285 91.9423 95.4285C94.6883 95.4285 96.6394 94.06 97.1452 92.0432H100.253C99.9635 93.8439 99.024 95.2124 97.4342 96.3649C95.9167 97.4453 94.1102 98.0215 91.87 98.0215C89.3408 97.8775 87.1729 97.0131 85.5832 95.2845ZM97.1452 86.6411C97.1452 83.1117 95.2664 81.167 91.9423 81.167C88.6905 81.167 86.4503 83.3278 86.378 86.6411H97.1452Z" fill="#20201F"/>
<path d="M29.1461 57.614C13.4651 57.614 0.674561 44.865 0.674561 29.235C0.674561 13.6049 13.4651 0.855957 29.1461 0.855957C44.8271 0.855957 57.6176 13.6049 57.6176 29.235C57.6176 44.865 44.8994 57.614 29.1461 57.614Z" fill="#E834BA"/>
<path d="M38.0476 33.7509L18.5498 45.0322L19.8195 47.2124L39.3172 35.9311L38.0476 33.7509Z" fill="white"/>
<path d="M20.4745 12.1641H17.9453V34.7808H20.4745V12.1641Z" fill="white"/>
<path d="M40.2746 23.689H37.7454V46.0176H40.2746V23.689Z" fill="white"/>
<path d="M48.946 28.9466L34.2767 20.5193L29.5796 17.7822" fill="white"/>
<path d="M30.2526 16.7028L28.9895 18.8867L48.3333 30.0017L49.5964 27.8178L30.2526 16.7028Z" fill="white"/>
<path d="M26.9783 41.5517L8.11768 29.6671L8.18994 28.2986C8.40673 23.0405 10.5746 18.1426 14.3323 14.3972C17.4396 11.3 21.3418 9.28319 25.6775 8.56291C29.8688 7.84263 34.1323 8.41885 38.0345 10.2196C38.5403 10.4356 38.8294 10.6517 39.3352 11.0119L40.925 12.0923L38.6126 13.4608L38.179 12.6685L37.9622 13.0286C37.5286 12.7405 37.3118 12.5965 37.0228 12.4524C30.0133 9.21116 21.6308 10.6517 16.1388 16.1258C12.887 19.3671 10.9359 23.6888 10.7191 28.2986L28.3512 39.3909L26.9783 41.5517Z" fill="white"/>
<path d="M34.2044 27.6504H23.9431V30.1714H34.2044V27.6504Z" fill="white"/>
<path d="M30.3744 23.7607H27.8452V33.9887H30.3744V23.7607Z" fill="white"/>
<path d="M29.074 50.1233C23.4375 50.1233 18.2346 47.9624 14.2601 44.0009C13.0317 42.7764 11.9477 41.4079 11.0806 39.9673L13.2484 38.6708C14.0433 39.9673 14.9828 41.1198 16.0667 42.2002C19.5353 45.6575 24.2324 47.6023 29.1463 47.6023C34.0601 47.6023 38.7572 45.6575 42.2258 42.2002C48.4404 36.0058 49.3798 26.282 44.6105 19.0072L46.7061 17.6387C49.3076 21.6002 50.536 26.4261 50.1025 31.1799C49.6689 36.0058 47.501 40.5436 44.0324 43.9289C39.9857 47.8904 34.7105 50.1233 29.074 50.1233Z" fill="white"/>
<path d="M37.4911 11.2299L19.0557 21.8965L20.3253 24.0766L38.7607 13.41L37.4911 11.2299Z" fill="white"/>
<path d="M18.0176 46.9538C13.2483 44.0007 9.92418 39.3909 8.69571 33.9167C8.3344 32.2601 8.11761 30.5314 8.18987 28.8027L10.7191 28.8748C10.7191 30.3874 10.8636 31.9 11.2249 33.3405C12.3089 38.1664 15.2716 42.2 19.4629 44.793C23.6541 47.386 28.568 48.2503 33.4096 47.0979C41.9366 45.1531 47.9344 37.3741 47.7176 28.7307L50.2468 28.6587C50.3913 33.4125 48.8015 38.0944 45.911 41.9118C42.9483 45.7293 38.757 48.4664 33.9877 49.5468C28.3512 50.8433 22.7147 49.9069 18.0176 46.9538Z" fill="white"/>
<path d="M39.5519 47.3141C34.7103 50.1232 29.0738 50.8435 23.6541 49.4029C21.9921 48.9707 20.4023 48.3225 18.8848 47.4582L20.1132 45.2973C21.414 46.0176 22.8592 46.5938 24.3045 46.954C29.0738 48.2505 34.0599 47.6022 38.3234 45.1533C42.587 42.7043 45.6943 38.7428 46.9227 33.9889C49.1629 25.5617 45.1884 16.6302 37.384 12.7407L38.468 10.5078C42.7315 12.5966 46.2001 16.198 48.1512 20.5197C50.1745 24.9134 50.6081 29.9554 49.3074 34.6372C47.9344 39.9673 44.4658 44.505 39.5519 47.3141Z" fill="white"/>
</svg>
