<svg width="138" height="145" viewBox="0 0 138 145" fill="none" xmlns="http://www.w3.org/2000/svg">
<path d="M5.0498 135V99H11.0498L22.3498 125H22.6498L34.0498 99H40.0498V135H35.6498V115.5L36.0498 104.9H35.7498L22.5498 134.3L9.3498 105H9.0498L9.4498 115.6V135H5.0498Z" fill="#20201F"/>
<path d="M49.15 131.9C46.95 129.5 45.75 126.2 45.75 122.2C45.75 118.2 46.85 114.9 49.05 112.5C51.25 110 54.25 108.8 57.85 108.8C65.05 108.8 69.25 113.3 69.25 120.4C69.25 121.4 69.25 122.3 69.15 123.1H50.05C50.05 128.8 53.05 132.1 57.95 132.1C61.75 132.1 64.45 130.2 65.15 127.4H69.45C69.05 129.9 67.75 131.8 65.55 133.4C63.45 134.9 60.95 135.7 57.85 135.7C54.35 135.5 51.35 134.3 49.15 131.9ZM65.15 119.9C65.15 115 62.55 112.3 57.95 112.3C53.45 112.3 50.35 115.3 50.25 119.9H65.15Z" fill="#20201F"/>
<path d="M74.75 135V109.2H78.55L79.05 114.4H79.35C80.75 110.6 83.55 108.8 87.65 108.8V112.7C81.85 112.8 79.05 116.3 79.05 123.1V135H74.75Z" fill="#20201F"/>
<path d="M93.25 132.6V132.3C91.75 131.9 90.65 130.4 90.65 128.8C90.65 126.8 91.95 125.1 94.05 124.6V124.3C91.55 122.8 90.35 120.4 90.35 117.4C90.35 114.8 91.25 112.8 93.05 111.2C94.85 109.6 97.15 108.8 100.05 108.8C102.05 108.8 103.75 109.1 104.95 109.9C105.95 107.1 108.85 105.4 112.35 105.4V109C109.95 109 108.15 110 107.55 111.6C109.15 113.2 109.95 115.2 109.95 117.6C109.95 122.6 106.15 126 100.45 126C99.25 126 98.05 125.9 96.95 125.6C95.45 125.8 94.75 126.6 94.75 128C94.75 129.5 95.85 130.2 98.25 130.2H105.05C109.95 130.2 112.85 132.6 112.85 136.6C112.85 141.5 108.25 144.1 100.45 144.1C93.15 144.1 89.55 141.7 89.55 137.8C89.35 135.2 90.85 133.3 93.25 132.6ZM100.45 140.7C105.75 140.7 108.35 139.3 108.35 136.6C108.35 134.6 107.05 133.6 104.45 133.6H97.45C94.65 133.6 93.25 134.7 93.25 137C93.25 139.5 95.65 140.7 100.45 140.7ZM100.15 122.8C103.65 122.8 105.65 120.7 105.65 117.4C105.65 114 103.45 111.9 100.15 111.9C96.75 111.9 94.65 114.1 94.65 117.4C94.55 120.8 96.75 122.8 100.15 122.8Z" fill="#20201F"/>
<path d="M117.55 131.9C115.35 129.5 114.15 126.2 114.15 122.2C114.15 118.2 115.25 114.9 117.45 112.5C119.65 110 122.65 108.8 126.25 108.8C133.45 108.8 137.65 113.3 137.65 120.4C137.65 121.4 137.65 122.3 137.55 123.1H118.45C118.45 128.8 121.45 132.1 126.35 132.1C130.15 132.1 132.85 130.2 133.55 127.4H137.85C137.45 129.9 136.15 131.8 133.95 133.4C131.85 134.9 129.35 135.7 126.25 135.7C122.75 135.5 119.75 134.3 117.55 131.9ZM133.55 119.9C133.55 115 130.95 112.3 126.35 112.3C121.85 112.3 118.75 115.3 118.65 119.9H133.55Z" fill="#20201F"/>
<path d="M39.4498 79.6C17.7498 79.6 0.0498047 61.9 0.0498047 40.2C0.0498047 18.5 17.7498 0.799988 39.4498 0.799988C61.1498 0.799988 78.8498 18.5 78.8498 40.2C78.8498 61.9 61.2498 79.6 39.4498 79.6Z" fill="#E834BA"/>
<path d="M51.7679 46.4696L24.7861 62.132L26.5431 65.1588L53.5249 49.4964L51.7679 46.4696Z" fill="white"/>
<path d="M27.4497 16.5H23.9497V47.9H27.4497V16.5Z" fill="white"/>
<path d="M54.8496 32.5H51.3496V63.5H54.8496V32.5Z" fill="white"/>
<path d="M66.8498 39.8L46.5498 28.1L40.0498 24.3" fill="white"/>
<path d="M40.9808 22.801L39.2329 25.8331L66.0016 41.2645L67.7495 38.2325L40.9808 22.801Z" fill="white"/>
<path d="M36.4496 57.3L10.3496 40.8L10.4496 38.9C10.7496 31.6 13.7496 24.8 18.9496 19.6C23.2496 15.3 28.6496 12.5 34.6496 11.5C40.4496 10.5 46.3496 11.3 51.7496 13.8C52.4496 14.1 52.8496 14.4 53.5496 14.9L55.7496 16.4L52.5496 18.3L51.9496 17.2L51.6496 17.7C51.0496 17.3 50.7496 17.1 50.3496 16.9C40.6496 12.4 29.0496 14.4 21.4496 22C16.9496 26.5 14.2496 32.5 13.9496 38.9L38.3496 54.3L36.4496 57.3Z" fill="white"/>
<path d="M46.4495 38H32.2495V41.5H46.4495V38Z" fill="white"/>
<path d="M41.1494 32.6H37.6494V46.8H41.1494V32.6Z" fill="white"/>
<path d="M39.3497 69.2C31.5497 69.2 24.3497 66.2 18.8497 60.7C17.1497 59 15.6497 57.1 14.4497 55.1L17.4497 53.3C18.5497 55.1 19.8497 56.7 21.3497 58.2C26.1497 63 32.6497 65.7 39.4497 65.7C46.2497 65.7 52.7497 63 57.5497 58.2C66.1497 49.6 67.4497 36.1 60.8497 26L63.7497 24.1C67.3497 29.6 69.0497 36.3 68.4497 42.9C67.8497 49.6 64.8497 55.9 60.0497 60.6C54.4497 66.1 47.1497 69.2 39.3497 69.2Z" fill="white"/>
<path d="M50.9979 15.2024L25.4863 30.0114L27.2433 33.0382L52.7549 18.2292L50.9979 15.2024Z" fill="white"/>
<path d="M24.0498 64.8C17.4498 60.7 12.8498 54.3 11.1498 46.7C10.6498 44.4 10.3498 42 10.4498 39.6L13.9498 39.7C13.9498 41.8 14.1498 43.9 14.6498 45.9C16.1498 52.6 20.2498 58.2 26.0498 61.8C31.8498 65.4 38.6498 66.6 45.3498 65C57.1498 62.3 65.4498 51.5 65.1498 39.5L68.6498 39.4C68.8498 46 66.6498 52.5 62.6498 57.8C58.5498 63.1 52.7498 66.9 46.1498 68.4C38.3498 70.2 30.5498 68.9 24.0498 64.8Z" fill="white"/>
<path d="M53.8495 65.3C47.1495 69.2 39.3495 70.2 31.8495 68.2C29.5495 67.6 27.3495 66.7 25.2495 65.5L26.9495 62.5C28.7495 63.5 30.7495 64.3 32.7495 64.8C39.3495 66.6 46.2495 65.7 52.1495 62.3C58.0495 58.9 62.3495 53.4 64.0495 46.8C67.1495 35.1 61.6495 22.7 50.8495 17.3L52.3495 14.2C58.2495 17.1 63.0495 22.1 65.7495 28.1C68.5495 34.2 69.1495 41.2 67.3495 47.7C65.4495 55.1 60.6495 61.4 53.8495 65.3Z" fill="white"/>
</svg>
