<svg width="272" height="133" viewBox="0 0 272 133" fill="none" xmlns="http://www.w3.org/2000/svg">
<path d="M5.1499 132.3V97.1H11.0499L22.1499 122.6H22.4499L33.5499 97.1H39.4499V132.3H35.1499V113.2L35.5499 102.9H35.2499L22.3499 131.7L9.4499 102.9H9.1499L9.5499 113.3V132.3H5.1499Z" fill="#20201F"/>
<path d="M46.6499 102.8V97.3H50.8499V102.8H46.6499ZM46.6499 132.3V107.1H50.8499V132.3H46.6499Z" fill="#20201F"/>
<path d="M79.1499 123.7C78.9499 126.5 77.7499 128.6 75.6499 130.3C73.6499 131.9 71.0499 132.8 68.0499 132.8C64.4499 132.8 61.4499 131.6 59.2499 129.2C57.0499 126.8 55.95 123.6 55.95 119.7C55.95 115.7 57.0499 112.5 59.2499 110.2C61.4499 107.8 64.4499 106.6 68.1499 106.6C71.0499 106.6 73.5499 107.4 75.5499 109C77.5499 110.6 78.65 112.7 78.95 115.3H74.6499C73.9499 112 71.35 110.3 67.95 110.3C62.95 110.3 60.1499 114 60.1499 119.8C60.1499 125.7 63.0499 129.1 67.8499 129.1C71.5499 129.1 74.2499 127 74.6499 123.7H79.1499Z" fill="#20201F"/>
<path d="M84.0498 132.3V107.1H87.7498L88.2498 112.2H88.5498C89.9498 108.5 92.7498 106.7 96.7498 106.7V110.5C91.0498 110.6 88.2498 114 88.2498 120.7V132.3H84.0498Z" fill="#20201F"/>
<path d="M101.35 110.3C103.65 107.8 106.55 106.6 110.15 106.6C113.75 106.6 116.65 107.8 118.85 110.3C121.05 112.7 122.15 115.9 122.15 119.8C122.15 123.7 121.05 126.8 118.85 129.2C116.65 131.6 113.75 132.8 110.15 132.8C106.55 132.8 103.55 131.6 101.35 129.2C99.1498 126.8 98.0498 123.6 98.0498 119.8C98.0498 115.9 99.1498 112.7 101.35 110.3ZM110.15 129.1C114.95 129.1 117.95 125.5 117.95 119.7C117.95 114 115.15 110.4 110.15 110.4C105.35 110.4 102.35 114 102.35 119.8C102.35 125.4 105.15 129.1 110.15 129.1Z" fill="#20201F"/>
<path d="M127.35 132.3V107.1H130.95L131.45 111.8H131.85C133.45 108.4 136.05 106.6 139.65 106.6C143.15 106.6 145.85 108.8 147.05 112.1H147.45C148.95 108.6 152.05 106.6 155.75 106.6C161.05 106.6 164.15 110.5 164.15 116.8V132.3H159.95V117.2C159.95 112.6 158.15 110.3 154.45 110.3C150.05 110.3 147.85 113.6 147.85 118.9V132.3H143.65V117.2C143.65 112.6 141.85 110.3 138.15 110.3C134.05 110.3 131.45 113.8 131.45 118.9V132.3H127.35Z" fill="#20201F"/>
<path d="M172.35 129.3C170.15 126.9 169.05 123.7 169.05 119.8C169.05 115.8 170.15 112.6 172.25 110.3C174.45 107.9 177.35 106.7 180.95 106.7C187.95 106.7 192.15 111.1 192.15 118.1C192.15 119.1 192.15 120 192.05 120.7H173.35C173.35 126.3 176.25 129.5 181.15 129.5C184.85 129.5 187.55 127.6 188.15 124.9H192.35C191.95 127.3 190.65 129.3 188.55 130.7C186.55 132.2 184.05 132.9 181.05 132.9C177.45 132.8 174.55 131.6 172.35 129.3ZM187.95 117.5C187.95 112.7 185.35 110.1 180.85 110.1C176.45 110.1 173.45 113 173.35 117.5H187.95Z" fill="#20201F"/>
<path d="M219.95 132.3H216.15L215.75 127.9H215.55C214.15 130.8 210.85 132.8 206.85 132.8C203.55 132.8 200.95 131.6 198.95 129.3C196.95 126.9 195.95 123.8 195.95 119.9C195.95 115.9 196.95 112.6 198.95 110.2C200.95 107.8 203.55 106.6 206.85 106.6C211.05 106.6 214.15 108.7 215.55 112H215.75V96.9H219.95V132.3ZM215.75 118.2C215.75 113.5 212.45 110.3 207.95 110.3C203.05 110.3 200.25 113.9 200.25 119.9C200.25 125.7 203.15 129.1 207.85 129.1C210.15 129.1 212.05 128.4 213.55 126.9C215.05 125.4 215.85 123.6 215.85 121.4V118.2H215.75Z" fill="#20201F"/>
<path d="M228.35 129.3C226.15 126.9 225.05 123.7 225.05 119.8C225.05 115.8 226.15 112.6 228.25 110.3C230.45 107.9 233.35 106.7 236.95 106.7C243.95 106.7 248.15 111.1 248.15 118.1C248.15 119.1 248.15 120 248.05 120.7H229.35C229.35 126.3 232.25 129.5 237.15 129.5C240.85 129.5 243.55 127.6 244.15 124.9H248.35C247.95 127.3 246.65 129.3 244.55 130.7C242.55 132.2 240.05 132.9 237.05 132.9C233.45 132.8 230.55 131.6 228.35 129.3ZM243.95 117.5C243.95 112.7 241.35 110.1 236.85 110.1C232.45 110.1 229.45 113 229.35 117.5H243.95Z" fill="#20201F"/>
<path d="M249.15 132.3L257.95 119.6L249.55 107.1H254.15L260.35 116.7H260.65L266.65 107.1H271.25L263.05 119.5L271.65 132.3H267.05L260.55 122.5H260.25L253.55 132.3H249.15Z" fill="#20201F"/>
<path d="M39.35 78.5C17.75 78.5 0.25 60.9 0.25 39.4C0.25 17.9 17.85 0.300003 39.35 0.300003C60.85 0.300003 78.45 17.9 78.45 39.4C78.45 60.9 60.95 78.5 39.35 78.5Z" fill="#1385E2"/>
<path d="M31.9501 64.2C25.5501 64.2 20.3501 59 20.3501 52.6V26.1C20.3501 19.7 25.5501 14.5 31.9501 14.5C38.3501 14.5 43.5501 19.7 43.5501 26.1V52.6C43.5501 59 38.3501 64.2 31.9501 64.2ZM31.9501 18C27.4501 18 23.8501 21.7 23.8501 26.1V52.6C23.8501 57.1 27.5501 60.7 31.9501 60.7C36.3501 60.7 40.0501 57 40.0501 52.6V26.1C40.0501 21.7 36.3501 18 31.9501 18Z" fill="white"/>
<path d="M61.1502 24H46.4502V27.5H61.1502V24Z" fill="white"/>
<path d="M56.4502 31.2H46.4502V34.7H56.4502V31.2Z" fill="white"/>
<path d="M64.9501 38.3H25.8501V41.8H64.9501V38.3Z" fill="white"/>
<path d="M59.2502 45.5H46.4502V49H59.2502V45.5Z" fill="white"/>
<path d="M54.5502 52.7H46.4502V56.2H54.5502V52.7Z" fill="white"/>
<path d="M29.05 34.4H25.55V27.5C25.55 23.8 28.3501 20.8 31.8501 20.8V24.3C30.2501 24.3 29.05 25.8 29.05 27.5V34.4Z" fill="white"/>
</svg>
