<svg width="197" height="96" viewBox="0 0 197 96" fill="none" xmlns="http://www.w3.org/2000/svg">
<path d="M3.71729 95.4954V70.0879H7.97593L15.988 88.4939H16.2045L24.2165 70.0879H28.4752V95.4954H25.3714V81.7089L25.6601 74.2743H25.4436L16.1323 95.0623L6.82104 74.2743H6.6045L6.89322 81.7811V95.4954H3.71729Z" fill="#20201F"/>
<path d="M33.6721 74.2023V70.2324H36.7037V74.2023H33.6721ZM33.6721 95.4956V77.3061H36.7037V95.4956H33.6721Z" fill="#20201F"/>
<path d="M57.1309 89.2882C56.9865 91.3092 56.1203 92.825 54.6046 94.0521C53.1609 95.207 51.2843 95.8566 49.1188 95.8566C46.5203 95.8566 44.3549 94.9904 42.767 93.2581C41.179 91.5258 40.385 89.216 40.385 86.4009C40.385 83.5137 41.179 81.204 42.767 79.5438C44.3549 77.8115 46.5203 76.9453 49.191 76.9453C51.2843 76.9453 53.0888 77.5228 54.5324 78.6776C55.976 79.8325 56.77 81.3483 56.9865 83.225H53.8828C53.3775 80.8431 51.5008 79.616 49.0467 79.616C45.4376 79.616 43.4166 82.2867 43.4166 86.4731C43.4166 90.7318 45.5098 93.1859 48.9745 93.1859C51.6452 93.1859 53.594 91.6701 53.8828 89.2882H57.1309Z" fill="#20201F"/>
<path d="M60.6677 95.4948V77.3053H63.3384L63.6993 80.9865H63.9158C64.9264 78.3158 66.9474 77.0166 69.8346 77.0166V79.7595C65.7204 79.8316 63.6993 82.2858 63.6993 87.1219V95.4948H60.6677Z" fill="#20201F"/>
<path d="M73.1549 79.616C74.8151 77.8115 76.9083 76.9453 79.5068 76.9453C82.1053 76.9453 84.1985 77.8115 85.7865 79.616C87.3745 81.3483 88.1684 83.6581 88.1684 86.4731C88.1684 89.2882 87.3745 91.5258 85.7865 93.2581C84.1985 94.9904 82.1053 95.8566 79.5068 95.8566C76.9083 95.8566 74.7429 94.9904 73.1549 93.2581C71.5669 91.5258 70.7729 89.216 70.7729 86.4731C70.7729 83.6581 71.5669 81.3483 73.1549 79.616ZM79.5068 93.1859C82.9714 93.1859 85.1369 90.5874 85.1369 86.4009C85.1369 82.2867 83.1158 79.6882 79.5068 79.6882C76.0421 79.6882 73.8767 82.2867 73.8767 86.4731C73.8767 90.5152 75.8978 93.1859 79.5068 93.1859Z" fill="#20201F"/>
<path d="M91.9219 95.4957V77.3062H94.5204L94.8813 80.6987H95.17C96.3249 78.2446 98.2016 76.9453 100.8 76.9453C103.326 76.9453 105.275 78.5333 106.141 80.9152H106.43C107.513 78.3889 109.75 76.9453 112.421 76.9453C116.247 76.9453 118.484 79.7603 118.484 84.3077V95.4957H115.453V84.5964C115.453 81.2761 114.153 79.616 111.483 79.616C108.307 79.616 106.719 81.9979 106.719 85.8235V95.4957H103.687V84.5964C103.687 81.2761 102.388 79.616 99.7174 79.616C96.758 79.616 94.8813 82.1423 94.8813 85.8235V95.4957H91.9219Z" fill="#20201F"/>
<path d="M124.403 93.3294C122.815 91.5971 122.021 89.2873 122.021 86.4722C122.021 83.585 122.815 81.2753 124.331 79.6151C125.919 77.8828 128.012 77.0166 130.61 77.0166C135.663 77.0166 138.695 80.1925 138.695 85.2452C138.695 85.967 138.695 86.6166 138.623 87.1219H125.125C125.125 91.164 127.218 93.4737 130.755 93.4737C133.426 93.4737 135.374 92.1023 135.807 90.1534H138.839C138.55 91.8858 137.612 93.3294 136.096 94.3399C134.653 95.4226 132.848 95.9279 130.683 95.9279C128.084 95.8557 125.991 94.9895 124.403 93.3294ZM135.663 84.8121C135.663 81.3474 133.786 79.4707 130.538 79.4707C127.362 79.4707 125.197 81.564 125.125 84.8121H135.663Z" fill="#20201F"/>
<path d="M158.761 95.4952H156.018L155.729 92.3193H155.585C154.574 94.4125 152.192 95.8561 149.305 95.8561C146.923 95.8561 145.047 94.99 143.603 93.3298C142.159 91.5975 141.438 89.3599 141.438 86.5449C141.438 83.6576 142.159 81.2757 143.603 79.5434C145.047 77.811 146.923 76.9449 149.305 76.9449C152.337 76.9449 154.574 78.4607 155.585 80.8426H155.729V69.9434H158.761V95.4952ZM155.729 85.3178C155.729 81.9253 153.347 79.6155 150.099 79.6155C146.562 79.6155 144.541 82.214 144.541 86.5449C144.541 90.7313 146.634 93.1855 150.027 93.1855C151.687 93.1855 153.059 92.6802 154.141 91.5975C155.224 90.5148 155.801 89.2155 155.801 87.6276V85.3178H155.729Z" fill="#20201F"/>
<path d="M164.824 93.3294C163.236 91.5971 162.442 89.2873 162.442 86.4722C162.442 83.585 163.236 81.2753 164.752 79.6151C166.34 77.8828 168.433 77.0166 171.032 77.0166C176.084 77.0166 179.116 80.1925 179.116 85.2452C179.116 85.967 179.116 86.6166 179.044 87.1219H165.546C165.546 91.164 167.639 93.4737 171.176 93.4737C173.847 93.4737 175.796 92.1023 176.229 90.1534H179.26C178.971 91.8858 178.033 93.3294 176.517 94.3399C175.074 95.4226 173.269 95.9279 171.104 95.9279C168.505 95.8557 166.412 94.9895 164.824 93.3294ZM176.084 84.8121C176.084 81.3474 174.208 79.4707 170.959 79.4707C167.783 79.4707 165.618 81.564 165.546 84.8121H176.084Z" fill="#20201F"/>
<path d="M179.838 95.4951L186.19 86.3282L180.126 77.3057H183.447L187.922 84.235H188.138L192.469 77.3057H195.79L189.871 86.256L196.078 95.4951H192.758L188.066 88.4214H187.85L183.014 95.4951H179.838Z" fill="#20201F"/>
<path d="M28.403 56.6619C12.812 56.6619 0.18042 43.9581 0.18042 28.4394C0.18042 12.9206 12.8842 0.216797 28.403 0.216797C43.9218 0.216797 56.6255 12.9206 56.6255 28.4394C56.6255 43.9581 43.994 56.6619 28.403 56.6619Z" fill="#1385E2"/>
<path d="M23.0617 46.3405C18.4421 46.3405 14.6887 42.5871 14.6887 37.9676V18.8397C14.6887 14.2202 18.4421 10.4668 23.0617 10.4668C27.6812 10.4668 31.4346 14.2202 31.4346 18.8397V37.9676C31.4346 42.5871 27.6812 46.3405 23.0617 46.3405ZM23.0617 12.9931C19.8135 12.9931 17.215 15.6638 17.215 18.8397V37.9676C17.215 41.2157 19.8857 43.8142 23.0617 43.8142C26.2376 43.8142 28.9083 41.1435 28.9083 37.9676V18.8397C28.9083 15.6638 26.2376 12.9931 23.0617 12.9931Z" fill="white"/>
<path d="M44.1384 17.3242H33.5278V19.8505H44.1384V17.3242Z" fill="white"/>
<path d="M40.7459 22.5205H33.5278V25.0468H40.7459V22.5205Z" fill="white"/>
<path d="M46.8813 27.6455H18.6587V30.1718H46.8813V27.6455Z" fill="white"/>
<path d="M42.7669 32.8428H33.5278V35.3691H42.7669V32.8428Z" fill="white"/>
<path d="M39.3744 38.04H33.5278V40.5664H39.3744V38.04Z" fill="white"/>
<path d="M20.9685 24.8312H18.4421V19.8507C18.4421 17.1801 20.4632 15.0146 22.9895 15.0146V17.541C21.8346 17.541 20.9685 18.6237 20.9685 19.8507V24.8312Z" fill="white"/>
</svg>
