<svg width="32" height="32" viewBox="0 0 32 32" fill="none" xmlns="http://www.w3.org/2000/svg">
<g clip-path="url(#clip0_2300_25718)">
<path d="M21 8C21 5.23858 18.7614 3 16 3C13.2386 3 11 5.23858 11 8V16C11 18.7614 13.2386 21 16 21C18.7614 21 21 18.7614 21 16V8Z" stroke="#20201F" stroke-width="1.5" stroke-linecap="round" stroke-linejoin="round"/>
<path d="M16 25V29" stroke="#20201F" stroke-width="1.5" stroke-linecap="round" stroke-linejoin="round"/>
<path d="M25 16C25 18.3869 24.0518 20.6761 22.364 22.364C20.6761 24.0518 18.3869 25 16 25C13.6131 25 11.3239 24.0518 9.63604 22.364C7.94821 20.6761 7 18.3869 7 16" stroke="#20201F" stroke-width="1.5" stroke-linecap="round" stroke-linejoin="round"/>
</g>
<defs>
<clipPath id="clip0_2300_25718">
<rect width="32" height="32" fill="white"/>
</clipPath>
</defs>
</svg>
