<svg width="210" height="177" viewBox="0 0 210 177" fill="none" xmlns="http://www.w3.org/2000/svg">
<path d="M5.1246 88.8563C5.26794 92.6637 7.48978 94.5314 11.9335 94.5314C15.9471 94.5314 18.3123 92.5918 18.3123 89.7902C18.3123 88.2816 17.7389 87.2041 16.6638 86.6294C15.6604 86.0547 15.1587 85.911 14.227 85.6237L9.56829 84.618C8.27818 84.4025 7.56146 84.2588 6.05634 83.5404C3.97784 82.6065 2.54439 80.9543 2.40105 77.8653C2.40105 75.7102 3.26112 73.9861 4.90958 72.6931C6.62972 71.4 8.85156 70.6816 11.5751 70.6816C17.3806 70.6816 20.6775 73.5551 20.8208 78.1527H17.5239C17.3806 74.92 15.0871 73.3396 11.3601 73.3396C7.77648 73.3396 5.76965 74.92 5.76965 77.5061C5.76965 78.6555 6.27135 79.5894 6.84473 80.1641C7.13142 80.3796 7.56146 80.6669 7.99149 80.8825C8.9949 81.3135 9.42494 81.3853 10.285 81.6008L14.9437 82.6065C19.3874 83.5404 21.6092 85.911 21.6092 89.6465C21.6092 94.4596 17.8106 97.2612 11.8618 97.2612C5.33961 97.2612 1.82767 94.0286 1.68433 88.9282H5.1246V88.8563Z" fill="#20201F"/>
<path d="M26.9129 80.6667C28.5614 78.8708 30.7116 78.0088 33.3634 78.0088C36.0153 78.0088 38.0938 78.8708 39.7423 80.6667C41.3907 82.4627 42.1791 84.7614 42.1791 87.5631C42.1791 90.3647 41.3907 92.6635 39.7423 94.4594C38.1655 96.2553 36.0153 97.1174 33.3634 97.1174C30.7116 97.1174 28.5614 96.2553 26.9129 94.5312C25.2645 92.7353 24.4761 90.4365 24.4761 87.6349C24.4761 84.7614 25.3361 82.4627 26.9129 80.6667ZM33.3634 94.3876C36.8754 94.3876 39.0256 91.8014 39.0256 87.4912C39.0256 83.3247 36.9471 80.6667 33.3634 80.6667C29.8515 80.6667 27.6297 83.2529 27.6297 87.4912C27.6297 91.8014 29.7082 94.3876 33.3634 94.3876Z" fill="#20201F"/>
<path d="M61.6025 90.5084C61.4592 92.5198 60.5991 94.1002 59.094 95.3214C57.5889 96.5427 55.7254 97.1174 53.5036 97.1174C50.8517 97.1174 48.7015 96.2553 47.1247 94.5312C45.5479 92.8072 44.7595 90.4365 44.7595 87.6349C44.7595 84.7614 45.5479 82.3908 47.1247 80.6667C48.7732 78.8708 50.9234 78.0088 53.6469 78.0088C55.7971 78.0088 57.5889 78.5835 59.0223 79.8047C60.4558 80.9541 61.3158 82.4627 61.4592 84.4023H58.3773C57.8756 82.0317 55.9404 80.7386 53.5036 80.7386C49.8483 80.7386 47.8414 83.4684 47.8414 87.6349C47.8414 92.017 49.9916 94.4594 53.5036 94.4594C56.2271 94.4594 58.1623 92.879 58.4489 90.5084H61.6025Z" fill="#20201F"/>
<path d="M65.186 75.2074V71.1846H68.1963V75.2074H65.186ZM65.186 96.7585V78.2964H68.1963V96.7585H65.186Z" fill="#20201F"/>
<path d="M79.3055 85.7677H84.1792V84.4028C84.1792 81.7448 82.7458 80.3799 79.9505 80.3799C77.442 80.3799 75.7219 81.673 75.6502 83.6844H72.7116C72.855 81.9604 73.5717 80.5955 74.9335 79.5179C76.2953 78.4404 78.0154 77.9375 80.0939 77.9375C84.6809 77.9375 87.1895 80.3799 87.1895 84.6183V93.0232C87.1895 93.7416 87.2611 94.4599 88.3362 94.4599C88.5512 94.4599 88.8379 94.4599 88.9813 94.3881V96.7587C88.4796 96.9024 87.9778 96.9742 87.4045 96.9742C85.326 96.9742 84.3226 95.8967 84.3226 93.7416H84.1075C83.3191 95.753 80.8823 97.1179 78.0154 97.1179C74.3601 97.1179 71.8516 94.891 71.8516 91.7301C71.9232 87.851 74.7185 85.7677 79.3055 85.7677ZM78.7321 94.6036C82.029 94.6036 84.2509 92.3048 84.2509 89.0004V87.9946H79.5922C76.5819 87.9946 75.0768 89.2159 75.0768 91.371C75.0768 93.3824 76.5103 94.6036 78.7321 94.6036Z" fill="#20201F"/>
<path d="M92.3499 96.7583V70.8252H95.3601V96.7583H92.3499Z" fill="#20201F"/>
<path d="M14.0837 107.821C16.8072 107.821 18.9574 108.54 20.6058 110.048C22.1826 111.557 22.971 113.568 22.971 116.011C22.971 118.525 22.1826 120.536 20.5342 122.045C18.9574 123.554 16.8072 124.272 14.0837 124.272H6.91642V133.683H3.69116V107.893H14.0837V107.821ZM13.6536 121.398C17.5239 121.398 19.5308 119.387 19.5308 116.083C19.5308 114.143 18.7424 112.706 17.8106 112.06C17.3806 111.7 16.8072 111.413 16.1622 111.269C14.9437 110.91 14.3703 110.91 13.6536 110.91H6.91642V121.47H13.6536V121.398Z" fill="#20201F"/>
<path d="M25.9097 133.611V115.149H28.5615L28.9199 118.884H29.1349C30.1383 116.226 32.1452 114.861 35.0837 114.861V117.591C30.9267 117.663 28.9199 120.105 28.9199 125.062V133.611H25.9097Z" fill="#20201F"/>
<path d="M38.5956 117.447C40.244 115.651 42.3942 114.789 45.0461 114.789C47.6979 114.789 49.7764 115.651 51.4249 117.447C53.0734 119.243 53.8618 121.542 53.8618 124.343C53.8618 127.145 53.0734 129.444 51.4249 131.24C49.8481 133.036 47.6979 133.898 45.0461 133.898C42.3942 133.898 40.244 133.036 38.5956 131.312C36.9471 129.516 36.1587 127.217 36.1587 124.415C36.1587 121.614 36.9471 119.315 38.5956 117.447ZM44.9744 131.24C48.4863 131.24 50.6365 128.654 50.6365 124.343C50.6365 120.177 48.558 117.519 44.9744 117.519C41.4624 117.519 39.2406 120.105 39.2406 124.343C39.2406 128.582 41.3191 131.24 44.9744 131.24Z" fill="#20201F"/>
<path d="M58.6638 131.886V131.671C57.5887 131.383 56.8003 130.306 56.8003 129.156C56.8003 127.72 57.732 126.57 59.1655 126.139V125.924C57.3737 124.846 56.5136 123.194 56.5136 120.967C56.5136 119.099 57.1586 117.663 58.4487 116.513C59.7389 115.364 61.3873 114.789 63.4658 114.789C64.8993 114.789 66.046 115.005 66.9778 115.579C67.6945 113.568 69.7013 112.347 72.2098 112.347V114.861C70.4897 114.861 69.1996 115.579 68.7696 116.729C69.9163 117.878 70.4897 119.315 70.4897 121.039C70.4897 124.631 67.7662 127.073 63.6808 127.073C62.8208 127.073 61.9607 127.001 61.1723 126.786C60.0972 126.93 59.5955 127.504 59.5955 128.51C59.5955 129.587 60.3839 130.09 62.0324 130.09H66.9061C70.418 130.09 72.4249 131.814 72.4249 134.688C72.4249 138.208 69.1279 140.076 63.5375 140.076C58.3054 140.076 55.7969 138.352 55.7969 135.55C55.8685 133.754 56.9436 132.389 58.6638 131.886ZM63.7525 137.705C67.5511 137.705 69.4146 136.699 69.4146 134.76C69.4146 133.323 68.4829 132.605 66.6194 132.605H61.674C59.6672 132.605 58.6638 133.395 58.6638 134.975C58.6638 136.771 60.3122 137.705 63.7525 137.705ZM63.5375 124.846C66.046 124.846 67.4795 123.338 67.4795 120.967C67.4795 118.525 65.9027 117.016 63.5375 117.016C61.1006 117.016 59.5955 118.596 59.5955 120.967C59.5955 123.41 61.1723 124.846 63.5375 124.846Z" fill="#20201F"/>
<path d="M75.4351 133.611V115.149H78.0869L78.4453 118.884H78.6603C79.6637 116.226 81.6706 114.861 84.6091 114.861V117.591C80.4521 117.663 78.4453 120.105 78.4453 125.062V133.611H75.4351Z" fill="#20201F"/>
<path d="M93.21 122.619H98.0837V121.254C98.0837 118.596 96.6503 117.232 93.8551 117.232C91.3465 117.232 89.6264 118.525 89.5547 120.536H86.6162C86.7595 118.812 87.4762 117.447 88.838 116.369C90.1998 115.292 91.9199 114.789 93.9984 114.789C98.5855 114.789 101.094 117.232 101.094 121.47V129.875C101.094 130.593 101.166 131.312 102.241 131.312C102.456 131.312 102.742 131.312 102.886 131.24V133.61C102.384 133.754 101.882 133.826 101.309 133.826C99.2305 133.826 98.2271 132.748 98.2271 130.593H98.0121C97.2237 132.605 94.7868 133.969 91.9199 133.969C88.2646 133.969 85.7561 131.743 85.7561 128.582C85.8994 124.703 88.6947 122.619 93.21 122.619ZM92.6366 131.383C95.9336 131.383 98.1554 129.085 98.1554 125.78V124.774H93.4967C90.4865 124.774 88.9814 125.996 88.9814 128.151C88.9814 130.234 90.4148 131.383 92.6366 131.383Z" fill="#20201F"/>
<path d="M106.326 133.61V115.148H108.978L109.336 118.596H109.623C110.77 116.082 112.633 114.789 115.285 114.789C117.865 114.789 119.8 116.441 120.66 118.812H120.947C122.022 116.226 124.316 114.789 126.968 114.789C130.838 114.789 133.131 117.591 133.131 122.26V133.61H130.121V122.547C130.121 119.171 128.759 117.519 126.107 117.519C122.882 117.519 121.305 119.961 121.305 123.84V133.61H118.295V122.547C118.295 119.171 116.933 117.519 114.282 117.519C111.271 117.519 109.408 120.033 109.408 123.769V133.61H106.326Z" fill="#20201F"/>
<path d="M3.69116 170.391V144.674H7.9915L16.0905 163.28H16.3055L24.4045 144.674H28.7048V170.463H25.4796V156.527L25.7663 148.984H25.5512L16.1622 169.96L6.77308 148.912H6.55806L6.84475 156.527V170.463H3.69116V170.391Z" fill="#20201F"/>
<path d="M40.1006 159.4H44.9744V158.035C44.9744 155.377 43.5409 154.012 40.7457 154.012C38.2372 154.012 36.517 155.305 36.4454 157.316H33.5068C33.6501 155.592 34.3669 154.227 35.7286 153.15C37.0904 152.072 38.8106 151.569 40.889 151.569C45.4761 151.569 47.9846 154.012 47.9846 158.25V166.655C47.9846 167.373 48.0563 168.092 49.1314 168.092C49.3464 168.092 49.6331 168.092 49.7764 168.02V170.391C49.2747 170.534 48.773 170.606 48.1996 170.606C46.1211 170.606 45.1177 169.529 45.1177 167.373H44.9027C44.1143 169.385 41.6775 170.75 38.8106 170.75C35.1553 170.75 32.6467 168.523 32.6467 165.362C32.7184 161.483 35.5136 159.4 40.1006 159.4ZM39.4556 168.235C42.7525 168.235 44.9744 165.937 44.9744 162.632V161.626H40.3157C37.3054 161.626 35.8003 162.848 35.8003 165.003C35.872 167.014 37.2338 168.235 39.4556 168.235Z" fill="#20201F"/>
<path d="M53.145 170.391V151.929H55.7969L56.1553 155.377H56.3703C57.517 153.006 59.8105 151.569 62.6058 151.569C66.6194 151.569 68.9846 154.443 68.9846 159.04V170.391H65.9027V159.328C65.9027 155.951 64.4693 154.299 61.5307 154.299C58.3054 154.299 56.0836 156.885 56.0836 160.764V170.391H53.145Z" fill="#20201F"/>
<path d="M79.9505 159.4H84.8242V158.035C84.8242 155.377 83.3908 154.012 80.5956 154.012C78.087 154.012 76.3669 155.305 76.2952 157.316H73.3566C73.5 155.592 74.2167 154.227 75.5785 153.15C76.9403 152.072 78.6604 151.569 80.7389 151.569C85.3259 151.569 87.8345 154.012 87.8345 158.25V166.655C87.8345 167.373 87.9061 168.092 88.9812 168.092C89.1962 168.092 89.4829 168.092 89.6263 168.02V170.391C89.1246 170.534 88.6229 170.606 88.0495 170.606C85.971 170.606 84.9676 169.529 84.9676 167.373H84.7526C83.9642 169.385 81.5273 170.75 78.6604 170.75C75.0051 170.75 72.4966 168.523 72.4966 165.362C72.5683 161.483 75.3635 159.4 79.9505 159.4ZM79.3055 168.235C82.6024 168.235 84.8242 165.937 84.8242 162.632V161.626H80.1655C77.1553 161.626 75.6502 162.848 75.6502 165.003C75.7218 167.014 77.0836 168.235 79.3055 168.235Z" fill="#20201F"/>
<path d="M94.6433 168.667V168.451C93.5682 168.164 92.7798 167.086 92.7798 165.937C92.7798 164.5 93.7115 163.351 95.145 162.92V162.704C93.3532 161.627 92.4931 159.974 92.4931 157.747C92.4931 155.88 93.1381 154.443 94.4282 153.293C95.7183 152.144 97.3668 151.569 99.4453 151.569C100.879 151.569 102.026 151.785 102.957 152.36C103.674 150.348 105.681 149.127 108.189 149.127V151.641C106.469 151.641 105.179 152.36 104.749 153.509C105.896 154.658 106.469 156.095 106.469 157.819C106.469 161.411 103.746 163.853 99.6603 163.853C98.8003 163.853 97.9402 163.782 97.1518 163.566C96.0767 163.71 95.575 164.285 95.575 165.29C95.575 166.368 96.3634 166.871 98.0119 166.871H102.886C106.398 166.871 108.404 168.595 108.404 171.468C108.404 174.988 105.107 176.856 99.517 176.856C94.2849 176.856 91.7764 175.132 91.7764 172.33C91.848 170.534 92.9231 169.241 94.6433 168.667ZM99.732 174.485C103.531 174.485 105.394 173.48 105.394 171.54C105.394 170.103 104.462 169.385 102.599 169.385H97.6535C95.6467 169.385 94.6433 170.175 94.6433 171.756C94.6433 173.623 96.2917 174.485 99.732 174.485ZM99.517 161.627C102.026 161.627 103.459 160.118 103.459 157.747C103.459 155.305 101.882 153.796 99.517 153.796C97.0801 153.796 95.575 155.377 95.575 157.747C95.575 160.19 97.0801 161.627 99.517 161.627Z" fill="#20201F"/>
<path d="M111.988 168.164C110.411 166.44 109.623 164.069 109.623 161.195C109.623 158.322 110.411 155.951 111.988 154.227C113.565 152.431 115.715 151.569 118.295 151.569C123.384 151.569 126.466 154.802 126.466 159.902C126.466 160.621 126.466 161.267 126.394 161.842H112.776C112.776 165.937 114.927 168.307 118.439 168.307C121.09 168.307 123.097 166.942 123.527 164.931H126.609C126.322 166.727 125.391 168.092 123.886 169.241C122.38 170.319 120.589 170.893 118.367 170.893C115.715 170.75 113.565 169.888 111.988 168.164ZM123.384 159.543C123.384 156.023 121.52 154.084 118.223 154.084C114.998 154.084 112.848 156.239 112.705 159.543H123.384Z" fill="#20201F"/>
<path d="M130.265 170.391V151.929H132.917L133.275 155.377H133.562C134.708 152.862 136.572 151.569 139.224 151.569C141.804 151.569 143.739 153.222 144.599 155.592H144.886C145.961 153.006 148.254 151.569 150.906 151.569C154.777 151.569 157.07 154.371 157.07 159.04V170.391H153.988V159.328C153.988 155.951 152.626 154.299 149.975 154.299C146.749 154.299 145.172 156.742 145.172 160.621V170.391H142.162V159.328C142.162 155.951 140.8 154.299 138.149 154.299C135.138 154.299 133.275 156.813 133.275 160.549V170.391H130.265Z" fill="#20201F"/>
<path d="M163.091 168.164C161.514 166.44 160.725 164.069 160.725 161.195C160.725 158.322 161.514 155.951 163.091 154.227C164.667 152.431 166.817 151.569 169.398 151.569C174.486 151.569 177.568 154.802 177.568 159.902C177.568 160.621 177.568 161.267 177.497 161.842H163.879C163.879 165.937 166.029 168.307 169.541 168.307C172.193 168.307 174.2 166.942 174.63 164.931H177.712C177.425 166.727 176.493 168.092 174.988 169.241C173.483 170.319 171.691 170.893 169.469 170.893C166.817 170.75 164.739 169.888 163.091 168.164ZM174.486 159.543C174.486 156.023 172.623 154.084 169.326 154.084C166.101 154.084 163.951 156.239 163.807 159.543H174.486Z" fill="#20201F"/>
<path d="M181.438 170.391V151.929H184.09L184.449 155.377H184.664C185.81 153.006 188.104 151.569 190.899 151.569C194.913 151.569 197.278 154.443 197.278 159.04V170.391H194.196V159.328C194.196 155.951 192.763 154.299 189.824 154.299C186.599 154.299 184.377 156.885 184.377 160.764V170.391H181.438Z" fill="#20201F"/>
<path d="M199.5 151.929H202.654V146.326L205.664 145.177V151.929H209.821V154.444H205.664V165.076C205.664 166.512 205.879 167.805 208.244 167.949C208.889 167.949 209.391 167.877 209.821 167.733V170.32C209.176 170.463 208.387 170.607 207.527 170.607C204.302 170.607 202.654 168.811 202.654 165.363V154.444H199.5V151.929Z" fill="#20201F"/>
<path d="M28.2747 57.1043C12.7218 57.1043 0.107422 44.461 0.107422 28.8725C0.107422 13.2839 12.7218 0.640625 28.2747 0.640625C43.8276 0.640625 56.4419 13.2839 56.4419 28.8725C56.4419 44.461 43.8276 57.1043 28.2747 57.1043Z" fill="#FF8241"/>
<path d="M28.2028 22.5505C24.4042 22.5505 21.3223 19.4615 21.3223 15.6541C21.3223 11.8468 24.4042 8.75781 28.2028 8.75781C32.0015 8.75781 35.0834 11.8468 35.0834 15.6541C35.0834 19.4615 32.0015 22.5505 28.2028 22.5505ZM28.2028 11.2003C25.766 11.2003 23.7591 13.2117 23.7591 15.6541C23.7591 18.0966 25.766 20.108 28.2028 20.108C30.6397 20.108 32.6465 18.0966 32.6465 15.6541C32.6465 13.2117 30.6397 11.2003 28.2028 11.2003Z" fill="white"/>
<path d="M16.1619 29.0871C13.1517 29.0871 10.7148 26.6447 10.7148 23.6276C10.7148 20.6104 13.1517 18.168 16.1619 18.168C19.1722 18.168 21.609 20.6104 21.609 23.6276C21.609 26.6447 19.1722 29.0871 16.1619 29.0871ZM16.1619 20.6104C14.5135 20.6104 13.1517 21.9753 13.1517 23.6276C13.1517 25.2798 14.5135 26.6447 16.1619 26.6447C17.8104 26.6447 19.1722 25.2798 19.1722 23.6276C19.1722 21.9753 17.8104 20.6104 16.1619 20.6104Z" fill="white"/>
<path d="M40.3873 29.0871C37.3771 29.0871 34.9402 26.6447 34.9402 23.6276C34.9402 20.6104 37.3771 18.168 40.3873 18.168C43.3975 18.168 45.8344 20.6104 45.8344 23.6276C45.8344 26.6447 43.3975 29.0871 40.3873 29.0871ZM40.3873 20.6104C38.7388 20.6104 37.3771 21.9753 37.3771 23.6276C37.3771 25.2798 38.7388 26.6447 40.3873 26.6447C42.0358 26.6447 43.3975 25.2798 43.3975 23.6276C43.3975 21.9753 42.0358 20.6104 40.3873 20.6104Z" fill="white"/>
<path d="M28.203 49.0583C18.6705 49.0583 10.9299 41.2999 10.9299 31.7456V30.5244H12.1484C14.5136 30.5244 16.7354 30.9554 18.8856 31.8893L17.9538 34.1163C16.5204 33.5416 15.0153 33.1105 13.4385 32.9669C14.0835 40.5816 20.4624 46.544 28.2746 46.544V49.0583H28.203Z" fill="white"/>
<path d="M28.2029 49.0579V46.6154C35.9435 46.6154 42.3223 40.653 43.0391 33.0383C41.4623 33.1819 39.9571 33.5411 38.5954 34.1158L37.6636 31.817C39.8138 30.955 42.0356 30.4521 44.4008 30.4521H45.6193V31.6734C45.5476 41.2995 37.7353 49.0579 28.2029 49.0579Z" fill="white"/>
<path d="M28.2028 49.0583C26.4827 49.0583 24.8342 48.4117 23.6158 47.1187C20.0322 43.5268 18.7421 38.2828 20.3189 33.4697C21.1073 30.8836 22.8991 28.5848 25.3359 26.7889L28.2745 24.6338L31.2131 26.7889C33.6499 28.5848 35.3701 30.8836 36.2301 33.4697C37.7353 38.2828 36.5168 43.5268 32.9332 47.1187C31.5714 48.4117 29.9946 49.0583 28.2028 49.0583ZM28.2028 27.7228L26.6977 28.8003C24.6909 30.3089 23.2574 32.1766 22.6124 34.2599C21.394 38.2109 22.3974 42.5211 25.3359 45.3946C26.1243 46.1848 27.1278 46.6158 28.2028 46.6158C29.2779 46.6158 30.2813 46.1848 31.0697 45.3946C34.0083 42.4493 35.0117 38.2109 33.7933 34.2599C33.1482 32.1766 31.7148 30.3089 29.708 28.8003L28.2028 27.7228Z" fill="white"/>
</svg>
