<svg width="110" height="134" viewBox="0 0 110 134" fill="none" xmlns="http://www.w3.org/2000/svg">
<path d="M39.7 78.7C18 78.7 0.400024 61.1 0.400024 39.4C0.400024 17.7 18.1 0 39.7 0C61.3 0 79 17.6 79 39.3C79 61 61.4 78.7 39.7 78.7Z" fill="#05BC71"/>
<path d="M39.8001 10.3C37.7001 10.3 35.7001 10.5 33.7001 10.9C33.6001 10.9 33.5001 10.9 33.5001 10.9C20.5001 13.8 10.7001 25.4 10.7001 39.3C10.7001 53.2 20.5001 64.8 33.5001 67.7C33.6001 67.7 33.7001 67.7 33.7001 67.7C35.6001 68.1 37.7001 68.3 39.8001 68.3C55.8001 68.3 68.9001 55.3 68.9001 39.2C68.8001 23.3 55.8001 10.3 39.8001 10.3ZM14.5001 39.4C14.5001 33.5 16.6001 28 20.0001 23.7C24.5001 27.7 27.1001 33.4 27.1001 39.4C27.1001 45.4 24.5001 51.2 20.0001 55.1C16.5001 50.8 14.5001 45.3 14.5001 39.4ZM22.6001 57.9C27.8001 53.2 30.9001 46.5 30.9001 39.4C30.9001 32.3 27.8001 25.6 22.6001 20.9C23.6001 20 24.6001 19.2 25.7001 18.4C34.5001 21.6 40.3001 29.9 40.3001 39.4C40.3001 48.9 34.5001 57.1 25.7001 60.4C24.6001 59.6 23.5001 58.8 22.6001 57.9ZM29.9001 62.6C38.5001 58.2 44.1001 49.3 44.1001 39.4C44.1001 29.5 38.5001 20.6 29.9001 16.2C31.1001 15.7 32.4001 15.2 33.8001 14.9C45.0001 17.7 53.0001 27.8 53.0001 39.4C53.0001 51 45.0001 61.2 33.8001 63.9C32.4001 63.6 31.1001 63.2 29.9001 62.6ZM42.2001 64.5C51.0001 59.4 56.7001 49.9 56.7001 39.4C56.7001 28.9 50.9001 19.3 42.2001 14.2C55.0001 15.4 65.0001 26.2 65.0001 39.4C65.0001 52.5 55.0001 63.3 42.2001 64.5Z" fill="white"/>
<path d="M31.6001 96.6V100.2L10.9001 128.3H31.4001V132.4H5.20007V128.8L25.9001 100.6H5.20007V96.5H31.6001V96.6Z" fill="#20201F"/>
<path d="M36.2 129.4C34 127 32.9 123.7 32.9 119.7C32.9 115.7 34 112.4 36.2 110C38.4 107.5 41.4 106.3 45 106.3C52.1 106.3 56.4 110.8 56.4 117.8C56.4 118.8 56.4 119.7 56.3 120.5H37.3C37.3 126.2 40.3 129.4 45.2 129.4C48.9 129.4 51.7 127.5 52.3 124.7H56.6C56.2 127.2 54.9 129.1 52.8 130.6C50.7 132.1 48.2 132.9 45.1 132.9C41.4 133 38.4 131.8 36.2 129.4ZM52.1 117.4C52.1 112.5 49.5 109.8 44.9 109.8C40.4 109.8 37.4 112.8 37.2 117.4H52.1Z" fill="#20201F"/>
<path d="M61.3 132.5V96.5H65.5001V132.5H61.3Z" fill="#20201F"/>
<path d="M68.8 106.8H73.2001V99L77.4001 97.4V106.8H83.1001V110.3H77.4001V125.1C77.4001 127.1 77.7001 128.9 81.0001 129.1C81.9001 129.1 82.6001 129 83.2001 128.8V132.4C82.3001 132.6 81.2001 132.8 80.0001 132.8C75.5001 132.8 73.2001 130.3 73.2001 125.5V110.3H68.8V106.8Z" fill="#20201F"/>
<path d="M95.9001 117.2H102.7V115.3C102.7 111.6 100.7 109.7 96.8001 109.7C93.3001 109.7 91.0001 111.5 90.8001 114.3H86.7001C86.9001 111.9 87.9001 110 89.8001 108.6C91.7001 107.1 94.1001 106.4 97.0001 106.4C103.4 106.4 106.9 109.8 106.9 115.7V127.4C106.9 128.4 107 129.4 108.5 129.4C108.8 129.4 109.2 129.4 109.4 129.3V132.6C108.7 132.8 108 132.9 107.2 132.9C104.3 132.9 102.9 131.4 102.9 128.4H102.6C101.5 131.2 98.1001 133.1 94.1001 133.1C89.0001 133.1 85.6001 130.1 85.6001 125.6C85.6001 120.1 89.5001 117.2 95.9001 117.2ZM95.0001 129.4C99.6001 129.4 102.7 126.2 102.7 121.6V120.2H96.2001C92.0001 120.2 90.0001 121.9 90.0001 124.9C90.0001 127.8 92.0001 129.4 95.0001 129.4Z" fill="#20201F"/>
</svg>
