<svg width="80" height="97" viewBox="0 0 80 97" fill="none" xmlns="http://www.w3.org/2000/svg">
<path d="M29.2947 56.806C13.6315 56.806 0.927734 44.1023 0.927734 28.4391C0.927734 12.7759 13.7037 0 29.2947 0C44.8856 0 57.6616 12.7038 57.6616 28.3669C57.6616 44.0301 44.9578 56.806 29.2947 56.806Z" fill="#05BC71"/>
<path d="M29.3668 7.43457C27.851 7.43457 26.4074 7.57893 24.9638 7.86765C24.8916 7.86765 24.8194 7.86765 24.8194 7.86765C15.436 9.96089 8.3623 18.3338 8.3623 28.3669C8.3623 38.4 15.436 46.7729 24.8194 48.8661C24.8916 48.8661 24.9638 48.8661 24.9638 48.8661C26.3352 49.1549 27.851 49.2992 29.3668 49.2992C40.9157 49.2992 50.3713 39.9158 50.3713 28.2947C50.2991 16.818 40.9157 7.43457 29.3668 7.43457ZM11.1052 28.4391C11.1052 24.1804 12.6209 20.2105 15.0751 17.1067C18.3232 19.994 20.1999 24.1083 20.1999 28.4391C20.1999 32.7699 18.3232 36.9564 15.0751 39.7714C12.5488 36.6677 11.1052 32.6977 11.1052 28.4391ZM16.9518 41.7925C20.7052 38.4 22.9428 33.5639 22.9428 28.4391C22.9428 23.3143 20.7052 18.4782 16.9518 15.0857C17.6736 14.4361 18.3954 13.8586 19.1894 13.2812C25.5413 15.591 29.7277 21.5819 29.7277 28.4391C29.7277 35.2962 25.5413 41.215 19.1894 43.597C18.3954 43.0195 17.6014 42.4421 16.9518 41.7925ZM22.2209 45.1849C28.4285 42.009 32.4706 35.5849 32.4706 28.4391C32.4706 21.2932 28.4285 14.8692 22.2209 11.6932C23.0871 11.3323 24.0255 10.9714 25.036 10.7549C33.1202 12.7759 38.8946 20.0661 38.8946 28.4391C38.8946 36.812 33.1202 44.1744 25.036 46.1233C24.0255 45.9067 23.0871 45.618 22.2209 45.1849ZM31.0991 46.5564C37.451 42.8752 41.5653 36.018 41.5653 28.4391C41.5653 20.8601 37.3788 13.9308 31.0991 10.2496C40.3382 11.1158 47.5563 18.9113 47.5563 28.4391C47.5563 37.8947 40.3382 45.6902 31.0991 46.5564Z" fill="white"/>
<path d="M23.448 69.7265V72.325L8.50662 92.6077H23.3036V95.5671H4.39233V92.9686L19.3337 72.6137H4.39233V69.6543H23.448V69.7265Z" fill="#20201F"/>
<path d="M26.7682 93.4012C25.1802 91.6689 24.3862 89.2869 24.3862 86.3997C24.3862 83.5125 25.1802 81.1305 26.7682 79.3982C28.3562 77.5937 30.5216 76.7275 33.1201 76.7275C38.2449 76.7275 41.3486 79.9757 41.3486 85.0283C41.3486 85.7501 41.3486 86.3997 41.2765 86.9772H27.5622C27.5622 91.0914 29.7276 93.4012 33.2644 93.4012C35.9351 93.4012 37.9562 92.0298 38.3892 90.0087H41.493C41.2043 91.8132 40.2659 93.1847 38.7501 94.2674C37.2343 95.3501 35.4298 95.9275 33.1922 95.9275C30.5216 95.9997 28.3562 95.1335 26.7682 93.4012ZM38.2449 84.7396C38.2449 81.2027 36.3682 79.2539 33.0479 79.2539C29.7998 79.2539 27.6344 81.4193 27.49 84.7396H38.2449Z" fill="#20201F"/>
<path d="M44.8855 95.6393V69.6543H47.9171V95.6393H44.8855Z" fill="#20201F"/>
<path d="M50.2991 77.0887H53.475V71.4586L56.5066 70.3037V77.0887H60.6209V79.615H56.5066V90.2977C56.5066 91.7413 56.7231 93.0406 59.1051 93.1849C59.7547 93.1849 60.26 93.1127 60.6931 92.9684V95.5669C60.0434 95.7112 59.2495 95.8556 58.3833 95.8556C55.1352 95.8556 53.475 94.0511 53.475 90.5864V79.615H50.2991V77.0887Z" fill="#20201F"/>
<path d="M69.8599 84.5953H74.7682V83.2239C74.7682 80.5532 73.3245 79.1818 70.5095 79.1818C67.9832 79.1818 66.323 80.481 66.1787 82.5021H63.2193C63.3636 80.7697 64.0854 79.3983 65.4569 78.3878C66.8283 77.3051 68.5606 76.7998 70.6539 76.7998C75.2734 76.7998 77.7997 79.2539 77.7997 83.5126V91.9577C77.7997 92.6795 77.8719 93.4013 78.9546 93.4013C79.1712 93.4013 79.4599 93.4013 79.6042 93.3291V95.7111C79.099 95.8554 78.5937 95.9276 78.0163 95.9276C75.923 95.9276 74.9125 94.8449 74.9125 92.6795H74.696C73.902 94.7006 71.4478 96.072 68.5606 96.072C64.8794 96.072 62.4253 93.9066 62.4253 90.6585C62.4253 86.6885 65.2403 84.5953 69.8599 84.5953ZM69.2103 93.4013C72.5306 93.4013 74.7682 91.0915 74.7682 87.7712V86.7607H70.0764C67.0448 86.7607 65.6012 87.9878 65.6012 90.1532C65.6012 92.2464 67.0448 93.4013 69.2103 93.4013Z" fill="#20201F"/>
</svg>
