<svg width="128" height="45" viewBox="0 0 128 45" fill="none" xmlns="http://www.w3.org/2000/svg">
<g clip-path="url(#clip0_646_233)">
<path d="M103.321 21.2509C103.358 18.4922 102.847 15.7536 101.818 13.1941C100.788 10.6346 99.2611 8.30526 97.3247 6.34131C95.3882 4.37737 93.0812 2.81794 90.5375 1.75357C87.9938 0.689208 85.2641 0.141113 82.507 0.141113C79.7498 0.141113 77.0202 0.689208 74.4765 1.75357C71.9328 2.81794 69.6257 4.37737 67.6892 6.34131C65.7528 8.30526 64.2255 10.6346 63.1961 13.1941C62.1666 15.7536 61.6556 18.4922 61.6925 21.2509H64.4818C64.4473 18.8603 64.8881 16.4868 65.7785 14.2681C66.6689 12.0495 67.9912 10.0302 69.6684 8.32747C71.3456 6.62476 73.3443 5.27266 75.5484 4.34978C77.7524 3.42689 80.1177 2.95164 82.507 2.95164C84.8962 2.95164 87.2615 3.42689 89.4655 4.34978C91.6696 5.27266 93.6683 6.62476 95.3455 8.32747C97.0227 10.0302 98.345 12.0495 99.2354 14.2681C100.126 16.4868 100.567 18.8603 100.532 21.2509H103.321Z" fill="url(#paint0_linear_646_233)"/>
<path d="M16.3311 28.6204C15.3684 28.621 14.4185 28.8402 13.5528 29.2614C12.687 29.6825 11.928 30.2947 11.3329 31.0518C10.5132 30.0214 9.39452 29.2706 8.13078 28.9028C6.86705 28.535 5.52044 28.5683 4.27638 28.9981C3.03232 29.4278 1.95197 30.233 1.18411 31.3026C0.416258 32.3722 -0.001352 33.6537 -0.0112305 34.9707V44.5954H2.69563V34.8545C2.69798 33.9103 3.06525 33.0037 3.7205 32.3243C4.37576 31.6449 5.26823 31.2455 6.2111 31.2097C7.15397 31.1739 8.07413 31.5044 8.77898 32.1321C9.48383 32.7598 9.91867 33.636 9.99256 34.5773V44.5879H12.677V34.5848C12.7366 33.6335 13.1655 32.7432 13.8721 32.104C14.5787 31.4647 15.5069 31.1272 16.4587 31.1634C17.4105 31.1995 18.3105 31.6066 18.9666 32.2976C19.6226 32.9887 19.9828 33.9089 19.9702 34.862V44.6029H22.6958V34.9707C22.6908 33.2847 22.0181 31.6696 20.825 30.4792C19.6319 29.2888 18.0159 28.6204 16.3311 28.6204Z" fill="white"/>
<path d="M52.4152 28.9426C50.7272 28.9426 49.1083 29.6136 47.9147 30.8081C46.7211 32.0025 46.0505 33.6225 46.0505 35.3117V44.6104H48.7611V35.2592C48.7611 33.2398 50.4422 31.6401 52.5538 31.5802C53.5796 31.5539 54.7103 31.6289 54.7103 31.6289L54.86 29.0251C54.86 29.0251 54.0326 28.9464 52.4152 28.9426Z" fill="white"/>
<path d="M71.1836 31.64H76.5075V44.5954H79.2143V31.64H84.5045V29.0212H71.1836V31.64Z" fill="white"/>
<path d="M90.9327 29.0249H88.2258V44.599H90.9327V29.0249Z" fill="white"/>
<path d="M55.2007 44.5955H58.1285L62.9956 31.9548L67.8627 44.5955H70.7904C70.7904 44.5955 65.2307 30.6661 64.92 29.9055C64.758 29.5249 64.4879 29.2004 64.143 28.9723C63.7982 28.7442 63.394 28.6226 62.9806 28.6226C62.5672 28.6226 62.163 28.7442 61.8182 28.9723C61.4734 29.2004 61.2032 29.5249 61.0413 29.9055L55.2007 44.5955Z" fill="white"/>
<path d="M94.1562 29.0249H97.0803L101.97 41.6655L106.837 29.0249H109.761C109.761 29.0249 104.205 42.9543 103.89 43.7111C103.73 44.0931 103.46 44.4191 103.115 44.6484C102.77 44.8777 102.365 44.9999 101.951 44.9999C101.537 44.9999 101.132 44.8777 100.787 44.6484C100.442 44.4191 100.172 44.0931 100.012 43.7111L94.1562 29.0249Z" fill="white"/>
<path d="M127.009 36.8401C127.054 34.6991 126.28 32.6217 124.845 31.033C124.149 30.2448 123.287 29.6199 122.321 29.2029C121.356 28.7859 120.31 28.587 119.259 28.6203C116.853 28.6203 114.893 29.3983 113.378 30.9544C112.626 31.7283 112.038 32.6455 111.647 33.6514C111.257 34.6573 111.073 35.7315 111.105 36.8101C111.071 37.8951 111.258 38.9757 111.657 39.9854C112.056 40.995 112.656 41.9124 113.423 42.6809C114.97 44.2269 116.978 44.9999 119.447 44.9999C122.299 44.9999 124.48 43.9734 125.987 41.9203L123.782 40.4704C122.841 41.7892 121.412 42.4486 119.495 42.4486C118.162 42.4914 116.853 42.0851 115.778 41.2947C114.753 40.4972 114.069 39.3403 113.864 38.0577H126.905C126.968 37.6549 127.004 37.2479 127.009 36.8401ZM113.876 35.6899C114.038 34.3962 114.683 33.2118 115.682 32.374C116.68 31.5361 117.958 31.1066 119.259 31.1716C120.452 31.1542 121.611 31.5634 122.528 32.3256C123.461 33.0924 124.042 34.2163 124.269 35.6974L113.876 35.6899Z" fill="white"/>
<path d="M42.2352 36.8402C42.2823 34.6989 41.5079 32.6208 40.0712 31.0331C39.3749 30.2445 38.5132 29.6193 37.5476 29.2023C36.582 28.7852 35.5364 28.5865 34.4853 28.6204C32.0767 28.6204 30.1161 29.3984 28.6036 30.9545C27.8521 31.7284 27.2637 32.6456 26.8733 33.6515C26.4829 34.6574 26.2985 35.7316 26.331 36.8102C26.2973 37.8951 26.4856 38.9755 26.8841 39.985C27.2826 40.9945 27.883 41.9119 28.6485 42.681C30.1935 44.227 32.2015 45 34.6725 45C37.5254 45 39.7068 43.9735 41.2169 41.9204L39.0192 40.4705C38.0807 41.7893 36.653 42.4487 34.7361 42.4487C33.4015 42.4924 32.0908 42.086 31.0146 41.2948C29.9901 40.4973 29.3063 39.3404 29.1015 38.0578H42.1416C42.2037 37.6549 42.235 37.2479 42.2352 36.8402ZM29.0865 35.69C29.2508 34.3971 29.8965 33.2137 30.8944 32.3762C31.8924 31.5386 33.1693 31.1085 34.4703 31.1718C35.6626 31.153 36.8222 31.5624 37.7388 32.3257C38.6698 33.0925 39.2513 34.2164 39.4834 35.6975L29.0865 35.69Z" fill="white"/>
</g>
<defs>
<linearGradient id="paint0_linear_646_233" x1="59.1033" y1="10.5139" x2="94.6927" y2="-3.49056" gradientUnits="userSpaceOnUse">
<stop stop-color="#9900FF"/>
<stop offset="1" stop-color="#FA1E32"/>
</linearGradient>
<clipPath id="clip0_646_233">
<rect width="127.009" height="45" fill="white"/>
</clipPath>
</defs>
</svg>
