<svg width="27" height="21" viewBox="0 0 27 21" fill="none" xmlns="http://www.w3.org/2000/svg">
<path d="M26.0275 2.70617C25.1012 3.11795 24.1042 3.39571 23.0581 3.52001C24.1262 2.8806 24.9452 1.86778 25.3314 0.65955C24.3323 1.25241 23.2264 1.6826 22.0484 1.91484C21.1056 0.910198 19.7618 0.282043 18.2748 0.282043C15.42 0.282043 13.1054 2.5967 13.1054 5.45205C13.1054 5.85666 13.1509 6.25105 13.2394 6.63009C8.94254 6.41423 5.13269 4.35636 2.58273 1.22837C2.1377 1.99157 1.88296 2.87958 1.88296 3.82795C1.88296 5.62136 2.79553 7.20403 4.18279 8.13091C3.3357 8.1038 2.53823 7.87106 1.84102 7.48383C1.84051 7.50532 1.84051 7.52731 1.84051 7.54931C1.84051 10.0537 3.62266 12.1428 5.98797 12.6185C5.55419 12.7362 5.0974 12.7996 4.62577 12.7996C4.29225 12.7996 3.96846 12.7674 3.65285 12.7065C4.31118 14.7603 6.2202 16.2555 8.48217 16.2969C6.7128 17.6837 4.48408 18.5103 2.06149 18.5103C1.64459 18.5103 1.23281 18.4858 0.828194 18.4377C3.11677 19.9052 5.834 20.7605 8.75328 20.7605C18.2631 20.7605 23.4627 12.883 23.4627 6.05104C23.4627 5.827 23.4581 5.60346 23.4484 5.38146C24.4582 4.65406 25.3349 3.74303 26.0275 2.70617Z" fill="white"/>
</svg>
