<svg width="64" height="64" viewBox="0 0 64 64" fill="none" xmlns="http://www.w3.org/2000/svg">
<rect width="64" height="64" rx="32" fill="white"/>
<g clip-path="url(#clip0_16_32)">
<mask id="mask0_16_32" style="mask-type:luminance" maskUnits="userSpaceOnUse" x="14" y="13" width="36" height="33">
<path d="M50 13H14V45.9143H50V13Z" fill="white"/>
</mask>
<g mask="url(#mask0_16_32)">
<path d="M49.9863 31.5581H47.5863C47.5863 22.6748 40.592 15.4511 31.9932 15.4511C23.3943 15.4511 16.4 22.6748 16.4 31.5581H14C14 21.3232 22.0709 13.0001 31.9932 13.0001C41.9154 13.0001 49.9863 21.3232 49.9863 31.5581Z" fill="url(#paint0_linear_16_32)"/>
<path d="M42.0971 37.0625V45.8163H39.6971V36.9609C39.6976 36.5243 39.6138 36.0918 39.4505 35.6882C39.2871 35.2846 39.0475 34.9179 38.7454 34.609C38.4432 34.3001 38.0843 34.055 37.6894 33.8878C37.2944 33.7206 36.871 33.6345 36.4434 33.6345C34.7291 33.6345 33.1966 35.0351 33.1966 36.7543V45.8093H30.7966V36.7578C30.7966 35.0386 29.264 33.638 27.5497 33.638C27.1221 33.638 26.6987 33.7241 26.3038 33.8913C25.9088 34.0585 25.55 34.3036 25.2478 34.6125C24.9456 34.9214 24.706 35.2881 24.5427 35.6917C24.3794 36.0953 24.2956 36.5278 24.296 36.9645V45.8128H21.896V37.059C21.8978 35.8593 22.2656 34.6899 22.9481 33.7135C23.6305 32.737 24.5939 32.0019 25.7042 31.6103C26.8146 31.2187 28.0168 31.1901 29.1439 31.5284C30.2709 31.8666 31.2668 32.555 31.9931 33.4979C32.7189 32.552 33.7156 31.8609 34.8442 31.521C35.9728 31.181 37.1772 31.2092 38.2894 31.6016C39.4016 31.994 40.3662 32.731 41.0487 33.7098C41.7313 34.6888 42.0978 35.8608 42.0971 37.0625Z" fill="#20201F"/>
</g>
</g>
<defs>
<linearGradient id="paint0_linear_16_32" x1="11.7636" y1="22.119" x2="42.664" y2="10.1635" gradientUnits="userSpaceOnUse">
<stop stop-color="#9900FF"/>
<stop offset="1" stop-color="#FA1E32"/>
</linearGradient>
<clipPath id="clip0_16_32">
<rect width="36" height="32.9143" fill="white" transform="translate(14 13)"/>
</clipPath>
</defs>
</svg>
