<svg width="1200" height="630" viewBox="0 0 1200 630" fill="none" xmlns="http://www.w3.org/2000/svg">
<path d="M857 326.071H822.386C822.386 200.623 721.515 98.6133 597.5 98.6133C473.486 98.6133 372.613 200.623 372.613 326.071H338C338 181.536 454.399 64 597.5 64C740.602 64 857 181.536 857 326.071Z" fill="url(#paint0_linear_3196_19501)"/>
<path d="M743.173 407.656V531.274H708.559V406.222C708.566 400.057 707.355 393.95 705.003 388.248C702.647 382.55 699.191 377.371 694.833 373.01C690.475 368.645 685.299 365.186 679.604 362.824C673.906 360.461 667.799 359.248 661.633 359.248C636.91 359.248 614.807 379.026 614.807 403.305V531.177H580.194V403.354C580.194 379.075 558.09 359.297 533.367 359.297C527.2 359.297 521.094 360.513 515.398 362.872C509.701 365.235 504.526 368.697 500.168 373.058C495.81 377.423 492.354 382.599 489.999 388.3C487.644 393.998 486.435 400.105 486.441 406.271V531.226H451.828V407.608C451.855 390.666 457.158 374.152 467.001 360.364C476.844 346.574 490.737 336.193 506.751 330.663C522.765 325.133 540.104 324.728 556.358 329.505C572.613 334.282 586.975 344.004 597.451 357.319C607.918 343.961 622.292 334.201 638.569 329.401C654.847 324.601 672.215 324.998 688.255 330.539C704.295 336.08 718.21 346.488 728.052 360.312C737.897 374.136 743.183 390.685 743.173 407.656Z" fill="#20201F"/>
<defs>
<linearGradient id="paint0_linear_3196_19501" x1="305.745" y1="192.775" x2="748.916" y2="17.6628" gradientUnits="userSpaceOnUse">
<stop stop-color="#9900FF"/>
<stop offset="1" stop-color="#FA1E32"/>
</linearGradient>
</defs>
</svg>
