<?xml version="1.0" standalone="no"?>
<!DOCTYPE svg PUBLIC "-//W3C//DTD SVG 20010904//EN"
 "http://www.w3.org/TR/2001/REC-SVG-20010904/DTD/svg10.dtd">
<svg version="1.0" xmlns="http://www.w3.org/2000/svg"
 width="700.000000pt" height="700.000000pt" viewBox="0 0 700.000000 700.000000"
 preserveAspectRatio="xMidYMid meet">
<metadata>
Created by potrace 1.14, written by Peter Selinger 2001-2017
</metadata>
<g transform="translate(0.000000,700.000000) scale(0.100000,-0.100000)"
fill="#000000" stroke="none">
<path d="M3457 6564 c-1 -1 -65 -4 -143 -8 -77 -3 -150 -8 -161 -11 -12 -2
-52 -6 -90 -10 -37 -3 -86 -10 -108 -15 -22 -5 -56 -11 -75 -14 -184 -28 -475
-113 -688 -200 -800 -328 -1457 -945 -1832 -1720 -116 -239 -220 -528 -265
-736 -33 -148 -41 -190 -51 -259 -4 -25 -8 -53 -9 -61 -2 -8 -6 -46 -10 -85
-4 -38 -9 -79 -11 -90 -2 -11 -7 -88 -10 -172 l-6 -153 236 0 236 0 1 93 c0
50 2 108 3 127 7 85 18 195 21 200 2 3 6 30 10 60 3 30 8 62 10 70 2 8 7 31
10 50 3 19 8 43 11 52 3 9 7 26 9 39 18 95 104 371 140 454 80 182 113 251
161 338 213 385 494 709 854 983 236 180 545 342 860 449 203 69 492 126 720
142 169 11 523 4 572 -11 7 -3 38 -7 68 -11 90 -9 288 -52 420 -90 242 -69
529 -198 748 -335 90 -56 303 -210 338 -244 6 -6 37 -33 68 -60 67 -57 254
-247 288 -291 12 -16 25 -32 28 -35 3 -3 24 -27 45 -55 22 -27 42 -52 45 -55
4 -3 33 -43 65 -90 218 -311 378 -658 470 -1016 26 -105 29 -118 39 -175 3
-19 8 -45 11 -59 2 -13 7 -42 10 -65 3 -22 8 -51 10 -65 12 -70 23 -225 24
-332 l1 -68 234 0 234 0 -3 103 c-4 117 -14 260 -20 297 -2 14 -7 48 -10 75
-3 28 -10 75 -15 105 -5 30 -12 71 -15 90 -12 72 -85 349 -120 455 -85 255
-214 529 -353 750 -78 124 -232 337 -289 400 -10 11 -33 38 -52 60 -306 361
-780 710 -1231 905 -41 18 -88 38 -105 45 -150 65 -371 131 -588 175 -139 29
-156 32 -300 50 -84 10 -433 29 -440 24z"/>
<path d="M2529 3076 c-2 -2 -26 -6 -54 -10 -107 -12 -270 -66 -357 -117 -27
-16 -51 -29 -54 -29 -3 0 -38 -25 -79 -55 -233 -172 -379 -409 -437 -710 -8
-42 -11 -316 -12 -943 -1 -486 1 -887 4 -890 3 -4 107 -7 233 -7 221 0 227 0
228 20 0 11 1 414 3 895 2 481 6 888 10 903 15 61 56 158 89 209 90 138 253
252 395 274 21 3 40 8 45 11 4 2 44 4 90 4 250 -1 474 -141 579 -361 53 -111
52 -83 54 -1035 1 -490 2 -897 3 -905 1 -13 32 -15 229 -14 125 1 229 2 232 3
3 0 4 398 4 883 -1 706 1 896 12 948 22 107 77 204 163 290 353 351 936 198
1067 -281 16 -59 18 -138 19 -946 1 -485 5 -886 9 -890 10 -10 449 -11 456 -2
8 11 4 1716 -4 1780 -4 31 -9 67 -11 80 -3 13 -7 35 -10 49 -9 52 -48 158 -87
238 -121 252 -355 458 -624 553 -122 42 -239 59 -389 55 -77 -3 -149 -7 -160
-9 -11 -3 -41 -10 -67 -16 -109 -25 -230 -77 -336 -143 -76 -49 -125 -90 -214
-182 -38 -39 -68 -66 -68 -60 0 15 -130 143 -198 195 -117 89 -276 160 -437
195 -61 14 -316 29 -326 20z"/>
</g>
</svg>
