<svg width="43" height="43" viewBox="0 0 43 43" fill="none" xmlns="http://www.w3.org/2000/svg">
<path d="M21.5008 0.0498047C17.2584 0.0498047 13.1112 1.30783 9.58381 3.66478C6.05638 6.02174 3.30708 9.37177 1.68358 13.2912C0.0600751 17.2107 -0.364706 21.5236 0.462947 25.6845C1.2906 29.8454 3.33352 33.6674 6.33335 36.6672C9.33319 39.6671 13.1552 41.71 17.3161 42.5377C21.477 43.3653 25.7899 42.9405 29.7094 41.317C33.6288 39.6935 36.9789 36.9442 39.3358 33.4168C41.6928 29.8894 42.9508 25.7422 42.9508 21.4998C42.9435 15.8131 40.6813 10.3615 36.6602 6.3404C32.6391 2.31932 27.1875 0.0570813 21.5008 0.0498047ZM21.5008 2.2498C25.3586 2.24636 29.1274 3.40808 32.3138 5.5828V9.94981C32.3157 10.0538 32.2806 10.1552 32.2148 10.2358L27.6828 15.8678C27.5916 15.9732 27.4639 16.04 27.3253 16.0548L20.8848 16.5113C20.755 16.5222 20.6252 16.4893 20.5163 16.4178L16.1713 13.6678C15.6003 13.3093 14.9147 13.1804 14.2524 13.3069C13.5902 13.4335 13.0004 13.8061 12.6018 14.3498L7.41529 21.4008C7.27669 21.5889 7.20156 21.8162 7.20079 22.0498V30.2998L5.23729 31.7793C3.39878 28.8684 2.3746 25.5176 2.2715 22.0763C2.16839 18.6349 2.99013 15.2289 4.65108 12.2131C6.31203 9.19733 8.7514 6.68221 11.715 4.92983C14.6786 3.17745 18.0579 2.25196 21.5008 2.2498ZM6.51879 33.5998L8.96079 31.7298C9.09741 31.6273 9.20829 31.4945 9.28466 31.3417C9.36103 31.189 9.40079 31.0206 9.40079 30.8498V22.4073L14.3508 15.6258C14.4183 15.532 14.5194 15.4676 14.633 15.4462C14.7466 15.4247 14.8641 15.4476 14.9613 15.5103L19.3063 18.2603C19.8132 18.5891 20.4144 18.7418 21.0168 18.6948L27.4573 18.2383C27.8273 18.2098 28.1875 18.1057 28.5157 17.9326C28.844 17.7595 29.1333 17.521 29.3658 17.2318L33.9253 11.5998C34.3024 11.1322 34.5098 10.5505 34.5138 9.94981V7.3318C37.1987 9.791 39.1297 12.9623 40.082 16.4765C41.0343 19.9906 40.9687 23.703 39.8928 27.1813L36.1363 24.0188C35.7652 23.7096 35.3192 23.5036 34.8432 23.4216C34.3672 23.3395 33.878 23.3842 33.4248 23.5513L26.0988 26.3013C25.7304 26.4374 25.4079 26.6748 25.1685 26.9862C24.9291 27.2976 24.7826 27.6703 24.7458 28.0613L24.4103 31.3998C24.3414 32.092 24.5265 32.7856 24.9313 33.3513C25.3361 33.917 25.9329 34.3162 26.6103 34.4743L29.1568 35.0628C30.499 35.3649 31.6845 36.1473 32.4898 37.2628C28.5029 40.0581 23.6031 41.2348 18.7817 40.5547C13.9602 39.8747 9.57701 37.3888 6.51879 33.5998ZM34.2278 35.9538C33.1149 34.4348 31.4926 33.3669 29.6573 32.9453L27.1108 32.3293C26.9538 32.2916 26.8156 32.1986 26.7216 32.0672C26.6277 31.9359 26.5843 31.7751 26.5993 31.6143L26.9293 28.3143L34.2003 25.5643C34.2865 25.5315 34.3799 25.5224 34.4708 25.5379C34.5617 25.5534 34.6468 25.5929 34.7173 25.6523L39.0678 29.3098C37.9454 31.8356 36.2951 34.0917 34.2278 35.9263V35.9538Z" fill="#9900FF"/>
</svg>
