<svg width="51" height="43" viewBox="0 0 51 43" fill="none" xmlns="http://www.w3.org/2000/svg">
<path d="M44.1999 0.32521C42.9756 0.327669 41.7808 0.701523 40.7735 1.39738C39.7661 2.09323 38.9936 3.07833 38.558 4.22253C38.1223 5.36672 38.0441 6.61616 38.3336 7.80576C38.6231 8.99536 39.2667 10.0691 40.1794 10.8852L34.0194 22.6442C33.1913 22.3625 32.3116 22.2658 31.4421 22.3608C30.5726 22.4558 29.7345 22.7403 28.9869 23.1942L23.7179 18.2442C24.5128 17.2048 24.9456 15.9337 24.9499 14.6252C24.952 13.6157 24.7014 12.6217 24.2211 11.7338C23.7407 10.8459 23.0459 10.0924 22.1997 9.54174C21.3536 8.99113 20.3832 8.661 19.3768 8.58142C18.3704 8.50185 17.3601 8.67536 16.438 9.08615C15.5159 9.49694 14.7112 10.132 14.0972 10.9333C13.4833 11.7347 13.0797 12.6769 12.9231 13.6742C12.7665 14.6715 12.862 15.6921 13.2008 16.6431C13.5396 17.594 14.111 18.4451 14.8629 19.1187L8.74688 30.9052C7.32308 30.4071 5.76457 30.4589 4.37696 31.0504C2.98935 31.6418 1.87273 32.7303 1.24606 34.1024C0.619384 35.4744 0.527858 37.0311 0.989428 38.4672C1.451 39.9032 2.43237 41.1151 3.7411 41.865C5.04984 42.615 6.59154 42.8491 8.0639 42.5213C9.53626 42.1935 10.8331 41.3276 11.7001 40.0932C12.567 38.8588 12.9416 37.3451 12.7504 35.8489C12.5592 34.3527 11.8159 32.9818 10.6664 32.0052L16.7164 20.2957C17.5855 20.6341 18.5218 20.7642 19.4502 20.6753C20.3786 20.5865 21.2732 20.2813 22.0624 19.7842L27.3094 24.6902C26.4908 25.7439 26.0475 27.0409 26.0499 28.3752C26.0512 29.3943 26.31 30.3965 26.8021 31.2888C27.2943 32.1812 28.0038 32.9348 28.865 33.4797C29.7262 34.0245 30.711 34.3431 31.7282 34.4057C32.7453 34.4683 33.7618 34.273 34.6833 33.8378C35.6048 33.4027 36.4014 32.7418 36.9993 31.9165C37.5971 31.0913 37.9769 30.1284 38.1032 29.1172C38.2295 28.106 38.0984 27.0792 37.722 26.1322C37.3455 25.1853 36.736 24.3487 35.9499 23.7002L42.0604 12.0292C42.89 12.3451 43.7791 12.4745 44.6644 12.4083C45.5496 12.3421 46.4095 12.0819 47.183 11.6461C47.9564 11.2104 48.6245 10.6097 49.1398 9.88679C49.6551 9.16387 50.0049 8.33641 50.1646 7.46311C50.3242 6.58982 50.2897 5.69209 50.0635 4.83362C49.8373 3.97516 49.4249 3.177 48.8557 2.49577C48.2864 1.81454 47.5742 1.26694 46.7696 0.891821C45.965 0.516701 45.0876 0.323256 44.1999 0.32521ZM6.79988 40.4752C6.03842 40.4752 5.29406 40.2494 4.66094 39.8264C4.02781 39.4033 3.53434 38.802 3.24294 38.0985C2.95155 37.395 2.8753 36.6209 3.02386 35.8741C3.17241 35.1273 3.53909 34.4413 4.07752 33.9028C4.61595 33.3644 5.30196 32.9977 6.04878 32.8492C6.79561 32.7006 7.56972 32.7769 8.27321 33.0683C8.97671 33.3597 9.578 33.8531 10.001 34.4863C10.4241 35.1194 10.6499 35.8637 10.6499 36.6252C10.6499 37.6463 10.2443 38.6255 9.52224 39.3476C8.80023 40.0696 7.82096 40.4752 6.79988 40.4752ZM15.0499 14.6252C15.0499 13.8637 15.2757 13.1194 15.6987 12.4863C16.1218 11.8531 16.7231 11.3597 17.4265 11.0683C18.13 10.7769 18.9042 10.7006 19.651 10.8492C20.3978 10.9977 21.0838 11.3644 21.6222 11.9028C22.1607 12.4413 22.5274 13.1273 22.6759 13.8741C22.8245 14.6209 22.7482 15.395 22.4568 16.0985C22.1654 16.802 21.672 17.4033 21.0388 17.8264C20.4057 18.2494 19.6613 18.4752 18.8999 18.4752C17.8788 18.4752 16.8995 18.0696 16.1775 17.3476C15.4555 16.6256 15.0499 15.6463 15.0499 14.6252ZM32.0999 32.2252C31.3384 32.2252 30.5941 31.9994 29.9609 31.5764C29.3278 31.1533 28.8343 30.552 28.5429 29.8485C28.2515 29.145 28.1753 28.3709 28.3239 27.6241C28.4724 26.8773 28.8391 26.1913 29.3775 25.6528C29.916 25.1144 30.602 24.7477 31.3488 24.5992C32.0956 24.4506 32.8697 24.5269 33.5732 24.8183C34.2767 25.1097 34.878 25.6031 35.301 26.2363C35.7241 26.8694 35.9499 27.6137 35.9499 28.3752C35.9499 29.3963 35.5443 30.3755 34.8222 31.0976C34.1002 31.8196 33.121 32.2252 32.0999 32.2252ZM44.1999 10.2252C43.6165 10.2242 43.0411 10.0907 42.5169 9.83471C42.4191 9.69752 42.2912 9.58462 42.1429 9.50471C42.0423 9.45438 41.9348 9.41917 41.8239 9.40021C41.1085 8.83695 40.6158 8.03836 40.4335 7.14627C40.2511 6.25417 40.3908 5.32632 40.8278 4.52749C41.2648 3.72866 41.9708 3.11057 42.8204 2.78299C43.67 2.45542 44.6081 2.43955 45.4683 2.73822C46.3285 3.03689 47.0549 3.63076 47.5187 4.41435C47.9824 5.19795 48.1535 6.12055 48.0014 7.0183C47.8493 7.91605 47.3839 8.73084 46.6879 9.31796C45.992 9.90508 45.1104 10.2265 44.1999 10.2252Z" fill="#9900FF"/>
</svg>
