<svg width="43" height="43" viewBox="0 0 43 43" fill="none" xmlns="http://www.w3.org/2000/svg">
<path d="M22.0299 0.830078C16.55 0.83709 11.2966 3.01707 7.42176 6.89193C3.5469 10.7668 1.36692 16.0202 1.35991 21.5001C1.35991 24.0706 1.35991 25.491 0.411208 27.3884C0.296225 27.6387 0.283211 27.924 0.374922 28.1837C0.466633 28.4435 0.655865 28.6573 0.902529 28.78C1.14919 28.9026 1.43391 28.9244 1.69638 28.8408C1.95884 28.7571 2.17842 28.5745 2.30861 28.3318C3.47991 25.9839 3.47991 24.1978 3.47991 21.5001C3.47991 16.5803 5.43428 11.862 8.91308 8.38325C12.3919 4.90445 17.1101 2.95008 22.0299 2.95008C26.9497 2.95008 31.6679 4.90445 35.1467 8.38325C38.6255 11.862 40.5799 16.5803 40.5799 21.5001C40.5799 21.569 40.5799 28.3106 39.5517 32.3757C39.4843 32.6476 39.5273 32.9352 39.6713 33.1756C39.8153 33.4159 40.0486 33.5895 40.3202 33.6583C40.4052 33.679 40.4924 33.6896 40.5799 33.6901C40.8159 33.6902 41.0452 33.6115 41.2315 33.4666C41.4177 33.3216 41.5503 33.1186 41.6081 32.8898C42.6999 28.565 42.6999 21.781 42.6999 21.5001C42.6929 16.0202 40.5129 10.7668 36.6381 6.89193C32.7632 3.01707 27.5098 0.83709 22.0299 0.830078V0.830078Z" fill="#9900FF"/>
<path d="M22.0294 7.18995C21.2429 7.18939 20.4577 7.2532 19.6815 7.38075C19.5441 7.40337 19.4124 7.45284 19.2941 7.52634C19.1757 7.59984 19.073 7.69594 18.9918 7.80913C18.9106 7.92232 18.8525 8.05041 18.8208 8.18606C18.7891 8.32171 18.7844 8.46228 18.807 8.59974C18.8297 8.73721 18.8791 8.86887 18.9526 8.98721C19.0261 9.10555 19.1222 9.20825 19.2354 9.28946C19.3486 9.37066 19.4767 9.42878 19.6124 9.46048C19.748 9.49219 19.8886 9.49686 20.026 9.47424C20.6881 9.36364 21.3582 9.30868 22.0294 9.30994C25.2624 9.30994 28.363 10.5942 30.6491 12.8803C32.9351 15.1664 34.2194 18.267 34.2194 21.4999C34.1911 23.5717 34.014 25.6387 33.6894 27.685C33.6645 27.8245 33.6677 27.9675 33.699 28.1056C33.7302 28.2437 33.7888 28.3742 33.8713 28.4893C33.9538 28.6045 34.0585 28.7019 34.1793 28.7758C34.3001 28.8498 34.4345 28.8988 34.5745 28.9199H34.7494C35.0027 28.9234 35.2489 28.8361 35.4434 28.6737C35.6378 28.5113 35.7677 28.2847 35.8094 28.0348C36.1465 25.8725 36.3236 23.6883 36.3394 21.4999C36.3394 17.7047 34.8318 14.0649 32.1481 11.3812C29.4645 8.6976 25.8247 7.18995 22.0294 7.18995V7.18995Z" fill="#9900FF"/>
<path d="M14.7588 11.711C14.9844 11.543 15.1341 11.2923 15.1748 11.014C15.2156 10.7357 15.1441 10.4526 14.9761 10.227C14.8081 10.0014 14.5574 9.85175 14.2791 9.811C14.0008 9.77025 13.7177 9.84172 13.4921 10.0097C11.7046 11.3459 10.2526 13.0798 9.25084 15.0741C8.2491 17.0683 7.72515 19.2684 7.72042 21.5001C7.72042 28.9201 5.28772 32.3757 5.25062 32.4234C5.08473 32.6492 5.01502 32.9316 5.05674 33.2087C5.09845 33.4858 5.24819 33.7351 5.47322 33.9021C5.5849 33.9853 5.71189 34.0457 5.84694 34.0799C5.98198 34.114 6.12243 34.1212 6.26025 34.101C6.39807 34.0808 6.53057 34.0337 6.65016 33.9623C6.76975 33.8908 6.87409 33.7966 6.95722 33.6848C7.07382 33.5258 9.84042 29.7045 9.84042 21.4948C9.83242 19.592 10.2737 17.7142 11.1283 16.0141C11.983 14.314 13.2269 12.8397 14.7588 11.711V11.711Z" fill="#9900FF"/>
<path d="M14.6102 26.8003C14.3291 26.8003 14.0595 26.912 13.8607 27.1108C13.6619 27.3095 13.5502 27.5792 13.5502 27.8603C13.5502 31.7664 10.3702 37.4003 10.3384 37.4586C10.2694 37.5797 10.2249 37.7132 10.2075 37.8514C10.1901 37.9897 10.2002 38.1301 10.2371 38.2645C10.274 38.3989 10.3371 38.5247 10.4227 38.6347C10.5083 38.7447 10.6147 38.8367 10.7359 38.9055C10.8985 38.9944 11.0806 39.0418 11.2659 39.0433C11.4527 39.044 11.6364 38.9954 11.7983 38.9023C11.9602 38.8093 12.0947 38.6751 12.1881 38.5133C12.3259 38.2536 15.6702 32.3229 15.6702 27.8603C15.6702 27.5792 15.5585 27.3095 15.3597 27.1108C15.161 26.912 14.8913 26.8003 14.6102 26.8003Z" fill="#9900FF"/>
<path d="M22.0723 20.4399C21.792 20.4284 21.5186 20.5285 21.3119 20.7182C21.1053 20.908 20.9823 21.1719 20.9699 21.4522C20.9699 21.59 20.4081 34.9301 16.3854 39.7637C16.2271 39.982 16.158 40.2525 16.1921 40.52C16.2263 40.7876 16.3611 41.032 16.5692 41.2036C16.7773 41.3752 17.0429 41.4611 17.3121 41.4436C17.5812 41.4262 17.8336 41.3068 18.0178 41.1099C22.4963 35.7357 23.0899 22.1147 23.0899 21.537C23.0999 21.2567 22.9985 20.9838 22.8078 20.7782C22.617 20.5726 22.3526 20.4509 22.0723 20.4399V20.4399Z" fill="#9900FF"/>
<path d="M22.0294 14.0801C20.0615 14.0801 18.1742 14.8618 16.7826 16.2533C15.3911 17.6449 14.6094 19.5322 14.6094 21.5001C14.6094 21.7812 14.7211 22.0508 14.9198 22.2496C15.1186 22.4484 15.3882 22.5601 15.6694 22.5601C15.9505 22.5601 16.2201 22.4484 16.4189 22.2496C16.6177 22.0508 16.7294 21.7812 16.7294 21.5001C16.7357 20.0944 17.3002 18.7489 18.2986 17.7594C19.297 16.7699 20.6476 16.2176 22.0532 16.2239C23.4589 16.2303 24.8044 16.7947 25.7939 17.7931C26.7834 18.7915 27.3357 20.1421 27.3294 21.5478C27.3294 21.6591 27.7852 33.0117 23.2431 40.5748C23.1019 40.8167 23.0622 41.1047 23.1327 41.3759C23.2032 41.647 23.3782 41.8792 23.6194 42.0217C23.7793 42.1184 23.9625 42.1697 24.1494 42.1701C24.3335 42.168 24.5138 42.1181 24.6728 42.0252C24.8317 41.9322 24.9636 41.7995 25.0557 41.6401C29.937 33.5417 29.4494 21.9347 29.4494 21.5001C29.4494 19.5322 28.6676 17.6449 27.2761 16.2533C25.8846 14.8618 23.9973 14.0801 22.0294 14.0801V14.0801Z" fill="#9900FF"/>
<path d="M33.8639 33.1603C33.7249 33.1353 33.5822 33.1383 33.4444 33.1692C33.3066 33.2001 33.1763 33.2583 33.0612 33.3402C32.9462 33.4222 32.8487 33.5263 32.7745 33.6465C32.7002 33.7667 32.6508 33.9005 32.629 34.0401C32.4655 35.2106 32.1832 36.3613 31.7863 37.4745C31.7055 37.5879 31.6479 37.7162 31.6168 37.8519C31.5856 37.9876 31.5814 38.1281 31.6046 38.2654C31.6277 38.4027 31.6777 38.5341 31.7516 38.6522C31.8255 38.7702 31.9219 38.8725 32.0354 38.9532C32.1488 39.0339 32.2771 39.0915 32.4128 39.1227C32.5485 39.1539 32.689 39.158 32.8263 39.1349C32.9636 39.1118 33.095 39.0618 33.213 38.9879C33.3311 38.914 33.4333 38.8175 33.5141 38.7041C34.0865 37.8985 34.5741 35.4181 34.7172 34.3899C34.7666 34.1137 34.7046 33.8292 34.5446 33.5988C34.3847 33.3683 34.1399 33.2106 33.8639 33.1603Z" fill="#9900FF"/>
</svg>
